<?xml version="1.0" encoding="UTF-8"?>
<svg id="Layer_1" data-name="Layer 1" xmlns="http://www.w3.org/2000/svg" version="1.1" viewBox="0 0 1440 720">
  <defs>
    <style>
      .cls-1 {
        fill: #23069e;
        stroke-width: 0px;
      }
    </style>
  </defs>
  <path class="cls-1" d="M1409.1,575.5c-1.6,0-3-1.3-3-3s1.3-3,3-3,3,1.3,3,3-1.3,3-3,3Z"/>
  <circle class="cls-1" cx="72" cy="607.7" r="2.2"/>
  <path class="cls-1" d="M953.2,13.1c-1.5,0-2.7-1.2-2.7-2.7s1.2-2.7,2.7-2.7,2.7,1.2,2.7,2.7-1.2,2.7-2.7,2.7Z"/>
  <path class="cls-1" d="M437.3,711.4c-1.1,0-1.9-.9-1.9-1.9s.9-1.9,1.9-1.9,1.9.9,1.9,1.9-.9,1.9-1.9,1.9Z"/>
  <path class="cls-1" d="M272.4,97.9c-.9,0-1.7-.8-1.7-1.7s.8-1.7,1.7-1.7,1.7.8,1.7,1.7-.8,1.7-1.7,1.7Z"/>
  <path class="cls-1" d="M489,332.9c-1.4,0-2.6-1.2-2.6-2.6s1.2-2.6,2.6-2.6,2.6,1.2,2.6,2.6-1.2,2.6-2.6,2.6Z"/>
  <circle class="cls-1" cx="1365.6" cy="306.5" r="2.8"/>
  <circle class="cls-1" cx="728.5" cy="521.9" r="2.1"/>
  <path class="cls-1" d="M1104.9,240.6c-1.3,0-2.4-1.1-2.4-2.4s1.1-2.4,2.4-2.4,2.4,1.1,2.4,2.4-1.1,2.4-2.4,2.4Z"/>
  <path class="cls-1" d="M943.4,631.8c-.9,0-1.6-.7-1.6-1.6s.7-1.6,1.6-1.6,1.6.7,1.6,1.6-.7,1.6-1.6,1.6Z"/>
  <path class="cls-1" d="M296.2,469.3c-1.5,0-2.8-1.2-2.8-2.8s1.2-2.8,2.8-2.8,2.8,1.2,2.8,2.8-1.2,2.8-2.8,2.8Z"/>
  <path class="cls-1" d="M1352,60.5c-1.4,0-2.5-1.1-2.5-2.5s1.1-2.5,2.5-2.5,2.5,1.1,2.5,2.5-1.1,2.5-2.5,2.5Z"/>
  <path class="cls-1" d="M850.1,296.2c-.8,0-1.5-.7-1.5-1.5s.7-1.5,1.5-1.5,1.5.7,1.5,1.5-.7,1.5-1.5,1.5Z"/>
  <circle class="cls-1" cx="1161.8" cy="515.9" r="2.7"/>
  <circle class="cls-1" cx="79.9" cy="339.8" r="1.6"/>
  <path class="cls-1" d="M34.7,63.8c-1.5,0-2.7-1.2-2.7-2.7s1.2-2.7,2.7-2.7,2.7,1.2,2.7,2.7-1.2,2.7-2.7,2.7Z"/>
  <circle class="cls-1" cx="659.7" cy="157.1" r="1.8"/>
  <path class="cls-1" d="M237.3,645.8c-.9,0-1.6-.7-1.6-1.6s.7-1.6,1.6-1.6,1.6.7,1.6,1.6-.7,1.6-1.6,1.6Z"/>
  <circle class="cls-1" cx="501" cy="96.2" r="1.6"/>
  <path class="cls-1" d="M919.4,694.5c-.6,0-1-.4-1-1s.4-1,1-1,1,.4,1,1-.4,1-1,1Z"/>
  <circle class="cls-1" cx="1136.3" cy="368.4" r="2"/>
  <path class="cls-1" d="M514.3,496c-.6,0-1.1-.5-1.1-1.1s.5-1.1,1.1-1.1,1.1.5,1.1,1.1-.5,1.1-1.1,1.1Z"/>
  <path class="cls-1" d="M126.5,174.3c-.7,0-1.3-.6-1.3-1.3s.6-1.3,1.3-1.3,1.3.6,1.3,1.3-.6,1.3-1.3,1.3Z"/>
  <circle class="cls-1" cx="1147.9" cy="694.4" r="1.8"/>
  <path class="cls-1" d="M1288.9,157.2c-.9,0-1.6-.7-1.6-1.6s.7-1.6,1.6-1.6,1.6.7,1.6,1.6-.7,1.6-1.6,1.6Z"/>
  <path class="cls-1" d="M629.2,712.8c-.6,0-1.1-.5-1.1-1.1s.5-1.1,1.1-1.1,1.1.5,1.1,1.1-.5,1.1-1.1,1.1Z"/>
  <circle class="cls-1" cx="189.3" cy="30.4" r="1.2"/>
  <path class="cls-1" d="M472.6,283c-.5,0-1-.4-1-1s.4-1,1-1,1,.4,1,1-.4,1-1,1Z"/>
  <path class="cls-1" d="M449.2,684.6c-.5,0-1-.4-1-1s.4-1,1-1,1,.4,1,1-.4,1-1,1Z"/>
  <path class="cls-1" d="M309.2,177c-1,0-1.9-.8-1.9-1.9s.8-1.9,1.9-1.9,1.9.8,1.9,1.9-.8,1.9-1.9,1.9Z"/>
  <path class="cls-1" d="M691.9,441.4c-1,0-1.8-.8-1.8-1.8s.8-1.8,1.8-1.8,1.8.8,1.8,1.8-.8,1.8-1.8,1.8Z"/>
  <path class="cls-1" d="M1320.4,353.5c-.6,0-1-.5-1-1s.5-1,1-1,1,.5,1,1-.5,1-1,1Z"/>
  <path class="cls-1" d="M1285.3,548.4c-.6,0-1.2-.5-1.2-1.2s.5-1.2,1.2-1.2,1.2.5,1.2,1.2-.5,1.2-1.2,1.2Z"/>
  <path class="cls-1" d="M329,525.1c-.7,0-1.3-.6-1.3-1.3s.6-1.3,1.3-1.3,1.3.6,1.3,1.3-.6,1.3-1.3,1.3Z"/>
  <path class="cls-1" d="M1060.3,145.4c-.6,0-1.1-.5-1.1-1.1s.5-1.1,1.1-1.1,1.1.5,1.1,1.1-.5,1.1-1.1,1.1Z"/>
  <circle class="cls-1" cx="815.2" cy="165.5" r="1.1"/>
  <circle class="cls-1" cx="880.3" cy="8.6" r="1.4"/>
  <path class="cls-1" d="M897,429.4c-.8,0-1.5-.7-1.5-1.5s.7-1.5,1.5-1.5,1.5.7,1.5,1.5-.7,1.5-1.5,1.5Z"/>
  <path class="cls-1" d="M1057.8,548.2c-.8,0-1.5-.7-1.5-1.5s.7-1.5,1.5-1.5,1.5.7,1.5,1.5-.7,1.5-1.5,1.5Z"/>
  <circle class="cls-1" cx="939.3" cy="266.5" r="1.5"/>
  <circle class="cls-1" cx="111.8" cy="331.7" r="1.4"/>
  <path class="cls-1" d="M678,278.1c-.6,0-1.1-.5-1.1-1.1s.5-1.1,1.1-1.1,1.1.5,1.1,1.1-.5,1.1-1.1,1.1Z"/>
  <circle class="cls-1" cx="758.7" cy="623" r=".9"/>
  <path class="cls-1" d="M104.9,545.5c-.7,0-1.3-.6-1.3-1.3s.6-1.3,1.3-1.3,1.3.6,1.3,1.3-.6,1.3-1.3,1.3Z"/>
  <circle class="cls-1" cx="285.5" cy="371.8" r=".9"/>
  <path class="cls-1" d="M30.9,575.5c1.6,0,3-1.3,3-3s-1.3-3-3-3-3,1.3-3,3,1.3,3,3,3Z"/>
  <circle class="cls-1" cx="1368" cy="607.7" r="2.2"/>
  <path class="cls-1" d="M486.8,13.1c1.5,0,2.7-1.2,2.7-2.7s-1.2-2.7-2.7-2.7-2.7,1.2-2.7,2.7,1.2,2.7,2.7,2.7Z"/>
  <path class="cls-1" d="M1002.7,711.4c1.1,0,1.9-.9,1.9-1.9s-.9-1.9-1.9-1.9-1.9.9-1.9,1.9.9,1.9,1.9,1.9Z"/>
  <path class="cls-1" d="M1167.6,97.9c.9,0,1.7-.8,1.7-1.7s-.8-1.7-1.7-1.7-1.7.8-1.7,1.7.8,1.7,1.7,1.7Z"/>
  <path class="cls-1" d="M950.9,332.9c1.4,0,2.6-1.2,2.6-2.6s-1.2-2.6-2.6-2.6-2.6,1.2-2.6,2.6,1.2,2.6,2.6,2.6Z"/>
  <path class="cls-1" d="M74.4,309.3c1.6,0,2.8-1.3,2.8-2.8s-1.3-2.8-2.8-2.8-2.8,1.3-2.8,2.8,1.3,2.8,2.8,2.8Z"/>
  <circle class="cls-1" cx="711.5" cy="521.9" r="2.1"/>
  <path class="cls-1" d="M335.1,240.6c1.3,0,2.4-1.1,2.4-2.4s-1.1-2.4-2.4-2.4-2.4,1.1-2.4,2.4,1.1,2.4,2.4,2.4Z"/>
  <path class="cls-1" d="M496.6,631.8c.9,0,1.6-.7,1.6-1.6s-.7-1.6-1.6-1.6-1.6.7-1.6,1.6.7,1.6,1.6,1.6Z"/>
  <path class="cls-1" d="M1143.8,469.3c1.5,0,2.8-1.2,2.8-2.8s-1.2-2.8-2.8-2.8-2.8,1.2-2.8,2.8,1.2,2.8,2.8,2.8Z"/>
  <path class="cls-1" d="M88,60.5c1.4,0,2.5-1.1,2.5-2.5s-1.1-2.5-2.5-2.5-2.5,1.1-2.5,2.5,1.1,2.5,2.5,2.5Z"/>
  <path class="cls-1" d="M589.9,296.2c.8,0,1.5-.7,1.5-1.5s-.7-1.5-1.5-1.5-1.5.7-1.5,1.5.7,1.5,1.5,1.5Z"/>
  <circle class="cls-1" cx="278.2" cy="515.9" r="2.7"/>
  <circle class="cls-1" cx="1360.1" cy="339.8" r="1.6"/>
  <path class="cls-1" d="M1405.3,63.8c1.5,0,2.7-1.2,2.7-2.7s-1.2-2.7-2.7-2.7-2.7,1.2-2.7,2.7,1.2,2.7,2.7,2.7Z"/>
  <circle class="cls-1" cx="780.3" cy="157.1" r="1.8"/>
  <path class="cls-1" d="M1202.7,645.8c.9,0,1.6-.7,1.6-1.6s-.7-1.6-1.6-1.6-1.6.7-1.6,1.6.7,1.6,1.6,1.6Z"/>
  <circle class="cls-1" cx="939" cy="96.2" r="1.6"/>
  <path class="cls-1" d="M520.6,694.5c.6,0,1-.4,1-1s-.4-1-1-1-1,.4-1,1,.4,1,1,1Z"/>
  <circle class="cls-1" cx="303.7" cy="368.4" r="2"/>
  <path class="cls-1" d="M925.7,496c.6,0,1.1-.5,1.1-1.1s-.5-1.1-1.1-1.1-1.1.5-1.1,1.1.5,1.1,1.1,1.1Z"/>
  <circle class="cls-1" cx="1313.5" cy="173" r="1.3"/>
  <path class="cls-1" d="M292.1,696.2c1,0,1.8-.8,1.8-1.8s-.8-1.8-1.8-1.8-1.7.8-1.7,1.8.8,1.8,1.7,1.8Z"/>
  <circle class="cls-1" cx="151.1" cy="155.6" r="1.6"/>
  <circle class="cls-1" cx="810.8" cy="711.7" r="1.1"/>
  <circle class="cls-1" cx="1250.7" cy="30.4" r="1.2"/>
  <path class="cls-1" d="M967.4,283c.5,0,1-.4,1-1s-.4-1-1-1-1,.4-1,1,.4,1,1,1Z"/>
  <path class="cls-1" d="M990.8,684.6c.5,0,1-.4,1-1s-.4-1-1-1-1,.4-1,1,.4,1,1,1Z"/>
  <path class="cls-1" d="M1130.8,177c1,0,1.9-.8,1.9-1.9s-.8-1.9-1.9-1.9-1.9.8-1.9,1.9.8,1.9,1.9,1.9Z"/>
  <path class="cls-1" d="M748.1,441.4c1,0,1.8-.8,1.8-1.8s-.8-1.8-1.8-1.8-1.8.8-1.8,1.8.8,1.8,1.8,1.8Z"/>
  <path class="cls-1" d="M119.6,353.5c.6,0,1-.5,1-1s-.5-1-1-1-1,.5-1,1,.5,1,1,1Z"/>
  <path class="cls-1" d="M154.7,548.4c.6,0,1.2-.5,1.2-1.2s-.5-1.2-1.2-1.2-1.2.5-1.2,1.2.5,1.2,1.2,1.2Z"/>
  <path class="cls-1" d="M1111,525.1c.7,0,1.3-.6,1.3-1.3s-.6-1.3-1.3-1.3-1.3.6-1.3,1.3.6,1.3,1.3,1.3Z"/>
  <path class="cls-1" d="M379.7,145.4c.6,0,1.1-.5,1.1-1.1s-.5-1.1-1.1-1.1-1.1.5-1.1,1.1.5,1.1,1.1,1.1Z"/>
  <circle class="cls-1" cx="624.8" cy="165.5" r="1.1"/>
  <circle class="cls-1" cx="559.7" cy="8.6" r="1.4"/>
  <path class="cls-1" d="M543,429.4c.8,0,1.5-.7,1.5-1.5s-.7-1.5-1.5-1.5-1.5.7-1.5,1.5.7,1.5,1.5,1.5Z"/>
  <path class="cls-1" d="M382.2,548.2c.8,0,1.5-.7,1.5-1.5s-.7-1.5-1.5-1.5-1.5.7-1.5,1.5.7,1.5,1.5,1.5Z"/>
  <path class="cls-1" d="M500.7,268c.8,0,1.5-.7,1.5-1.5s-.7-1.5-1.5-1.5-1.5.7-1.5,1.5.7,1.5,1.5,1.5Z"/>
  <circle class="cls-1" cx="1328.2" cy="331.7" r="1.4"/>
  <path class="cls-1" d="M762,278.1c.6,0,1.1-.5,1.1-1.1s-.5-1.1-1.1-1.1-1.1.5-1.1,1.1.5,1.1,1.1,1.1Z"/>
  <circle class="cls-1" cx="681.3" cy="623" r=".9"/>
  <path class="cls-1" d="M1335.1,545.5c.7,0,1.3-.6,1.3-1.3s-.6-1.3-1.3-1.3-1.3.6-1.3,1.3.6,1.3,1.3,1.3Z"/>
  <circle class="cls-1" cx="1154.5" cy="371.8" r=".9"/>
</svg>