<?xml version="1.0" encoding="UTF-8"?>
<svg id="Layer_1" data-name="Layer 1" xmlns="http://www.w3.org/2000/svg" xmlns:xlink="http://www.w3.org/1999/xlink" viewBox="0 0 15.34 15.34">
  <defs>
    <style>
      .cls-1 {
        fill: url(#linear-gradient);
        stroke-width: 0px;
      }
    </style>
    <linearGradient id="linear-gradient" x1="9.33" y1="11.78" x2="5.92" y2="3.33" gradientUnits="userSpaceOnUse">
      <stop offset="0" stop-color="#512bd4"/>
      <stop offset="1" stop-color="#927be5"/>
    </linearGradient>
  </defs>
  <path class="cls-1" d="M11.52,4.71l-3.21-1.85c-.39-.23-.88-.23-1.28,0l-3.2,1.85c-.4.23-.64.65-.64,1.11v3.7c0,.46.24.88.64,1.11l3.2,1.85c.4.23.89.23,1.28,0l3.21-1.85c.4-.23.64-.65.64-1.11v-3.7c0-.46-.24-.88-.64-1.11ZM5.75,8.63c.18,0,.32-.14.32-.32s.14-.32.32-.32.32.14.32.32c0,.53-.43.96-.96.96s-.96-.43-.96-.96v-1.28c0-.53.43-.96.96-.96s.96.43.96.96c0,.18-.14.32-.32.32s-.32-.14-.32-.32-.14-.32-.32-.32-.32.14-.32.32v1.28c0,.18.14.32.32.32ZM10.24,8.63h-.32v.32c0,.09-.04.17-.1.23-.12.12-.32.12-.45,0-.06-.06-.09-.14-.09-.23v-.32h-.64v.32c0,.18-.15.32-.32.32h0c-.17,0-.32-.14-.32-.32v-.32h-.32c-.17,0-.32-.14-.32-.32s.15-.32.32-.32h.32v-.64h-.32c-.17,0-.32-.14-.32-.32s.15-.32.32-.32h.32v-.32c0-.18.15-.32.32-.32.18,0,.33.14.33.32v.32h.64v-.32c0-.18.14-.32.32-.32.17,0,.32.14.32.32v.32h.32c.08,0,.16.03.22.09.13.13.13.33,0,.45h0c-.06.06-.14.1-.22.1h-.32v.64h.32c.18,0,.32.14.32.32s-.14.32-.32.32ZM8.64,7.99h.64v-.64h-.64v.64Z"/>
</svg>