<?xml version="1.0" encoding="UTF-8"?>
<svg xmlns="http://www.w3.org/2000/svg" version="1.1" xmlns:xlink="http://www.w3.org/1999/xlink" viewBox="0 0 449.2 405">
  <defs>
    <style>
      .cls-1 {
        fill: #0a0613;
      }

      .cls-1, .cls-2, .cls-3, .cls-4, .cls-5, .cls-6, .cls-7, .cls-8 {
        stroke-width: 0px;
      }

      .cls-2 {
        fill: #7105e2;
      }

      .cls-3 {
        fill: #9013fe;
      }

      .cls-4, .cls-6 {
        fill: #e8d2ff;
      }

      .cls-5 {
        fill: none;
      }

      .cls-9 {
        opacity: .3;
      }

      .cls-6 {
        isolation: isolate;
        opacity: .1;
      }

      .cls-7 {
        fill: #fff;
      }

      .cls-10 {
        fill: url(#linear-gradient);
        opacity: .4;
        stroke: url(#linear-gradient-2);
        stroke-miterlimit: 10;
      }

      .cls-8 {
        fill: #d8d8d8;
      }
    </style>
    <linearGradient id="linear-gradient" x1="25.7" y1="7.1" x2="451.5" y2="364.5" gradientUnits="userSpaceOnUse">
      <stop offset="0" stop-color="#fff" stop-opacity="0"/>
      <stop offset="0" stop-color="rgba(255, 255, 255, 0)" stop-opacity="0"/>
      <stop offset=".2" stop-color="rgba(255, 255, 255, 0)" stop-opacity="0"/>
      <stop offset=".3" stop-color="rgba(255, 255, 255, .2)" stop-opacity=".2"/>
      <stop offset=".4" stop-color="rgba(255, 255, 255, .4)" stop-opacity=".4"/>
      <stop offset=".5" stop-color="rgba(255, 255, 255, .6)" stop-opacity=".6"/>
      <stop offset=".5" stop-color="#fff" stop-opacity=".6"/>
      <stop offset=".6" stop-color="rgba(255, 255, 255, .6)" stop-opacity=".6"/>
      <stop offset=".7" stop-color="rgba(255, 255, 255, .5)" stop-opacity=".5"/>
      <stop offset=".8" stop-color="rgba(255, 255, 255, .4)" stop-opacity=".4"/>
      <stop offset=".9" stop-color="rgba(255, 255, 255, .2)" stop-opacity=".2"/>
      <stop offset="1" stop-color="#fff" stop-opacity="0"/>
    </linearGradient>
    <linearGradient id="linear-gradient-2" x1="1.7" y1="202.5" x2="447.5" y2="202.5" gradientUnits="userSpaceOnUse">
      <stop offset="0" stop-color="#fff" stop-opacity=".8"/>
      <stop offset="1" stop-color="#fff" stop-opacity=".2"/>
    </linearGradient>
  </defs>
  <g id="marco">
    <g>
      <polygon class="cls-7" points="12.5 269.2 29.4 269.2 9.5 289.1 19.2 298.8 38.8 279.3 38.8 295.6 50.7 295.6 50.7 257.4 12.5 257.4 12.5 269.2"/>
      <path class="cls-10" d="M391,2.5H58.2C27.4,2.5,2.2,24.1,2.2,50.5v163.7c0,15.3,14.6,27.8,32.4,27.8h0c19.6,0,35.4,13.6,35.4,30.4v82c0,26.4,25.2,48.1,56,48.1h264.9c30.8,0,56-21.6,56-48.1V50.5c0-26.4-25.2-48.1-56-48.1Z"/>
    </g>
  </g>
  <g id="star1">
    <path class="cls-7" d="M88.9,357.5c19,.7,19.5,1.3,20.2,21.6.6-20.3,1.2-20.9,20.2-21.6-19-.7-19.5-1.3-20.2-21.6-.6,20.3-1.2,20.9-20.2,21.6Z"/>
  </g>
  <g id="star2">
    <path class="cls-7" d="M118.9,338.7c9.7.3,10,.6,10.3,10.3.3-9.7.6-10,10.3-10.3-9.7-.3-10-.6-10.3-10.3-.3,9.7-.6,10-10.3,10.3Z"/>
  </g>
  <g id="star3">
    <path class="cls-7" d="M370.8,76.8c23.7.8,24.4,1.5,25.2,25.2.8-23.7,1.5-24.4,25.2-25.2-23.7-.8-24.4-1.5-25.2-25.2-.8,23.7-1.5,24.4-25.2,25.2Z"/>
  </g>
  <g id="star4">
    <path class="cls-7" d="M356.6,51.6c13.3.5,13.7.8,14.1,14.1.5-13.3.8-13.7,14.1-14.1-13.3-.5-13.7-.8-14.1-14.1-.5,13.3-.8,13.7-14.1,14.1Z"/>
  </g>
  <g id="tube">
    <path class="cls-1" d="M198.5,324.1c-11.1,0-21.8-3.7-30.7-10.7-10-7.9-17-19.2-19.6-32-4.6-22.1,5.3-41.3,8.4-46.6,2.3-4,7.5-5.4,11.5-3,4,2.3,5.4,7.5,3,11.5-1.7,2.9-9.9,18.1-6.4,34.8,3.6,17.3,17.8,29.3,33.9,29.3,1.3,0,2.5,0,3.8-.2,4.6-.5,8.8,2.8,9.3,7.4s-2.8,8.8-7.4,9.3c-1.9.2-3.9.3-5.8.3h0Z"/>
  </g>
  <g id="armL">
    <g>
      <g>
        <path class="cls-7" d="M203,251.8c-3.5-2.4-19.8,11.5-52.2,39.3-.8.7-1.8,1.5-2.8,2.5-.6.6-1.2,1.2-1.9,1.9-.6.7-1.2,1.4-1.7,2.1-1.9,2.6-3.3,5.7-3.1,9.2.2,4.6,3.1,8.8,6.3,11,5.4,3.8,12.6,3.1,18.5,1.4,1-.3,2-.6,2.9-.9.9-.3,1.7-.6,2.4-.9,2.5-1,4.4-2,5-2.4,26.2-14,35.8-57.1,26.6-63.3ZM175.1,312.7c-1.2.6-3.1,1.6-5.5,2.5-.9.4-1.8.7-2.8,1-1,.3-1.9.6-2.9.9-5,1.2-10.6,1.5-14.7-1.4-2.3-1.6-5-4.9-5.2-9-.1-2.6.9-5,2.4-7.2.5-.8,1.1-1.5,1.7-2.1.6-.7,1.2-1.4,1.9-1.9,1-.9,1.9-1.7,2.6-2.4,14.8-12.7,26.6-22.7,35-29.4,4.3-3.4,7.6-5.8,10.1-7.4,2.5-1.6,3.7-2,4.2-2.1,1.1,1.1,2.2,4.2,1.9,9.8-.8,14.3-10.1,38.8-28.6,48.6h0Z"/>
        <path class="cls-1" d="M204.5,249.6c-2.4-1.6-5.5-.3-7.9,1.1-2.6,1.4-5.9,3.8-10.5,7.3-8.6,6.7-20.5,16.9-37.1,31-3.2,2.8-10.8,9.2-10.4,17.9.3,6,4,10.7,7.4,13.1,3.1,2.2,6.8,3.3,11.2,3.3s5.4-.4,8.4-1.2c2.7-.7,7-2.1,12-4.8,11.4-6.1,18.7-16.7,22.9-24.5,4.9-9.2,8.1-19.9,8.5-28.6,0-.8,0-1.5,0-2.2,0-6.2-1.6-10.6-4.6-12.6h0ZM203.6,264.1c-.8,14.3-10.1,38.8-28.6,48.6-1.2.6-3.1,1.6-5.5,2.5-.9.4-1.8.7-2.8,1-1,.3-1.9.6-2.9.9-5,1.2-10.6,1.5-14.7-1.4-2.3-1.6-5-4.9-5.2-9-.1-2.6.9-5,2.4-7.2.5-.8,1.1-1.5,1.7-2.1.6-.7,1.2-1.4,1.9-1.9,1-.9,1.9-1.7,2.6-2.4,14.8-12.7,26.6-22.7,35-29.4,4.3-3.4,7.6-5.8,10.1-7.4,2.5-1.6,3.7-2,4.2-2.1,1.1,1.1,2.2,4.2,1.9,9.8h0Z"/>
        <path class="cls-3" d="M163.9,317.1c-5,1.2-10.6,1.5-14.7-1.4-2.3-1.6-5-4.9-5.2-9-.1-2.6.9-5,2.4-7.2l17.6,17.6Z"/>
        <path class="cls-7" d="M203.6,264.1c-.8,14.3-10.1,38.8-28.6,48.6-1.2.6-3.1,1.6-5.5,2.5-.9.4-1.8.7-2.8,1-1,.3-1.9.6-2.9.9l-17.6-17.6c.5-.8,1.1-1.5,1.7-2.1.6-.7,1.2-1.4,1.9-1.9,1-.9,1.9-1.7,2.6-2.4,14.8-12.7,26.6-22.7,35-29.4,4.3-3.4,7.6-5.8,10.1-7.4,2.5-1.6,3.7-2,4.2-2.1,1.1,1.1,2.2,4.2,1.9,9.8h0Z"/>
      </g>
      <g>
        <path class="cls-5" d="M145.1,294.6c8.2,8.2,16.4,16.4,24.6,24.6"/>
        <polygon class="cls-1" points="171.6 317.2 171.3 317.5 167.8 321 166.1 319.3 163.9 317.1 146.3 299.6 144.4 297.6 143.2 296.5 145.1 294.6 147 292.7 147.9 293.6 149.8 295.5 169.6 315.3 171.6 317.2"/>
      </g>
    </g>
  </g>
  <g id="armR">
    <g>
      <path class="cls-7" d="M305.1,298c-.5-.8-1.1-1.5-1.7-2.1-.6-.7-1.2-1.4-1.8-2-1.1-1.1-2.2-2.1-3.1-2.8-32.5-27.8-48.7-41.7-52.2-39.3-9.1,6.2.4,49.3,26.6,63.3.7.4,3,1.6,6.1,2.8.6.2,1.2.4,1.8.7.9.3,1.9.6,2.9.9,5.8,1.6,12.7,2.2,18-1.6,3.2-2.3,6.1-6.4,6.3-11,.2-3.3-1.1-6.3-2.8-8.8ZM305.2,306.7c-.2,4-2.9,7.4-5.2,9-2.4,1.7-5.2,2.3-8.1,2.3s-4.1-.3-6.1-.8c-1-.2-2-.5-3-.8-1-.3-1.9-.6-2.8-1-2.6-1-4.7-2.1-5.9-2.7-18.4-9.8-27.8-34.4-28.5-48.6-.3-5.7.8-8.8,1.9-9.8.5,0,1.7.5,4.2,2.1,2.5,1.6,5.8,4,10.1,7.4,8.4,6.6,20.1,16.7,35,29.4.8.7,1.9,1.6,3,2.7.6.6,1.2,1.3,1.8,2,.6.7,1.1,1.4,1.6,2.2,1.3,2,2.2,4.3,2.1,6.8h0Z"/>
      <path class="cls-3" d="M305.2,306.7c-.2,4-2.9,7.4-5.2,9-2.4,1.7-5.2,2.3-8.1,2.3s-4.1-.3-6.1-.8l17.3-17.3c1.3,2,2.2,4.3,2.1,6.8h0Z"/>
      <path class="cls-7" d="M303.1,300l-17.3,17.3c-1-.2-2-.5-3-.8-1-.3-1.9-.6-2.8-1-2.6-1-4.7-2.1-5.9-2.7-18.4-9.8-27.8-34.4-28.5-48.6-.3-5.7.8-8.8,1.9-9.8.5,0,1.7.5,4.2,2.1,2.5,1.6,5.8,4,10.1,7.4,8.4,6.6,20.1,16.7,35,29.4.8.7,1.9,1.6,3,2.7.6.6,1.2,1.3,1.8,2,.6.7,1.1,1.4,1.6,2.2h0Z"/>
      <path class="cls-1" d="M300.2,289h0c-16.5-14.1-28.5-24.4-37.1-31-4.6-3.6-7.9-5.9-10.5-7.3-1.6-.9-3.6-1.8-5.4-1.8s-1.7.2-2.5.7c-3.3,2.3-4.9,7.4-4.5,14.8.5,8.7,3.7,19.4,8.5,28.6,4.1,7.8,11.4,18.4,22.9,24.5,5,2.7,9.3,4.1,12,4.8,3,.8,5.8,1.2,8.4,1.2,4.4,0,8.1-1.1,11.2-3.3,3.4-2.4,7.2-7.2,7.4-13.1.4-8.7-7.2-15.2-10.4-17.9ZM245.6,264.1c-.3-5.7.8-8.8,1.9-9.8.5,0,1.7.5,4.2,2.1,2.5,1.6,5.8,4,10.1,7.4,8.4,6.6,20.1,16.7,35,29.4.8.7,1.9,1.6,3,2.7l-19.6,19.6h0c-2.6-1-4.7-2.1-5.9-2.7-18.4-9.8-27.8-34.4-28.5-48.6ZM305.2,306.7h0c-.2,4-2.9,7.4-5.2,9-2.4,1.7-5.2,2.3-8.1,2.3s-4.1-.3-6.1-.8l17.3-17.3s0,0,0,0c1.3,2,2.2,4.3,2.1,6.8Z"/>
    </g>
    <rect class="cls-7" x="243.5" y="271.6" width="25.8" height="25.8"/>
  </g>
  <g id="body">
    <g>
      <g>
        <path class="cls-7" d="M271.5,289.7c-4.2-14.2-11.5-33.9-24.5-55.9h-44.7c-13,22-20.3,41.6-24.5,55.9-6.8,22.9-11.6,39.8-4.1,57.2,1.4,3.3,10.1,22.5,24.5,23.2,12.9.6,22.7-13.9,26.4-19.5,3.7,5.7,13.5,20.2,26.4,19.5,14.5-.7,23.1-19.9,24.5-23.2,7.5-17.4,2.7-34.3-4.1-57.2h0Z"/>
        <path class="cls-1" d="M250.2,372.9c-6,0-11.9-2.7-17.7-8.2-3.3-3.1-6-6.6-7.9-9.3-1.9,2.7-4.6,6.2-7.9,9.3-6.1,5.7-12.3,8.4-18.6,8.1-6.9-.3-13.3-4.3-19.1-11.7-4.2-5.3-6.8-11-7.7-13.1-3.7-8.5-4.8-17.4-3.5-28,1.1-9.1,3.8-18.7,7.5-31.1,5.8-19.5,14.2-38.5,24.8-56.5.5-.8,1.4-1.3,2.3-1.3h44.7c1,0,1.8.5,2.3,1.3,10.6,17.9,19,37,24.8,56.5,3.7,12.5,6.4,22,7.5,31.1,1.3,10.5.1,19.4-3.5,27.9-.9,2.2-3.6,7.8-7.7,13.1-5.8,7.4-12.2,11.3-19.1,11.7-.3,0-.6,0-1,0h0ZM224.6,347.9c.9,0,1.7.5,2.2,1.2,3,4.6,12.1,18.3,23.4,18.3.2,0,.4,0,.7,0,12.6-.6,20.7-18.1,22.2-21.6,6.9-16.1,2.9-31.5-4.2-55.4h0c-5.5-18.6-13.5-36.8-23.5-54h-41.6c-10,17.2-17.9,35.3-23.5,54-7.1,23.9-11.1,39.3-4.2,55.4,1.5,3.5,9.6,20.9,22.2,21.6,11.6.6,21-13.7,24.1-18.3.5-.8,1.3-1.2,2.2-1.2h0Z"/>
      </g>
      <g>
        <path class="cls-7" d="M205.9,345.6c11.6,5,23.4,5.2,35.3,0"/>
        <path class="cls-1" d="M223.6,352.1c-6.2,0-12.5-1.3-18.8-4-1.4-.6-2-2.2-1.4-3.5.6-1.4,2.2-2,3.5-1.4,11.3,4.8,22.1,4.9,33.1,0,1.4-.6,2.9,0,3.5,1.4s0,2.9-1.4,3.5c-6.2,2.7-12.4,4.1-18.6,4.1h0Z"/>
      </g>
      <g>
        <g>
          <rect class="cls-7" x="199.9" y="287.3" width="49.4" height="37.5" rx="12.8" ry="12.8"/>
          <path class="cls-1" d="M239.4,327.6h-29.7c-6.9,0-12.5-5.6-12.5-12.5v-17.8c0-6.9,5.6-12.5,12.5-12.5h29.7c6.9,0,12.5,5.6,12.5,12.5v17.8c0,6.9-5.6,12.5-12.5,12.5ZM209.7,290c-4,0-7.2,3.2-7.2,7.2v17.8c0,4,3.2,7.2,7.2,7.2h29.7c4,0,7.2-3.2,7.2-7.2v-17.8c0-4-3.2-7.2-7.2-7.2h-29.7Z"/>
        </g>
        <g>
          <circle class="cls-3" cx="237.3" cy="299" r="4.3"/>
          <circle class="cls-3" cx="237.3" cy="313.2" r="4.3"/>
          <rect class="cls-2" x="216" y="296" width="13.4" height="6" rx="2" ry="2"/>
        </g>
        <path class="cls-1" d="M222.3,325.3h-5.4v-14.6h-6.1c-1.5,0-2.7-1.2-2.7-2.7v-18.9h5.4v16.2h6.1c1.5,0,2.7,1.2,2.7,2.7v17.3h0Z"/>
      </g>
    </g>
  </g>
  <g id="head">
    <g>
      <g>
        <path class="cls-3" d="M335.9,110.1s25.8,9.8,28.4,14.5c4.9,8.8,4,60.8-9.6,74.4-5.3,5.3-44.4,10.3-44.4,10.3l25.6-99.2h0Z"/>
        <path class="cls-2" d="M310.3,209.3s39.1-5,44.4-10.3c5.3-5.3,8.7-16.4,10.5-28.6-.4.4-14.2,12.3-41.8-11.9,0,0,0,0,0,0l-13.1,50.8Z"/>
        <path class="cls-3" d="M138.8,209.3s-39.1-5-44.4-10.3c-5.3-5.3-8.7-16.4-10.5-28.6h0c-2.9-19-2.1-40.4.9-45.8,2.6-4.8,28.4-14.5,28.4-14.5l12.5,48.4,13.1,50.8h0Z"/>
        <path class="cls-2" d="M138.8,209.3s-39.1-5-44.4-10.3c-5.3-5.3-8.7-16.4-10.5-28.6.4.4,14.2,12.3,41.8-11.9,0,0,0,0,0,0l13.1,50.8Z"/>
        <path class="cls-1" d="M337.7,113.6c3.4,1.3,8,3.2,12.5,5.4,9.6,4.5,11.6,6.7,11.8,7,.2.5,1.5,3.3,2.1,11.9.5,6.6.4,14.4-.2,22-.7,8.5-2,16.3-3.8,22.7-1.9,6.8-4.4,11.9-7.2,14.6,0,0-1.3,1.2-6.7,2.8-3.5,1-8,2.1-13.4,3.2-7.1,1.4-14.4,2.5-18.9,3.1l23.8-92.5M334,106.5l-27.3,106,4-.5c6.7-.8,40.3-5.4,46-11,14.8-14.8,15.5-67.8,10-77.6-2.9-5.2-23.6-13.4-29.8-15.8l-2.9-1.1h0Z"/>
        <path class="cls-1" d="M111.5,113.6l23.8,92.5c-4.5-.6-11.8-1.7-18.9-3.1-5.4-1.1-9.9-2.1-13.4-3.2-5.4-1.6-6.6-2.7-6.7-2.8-2.8-2.8-5.2-7.8-7.2-14.6-1.8-6.4-3.1-14.2-3.8-22.7-.6-7.6-.7-15.4-.2-22,.6-8.6,1.9-11.4,2.1-11.9.2-.3,2.2-2.5,11.8-7,4.5-2.1,9.2-4,12.5-5.4M115.2,106.5l-2.9,1.1c-6.3,2.4-26.9,10.5-29.8,15.8-5.4,9.8-4.7,62.9,10,77.6,5.7,5.7,39.3,10.2,46,11l4,.5-27.3-106h0Z"/>
      </g>
      <circle class="cls-7" cx="224.6" cy="154.6" r="119.5"/>
      <path class="cls-4" d="M344,154.6c0,66-53.5,119.5-119.5,119.5s-119.5-53.5-119.5-119.5.6-13.8,1.7-20.4c9.7,56.2,58.7,99,117.7,99s108-42.8,117.7-99c1.2,6.6,1.7,13.5,1.7,20.4h0Z"/>
      <path class="cls-1" d="M224.6,277c-67.5,0-122.4-54.9-122.4-122.4s54.9-122.4,122.4-122.4,122.4,54.9,122.4,122.4-54.9,122.4-122.4,122.4h0ZM224.6,37.5c-64.5,0-117,52.5-117,117s52.5,117,117,117,117-52.5,117-117-52.5-117-117-117Z"/>
      <polygon class="cls-8" points="224.7 176.2 224.7 176.7 224.4 176.5 224.7 176.2"/>
      <polygon class="cls-8" points="224.7 176.5 224.4 176.7 224.4 176.2 224.7 176.5"/>
      <path class="cls-1" d="M338,131.9c-19-46.8-63.5-77.1-113.4-77.1s-94.4,30.2-113.4,77l-5-2c19.8-48.8,66.3-80.4,118.4-80.4s98.6,31.6,118.4,80.5l-5,2h0Z"/>
      <g class="cls-9">
        <path class="cls-1" d="M343.7,154.6c0,10.3-1.3,20.4-3.8,29.9,0,0,0,0,0,0-20.7,40-64.7,74.5-115.7,74.5s-94.9-34.4-115.7-74.5c0,0,0,0,0,0-1.5-5.7-2.5-11.6-3.2-17.6,26.8,30.1,65.7,52,109.1,52s103.3-35.5,128.2-78.3c0,.2.2.4.2.6.5,4.4.7,8.8.7,13.3h0Z"/>
      </g>
      <path class="cls-1" d="M344,154.6c0,10.3-1.3,20.4-3.8,29.9,0,0,0,0,0,0-20.7,40-64.7,74.5-115.7,74.5s-94.9-34.4-115.7-74.5c0,0,0,0,0,0-2.5-9.6-3.8-19.6-3.8-29.9s.3-9,.8-13.4c16.1-44.6,63.2-76.9,118.7-76.9s102.6,32.3,118.7,76.9c.5,4.4.7,8.8.7,13.3h0Z"/>
      <ellipse class="cls-6" cx="224.6" cy="139.9" rx="91.7" ry="64.9"/>
      <g>
        <g>
          <circle class="cls-7" cx="357.7" cy="149.6" r="5"/>
          <circle class="cls-7" cx="356.6" cy="169.6" r="5"/>
        </g>
        <g>
          <circle class="cls-7" cx="97" cy="149.6" r="5"/>
          <circle class="cls-7" cx="98" cy="169.6" r="5"/>
        </g>
      </g>
    </g>
  </g>
  <g id="eyes">
    <g>
      <ellipse class="cls-7" cx="157.1" cy="168.8" rx="16.2" ry="25.3"/>
      <ellipse class="cls-7" cx="292.1" cy="168.8" rx="16.2" ry="25.3"/>
    </g>
  </g>
  <g id="mouth">
    <path class="cls-7" d="M225.6,218.4c-1.3.1-2.6-.2-3.7-.9-1.9-1.2-11.8-7.2-13.5-8.3-2.8-1.9-3.6-5.8-1.6-8.6,1.9-2.8,5.8-3.6,8.6-1.6.9.6,5.5,3.4,9.6,5.9,3.2-2.1,7.8-5.2,8.9-5.9,2.8-1.9,6.7-1.2,8.6,1.6,1.9,2.8,1.2,6.7-1.6,8.6-1.8,1.2-11.9,7.9-12.3,8.2-.9.6-1.9.9-2.9,1h0Z"/>
  </g>
</svg>