<?xml version="1.0" encoding="UTF-8"?>
<svg id="Layer_1" data-name="Layer 1" xmlns="http://www.w3.org/2000/svg" version="1.1" xmlns:svgjs="http://svgjs.dev/svgjs" viewBox="0 0 1440 560">
  <defs>
    <style>
      .cls-1 {
        fill: #130c25;
      }

      .cls-1, .cls-2 {
        stroke-width: 0px;
      }

      .cls-3 {
        fill: none;
        stroke: #23069e;
        stroke-miterlimit: 10;
      }

      .cls-2 {
        fill: #23069e;
      }
    </style>
  </defs>
  <rect class="cls-1" width="1440.3" height="559.5"/>
  <g>
    <circle class="cls-2" cx="88.5" cy="337.8" r="3.1"/>
    <circle class="cls-2" cx="1421.8" cy="82.7" r="4"/>
    <path class="cls-2" d="M425.2,135.2c0,1.9-1.5,3.4-3.4,3.4s-3.4-1.5-3.4-3.4,1.5-3.4,3.4-3.4,3.4,1.5,3.4,3.4Z"/>
    <path class="cls-2" d="M1388.4,435.1c0,1.8-1.5,3.2-3.2,3.2s-3.2-1.5-3.2-3.2,1.5-3.2,3.2-3.2,3.2,1.5,3.2,3.2Z"/>
    <circle class="cls-2" cx="1049" cy="410.7" r="2.6"/>
    <path class="cls-2" d="M1183.7,147.2c0,1.1-.9,2-2,2s-2-.9-2-2,.9-2,2-2,2,.9,2,2Z"/>
    <path class="cls-2" d="M772.3,261.6c0,1-.8,1.9-1.9,1.9s-1.9-.8-1.9-1.9.8-1.9,1.9-1.9,1.9.8,1.9,1.9Z"/>
    <circle class="cls-2" cx="601.8" cy="495.1" r="2.2"/>
    <path class="cls-2" d="M1260.6,176.7c0,.7-.5,1.2-1.2,1.2s-1.2-.6-1.2-1.2.5-1.2,1.2-1.2,1.2.5,1.2,1.2Z"/>
    <path class="cls-2" d="M357.3,53.2c0,1.1-.9,1.9-1.9,1.9s-1.9-.9-1.9-1.9.9-1.9,1.9-1.9,1.9.9,1.9,1.9Z"/>
    <path class="cls-2" d="M239.1,163.1c0,.9-.7,1.6-1.6,1.6s-1.6-.7-1.6-1.6.7-1.6,1.6-1.6,1.6.7,1.6,1.6Z"/>
    <path class="cls-2" d="M1434.8,91c0,1.3-1,2.3-2.3,2.3s-2.3-1-2.3-2.3,1-2.3,2.3-2.3,2.3,1,2.3,2.3Z"/>
    <path class="cls-2" d="M261.4,457.2c0,1.4-1.1,2.5-2.5,2.5s-2.4-1.1-2.4-2.5,1.1-2.4,2.4-2.4,2.5,1.1,2.5,2.4Z"/>
    <path class="cls-2" d="M208.9,10.5c0,.9-.7,1.6-1.6,1.6s-1.6-.7-1.6-1.6.7-1.6,1.6-1.6,1.6.7,1.6,1.6Z"/>
    <path class="cls-2" d="M1283.1,532.4c0,.8-.6,1.4-1.4,1.4s-1.4-.6-1.4-1.4.6-1.4,1.4-1.4,1.4.6,1.4,1.4Z"/>
    <path class="cls-2" d="M950.3,455.6c0,1.2-1,2.2-2.2,2.2s-2.2-1-2.2-2.2,1-2.2,2.2-2.2,2.2,1,2.2,2.2Z"/>
    <circle class="cls-2" cx="162.1" cy="423.5" r="1.3"/>
    <path class="cls-2" d="M591.8,10.3c0,.8-.6,1.4-1.4,1.4s-1.4-.6-1.4-1.4.6-1.4,1.4-1.4,1.4.6,1.4,1.4Z"/>
    <circle class="cls-2" cx="612.1" cy="304.4" r="1.3"/>
    <circle class="cls-2" cx="419.8" cy="224.6" r="1.8"/>
    <path class="cls-2" d="M935.5,204.1c0,1-.8,1.9-1.9,1.9s-1.9-.8-1.9-1.9.8-1.9,1.9-1.9,1.9.8,1.9,1.9Z"/>
    <path class="cls-2" d="M1096.5,20.1c0,1-.8,1.8-1.8,1.8s-1.8-.8-1.8-1.8.8-1.8,1.8-1.8,1.8.8,1.8,1.8Z"/>
    <circle class="cls-2" cx="735.9" cy="152.3" r="1.8"/>
    <path class="cls-2" d="M750.1,472.5c0,.7-.6,1.3-1.3,1.3s-1.3-.6-1.3-1.3.6-1.3,1.3-1.3,1.3.6,1.3,1.3Z"/>
    <circle class="cls-2" cx="1172.9" cy="373.7" r="1.1"/>
    <circle class="cls-2" cx="151.9" cy="482.9" r="3.1"/>
    <path class="cls-2" d="M1388.4,407.2c0-1.8-1.5-3.2-3.2-3.2s-3.2,1.5-3.2,3.2,1.5,3.2,3.2,3.2,3.2-1.5,3.2-3.2Z"/>
    <path class="cls-2" d="M1281.3,74.6c0-1.3-1-2.3-2.3-2.3s-2.3,1-2.3,2.3,1,2.3,2.3,2.3,2.3-1,2.3-2.3Z"/>
    <path class="cls-2" d="M817.3,138c0-1.8-1.4-3.2-3.2-3.2s-3.2,1.4-3.2,3.2,1.4,3.2,3.2,3.2,3.2-1.4,3.2-3.2Z"/>
    <path class="cls-2" d="M180.6,68.3c0-1.5-1.2-2.8-2.8-2.8s-2.8,1.2-2.8,2.8,1.2,2.8,2.8,2.8,2.8-1.2,2.8-2.8Z"/>
    <circle class="cls-2" cx="1049" cy="431.5" r="2.6"/>
    <path class="cls-2" d="M374.7,212.3c0-2.1-1.7-3.7-3.7-3.7s-3.7,1.7-3.7,3.7,1.7,3.7,3.7,3.7,3.7-1.7,3.7-3.7Z"/>
    <path class="cls-2" d="M393.9,66.9c0-2.3-1.8-4.1-4.1-4.1s-4.1,1.8-4.1,4.1,1.8,4.1,4.1,4.1,4.1-1.8,4.1-4.1Z"/>
    <circle class="cls-2" cx="601.8" cy="347.2" r="2.2"/>
    <circle class="cls-2" cx="527.1" cy="152.6" r="2"/>
    <path class="cls-2" d="M1017.2,169c0-.7-.6-1.3-1.3-1.3s-1.3.6-1.3,1.3.6,1.3,1.3,1.3,1.3-.6,1.3-1.3Z"/>
    <path class="cls-2" d="M239.9,318.2c0-1.4-1.1-2.4-2.5-2.4s-2.4,1.1-2.4,2.4,1.1,2.4,2.4,2.4,2.5-1.1,2.5-2.4Z"/>
    <path class="cls-2" d="M317.3,33.4c0-.9-.8-1.7-1.7-1.7s-1.7.8-1.7,1.7.8,1.7,1.7,1.7,1.7-.8,1.7-1.7Z"/>
    <circle class="cls-2" cx="325.9" cy="152.7" r="2"/>
    <circle class="cls-2" cx="1281.7" cy="309.8" r="1.4"/>
    <path class="cls-2" d="M756.2,117.9c0-.7-.5-1.2-1.2-1.2s-1.2.5-1.2,1.2.5,1.2,1.2,1.2,1.2-.5,1.2-1.2Z"/>
    <path class="cls-2" d="M1248.4,89.2c0-.7-.5-1.2-1.2-1.2s-1.2.5-1.2,1.2.5,1.2,1.2,1.2,1.2-.5,1.2-1.2Z"/>
    <path class="cls-2" d="M950.3,386.6c0-1.2-1-2.2-2.2-2.2s-2.2,1-2.2,2.2,1,2.2,2.2,2.2,2.2-1,2.2-2.2Z"/>
    <circle class="cls-2" cx="162.1" cy="418.8" r="1.3"/>
    <path class="cls-2" d="M152.3,185.7c0-.7-.6-1.3-1.3-1.3s-1.3.6-1.3,1.3.6,1.3,1.3,1.3,1.3-.6,1.3-1.3Z"/>
    <circle class="cls-2" cx="612.1" cy="537.8" r="1.3"/>
    <path class="cls-2" d="M750.1,369.7c0-.7-.6-1.3-1.3-1.3s-1.3.6-1.3,1.3.6,1.3,1.3,1.3,1.3-.6,1.3-1.3Z"/>
    <circle class="cls-2" cx="1172.9" cy="468.5" r="1.1"/>
  </g>
  <g>
    <rect class="cls-3" y="1.5" width="1440" height="559.7"/>
    <polyline class="cls-3" points="1440 561.2 1415.8 561.2 1367.9 561.2 1320.1 561.2 1271.8 561.2 1224 561.2 1176.1 561.2 1128.3 561.2 1080.4 561.2 1032.5 561.2 984.7 561.2 936.8 561.2 888.6 561.2 840.8 561.2 792.9 561.2 745 561.2 697.2 561.2 649.3 561.2 601.5 561.2 553.6 561.2 505.4 561.2 457.5 561.2 409.7 561.2 361.8 561.2 313.9 561.2 266.1 561.2 218.2 561.2 170.4 561.2 122.2 561.2 74.3 561.2 26.4 561.2 0 561.2"/>
    <polyline class="cls-3" points="0 514.7 26.4 514.7 74.3 514.7 122.2 514.7 170.4 514.7 218.2 514.7 266.1 514.7 313.9 514.7 361.8 514.7 409.7 514.7 457.5 514.7 505.4 514.7 553.6 514.7 601.5 514.7 649.3 514.7 697.2 514.7 745 514.7 792.9 514.7 840.8 514.7 888.6 514.7 936.8 514.7 984.7 514.7 1032.5 514.7 1080.4 514.7 1128.3 514.7 1176.1 514.7 1224 514.7 1271.8 514.7 1320.1 514.7 1367.9 514.7 1415.8 514.7 1440 514.7"/>
    <polyline class="cls-3" points="0 468.2 26.4 468.2 74.3 468.2 122.2 468.2 170.4 468.2 218.2 468.2 266.1 468.2 313.9 468.2 361.8 468.2 409.7 468.2 457.5 468.2 505.4 468.2 553.6 468.2 601.5 468.2 649.3 468.2 697.2 468.2 745 468.2 792.9 468.2 840.8 468.2 888.6 468.2 936.8 468.2 984.7 468.2 1032.5 468.2 1080.4 468.2 1128.3 468.2 1176.1 468.2 1224 468.2 1271.8 468.2 1320.1 468.2 1367.9 468.2 1415.8 468.2 1440 468.2"/>
    <polyline class="cls-3" points="1440 421.3 1415.8 421.3 1367.9 421.3 1320.1 421.3 1271.8 421.3 1224 421.3 1176.1 421.3 1128.3 421.3 1080.4 421.3 1032.5 421.3 984.7 421.3 936.8 421.3 888.6 421.3 840.8 421.3 792.9 421.3 745 421.3 697.2 421.3 649.3 421.3 601.5 421.3 553.6 421.3 505.4 421.3 457.5 421.3 409.7 421.3 361.8 421.3 313.9 421.3 266.1 421.3 218.2 421.3 170.4 421.3 122.2 421.3 74.3 421.3 26.4 421.3 0 421.3"/>
    <polyline class="cls-3" points="0 374.8 26.4 374.8 74.3 374.8 122.2 374.8 170.4 374.8 218.2 374.8 266.1 374.8 313.9 374.8 361.8 374.8 409.7 374.8 457.5 374.8 505.4 374.8 553.6 374.8 601.5 374.8 649.3 374.8 697.2 374.8 745 374.8 792.9 374.8 840.8 374.8 888.6 374.8 936.8 374.8 984.7 374.8 1032.5 374.8 1080.4 374.8 1128.3 374.8 1176.1 374.8 1224 374.8 1271.8 374.8 1320.1 374.8 1367.9 374.8 1415.8 374.8 1440 374.8"/>
    <polyline class="cls-3" points="1440 328.3 1415.8 328.3 1367.9 328.3 1320.1 328.3 1271.8 328.3 1224 328.3 1176.1 328.3 1128.3 328.3 1080.4 328.3 1032.5 328.3 984.7 328.3 936.8 328.3 888.6 328.3 840.8 328.3 792.9 328.3 745 328.3 697.2 328.3 649.3 328.3 601.5 328.3 553.6 328.3 505.4 328.3 457.5 328.3 409.7 328.3 361.8 328.3 313.9 328.3 266.1 328.3 218.2 328.3 170.4 328.3 122.2 328.3 74.3 328.3 26.4 328.3 0 328.3"/>
    <polyline class="cls-3" points="0 281.8 26.4 281.8 74.3 281.8 122.2 281.8 170.4 281.8 218.2 281.8 266.1 281.8 313.9 281.8 361.8 281.8 409.7 281.8 457.5 281.8 505.4 281.8 553.6 281.8 601.5 281.8 649.3 281.8 697.2 281.8 745 281.8 792.9 281.8 840.8 281.8 888.6 281.8 936.8 281.8 984.7 281.8 1032.5 281.8 1080.4 281.8 1128.3 281.8 1176.1 281.8 1224 281.8 1271.8 281.8 1320.1 281.8 1367.9 281.8 1415.8 281.8 1440 281.8"/>
    <polyline class="cls-3" points="0 235.3 26.4 235.3 74.3 235.3 122.2 235.3 170.4 235.3 218.2 235.3 266.1 235.3 313.9 235.3 361.8 235.3 409.7 235.3 457.5 235.3 505.4 235.3 553.6 235.3 601.5 235.3 649.3 235.3 697.2 235.3 745 235.3 792.9 235.3 840.8 235.3 888.6 235.3 936.8 235.3 984.7 235.3 1032.5 235.3 1080.4 235.3 1128.3 235.3 1176.1 235.3 1224 235.3 1271.8 235.3 1320.1 235.3 1367.9 235.3 1415.8 235.3 1440 235.3"/>
    <polyline class="cls-3" points="0 188.8 26.4 188.8 74.3 188.8 122.2 188.8 170.4 188.8 218.2 188.8 266.1 188.8 313.9 188.8 361.8 188.8 409.7 188.8 457.5 188.8 505.4 188.8 553.6 188.8 601.5 188.8 649.3 188.8 697.2 188.8 745 188.8 792.9 188.8 840.8 188.8 888.6 188.8 936.8 188.8 984.7 188.8 1032.5 188.8 1080.4 188.8 1128.3 188.8 1176.1 188.8 1224 188.8 1271.8 188.8 1320.1 188.8 1367.9 188.8 1415.8 188.8 1440 188.8"/>
    <polyline class="cls-3" points="0 142.3 26.4 142.3 74.3 142.3 122.2 142.3 170.4 142.3 218.2 142.3 266.1 142.3 313.9 142.3 361.8 142.3 409.7 142.3 457.5 142.3 505.4 142.3 553.6 142.3 601.5 142.3 649.3 142.3 697.2 142.3 745 142.3 792.9 142.3 840.8 142.3 888.6 142.3 936.8 142.3 984.7 142.3 1032.5 142.3 1080.4 142.3 1128.3 142.3 1176.1 142.3 1224 142.3 1271.8 142.3 1320.1 142.3 1367.9 142.3 1415.8 142.3 1440 142.3"/>
    <polyline class="cls-3" points="0 95.8 26.4 95.8 74.3 95.8 122.2 95.8 170.4 95.8 218.2 95.8 266.1 95.8 313.9 95.8 361.8 95.8 409.7 95.8 457.5 95.8 505.4 95.8 553.6 95.8 601.5 95.8 649.3 95.8 697.2 95.8 745 95.8 792.9 95.8 840.8 95.8 888.6 95.8 936.8 95.8 984.7 95.8 1032.5 95.8 1080.4 95.8 1128.3 95.8 1176.1 95.8 1224 95.8 1271.8 95.8 1320.1 95.8 1367.9 95.8 1415.8 95.8 1440 95.8"/>
    <polyline class="cls-3" points="0 48.9 26.4 48.9 74.3 48.9 122.2 48.9 170.4 48.9 218.2 48.9 266.1 48.9 313.9 48.9 361.8 48.9 409.7 48.9 457.5 48.9 505.4 48.9 553.6 48.9 601.5 48.9 649.3 48.9 697.2 48.9 745 48.9 792.9 48.9 840.8 48.9 888.6 48.9 936.8 48.9 984.7 48.9 1032.5 48.9 1080.4 48.9 1128.3 48.9 1176.1 48.9 1224 48.9 1271.8 48.9 1320.1 48.9 1367.9 48.9 1415.8 48.9 1440 48.9"/>
    <polyline class="cls-3" points="1440 2.4 1415.8 2.4 1367.9 2.4 1320.1 2.4 1271.8 2.4 1224 2.4 1176.1 2.4 1128.3 2.4 1080.4 2.4 1032.5 2.4 984.7 2.4 936.8 2.4 888.6 2.4 840.8 2.4 792.9 2.4 745 2.4 697.2 2.4 649.3 2.4 601.5 2.4 553.6 2.4 505.4 2.4 457.5 2.4 409.7 2.4 361.8 2.4 313.9 2.4 266.1 2.4 218.2 2.4 170.4 2.4 122.2 2.4 74.3 2.4 26.4 2.4 0 2.4"/>
    <polyline class="cls-3" points="1415.8 561.2 1415.8 560 1415.8 514.7 1415.8 468.2 1415.8 421.3 1415.8 374.8 1415.8 328.3 1415.8 281.8 1415.8 235.3 1415.8 188.8 1415.8 142.3 1415.8 95.8 1415.8 48.9 1415.8 2.4 1415.8 1.5"/>
    <polyline class="cls-3" points="1367.9 1.5 1367.9 2.4 1367.9 48.9 1367.9 95.8 1367.9 142.3 1367.9 188.8 1367.9 235.3 1367.9 281.8 1367.9 328.3 1367.9 374.8 1367.9 421.3 1367.9 468.2 1367.9 514.7 1367.9 560 1367.9 561.2"/>
    <polyline class="cls-3" points="1320.1 1.5 1320.1 2.4 1320.1 48.9 1320.1 95.8 1320.1 142.3 1320.1 188.8 1320.1 235.3 1320.1 281.8 1320.1 328.3 1320.1 374.8 1320.1 421.3 1320.1 468.2 1320.1 514.7 1320.1 560 1320.1 561.2"/>
    <polyline class="cls-3" points="1271.8 1.5 1271.8 2.4 1271.8 48.9 1271.8 95.8 1271.8 142.3 1271.8 188.8 1271.8 235.3 1271.8 281.8 1271.8 328.3 1271.8 374.8 1271.8 421.3 1271.8 468.2 1271.8 514.7 1271.8 560 1271.8 561.2"/>
    <polyline class="cls-3" points="1224 1.5 1224 2.4 1224 48.9 1224 95.8 1224 142.3 1224 188.8 1224 235.3 1224 281.8 1224 328.3 1224 374.8 1224 421.3 1224 468.2 1224 514.7 1224 560 1224 561.2"/>
    <polyline class="cls-3" points="1176.1 1.5 1176.1 2.4 1176.1 48.9 1176.1 95.8 1176.1 142.3 1176.1 188.8 1176.1 235.3 1176.1 281.8 1176.1 328.3 1176.1 374.8 1176.1 421.3 1176.1 468.2 1176.1 514.7 1176.1 560 1176.1 561.2"/>
    <polyline class="cls-3" points="1128.3 1.5 1128.3 2.4 1128.3 48.9 1128.3 95.8 1128.3 142.3 1128.3 188.8 1128.3 235.3 1128.3 281.8 1128.3 328.3 1128.3 374.8 1128.3 421.3 1128.3 468.2 1128.3 514.7 1128.3 560 1128.3 561.2"/>
    <polyline class="cls-3" points="1080.4 1.5 1080.4 2.4 1080.4 48.9 1080.4 95.8 1080.4 142.3 1080.4 188.8 1080.4 235.3 1080.4 281.8 1080.4 328.3 1080.4 374.8 1080.4 421.3 1080.4 468.2 1080.4 514.7 1080.4 560 1080.4 561.2"/>
    <polyline class="cls-3" points="1032.5 1.5 1032.5 2.4 1032.5 48.9 1032.5 95.8 1032.5 142.3 1032.5 188.8 1032.5 235.3 1032.5 281.8 1032.5 328.3 1032.5 374.8 1032.5 421.3 1032.5 468.2 1032.5 514.7 1032.5 560 1032.5 561.2"/>
    <polyline class="cls-3" points="984.7 1.5 984.7 2.4 984.7 48.9 984.7 95.8 984.7 142.3 984.7 188.8 984.7 235.3 984.7 281.8 984.7 328.3 984.7 374.8 984.7 421.3 984.7 468.2 984.7 514.7 984.7 560 984.7 561.2"/>
    <polyline class="cls-3" points="936.8 561.2 936.8 560 936.8 514.7 936.8 468.2 936.8 421.3 936.8 374.8 936.8 328.3 936.8 281.8 936.8 235.3 936.8 188.8 936.8 142.3 936.8 95.8 936.8 48.9 936.8 2.4 936.8 1.5"/>
    <polyline class="cls-3" points="888.6 561.2 888.6 560 888.6 514.7 888.6 468.2 888.6 421.3 888.6 374.8 888.6 328.3 888.6 281.8 888.6 235.3 888.6 188.8 888.6 142.3 888.6 95.8 888.6 48.9 888.6 2.4 888.6 1.5"/>
    <polyline class="cls-3" points="840.8 1.5 840.8 2.4 840.8 48.9 840.8 95.8 840.8 142.3 840.8 188.8 840.8 235.3 840.8 281.8 840.8 328.3 840.8 374.8 840.8 421.3 840.8 468.2 840.8 514.7 840.8 560 840.8 561.2"/>
    <polyline class="cls-3" points="792.9 1.5 792.9 2.4 792.9 48.9 792.9 95.8 792.9 142.3 792.9 188.8 792.9 235.3 792.9 281.8 792.9 328.3 792.9 374.8 792.9 421.3 792.9 468.2 792.9 514.7 792.9 560 792.9 561.2"/>
    <polyline class="cls-3" points="745 1.5 745 2.4 745 48.9 745 95.8 745 142.3 745 188.8 745 235.3 745 281.8 745 328.3 745 374.8 745 421.3 745 468.2 745 514.7 745 560 745 561.2"/>
    <polyline class="cls-3" points="697.2 1.5 697.2 2.4 697.2 48.9 697.2 95.8 697.2 142.3 697.2 188.8 697.2 235.3 697.2 281.8 697.2 328.3 697.2 374.8 697.2 421.3 697.2 468.2 697.2 514.7 697.2 560 697.2 561.2"/>
    <polyline class="cls-3" points="649.3 1.5 649.3 2.4 649.3 48.9 649.3 95.8 649.3 142.3 649.3 188.8 649.3 235.3 649.3 281.8 649.3 328.3 649.3 374.8 649.3 421.3 649.3 468.2 649.3 514.7 649.3 560 649.3 561.2"/>
    <polyline class="cls-3" points="601.5 1.5 601.5 2.4 601.5 48.9 601.5 95.8 601.5 142.3 601.5 188.8 601.5 235.3 601.5 281.8 601.5 328.3 601.5 374.8 601.5 421.3 601.5 468.2 601.5 514.7 601.5 560 601.5 561.2"/>
    <polyline class="cls-3" points="553.6 1.5 553.6 2.4 553.6 48.9 553.6 95.8 553.6 142.3 553.6 188.8 553.6 235.3 553.6 281.8 553.6 328.3 553.6 374.8 553.6 421.3 553.6 468.2 553.6 514.7 553.6 560 553.6 561.2"/>
    <polyline class="cls-3" points="505.4 1.5 505.4 2.4 505.4 48.9 505.4 95.8 505.4 142.3 505.4 188.8 505.4 235.3 505.4 281.8 505.4 328.3 505.4 374.8 505.4 421.3 505.4 468.2 505.4 514.7 505.4 560 505.4 561.2"/>
    <polyline class="cls-3" points="457.5 1.5 457.5 2.4 457.5 48.9 457.5 95.8 457.5 142.3 457.5 188.8 457.5 235.3 457.5 281.8 457.5 328.3 457.5 374.8 457.5 421.3 457.5 468.2 457.5 514.7 457.5 560 457.5 561.2"/>
    <polyline class="cls-3" points="409.7 1.5 409.7 2.4 409.7 48.9 409.7 95.8 409.7 142.3 409.7 188.8 409.7 235.3 409.7 281.8 409.7 328.3 409.7 374.8 409.7 421.3 409.7 468.2 409.7 514.7 409.7 560 409.7 561.2"/>
    <polyline class="cls-3" points="361.8 561.2 361.8 560 361.8 514.7 361.8 468.2 361.8 421.3 361.8 374.8 361.8 328.3 361.8 281.8 361.8 235.3 361.8 188.8 361.8 142.3 361.8 95.8 361.8 48.9 361.8 2.4 361.8 1.5"/>
    <polyline class="cls-3" points="313.9 561.2 313.9 560 313.9 514.7 313.9 468.2 313.9 421.3 313.9 374.8 313.9 328.3 313.9 281.8 313.9 235.3 313.9 188.8 313.9 142.3 313.9 95.8 313.9 48.9 313.9 2.4 313.9 1.5"/>
    <polyline class="cls-3" points="266.1 1.5 266.1 2.4 266.1 48.9 266.1 95.8 266.1 142.3 266.1 188.8 266.1 235.3 266.1 281.8 266.1 328.3 266.1 374.8 266.1 421.3 266.1 468.2 266.1 514.7 266.1 560 266.1 561.2"/>
    <polyline class="cls-3" points="218.2 1.5 218.2 2.4 218.2 48.9 218.2 95.8 218.2 142.3 218.2 188.8 218.2 235.3 218.2 281.8 218.2 328.3 218.2 374.8 218.2 421.3 218.2 468.2 218.2 514.7 218.2 560 218.2 561.2"/>
    <polyline class="cls-3" points="170.4 1.5 170.4 2.4 170.4 48.9 170.4 95.8 170.4 142.3 170.4 188.8 170.4 235.3 170.4 281.8 170.4 328.3 170.4 374.8 170.4 421.3 170.4 468.2 170.4 514.7 170.4 560 170.4 561.2"/>
    <polyline class="cls-3" points="122.2 1.5 122.2 2.4 122.2 48.9 122.2 95.8 122.2 142.3 122.2 188.8 122.2 235.3 122.2 281.8 122.2 328.3 122.2 374.8 122.2 421.3 122.2 468.2 122.2 514.7 122.2 560 122.2 561.2"/>
    <polyline class="cls-3" points="74.3 1.5 74.3 2.4 74.3 48.9 74.3 95.8 74.3 142.3 74.3 188.8 74.3 235.3 74.3 281.8 74.3 328.3 74.3 374.8 74.3 421.3 74.3 468.2 74.3 514.7 74.3 560 74.3 561.2"/>
    <polyline class="cls-3" points="26.4 1.5 26.4 2.4 26.4 48.9 26.4 95.8 26.4 142.3 26.4 188.8 26.4 235.3 26.4 281.8 26.4 328.3 26.4 374.8 26.4 421.3 26.4 468.2 26.4 514.7 26.4 560 26.4 561.2"/>
  </g>
</svg>