<?xml version="1.0" encoding="UTF-8"?>
<svg id="Layer_1" data-name="Layer 1" xmlns="http://www.w3.org/2000/svg" viewBox="0 0 15.34 15.34">
  <defs>
    <style>
      .cls-1 {
        fill: #000;
      }

      .cls-1, .cls-2 {
        stroke-width: 0px;
      }

      .cls-2 {
        fill: #f7df1e;
      }
    </style>
  </defs>
  <rect class="cls-2" x="2.68" y="2.68" width="9.97" height="9.97"/>
  <path class="cls-1" d="M9.38,10.47c.2.33.46.57.92.57.39,0,.64-.19.64-.46,0-.32-.25-.43-.68-.62l-.23-.1c-.68-.29-1.13-.65-1.13-1.41,0-.7.54-1.24,1.37-1.24.6,0,1.02.21,1.33.75l-.73.47c-.16-.29-.33-.4-.6-.4s-.45.17-.45.4c0,.28.17.39.58.57l.23.1c.8.34,1.25.69,1.25,1.47,0,.84-.66,1.31-1.55,1.31s-1.43-.41-1.71-.96l.76-.44ZM6.07,10.55c.15.26.28.48.6.48s.5-.12.5-.59v-3.19h.94v3.2c0,.97-.57,1.41-1.4,1.41-.75,0-1.18-.39-1.41-.86l.76-.46Z"/>
</svg>