<?xml version="1.0" encoding="UTF-8"?>
<svg id="Layer_1" data-name="Layer 1" xmlns="http://www.w3.org/2000/svg" viewBox="0 0 15.34 15.34">
  <defs>
    <style>
      .cls-1 {
        fill: #fff;
        stroke-width: 0px;
      }
    </style>
  </defs>
  <path class="cls-1" d="M8.79,4.15c-.37-.19-.78.02-.91.46-.15.49-.26,1-.44,1.48-.17.75-.42,1.49-.62,2.24-.19.68-.39,1.36-.58,2.04-.08.27-.05.53.16.73.19.18.44.2.68.09.22-.09.33-.27.39-.49.54-1.91,1.09-3.81,1.64-5.72.06-.22.06-.43-.05-.63-.09-.07-.17-.15-.26-.2Z"/>
  <path class="cls-1" d="M5.07,8.38c-.18-.18-.36-.36-.55-.53-.14-.13-.14-.22,0-.35.37-.34.72-.71,1.07-1.07.25-.26.24-.64-.01-.89-.23-.23-.63-.25-.87,0-.57.56-1.14,1.13-1.7,1.7-.23.23-.25.56-.05.81.21.27.46.5.7.74.27.27.56.53.82.82.13.12.24.28.41.35.25.11.6,0,.76-.21.18-.26.18-.56-.03-.79-.17-.19-.37-.37-.55-.55Z"/>
  <path class="cls-1" d="M12.3,7.21c-.54-.55-1.09-1.1-1.64-1.65-.13-.13-.28-.19-.47-.2-.25.01-.45.13-.57.37-.11.23-.06.54.11.71.37.37.73.73,1.11,1.09.12.12.11.18,0,.29-.36.35-.72.71-1.07,1.07-.27.27-.27.64-.03.9.25.26.64.26.91-.01.55-.54,1.1-1.09,1.64-1.64.28-.28.28-.65,0-.93Z"/>
</svg>