<?xml version="1.0" encoding="UTF-8"?>
<svg id="Layer_1" data-name="Layer 1" xmlns="http://www.w3.org/2000/svg" viewBox="0 0 15.34 15.34">
  <defs>
    <style>
      .cls-1 {
        fill: #ea3e29;
      }
    </style>
  </defs>
  <path class="cls-1" d="M12.51,4.94s0,.03,0,.04v2.14c0,.06-.03.11-.08.14l-1.8,1.03v2.05c0,.06-.03.11-.08.14l-3.75,2.16s-.02,0-.03.01c0,0,0,0-.01,0-.03,0-.05,0-.08,0,0,0,0,0-.01,0,0,0-.02,0-.03-.01l-3.75-2.16s-.08-.08-.08-.14V3.92s0-.03,0-.04c0,0,0,0,0-.01,0,0,0-.02,0-.02,0,0,0,0,.01-.01,0,0,0-.01.01-.02,0,0,.01,0,.02-.01,0,0,.01,0,.02-.01h0l1.88-1.08s.11-.03.16,0l1.88,1.08h0s.01,0,.02.01c0,0,.01,0,.02.01,0,0,0,.01.01.02,0,0,0,0,.01.01,0,0,0,.02.01.02,0,0,0,0,0,.01,0,.01,0,.03,0,.04v4.01l1.56-.9v-2.05s0-.03,0-.04c0,0,0,0,0-.01,0,0,0-.02.01-.02,0,0,0,0,.01-.01,0,0,0-.01.01-.02,0,0,.01,0,.02-.01,0,0,.01,0,.02-.01h0l1.88-1.08s.11-.03.16,0l1.88,1.08s.01,0,.02.01c0,0,.01,0,.02.01,0,0,0,.01.01.02,0,0,0,0,.01.01,0,0,0,.02.01.02,0,0,0,0,0,.01h0ZM12.2,7.03v-1.78l-.66.38-.91.52v1.78l1.56-.9h0ZM10.33,10.25v-1.78l-.89.51-2.55,1.45v1.8l3.44-1.98ZM3.14,4.19v6.06l3.44,1.98v-1.8l-1.8-1.02h0s0,0,0,0c0,0-.01,0-.02-.01,0,0-.01,0-.01-.01h0s0-.01-.01-.02c0,0,0,0-.01-.02h0s0-.01,0-.02c0,0,0-.01,0-.02h0s0-.02,0-.02c0,0,0-.01,0-.02v-4.19l-.91-.52-.66-.38h0ZM4.86,3.02l-1.56.9,1.56.9,1.56-.9-1.56-.9h0ZM5.67,8.63l.91-.52v-3.92l-.66.38-.91.52v3.92l.66-.38ZM10.48,4.08l-1.56.9,1.56.9,1.56-.9-1.56-.9ZM10.33,6.15l-.91-.52-.66-.38v1.78l.91.52.66.38v-1.78ZM6.73,10.16l2.29-1.31,1.15-.65-1.56-.9-1.8,1.04-1.64.94,1.56.88Z"/>
</svg>