<?xml version="1.0" encoding="UTF-8"?>
<svg id="Layer_1" data-name="Layer 1" xmlns="http://www.w3.org/2000/svg" xmlns:xlink="http://www.w3.org/1999/xlink" viewBox="0 0 15.34 15.34">
  <defs>
    <style>
      .cls-1 {
        fill: url(#linear-gradient);
      }

      .cls-1, .cls-2, .cls-3, .cls-4, .cls-5, .cls-6, .cls-7, .cls-8, .cls-9 {
        stroke-width: 0px;
      }

      .cls-2 {
        fill: url(#linear-gradient-6);
      }

      .cls-3 {
        fill: url(#linear-gradient-5);
      }

      .cls-4 {
        fill: url(#linear-gradient-2);
      }

      .cls-5 {
        fill: url(#linear-gradient-7);
      }

      .cls-6 {
        fill: url(#linear-gradient-3);
      }

      .cls-7 {
        fill: url(#linear-gradient-9);
      }

      .cls-8 {
        fill: url(#linear-gradient-8);
      }

      .cls-9 {
        fill: url(#linear-gradient-4);
      }
    </style>
    <linearGradient id="linear-gradient" x1="7.67" y1="10.78" x2="7.67" y2="4.55" gradientUnits="userSpaceOnUse">
      <stop offset="0" stop-color="#9168c0"/>
      <stop offset=".48" stop-color="#5684d1"/>
      <stop offset="1" stop-color="#1ba1e3"/>
    </linearGradient>
    <linearGradient id="linear-gradient-2" x1="8.08" y1="12.62" x2="8.08" y2="2.72" xlink:href="#linear-gradient"/>
    <linearGradient id="linear-gradient-3" x1="3.01" y1="7.97" x2="3.01" y2="7.37" xlink:href="#linear-gradient"/>
    <linearGradient id="linear-gradient-4" x1="4.37" y1="11.26" x2="4.37" y2="10.66" xlink:href="#linear-gradient"/>
    <linearGradient id="linear-gradient-5" x1="3.17" y1="6.77" x2="3.17" y2="6.17" xlink:href="#linear-gradient"/>
    <linearGradient id="linear-gradient-6" x1="3.17" y1="9.17" x2="3.17" y2="8.57" xlink:href="#linear-gradient"/>
    <linearGradient id="linear-gradient-7" x1="6.46" y1="12.46" x2="6.46" y2="11.86" xlink:href="#linear-gradient"/>
    <linearGradient id="linear-gradient-8" x1="5.34" y1="12" x2="5.34" y2="11.4" xlink:href="#linear-gradient"/>
    <linearGradient id="linear-gradient-9" x1="3.63" y1="10.29" x2="3.63" y2="9.69" xlink:href="#linear-gradient"/>
  </defs>
  <path class="cls-1" d="M9.23,10.36c.95-.58,1.47-1.43,1.55-2.54.04-.53-.07-1.03-.31-1.51-.08-.16-.15-.33-.29-.46,0-.04-.03-.07-.05-.1-.13-.17-.28-.33-.45-.47-.79-.64-1.68-.87-2.67-.66-.7.15-1.28.51-1.74,1.06-.44.53-.68,1.14-.71,1.83-.03.62.11,1.2.43,1.74.2.34.46.65.78.88.51.41,1.1.62,1.75.65.61.03,1.19-.1,1.71-.42ZM7.37,6.1c0-.18.12-.31.29-.31.17,0,.3.13.31.31,0,.43,0,.86,0,1.29,0,.08.02.13.09.16.09.04.17.09.26.14.17.1.34.2.51.3.11.06.16.16.16.28,0,.12-.07.21-.19.26-.1.04-.19.02-.29-.03-.24-.14-.49-.28-.74-.42-.03.02-.05.05-.08.08.03-.03.05-.05.08-.08-.08-.05-.16-.1-.24-.14-.11-.06-.16-.16-.16-.29,0-.52,0-1.03,0-1.55Z"/>
  <path class="cls-4" d="M12.53,6.72c-.08-.4-.21-.78-.38-1.15-.21-.46-.49-.87-.83-1.24,0-.01-.02-.03-.03-.04-.49-.53-1.08-.93-1.75-1.21-.55-.23-1.12-.34-1.71-.37-.51-.02-1.02.04-1.51.18-.7.2-1.33.53-1.88,1.01-.1.09-.21.18-.32.29,0-.13,0-.24,0-.35,0-.19-.13-.32-.3-.32-.18,0-.3.13-.3.32,0,.35,0,.71,0,1.06,0,.2.12.32.32.32.35,0,.7,0,1.05,0,.18,0,.32-.13.33-.3,0-.18-.13-.3-.33-.3-.11,0-.22,0-.36,0,.19-.19.37-.35.56-.48.93-.66,1.96-.93,3.09-.8.72.08,1.37.34,1.96.75.27.18.5.4.73.63,0,.01.01.02.02.03,1.01,1.19,1.34,2.54.95,4.05-.27,1.06-.89,1.89-1.8,2.5-.72.48-1.51.71-2.37.72-.19,0-.32.13-.32.3,0,.17.13.3.32.3.13,0,.26,0,.39-.02.61-.05,1.18-.2,1.72-.47.38-.19.74-.41,1.07-.7.23-.2.45-.41.64-.64.63-.76.98-1.63,1.09-2.61.06-.49.03-.98-.07-1.47Z"/>
  <path class="cls-6" d="M3.31,7.67c0-.17-.14-.3-.31-.3-.16,0-.29.14-.29.3,0,.16.14.3.3.3.16,0,.3-.14.3-.3Z"/>
  <path class="cls-9" d="M4.37,10.66c-.17,0-.3.13-.3.3,0,.16.14.3.3.3.17,0,.3-.13.3-.31,0-.17-.13-.29-.3-.29Z"/>
  <path class="cls-3" d="M3.17,6.77c.16,0,.3-.14.3-.3,0-.17-.13-.3-.3-.3-.17,0-.3.13-.3.29,0,.16.14.3.29.3Z"/>
  <path class="cls-2" d="M3.47,8.87c0-.16-.14-.3-.3-.3-.16,0-.3.14-.3.3,0,.17.13.29.29.3.17,0,.3-.13.3-.3Z"/>
  <path class="cls-5" d="M6.46,11.86c-.17,0-.3.13-.3.29,0,.17.13.3.29.3.17,0,.31-.14.31-.3,0-.16-.14-.3-.3-.3Z"/>
  <path class="cls-8" d="M5.34,11.4c-.16,0-.3.13-.3.29,0,.17.14.31.3.31.17,0,.3-.14.3-.31,0-.16-.14-.29-.3-.29Z"/>
  <path class="cls-7" d="M3.64,9.69c-.16,0-.3.14-.31.3,0,.16.13.29.3.29.17,0,.3-.12.3-.29,0-.16-.13-.3-.29-.31Z"/>
</svg>