<?xml version="1.0" encoding="UTF-8"?>
<svg id="Layer_1" data-name="Layer 1" xmlns="http://www.w3.org/2000/svg" viewBox="0 0 15.34 15.34">
  <defs>
    <style>
      .cls-1 {
        fill: #512bd4;
      }

      .cls-1, .cls-2 {
        stroke-width: 0px;
      }

      .cls-2 {
        fill: #fff;
      }
    </style>
  </defs>
  <rect class="cls-1" x="2.68" y="2.68" width="9.97" height="9.97"/>
  <path class="cls-2" d="M4.46,9.05c-.07,0-.13-.02-.18-.07-.05-.05-.07-.11-.07-.17s.02-.13.07-.17c.05-.05.11-.07.18-.07s.13.02.18.07c.05.05.08.11.08.17s-.03.12-.08.17c-.05.05-.11.07-.18.07Z"/>
  <path class="cls-2" d="M7.28,9.01h-.46l-1.21-1.9s-.06-.1-.08-.15h-.01c0,.06.01.17.01.36v1.7h-.41v-2.59h.49l1.17,1.86c.05.08.08.13.1.16h0c-.01-.07-.02-.18-.02-.35v-1.67h.4v2.59Z"/>
  <path class="cls-2" d="M9.25,9.01h-1.42v-2.59h1.36v.36h-.94v.73h.87v.36h-.87v.77h1v.36Z"/>
  <path class="cls-2" d="M11.27,6.79h-.73v2.23h-.42v-2.23h-.72v-.36h1.87v.36Z"/>
</svg>