<?xml version="1.0" encoding="UTF-8"?>
<svg id="Layer_1" data-name="Layer 1" xmlns="http://www.w3.org/2000/svg" version="1.1" viewBox="0 0 15.3 15.3">
  <defs>
    <style>
      .cls-1 {
        fill: #8200ff;
        stroke-width: 0px;
      }
    </style>
  </defs>
  <path class="cls-1" d="M8.9,6.6l3,1.1c.2,0,.2.4,0,.4l-3,1.1c0,0-.1,0-.1.1l-1.1,3c0,.2-.4.2-.4,0l-1.1-3c0,0,0-.1-.1-.1l-3-1.1c-.2,0-.2-.4,0-.4l3-1.1c0,0,.1,0,.1-.1l1.1-3c0-.2.4-.2.4,0l1.1,3c0,0,0,.1.1.1Z"/>
  <path class="cls-1" d="M11.5,3.8l.9.4c0,0,0,.1,0,.1l-.9.4s0,0,0,0l-.4.9c0,0-.1,0-.1,0l-.4-.9s0,0,0,0l-.9-.4c0,0,0-.1,0-.1l.9-.4s0,0,0,0l.4-.9c0,0,.1,0,.1,0l.4.9s0,0,0,0Z"/>
</svg>