<?xml version="1.0" encoding="UTF-8"?>
<svg id="Layer_1" data-name="Layer 1" xmlns="http://www.w3.org/2000/svg" viewBox="0 0 15.34 15.34">
  <defs>
    <style>
      .cls-1 {
        fill: #689f63;
        stroke-width: 0px;
      }
    </style>
  </defs>
  <path class="cls-1" d="M11.74,4.87l-3.68-2.13c-.23-.13-.54-.13-.77,0l-3.69,2.13c-.24.14-.39.39-.39.67v4.25c0,.28.15.53.39.67l.97.56c.47.23.64.23.85.23.69,0,1.09-.42,1.09-1.15v-4.2c0-.06-.05-.11-.11-.11h-.47c-.06,0-.11.05-.11.11v4.2c0,.32-.33.65-.88.37l-1.01-.58s-.06-.06-.06-.1v-4.25s.02-.08.06-.1l3.68-2.12s.08-.02.11,0l3.68,2.12s.06.06.06.1v4.25s-.02.08-.06.1l-3.68,2.13s-.08.02-.11,0l-.94-.56s-.06-.02-.09,0c-.26.15-.31.17-.56.25-.06.02-.15.06.03.16l1.23.73c.12.07.25.1.39.1h0c.14,0,.27-.04.39-.11l3.68-2.13c.24-.14.39-.4.39-.67v-4.25c0-.28-.15-.53-.39-.67Z"/>
  <path class="cls-1" d="M8.77,9.12c-.97,0-1.19-.24-1.26-.73,0-.05-.05-.09-.11-.09h-.48c-.06,0-.11.05-.11.11,0,.62.34,1.36,1.95,1.36h0c1.17,0,1.84-.46,1.84-1.26s-.54-1.01-1.67-1.16c-1.14-.15-1.26-.23-1.26-.5,0-.22.1-.52.95-.52.76,0,1.04.16,1.15.67.01.05.05.08.1.08h.48s.06-.01.08-.03c.02-.02.03-.05.03-.08-.07-.88-.66-1.29-1.84-1.29-1.05,0-1.68.44-1.68,1.19,0,.81.62,1.03,1.63,1.13,1.21.12,1.3.29,1.3.53,0,.41-.33.59-1.11.59Z"/>
</svg>