<?xml version="1.0" encoding="UTF-8"?>
<svg id="Layer_1" data-name="Layer 1" xmlns="http://www.w3.org/2000/svg" viewBox="0 0 15.34 15.34">
  <defs>
    <style>
      .cls-1 {
        fill: #092e20;
      }

      .cls-1, .cls-2 {
        stroke-width: 0px;
      }

      .cls-2 {
        fill: #fffffd;
      }
    </style>
  </defs>
  <rect class="cls-1" x="2.68" y="2.68" width="9.97" height="9.97" rx="1.09" ry="1.09"/>
  <path class="cls-2" d="M9.94,6.35v2.58c0,.89-.07,1.31-.26,1.68-.18.35-.42.58-.91.82l-1.03-.49c.49-.23.73-.43.88-.74.16-.32.21-.69.21-1.65v-2.2h1.11ZM8.17,4.63v5.15c-.57.11-.99.15-1.44.15-1.36,0-2.07-.61-2.07-1.79s.75-1.87,1.91-1.87c.18,0,.32.01.48.06v-1.7h1.11ZM6.68,7.17c-.56,0-.89.35-.89.95s.31.92.88.92c.12,0,.22,0,.38-.03v-1.78c-.13-.04-.24-.06-.38-.06ZM9.94,4.64v1.14h-1.11v-1.14h1.11Z"/>
</svg>