<?xml version="1.0" encoding="UTF-8"?>
<svg id="Layer_1" data-name="Layer 1" xmlns="http://www.w3.org/2000/svg" viewBox="0 0 15.34 15.34">
  <defs>
    <style>
      .cls-1 {
        fill: #fff;
        stroke-width: 0px;
      }
    </style>
  </defs>
  <path class="cls-1" d="M11.97,6.76c.23-.68.15-1.43-.21-2.05-.55-.95-1.65-1.44-2.72-1.21-.48-.54-1.17-.85-1.89-.84-1.1,0-2.07.71-2.41,1.75-.71.14-1.32.59-1.67,1.21-.55.95-.43,2.15.31,2.97-.23.68-.15,1.43.21,2.05.55.95,1.65,1.44,2.72,1.21.48.54,1.17.85,1.89.84,1.1,0,2.08-.71,2.41-1.75.71-.14,1.32-.59,1.67-1.21.55-.95.43-2.15-.31-2.97h0ZM8.2,12.03c-.44,0-.87-.15-1.2-.44.02,0,.04-.02.06-.03l2-1.15c.1-.06.17-.17.16-.28v-2.82l.84.49s.02.01.02.02v2.33c0,1.04-.84,1.88-1.88,1.88h0ZM4.15,10.31c-.22-.38-.3-.83-.22-1.26.01,0,.04.02.06.04l2,1.15c.1.06.23.06.33,0l2.44-1.41v.98s0,.02-.01.03l-2.02,1.17c-.9.52-2.05.21-2.57-.69h0ZM3.63,5.94c.22-.38.57-.67.98-.82,0,.02,0,.05,0,.07v2.31c0,.12.06.23.16.28l2.44,1.41-.84.49s-.02,0-.03,0l-2.02-1.17c-.9-.52-1.21-1.67-.69-2.57h0ZM10.57,7.56l-2.44-1.41.84-.49s.02,0,.03,0l2.02,1.17c.9.52,1.21,1.67.69,2.57-.22.38-.57.67-.98.82v-2.38c0-.12-.06-.23-.16-.28h0ZM11.41,6.29s-.04-.02-.06-.04l-2-1.15c-.1-.06-.23-.06-.33,0l-2.44,1.41v-.98s0-.02.01-.03l2.02-1.17c.9-.52,2.05-.21,2.57.69.22.38.3.83.22,1.26h0ZM6.12,8.03l-.85-.49s-.02-.01-.02-.02v-2.33c0-1.04.84-1.88,1.88-1.88.44,0,.87.15,1.2.44-.02,0-.04.02-.06.03l-2,1.15c-.1.06-.17.17-.16.28v2.82s0,0,0,0ZM6.58,7.04l1.09-.63,1.09.63v1.26l-1.09.63-1.09-.63v-1.26Z"/>
</svg>