<?xml version="1.0" encoding="UTF-8"?>
<svg id="Layer_1" data-name="Layer 1" xmlns="http://www.w3.org/2000/svg" viewBox="0 0 15.34 15.34">
  <defs>
    <style>
      .cls-1 {
        fill: #2dbcaf;
      }
    </style>
  </defs>
  <path class="cls-1" d="M2.25,6.73s-.03-.01-.02-.03l.13-.17s.04-.03.07-.03h2.22s.03.02.02.04l-.11.16s-.04.04-.06.04h-2.25Z"/>
  <path class="cls-1" d="M1.31,7.3s-.03-.01-.02-.03l.13-.17s.04-.03.07-.03h2.84s.04.02.03.04l-.05.15s-.03.04-.06.04H1.31Z"/>
  <path class="cls-1" d="M2.81,7.87s-.03-.02-.02-.04l.09-.16s.04-.04.06-.04h1.24s.04.02.04.04v.15s-.04.04-.06.04h-1.36Z"/>
  <g id="CXHf1q">
    <g>
      <path class="cls-1" d="M9.27,6.62c-.39.1-.66.17-1.04.27-.09.02-.1.03-.18-.06-.09-.11-.16-.17-.29-.24-.39-.19-.77-.14-1.13.09-.42.27-.64.68-.63,1.18,0,.5.35.91.84.98.42.06.78-.09,1.06-.41.06-.07.11-.14.17-.23h-1.2c-.13,0-.16-.08-.12-.19.08-.19.23-.52.32-.68.02-.04.06-.1.16-.1h2.26c-.01.17-.01.34-.04.5-.07.45-.24.86-.51,1.22-.45.59-1.03.96-1.77,1.06-.61.08-1.18-.04-1.67-.41-.46-.35-.72-.81-.79-1.38-.08-.68.12-1.29.53-1.82.44-.58,1.03-.95,1.74-1.08.58-.11,1.14-.04,1.65.3.33.22.57.52.72.88.04.06.01.09-.06.11Z"/>
      <path class="cls-1" d="M11.33,10.05c-.57-.01-1.08-.17-1.52-.55-.37-.32-.6-.72-.67-1.2-.11-.7.08-1.32.5-1.88.45-.6,1-.91,1.74-1.04.63-.11,1.23-.05,1.77.32.49.34.8.79.88,1.39.11.84-.14,1.52-.72,2.11-.41.42-.91.68-1.49.8-.17.03-.34.04-.5.06ZM12.81,7.54c0-.08,0-.14-.02-.21-.11-.62-.68-.96-1.27-.83-.58.13-.95.5-1.09,1.08-.11.49.12.98.57,1.18.34.15.68.13,1.01-.04.49-.25.76-.65.79-1.19Z"/>
    </g>
  </g>
</svg>