<?xml version="1.0" encoding="UTF-8"?>
<svg id="Layer_1" data-name="Layer 1" xmlns="http://www.w3.org/2000/svg" viewBox="0 0 15.34 15.34">
  <defs>
    <style>
      .cls-1 {
        fill: #fff;
        stroke-width: 0px;
      }
    </style>
  </defs>
  <path class="cls-1" d="M7.43,6.6c.07-.11.16-.12.22-.12s.18.01.25.12c.58.8,1.55,2.38,2.26,3.56.46.76.82,1.35.89,1.42.27.28.65.11.87-.21.22-.31.28-.53.28-.77,0-.16-3.12-5.92-3.44-6.4-.3-.46-.4-.58-.92-.58h-.39c-.52,0-.59.12-.89.58-.31.48-3.44,6.24-3.44,6.4,0,.23.06.45.28.77.22.32.6.49.87.21.07-.07.43-.66.89-1.42.71-1.17,1.67-2.76,2.26-3.56h0Z"/>
</svg>