<?xml version="1.0" encoding="UTF-8"?>
<svg xmlns="http://www.w3.org/2000/svg" xmlns:xlink="http://www.w3.org/1999/xlink" viewBox="0 0 15.34 15.34">
  <defs>
    <style>
      .cls-1 {
        fill: #fff;
      }

      .cls-1, .cls-2, .cls-3, .cls-4, .cls-5 {
        stroke-width: 0px;
      }

      .cls-1, .cls-3 {
        fill-rule: evenodd;
      }

      .cls-6 {
        isolation: isolate;
      }

      .cls-2 {
        fill: #1f9cf0;
      }

      .cls-3 {
        fill: url(#linear-gradient);
      }

      .cls-4 {
        fill: #007acc;
      }

      .cls-7 {
        mask: url(#mask);
      }

      .cls-5 {
        fill: #0065a9;
      }

      .cls-8 {
        mix-blend-mode: overlay;
        opacity: .25;
      }
    </style>
    <mask id="mask" x="2.64" y="2.67" width="10.06" height="10.01" maskUnits="userSpaceOnUse">
      <g id="mask0">
        <path class="cls-1" d="M9.78,12.63c.16.06.34.06.5-.02l2.07-1c.22-.1.36-.32.36-.57v-6.76c0-.24-.14-.46-.36-.57l-2.07-1c-.21-.1-.46-.08-.64.06-.03.02-.05.04-.07.06l-3.96,3.62-1.73-1.31c-.16-.12-.39-.11-.53.02l-.55.5c-.18.17-.18.45,0,.62l1.5,1.37-1.5,1.37c-.18.17-.18.45,0,.62l.55.5c.15.14.37.15.53.02l1.73-1.31,3.96,3.62c.06.06.14.11.22.14ZM10.19,5.39l-3.01,2.28,3.01,2.28v-4.57Z"/>
      </g>
    </mask>
    <linearGradient id="linear-gradient" x1="7.67" y1="-2684.12" x2="7.67" y2="-2694.12" gradientTransform="translate(0 -2681.45) scale(1 -1)" gradientUnits="userSpaceOnUse">
      <stop offset="0" stop-color="#fff"/>
      <stop offset="1" stop-color="#fff" stop-opacity="0"/>
    </linearGradient>
  </defs>
  <g class="cls-6">
    <g id="Layer_1" data-name="Layer 1">
      <g class="cls-7">
        <g>
          <path class="cls-5" d="M12.34,3.73l-2.07-1c-.24-.12-.53-.07-.71.12l-6.78,6.19c-.18.17-.18.45,0,.62l.55.5c.15.14.37.15.54.02L12.03,3.99c.27-.21.67-.01.67.33v-.02c0-.24-.14-.46-.36-.57Z"/>
          <path class="cls-4" d="M12.34,11.61l-2.07,1c-.24.12-.53.07-.71-.12L2.77,6.3c-.18-.17-.18-.45,0-.62l.55-.5c.15-.14.37-.15.54-.02l8.17,6.2c.27.21.67.01.67-.33v.02c0,.24-.14.46-.36.57Z"/>
          <path class="cls-2" d="M10.27,12.61c-.24.12-.53.07-.71-.12.23.23.63.07.63-.26V3.11c0-.33-.4-.49-.63-.26.19-.19.47-.24.71-.12l2.07,1c.22.1.36.32.36.57v6.76c0,.24-.14.46-.36.57l-2.07,1Z"/>
          <g class="cls-8">
            <path class="cls-3" d="M9.77,12.63c.16.06.34.06.5-.02l2.07-1c.22-.1.36-.32.36-.57v-6.76c0-.24-.14-.46-.36-.57l-2.07-1c-.21-.1-.46-.08-.64.06-.03.02-.05.04-.07.06l-3.96,3.62-1.73-1.31c-.16-.12-.39-.11-.53.02l-.55.5c-.18.17-.18.45,0,.62l1.5,1.37-1.5,1.37c-.18.17-.18.45,0,.62l.55.5c.15.14.37.15.53.02l1.73-1.31,3.96,3.62c.06.06.14.11.22.14ZM10.18,5.39l-3.01,2.28,3.01,2.28v-4.57Z"/>
          </g>
        </g>
      </g>
    </g>
  </g>
</svg>