<?xml version="1.0" encoding="UTF-8"?>
<svg id="Layer_1" data-name="Layer 1" xmlns="http://www.w3.org/2000/svg" viewBox="0 0 15.34 15.34">
  <defs>
    <style>
      .cls-1 {
        fill: #f44250;
      }

      .cls-1, .cls-2 {
        stroke-width: 0px;
      }

      .cls-2 {
        fill: #fff;
      }
    </style>
  </defs>
  <path class="cls-1" d="M10.89,7.67c0,.3-.12.56-.31.76-.19.19-.46.31-.76.31s-.57.12-.76.31c-.19.19-.31.46-.31.76s-.12.56-.31.76c-.19.19-.46.31-.76.31s-.57-.12-.76-.31c-.19-.19-.31-.46-.31-.76s.12-.56.31-.76c.19-.19.46-.31.76-.31s.57-.12.76-.31c.19-.19.31-.46.31-.76,0-.59-.48-1.07-1.07-1.07-.3,0-.57-.12-.76-.31-.19-.19-.31-.46-.31-.76s.12-.56.31-.76c.19-.19.46-.31.76-.31.59,0,1.07.48,1.07,1.07,0,.3.12.56.31.76.19.19.46.31.76.31.59,0,1.07.48,1.07,1.07Z"/>
  <path class="cls-2" d="M6.59,7.67c0-.59-.48-1.07-1.07-1.07s-1.07.48-1.07,1.07.48,1.07,1.07,1.07,1.07-.48,1.07-1.07Z"/>
  <path class="cls-2" d="M4.45,9.81c0-.59-.48-1.07-1.07-1.07s-1.07.48-1.07,1.07.48,1.07,1.07,1.07,1.07-.48,1.07-1.07Z"/>
  <path class="cls-2" d="M13.04,9.81c0-.59-.48-1.07-1.07-1.07s-1.07.48-1.07,1.07.48,1.07,1.07,1.07,1.07-.48,1.07-1.07Z"/>
</svg>