<?xml version="1.0" encoding="UTF-8"?>
<svg id="Layer_1" data-name="Layer 1" xmlns="http://www.w3.org/2000/svg" viewBox="0 0 15.34 15.34">
  <defs>
    <style>
      .cls-1 {
        fill: #38bdf8;
        fill-rule: evenodd;
      }
    </style>
  </defs>
  <path class="cls-1" d="M7.67,4.08c-1.59,0-2.59.8-2.99,2.39.6-.8,1.3-1.1,2.09-.9.45.11.78.44,1.14.81.59.6,1.26,1.28,2.75,1.28,1.59,0,2.59-.8,2.99-2.39-.6.8-1.3,1.1-2.09.9-.45-.11-.78-.44-1.14-.81-.59-.6-1.26-1.28-2.75-1.28ZM4.68,7.67c-1.59,0-2.59.8-2.99,2.39.6-.8,1.3-1.1,2.09-.9.45.11.78.44,1.14.81.59.6,1.26,1.28,2.75,1.28,1.59,0,2.59-.8,2.99-2.39-.6.8-1.3,1.1-2.09.9-.45-.11-.78-.44-1.14-.81-.59-.6-1.26-1.28-2.75-1.28Z"/>
</svg>