<?xml version="1.0" encoding="UTF-8"?>
<svg id="Layer_1" data-name="Layer 1" xmlns="http://www.w3.org/2000/svg" viewBox="0 0 15.34 15.34">
  <defs>
    <style>
      .cls-1 {
        fill: #fff;
      }

      .cls-1, .cls-2 {
        stroke-width: 0px;
      }

      .cls-2 {
        fill: #99425b;
      }
    </style>
  </defs>
  <path class="cls-2" d="M11.62,7.59c0-.51-.42-.93-.93-.93-.03,0-.07,0-.1,0l1.27-3.76h-5.42l1.27,3.76s-.04,0-.06,0c-.51,0-.93.42-.93.93,0,.41.27.77.65.88-.2.34-.45.65-.73.92-.38.36-.82.64-1.3.81-.57-.29-.83-.94-.59-1.51.03-.06.06-.13.08-.19.41-.1.72-.46.72-.9,0-.51-.42-.93-.93-.93s-.93.42-.93.93c0,.31.16.59.4.76-.23.52-.57,1.07-.67,1.7-.13.76,0,1.57.66,2.02,1.53,1.06,3.19-.66,4.95-1.09.64-.16,1.33-.13,1.89-.46.42-.24.7-.65.78-1.1.08-.45-.04-.89-.3-1.25.13-.16.22-.37.22-.59"/>
  <path class="cls-1" d="M11.47,9.4c-.07.39-.31.74-.67.94-.33.19-.73.25-1.15.31-.22.03-.46.07-.68.12-.6.15-1.18.44-1.75.72-1.13.56-2.1,1.04-3.02.41-.67-.47-.64-1.33-.56-1.8.07-.44.27-.84.46-1.23.03-.07.06-.13.1-.2.09.04.19.06.3.07-.19.64.11,1.33.75,1.66l.09.04.09-.03c.5-.18.97-.47,1.38-.86.27-.25.5-.53.68-.83.06,0,.11.01.17.01.58,0,1.07-.44,1.14-1,.24,0,.49,0,.73,0,.07.56.56,1,1.14,1,.24,0,.47-.08.66-.21.13.27.18.56.13.86h0ZM4.63,6.9c.39,0,.7.31.7.7,0,.14-.04.27-.11.38-.12.18-.31.31-.54.32-.02,0-.03,0-.05,0-.09,0-.17-.02-.25-.04-.15-.06-.28-.17-.36-.31-.06-.1-.09-.22-.09-.35,0-.39.31-.7.7-.7ZM6.97,7.59c0-.35.26-.64.6-.69.03,0,.07,0,.1,0,.22,0,.43.11.55.27.03.04.06.09.08.13.04.09.07.19.07.3,0,.06,0,.11-.02.16-.07.29-.31.5-.61.53-.02,0-.05,0-.07,0-.14,0-.27-.04-.38-.11-.19-.13-.32-.34-.32-.59ZM9.89,6.76c-.15.14-.26.33-.32.53-.26,0-.54,0-.79,0-.06-.22-.18-.41-.35-.56l.73-1.47.73,1.5ZM6.77,3.14h4.78l-1.13,3.33s-.1.03-.14.04l-1.12-2.28-1.12,2.26s-.1-.03-.15-.04l-1.13-3.32ZM11.39,7.59c0,.07-.01.14-.03.2-.05.15-.14.28-.27.37-.11.08-.25.13-.4.13-.32,0-.6-.22-.68-.52-.02-.06-.02-.12-.02-.18,0-.1.02-.19.05-.27.02-.04.04-.08.07-.12.13-.19.34-.31.58-.31.02,0,.04,0,.07,0,.36.03.64.33.64.7h0ZM11.84,7.59c0-.56-.41-1.03-.94-1.13l1.28-3.77h-6.05l1.28,3.78c-.52.11-.9.58-.9,1.13,0,.41.22.78.55.98-.16.23-.34.46-.56.66-.34.32-.72.56-1.13.72-.41-.26-.58-.74-.4-1.17v-.03s.03-.04.04-.06c.45-.16.78-.59.78-1.09,0-.64-.52-1.15-1.15-1.15s-1.15.52-1.15,1.15c0,.32.13.61.34.82-.04.08-.08.17-.12.25-.19.4-.41.85-.5,1.35-.17,1,.1,1.8.75,2.25.39.27.8.38,1.2.38.76,0,1.53-.38,2.28-.75.54-.27,1.1-.55,1.65-.68.21-.05.42-.08.64-.11.44-.06.9-.13,1.31-.37.47-.27.79-.73.89-1.26.08-.45-.02-.9-.25-1.29.11-.18.17-.38.17-.6h0Z"/>
</svg>