<?xml version="1.0" encoding="UTF-8"?>
<svg id="Layer_1" data-name="Layer 1" xmlns="http://www.w3.org/2000/svg" xmlns:xlink="http://www.w3.org/1999/xlink" viewBox="0 0 15.34 15.34">
  <defs>
    <style>
      .cls-1 {
        fill: url(#radial-gradient);
      }

      .cls-2 {
        fill: #6181b6;
      }

      .cls-3 {
        fill: #fff;
      }

      .cls-4 {
        fill: #000004;
      }
    </style>
    <radialGradient id="radial-gradient" cx="-21.49" cy="14.73" fx="-21.49" fy="14.73" r="8.66" gradientTransform="translate(26.52 -9.31)" gradientUnits="userSpaceOnUse">
      <stop offset="0" stop-color="#fff"/>
      <stop offset=".5" stop-color="#4c6b97"/>
      <stop offset="1" stop-color="#231f20"/>
    </radialGradient>
  </defs>
  <ellipse class="cls-1" cx="7.67" cy="7.67" rx="6.6" ry="3.47"/>
  <ellipse class="cls-2" cx="7.67" cy="7.67" rx="6.34" ry="3.21"/>
  <g>
    <path class="cls-3" d="M8.95,8.71s.31-1.62.31-1.62c.07-.37.01-.64-.18-.81-.18-.17-.49-.25-.94-.25h-.54l.16-.8s0-.06-.02-.09c-.02-.02-.05-.04-.08-.04h-.75s-.09.03-.1.08l-.33,1.72c-.03-.19-.11-.36-.22-.5-.22-.25-.57-.38-1.04-.38h-1.46s-.09.03-.1.08l-.68,3.48s0,.06.02.09c.02.02.05.04.08.04h.76s.09-.03.1-.08l.16-.84h.56c.3,0,.54-.03.74-.1.2-.06.38-.17.54-.32.13-.12.24-.25.32-.4l-.14.7s0,.06.02.09c.02.02.05.04.08.04h.75s.09-.03.1-.08l.37-1.91h.52c.22,0,.28.04.3.06.02.02.05.08.01.27l-.3,1.54s0,.06.02.09c.02.02.05.04.08.04h.76s.09-.03.1-.08ZM5.47,7.37c-.05.24-.14.42-.26.51-.13.1-.34.15-.62.15h-.34l.24-1.25h.43c.32,0,.45.07.5.13.07.08.09.24.04.46Z"/>
    <path class="cls-3" d="M12.17,6.41c-.22-.25-.57-.38-1.04-.38h-1.46s-.09.03-.1.08l-.68,3.48s0,.06.02.09c.02.02.05.04.08.04h.76s.09-.03.1-.08l.16-.84h.56c.3,0,.54-.03.74-.1.2-.06.38-.17.54-.32.13-.12.24-.26.33-.41.08-.15.14-.32.18-.5.09-.44.02-.8-.2-1.05ZM11.38,7.37c-.05.24-.14.42-.26.51-.13.1-.34.15-.62.15h-.34l.24-1.25h.43c.32,0,.45.07.5.13.07.08.09.24.04.46Z"/>
  </g>
  <g>
    <path class="cls-4" d="M4.93,6.68c.29,0,.48.05.58.16.1.11.12.29.07.55-.05.27-.15.46-.3.58-.15.12-.38.17-.68.17h-.46l.28-1.46h.52ZM3.08,9.61h.76l.18-.92h.65c.29,0,.52-.03.71-.09.18-.06.35-.16.5-.3.13-.12.23-.25.31-.39.08-.14.13-.3.17-.47.08-.41.02-.73-.18-.96-.2-.23-.52-.35-.96-.35h-1.46l-.68,3.48Z"/>
    <path class="cls-4" d="M6.91,5.21h.75l-.18.92h.67c.42,0,.71.07.87.22.16.15.21.39.14.71l-.31,1.62h-.76l.3-1.54c.03-.18.02-.29-.04-.36-.06-.06-.18-.1-.38-.1h-.6l-.39,1.99h-.75l.68-3.48Z"/>
    <path class="cls-4" d="M10.84,6.68c.29,0,.48.05.58.16.1.11.12.29.07.55-.05.27-.15.46-.3.58-.15.12-.38.17-.68.17h-.46l.28-1.46h.52ZM8.99,9.61h.76l.18-.92h.65c.29,0,.52-.03.71-.09.18-.06.35-.16.5-.3.13-.12.23-.25.31-.39.08-.14.13-.3.17-.47.08-.41.02-.73-.18-.96s-.52-.35-.96-.35h-1.46l-.68,3.48Z"/>
  </g>
</svg>