<?xml version="1.0" encoding="UTF-8"?>
<svg id="Layer_1" data-name="Layer 1" xmlns="http://www.w3.org/2000/svg" version="1.1" viewBox="0 0 15.3 15.3">
  <defs>
    <style>
      .cls-1 {
        fill: #6db33f;
      }

      .cls-1, .cls-2 {
        stroke-width: 0px;
      }

      .cls-2 {
        fill: #fff;
      }
    </style>
  </defs>
  <path class="cls-2" d="M4.5,9.1c0,0-.1,0-.2,0,0,0,0-.1,0-.2s0-.1,0-.2c0,0,.1,0,.2,0s.1,0,.2,0c0,0,0,.1,0,.2s0,.1,0,.2c0,0-.1,0-.2,0Z"/>
  <path class="cls-2" d="M7.3,9h-.5l-1.2-1.9s0,0,0-.2h0c0,0,0,.2,0,.4v1.7h-.4v-2.6h.5l1.2,1.9c0,0,0,.1,0,.2h0c0,0,0-.2,0-.4v-1.7h.4v2.6h0Z"/>
  <path class="cls-2" d="M9.2,9h-1.4v-2.6h1.4v.4h-.9v.7h.9v.4h-.9v.8h1v.4h0Z"/>
  <path class="cls-2" d="M11.3,6.8h-.7v2.2h-.4v-2.2h-.7v-.4h1.9s0,.4,0,.4Z"/>
  <g id="Layer_2" data-name="Layer 2">
    <g id="Layer_1-2" data-name="Layer 1-2">
      <path class="cls-1" d="M13.1,7.1l-2.2-3.8c-.2-.3-.7-.6-1-.6h-4.3c-.4,0-.8.3-1,.6l-2.2,3.8c-.2.3-.2.9,0,1.2l2.2,3.8c.2.3.7.6,1,.6h4.4c.4,0,.8-.3,1-.6l2.2-3.8c.2-.3.2-.9,0-1.2ZM7.2,4.8c0-.2.2-.4.4-.4s.4.2.4.4v2.7c0,.2-.2.4-.4.4s-.4-.2-.4-.4h0v-2.7h0ZM7.6,10.5c-1.7,0-3-1.4-3-3,0-1,.5-1.9,1.2-2.4.2-.1.4,0,.6,0s0,.4,0,.6h0c-1,.7-1.2,2.1-.5,3.1.7,1,2.1,1.2,3.1.5.6-.4.9-1.1.9-1.8,0-.7-.3-1.4-.9-1.8-.2-.1-.2-.4,0-.6s.4-.2.6,0c.8.6,1.2,1.5,1.2,2.4,0,1.7-1.4,3-3,3Z"/>
    </g>
  </g>
</svg>