<?xml version="1.0" encoding="UTF-8"?>
<svg id="Layer_1" data-name="Layer 1" xmlns="http://www.w3.org/2000/svg" viewBox="0 0 15.34 15.34">
  <defs>
    <style>
      .cls-1 {
        fill: #6181b6;
      }
    </style>
  </defs>
  <path class="cls-1" d="M7.67,4.46c-3.5,0-6.34,1.44-6.34,3.21s2.84,3.21,6.34,3.21,6.34-1.44,6.34-3.21-2.84-3.21-6.34-3.21ZM5.82,8.31c-.15.14-.33.25-.51.31-.19.06-.43.09-.72.09h-.66l-.18.94h-.77l.69-3.55h1.49c.45,0,.77.12.98.35s.27.56.19.98c-.03.17-.09.33-.17.48-.08.14-.19.28-.31.39ZM8.08,8.71l.31-1.57c.03-.18.02-.3-.04-.37-.06-.07-.19-.1-.38-.1h-.61l-.4,2.03h-.77l.69-3.55h.77l-.18.94h.68c.43,0,.73.08.89.23.16.15.21.39.15.73l-.32,1.65h-.78ZM12.34,7.44c-.03.17-.09.33-.17.48-.08.14-.19.28-.31.39-.15.14-.33.25-.51.31-.19.06-.43.09-.72.09h-.66l-.18.94h-.77l.69-3.55h1.49c.45,0,.77.12.98.35s.27.56.19.98Z"/>
  <path class="cls-1" d="M10.88,6.67h-.53l-.29,1.49h.47c.31,0,.54-.06.7-.18s.26-.31.31-.59c.05-.26.03-.45-.07-.56-.1-.11-.29-.16-.59-.16Z"/>
  <path class="cls-1" d="M4.85,6.67h-.53l-.29,1.49h.47c.31,0,.54-.06.7-.18.15-.12.26-.31.31-.59.05-.26.03-.45-.07-.56s-.29-.16-.59-.16Z"/>
</svg>