<?xml version="1.0" encoding="UTF-8"?>
<svg id="Layer_1" data-name="Layer 1" xmlns="http://www.w3.org/2000/svg" version="1.1" viewBox="0 0 15.3 15.3">
  <defs>
    <style>
      .cls-1 {
        fill: #6db33f;
        stroke-width: 0px;
      }
    </style>
  </defs>
  <path class="cls-1" d="M13.1,7.1l-2.2-3.8c-.2-.3-.7-.6-1-.6h-4.3c-.4,0-.8.3-1,.6l-2.2,3.8c-.2.3-.2.9,0,1.2l2.2,3.8c.2.3.7.6,1,.6h4.4c.4,0,.8-.3,1-.6l2.2-3.8c.2-.3.2-.9,0-1.2ZM7.2,4.8c0-.2.2-.4.4-.4s.4.2.4.4v2.7c0,.2-.2.4-.4.4s-.4-.2-.4-.4v-2.7ZM7.6,10.5c-1.7,0-3-1.4-3-3,0-1,.5-1.9,1.2-2.4.2-.1.4,0,.6,0,.1.2,0,.4,0,.6-1,.7-1.2,2.1-.5,3.1s2.1,1.2,3.1.5c.6-.4.9-1.1.9-1.8,0-.7-.3-1.4-.9-1.8-.2-.1-.2-.4,0-.6s.4-.2.6,0c.8.6,1.2,1.5,1.2,2.4,0,1.7-1.4,3-3,3Z"/>
</svg>