<?xml version="1.0" encoding="UTF-8"?>
<svg id="Layer_1" data-name="Layer 1" xmlns="http://www.w3.org/2000/svg" viewBox="0 0 15.34 15.34">
  <defs>
    <style>
      .cls-1 {
        fill: #e0234e;
        stroke-width: 0px;
      }
    </style>
  </defs>
  <path class="cls-1" d="M8.6,3.02s0,.03.01.05c0,.02,0,.03,0,.05.01.23-.06.26-.11.39-.08.18-.05.36.04.51,0,.02.02.04.03.06-.1-.66.45-.76.55-.96,0-.18-.14-.3-.26-.38-.11-.07-.21-.09-.31-.09-.07,0-.14.02-.2.04.13.09.21.21.24.34Z"/>
  <path class="cls-1" d="M11.3,4.65s0,0,0-.01t0,0s0,0,0,0c0,.03,0,.06,0,.09,0,.06-.02.12-.03.17-.01.06-.03.12-.04.17-.02.05-.04.11-.06.17-.02.05-.05.11-.08.16-.03.05-.06.1-.09.15-.03.05-.07.1-.11.14-.04.05-.08.09-.12.13-.03.02-.05.04-.08.06-.02.02-.04.03-.06.05-.05.04-.09.07-.15.1-.05.03-.1.06-.15.09-.05.03-.11.05-.16.07-.05.02-.11.04-.17.05-.06.02-.12.03-.17.04-.06.01-.12.02-.18.02-.04,0-.08,0-.12,0-.06,0-.12,0-.18-.01-.06,0-.12-.01-.18-.03-.06-.01-.12-.03-.17-.04.06,0,.11-.01.17-.02.06-.01.12-.02.17-.04.06-.02.11-.03.17-.05.06-.02.11-.05.16-.07.05-.03.1-.05.16-.09.05-.03.1-.07.15-.1.05-.04.09-.08.13-.12.04-.04.08-.08.12-.13.04-.05.08-.09.11-.14,0,0,.01-.02.02-.03.03-.04.05-.08.08-.12.03-.05.05-.1.08-.16.02-.05.04-.11.06-.17.02-.05.03-.11.04-.17.01-.06.02-.12.03-.17,0-.06.01-.12.01-.18,0-.04,0-.08,0-.13,0-.06-.01-.12-.02-.17-.01-.06-.02-.12-.04-.17-.02-.05-.04-.11-.06-.17-.02-.05-.05-.11-.07-.16-.03-.05-.06-.1-.09-.15-.03-.05-.07-.1-.1-.14-.04-.04-.08-.09-.12-.13-.02-.02-.04-.04-.07-.06-.12-.09-.24-.18-.36-.26-.02-.01-.03-.02-.05-.03-.09-.05-.17-.08-.25-.11-.01.06,0,.04,0,.08,0,.02,0,.05,0,.07,0,.02-.01.04-.02.06,0,.02-.01.04-.02.06-.01.02-.02.04-.03.06,0,.01-.01.02-.02.03,0,0-.01.02-.02.02-.01.02-.03.04-.04.05-.02.02-.03.03-.05.05h0s-.03.03-.05.04c-.05.04-.12.07-.18.11-.02.01-.04.02-.05.04-.02.01-.03.03-.05.04-.02.02-.03.03-.05.05-.01.02-.03.03-.04.05-.01.02-.03.04-.04.05-.01.02-.02.04-.03.06,0,.02-.02.04-.02.06,0,.02-.01.04-.02.06,0,.01,0,.02,0,.03,0,.01,0,.02,0,.03,0,.02,0,.04,0,.07,0,.02,0,.03,0,.05,0,.02,0,.04,0,.07,0,.02,0,.04.01.06,0,.02.01.04.02.06,0,.01.01.03.02.04l-.6-.23c-.1-.03-.2-.05-.3-.08-.05-.01-.11-.03-.16-.04-.16-.03-.32-.05-.47-.07,0,0,0,0-.01,0-.16-.02-.31-.02-.47-.02-.11,0-.23,0-.34.01-.16.01-.32.03-.48.06-.04,0-.08.01-.12.02-.08.02-.16.03-.23.05-.04.01-.08.02-.12.03-.04.02-.08.03-.11.05-.03.01-.06.03-.09.04,0,0-.01,0-.01,0-.03.01-.05.02-.07.04,0,0-.01,0-.02,0-.03.01-.06.03-.08.04-.02,0-.04.02-.05.03,0,0-.02.01-.02.01-.02.01-.05.03-.07.04-.02.01-.04.03-.06.04-.02.01-.04.02-.05.04,0,0,0,0,0,0-.02.01-.03.02-.05.04,0,0,0,0,0,0-.01.01-.03.02-.04.03,0,0-.01,0-.02.01-.01.01-.03.02-.04.03,0,0,0,0-.01.01-.02.02-.03.03-.05.04,0,0,0,0,0,0-.02.01-.03.03-.05.04,0,0,0,0,0,0-.01.01-.03.03-.04.04,0,0-.01.01-.02.02-.01.02-.03.03-.04.05,0,0,0,0-.01.01-.02.02-.04.04-.06.06,0,0,0,0,0,0-.04.04-.09.09-.13.13-.05.04-.1.08-.15.11-.05.04-.1.07-.16.1-.05.03-.11.05-.16.08-.05.02-.11.04-.17.06-.11.02-.22.07-.32.08-.02,0-.04,0-.07,0-.02,0-.04.01-.06.02-.02,0-.04.02-.06.02-.02,0-.04.02-.06.03-.02.01-.04.02-.06.04-.02.01-.04.03-.05.04-.02.01-.04.03-.05.05-.02.02-.03.03-.04.05-.01.02-.03.04-.04.06-.01.02-.03.04-.04.06-.01.02-.02.04-.03.07,0,.02-.02.04-.02.07,0,.02-.01.04-.01.06,0,0,0,0,0,0,0,.02,0,.05,0,.07,0,.02,0,.03,0,.05,0,.01,0,.02,0,.03,0,.02,0,.03.01.05,0,.02.01.03.02.05h0s.02.03.03.05c.01.02.02.03.03.05.01.01.03.03.04.04.02.02.03.03.05.04.06.05.08.07.16.12.01,0,.03.01.04.02,0,0,0,0,0,0,0,0,0,0,0,.01,0,.02,0,.04.01.06,0,.02.01.04.02.06,0,.02.01.03.02.05,0,0,0,.01,0,.01.01.02.02.04.03.06.01.02.03.04.04.05.01.02.03.03.04.05.02.02.03.03.05.04,0,0,0,0,0,0,.02.01.03.03.05.04.02.01.04.02.06.03.02.01.04.02.06.03.02,0,.03.01.05.02,0,0,0,0,.01,0,.01,0,.02,0,.03,0,0,.14-.01.27.01.32.02.05.14-.11.25-.29-.02.18-.03.39,0,.45.03.06.19-.14.32-.36,1.85-.43,3.53.85,3.71,2.65-.03-.28-.38-.44-.54-.4-.08.19-.21.44-.43.59.02-.17.01-.35-.03-.52-.06.24-.17.46-.32.66-.25.02-.5-.1-.62-.28-.01,0-.01-.02-.02-.03,0-.02-.02-.04-.02-.05,0-.02-.01-.04-.02-.05,0-.02,0-.04,0-.06v-.04s0-.04.01-.05c0-.02.01-.04.02-.05.01-.02.02-.04.03-.05.04-.12.04-.23-.04-.29-.02-.01-.03-.02-.05-.03-.01,0-.02,0-.03-.01,0,0-.01,0-.02,0-.02,0-.04-.01-.05-.01-.02,0-.04,0-.05,0-.02,0-.04,0-.06,0-.01,0-.03,0-.04,0-.02,0-.04,0-.06,0-.02,0-.04,0-.05.01-.02,0-.04.01-.05.02-.02,0-.03.02-.05.02-.02,0-.03.02-.05.03-.61.4-.24,1.32.17,1.59-.16.03-.32.06-.36.1,0,0,0,0,0,0,.11.07.23.13.35.18.17.05.34.1.42.12h0c.22.05.44.06.66.05,1.15-.08,2.1-.96,2.27-2.12,0,.02.01.04.02.07,0,.05.02.1.02.15h0s0,.05.01.07h0s0,.06,0,.08c0,.03,0,.06,0,.09v.04s0,.03,0,.04c0,.02,0,.03,0,.05v.04s0,.03,0,.05c0,.01,0,.02,0,.03,0,.02,0,.04,0,.06,0,0,0,.02,0,.02,0,.02,0,.04,0,.06,0,0,0,.02,0,.02,0,.03,0,.05-.01.08h0s-.01.05-.02.08h0s-.01.05-.02.08c0,0,0,0,0,.01,0,.02-.01.05-.02.07h0s-.02.06-.02.08c0,0,0,0,0,0,0,.03-.02.05-.02.08-.01.03-.02.05-.03.08-.01.03-.02.05-.03.08-.01.03-.02.05-.03.08h0s-.02.05-.03.07c0,0,0,.01,0,.02,0,0,0,0,0,0-.17.34-.42.64-.73.88-.02.01-.04.03-.06.04,0,0-.01,0-.02.01-.02.01-.04.03-.06.04v.02h.01s.07-.01.11-.02h0c.07-.01.14-.02.2-.04.02,0,.04,0,.06-.01.01,0,.02,0,.04,0,.02,0,.04,0,.05-.01.02,0,.03,0,.05-.01.26-.06.51-.15.76-.25-.34.47-.78.86-1.3,1.15-.1.06-.21.12-.32.17.11,0,.22-.02.32-.03.19-.03.38-.07.57-.12,1.05-.31,1.93-1.02,2.46-1.97-.11.6-.35,1.18-.7,1.68.25-.17.48-.36.7-.58.58-.61.97-1.38,1.1-2.22.09.41.11.84.08,1.26,1.88-2.62.16-5.35-.57-6.06Z"/>
</svg>