<?xml version="1.0" encoding="UTF-8"?>
<svg id="Layer_1" data-name="Layer 1" xmlns="http://www.w3.org/2000/svg" viewBox="0 0 15.34 15.34">
  <defs>
    <style>
      .cls-1 {
        fill: #6ea53f;
      }
    </style>
  </defs>
  <path class="cls-1" d="M10.15,10.76l-1.27-2.93c.09.84-.04,1.49-.41,1.98-.03.04-.06.08-.1.11l.56,1.32c.12.29.34.49.66.49.36,0,.64-.29.64-.67,0-.09-.02-.19-.08-.29h0Z"/>
  <path class="cls-1" d="M4.19,9.82c-.25-.18-.34-.43-.32-.86.01-.31.12-.61.29-.87.2-.29.49-.51.84-.64.2-.08.4-.12.59-.14l.85-2.01.71,1.7c.28-.16.53-.37.7-.6.08-.11.2-.17.33-.18l-.89-2.05c-.15-.35-.42-.57-.8-.57h-.07c-.38,0-.66.22-.81.57l-2.85,6.58c-.05.11-.09.22-.09.32,0,.36.27.65.63.65.29,0,.52-.16.63-.44l.23-.55s-.04-.02-.06-.04h0c-.22-.17-.26-.5-.08-.73.05-.06.1-.11.17-.14Z"/>
  <path class="cls-1" d="M8.24,9.63c.62-.82.36-2.09.07-3.02h0s0,0,0,0c0-.02-.02-.04-.03-.05-.02-.02-.05-.03-.09-.03-.04,0-.08.02-.1.05-.01.02-.02.03-.04.05,0,0,0,.01-.01.02,0,0-.02.02-.02.03,0,0-.01.01-.02.02,0,0-.01.02-.02.03,0,0-.01.01-.02.02,0,0-.02.02-.03.03,0,0-.01.02-.02.02-.01.01-.02.02-.04.04,0,0-.01.01-.02.02,0,0-.02.02-.02.02,0,0-.01.01-.02.02,0,0-.02.01-.02.02,0,0-.01.01-.02.02,0,0-.02.02-.03.02,0,0-.01.01-.02.02-.02.01-.03.03-.05.04,0,0-.01,0-.02.01-.01,0-.02.02-.03.03,0,0-.01,0-.02.01-.01,0-.02.02-.03.02,0,0-.01,0-.02.01-.01,0-.03.02-.04.03,0,0,0,0-.01,0-.02.01-.04.02-.05.04,0,0,0,0,0,0-.02.01-.04.02-.05.03,0,0,0,0-.01,0-.02,0-.03.02-.05.03,0,0,0,0-.01,0-.02,0-.03.02-.05.03-.2.11-.41.19-.6.23-.43.1-.82.06-1.21.13h0c-.12.02-.24.05-.36.1-.18.07-.34.16-.47.27,0,0,0,0,0,0-.01.01-.02.02-.04.03,0,0,0,0,0,0-.01.01-.02.02-.03.03,0,0,0,0,0,0-.01.01-.02.02-.03.03,0,0,0,0,0,0-.01.01-.02.02-.03.03,0,0,0,0,0,0,0,.01-.02.02-.03.03,0,0,0,0,0,0,0,.01-.02.02-.03.03,0,0,0,0,0,0,0,.01-.02.02-.02.03,0,0,0,0,0,0,0,.01-.02.02-.02.03,0,0,0,0,0,0,0,.01-.01.02-.02.03,0,0,0,0,0,0,0,.01-.01.02-.02.03,0,0,0,0,0,0,0,.01-.01.02-.02.03,0,0,0,0,0,0,0,.01-.01.02-.02.03,0,0,0,0,0,0,0,.01-.01.02-.02.03,0,0,0,0,0,0,0,.01,0,.02-.01.03,0,0,0,0,0,0,0,.01,0,.02-.01.03,0,0,0,0,0,0,0,.01,0,.02-.01.04,0,0,0,0,0,0,0,.01,0,.02-.01.04,0,0,0,0,0,0,0,.01,0,.03-.01.04,0,0,0,0,0,0,0,.01,0,.03-.01.04,0,0,0,.02,0,.02,0,0,0,.01,0,.02,0,0,0,.02,0,.03,0,0,0,0,0,.01,0,.01,0,.02,0,.03,0,0,0,0,0,0,0,.01,0,.02,0,.03,0,0,0,0,0,0,0,.01,0,.02,0,.03,0,0,0,0,0,0,0,.01,0,.02,0,.03,0,0,0,0,0,0,0,.01,0,.02,0,.03,0,0,0,0,0,0,0,.01,0,.02,0,.04,0,0,0,0,0,0,0,.01,0,.02,0,.04,0,0,0,0,0,0,0,.01,0,.02,0,.04,0,0,0,0,0,0,0,.01,0,.02,0,.04,0,0,0,0,0,0,0,.01,0,.02,0,.04,0,0,0,0,0,0,.04.31.19.57.43.68l.04.02s.95-.19,1.47-.38c.58-.22,1.21-.67,1.6-1.23.01-.02.03-.02.04-.02.02,0,.05.02.05.04,0,0,0,.02,0,.03-.01.03-.03.05-.04.08h0s-.03.06-.05.09h0s-.04.07-.06.1c0,0,0,0,0,0-.02.03-.04.06-.06.09,0,0,0,0,0,0-.02.03-.04.06-.06.09,0,0,0,0,0,0-.07.09-.14.18-.22.26,0,0,0,0,0,0-.03.03-.05.06-.08.08h0c-.24.25-.51.45-.79.6h0s-.02,0-.03.01c-.24.12-.72.29-1.06.4-.07.02-.05.12.02.12h0c.13,0,.29,0,.47,0,.75,0,1.8-.08,2.3-.54h0s0,0,0,0c0,0,.01-.01.02-.02.01-.01.03-.03.04-.04,0,0,0,0,0,0,.01-.02.03-.03.04-.05Z"/>
  <path class="cls-1" d="M4.57,10.11s-.08-.05-.12-.05h0s0,0,0,0c0,0-.02,0-.02,0-.07,0-.13.03-.17.08,0,0,0,.01-.01.02,0,0,0,0,0,0,0,0,0,.01-.01.02,0,0,0,0,0,0,0,0,0,.01,0,.02,0,0,0,0,0,0,0,0,0,0,0,.01,0,0,0,0,0,0,0,0,0,0,0,.01,0,0,0,0,0,.01,0,0,0,0,0,0,0,0,0,0,0,.01,0,0,0,0,0,0,0,0,0,.01,0,.02,0,0,0,0,0,0,0,0,0,.01,0,.02,0,0,0,0,0,0,0,0,0,.01,0,.02,0,0,0,0,0,0,.01.04.04.08.08.11.04.03.1.05.15.05.07,0,.13-.03.17-.08.08-.1.06-.24-.03-.32Z"/>
  <path class="cls-1" d="M11.66,5.59c-.38,0-.66.3-.66.68v4.74c0,.38.29.66.66.66s.68-.29.68-.66v-4.74c0-.38-.3-.68-.68-.68Z"/>
  <path class="cls-1" d="M11.67,5.14c.38,0,.68-.3.68-.68s-.31-.69-.68-.68c-.38,0-.68.3-.68.68s.3.68.68.68Z"/>
</svg>