<?xml version="1.0" encoding="UTF-8"?>
<svg id="Layer_1" data-name="Layer 1" xmlns="http://www.w3.org/2000/svg" viewBox="0 0 15.34 15.34">
  <defs>
    <style>
      .cls-1 {
        fill: #6181b6;
      }

      .cls-2 {
        fill: #000004;
      }
    </style>
  </defs>
  <ellipse class="cls-1" cx="7.67" cy="7.67" rx="6.34" ry="3.21"/>
  <g>
    <path class="cls-2" d="M4.85,6.67c.29,0,.49.05.59.16.1.11.12.29.07.56-.05.27-.16.47-.31.59-.15.12-.38.18-.7.18h-.47l.29-1.49h.53ZM2.96,9.66h.77l.18-.94h.66c.29,0,.53-.03.72-.09.19-.06.36-.16.51-.31.13-.12.23-.25.31-.39.08-.14.14-.3.17-.48.08-.42.02-.75-.19-.98-.21-.23-.53-.35-.98-.35h-1.49l-.69,3.55Z"/>
    <path class="cls-2" d="M6.87,5.16h.77l-.18.94h.68c.43,0,.73.08.89.22.16.15.21.39.15.73l-.32,1.65h-.78l.31-1.57c.03-.18.02-.3-.04-.37-.06-.06-.19-.1-.38-.1h-.61l-.4,2.03h-.77l.69-3.55Z"/>
    <path class="cls-2" d="M10.88,6.67c.29,0,.49.05.59.16.1.11.12.29.07.56-.05.27-.16.47-.31.59-.15.12-.38.18-.7.18h-.47l.29-1.49h.53ZM9,9.66h.77l.18-.94h.66c.29,0,.53-.03.72-.09.19-.06.36-.16.51-.31.13-.12.23-.25.31-.39.08-.14.14-.3.17-.48.08-.42.02-.75-.19-.98s-.53-.35-.98-.35h-1.49l-.69,3.55Z"/>
  </g>
</svg>