<?xml version="1.0" encoding="UTF-8"?>
<svg id="Layer_1" data-name="Layer 1" xmlns="http://www.w3.org/2000/svg" viewBox="0 0 15.34 15.34">
  <defs>
    <style>
      .cls-1 {
        fill: #f05133;
        stroke-width: 0px;
      }
    </style>
  </defs>
  <path class="cls-1" d="M12.51,7.23l-4.39-4.39c-.25-.25-.66-.25-.92,0l-.91.91,1.16,1.16c.27-.09.58-.03.79.18.22.22.28.53.18.8l1.12,1.11c.27-.09.58-.03.8.18.3.3.3.79,0,1.09-.3.3-.79.3-1.09,0-.23-.23-.28-.56-.17-.84l-1.04-1.04v2.74c.07.04.14.08.2.15.3.3.3.79,0,1.09-.3.3-.79.3-1.09,0-.3-.3-.3-.79,0-1.09.07-.07.16-.13.25-.17v-2.76c-.09-.04-.18-.09-.25-.17-.23-.23-.28-.56-.17-.84l-1.14-1.14-3.01,3.01c-.25.25-.25.66,0,.92l4.39,4.39c.25.25.66.25.92,0l4.37-4.37c.25-.25.25-.66,0-.92Z"/>
</svg>