<?xml version="1.0" encoding="UTF-8"?>
<svg id="Layer_1" data-name="Layer 1" xmlns="http://www.w3.org/2000/svg" viewBox="0 0 15.34 15.34">
  <defs>
    <style>
      .cls-1 {
        fill: #000;
      }

      .cls-1, .cls-2 {
        stroke-width: 0px;
      }

      .cls-2 {
        fill: #fff;
      }
    </style>
  </defs>
  <rect class="cls-2" x="2.57" y="2.57" width="10.2" height="10.2"/>
  <g>
    <path class="cls-1" d="M10.03,4.86c-.11-.11-.28-.11-.38,0l-4.72,4.72c-.11.11-.11.28,0,.38.05.05.12.08.19.08s.14-.03.19-.08l4.72-4.72c.11-.11.11-.28,0-.38Z"/>
    <path class="cls-1" d="M10.41,7.63c-.11-.11-.28-.11-.38,0l-2.47,2.47c-.11.11-.11.28,0,.38.05.05.12.08.19.08s.14-.03.19-.08l2.47-2.47c.11-.11.11-.28,0-.38Z"/>
  </g>
</svg>