<?xml version="1.0" encoding="UTF-8"?>
<svg id="Layer_1" data-name="Layer 1" xmlns="http://www.w3.org/2000/svg" viewBox="0 0 15.34 15.34">
  <defs>
    <style>
      .cls-1 {
        fill: #fff;
        fill-rule: evenodd;
      }

      .cls-1, .cls-2 {
        stroke-width: 0px;
      }

      .cls-2 {
        fill: #3178c6;
      }
    </style>
  </defs>
  <rect class="cls-2" x="2.68" y="2.68" width="9.97" height="9.97" rx=".78" ry=".78"/>
  <path class="cls-1" d="M8.55,10.49v1.08c.17.09.38.16.62.2s.49.07.76.07.5-.02.73-.07.44-.13.61-.24c.17-.11.31-.26.42-.44.1-.18.15-.41.15-.68,0-.19-.03-.37-.09-.51s-.14-.28-.25-.39c-.11-.11-.24-.22-.4-.31-.15-.09-.33-.18-.52-.26-.14-.06-.27-.11-.38-.17-.11-.05-.21-.11-.29-.17-.08-.06-.14-.12-.18-.18s-.06-.14-.06-.22c0-.07.02-.14.06-.2s.09-.11.16-.15c.07-.04.15-.08.26-.1.1-.02.21-.04.34-.04.09,0,.18,0,.28.02.1.01.2.03.3.06.1.03.2.06.29.11.1.04.18.09.26.15v-1c-.16-.06-.34-.11-.54-.14s-.42-.05-.67-.05-.5.03-.73.08c-.23.05-.43.14-.6.26-.17.12-.31.26-.41.45-.1.18-.15.4-.15.65,0,.32.09.59.28.82.19.23.47.42.84.57.15.06.29.12.41.18.13.06.24.12.33.18s.17.13.22.21.08.16.08.25c0,.07-.02.13-.05.19-.03.06-.08.11-.15.15s-.15.08-.26.1-.22.04-.36.04c-.23,0-.46-.04-.69-.12-.23-.08-.44-.2-.64-.37h0ZM6.75,7.81h1.38v-.89h-3.86v.89h1.38v3.94h1.1v-3.94Z"/>
</svg>