<?xml version="1.0" encoding="UTF-8"?>
<svg id="Layer_1" data-name="Layer 1" xmlns="http://www.w3.org/2000/svg" viewBox="0 0 15.34 15.34">
  <defs>
    <style>
      .cls-1 {
        fill: #fff;
        fill-rule: evenodd;
        stroke-width: 0px;
      }
    </style>
  </defs>
  <path class="cls-1" d="M7.67,2.66c-2.84,0-5.15,2.3-5.15,5.15,0,2.28,1.47,4.2,3.52,4.88.26.05.35-.11.35-.24,0-.12,0-.53,0-.96-1.29.24-1.63-.32-1.73-.6-.06-.15-.31-.6-.53-.73-.18-.1-.44-.33,0-.34.41,0,.69.37.79.53.46.78,1.2.56,1.5.42.05-.33.18-.56.33-.69-1.14-.13-2.34-.57-2.34-2.54,0-.56.2-1.02.53-1.38-.05-.13-.23-.66.05-1.36,0,0,.43-.14,1.41.53.41-.12.85-.17,1.29-.17s.87.06,1.29.17c.98-.67,1.41-.53,1.41-.53.28.71.1,1.23.05,1.36.33.36.53.82.53,1.38,0,1.97-1.2,2.41-2.35,2.54.19.16.35.47.35.95,0,.69,0,1.24,0,1.41,0,.14.1.3.35.24,2.03-.68,3.51-2.61,3.51-4.88,0-2.84-2.3-5.15-5.15-5.15Z"/>
</svg>