<?xml version="1.0" encoding="UTF-8"?>
<svg id="Layer_1" data-name="Layer 1" xmlns="http://www.w3.org/2000/svg" viewBox="0 0 15.34 15.34">
  <defs>
    <style>
      .cls-1 {
        fill: #e0234e;
        stroke-width: 0px;
      }
    </style>
  </defs>
  <path class="cls-1" d="M7.74,8.29c.3-.03.54-.25.61-.53.01-.05.02-.11.02-.16,0-.11-.02-.21-.07-.3-.02-.05-.05-.09-.08-.13-.13-.17-.33-.27-.55-.27-.04,0-.07,0-.1,0-.34.05-.6.34-.6.69,0,.25.13.46.32.59.11.07.24.11.38.11.02,0,.05,0,.07,0Z"/>
  <path class="cls-1" d="M8.43,6.73c.17.15.29.34.35.56.26,0,.53,0,.79,0,.06-.21.17-.39.32-.53l-.73-1.5-.73,1.47Z"/>
  <path class="cls-1" d="M8.04,6.5l1.12-2.26,1.12,2.28s.09-.03.14-.04l1.13-3.33h-4.78l1.13,3.32c.05.01.1.02.15.04Z"/>
  <path class="cls-1" d="M10.04,7.32c-.03.08-.05.17-.05.27,0,.06,0,.12.02.18.08.3.35.52.68.52.15,0,.29-.05.4-.13.13-.09.22-.22.27-.37.02-.06.03-.13.03-.2,0-.36-.28-.67-.64-.7-.02,0-.04,0-.07,0-.24,0-.45.12-.58.31-.03.04-.05.08-.07.12Z"/>
  <path class="cls-1" d="M10.69,8.75c-.58,0-1.07-.44-1.14-1-.24,0-.5,0-.73,0-.07.56-.56,1-1.14,1-.06,0-.12,0-.17-.01-.19.3-.42.57-.68.83-.41.39-.88.68-1.38.86l-.09.03-.09-.04c-.64-.33-.94-1.02-.75-1.66-.1-.01-.2-.04-.3-.07-.03.07-.06.13-.1.2-.19.39-.39.79-.46,1.23-.08.47-.11,1.33.56,1.8.92.64,1.89.15,3.02-.41.56-.28,1.15-.57,1.75-.72.23-.06.46-.09.69-.12.42-.06.82-.12,1.15-.31.35-.21.6-.55.67-.94.05-.3,0-.6-.13-.86-.19.13-.41.21-.66.21Z"/>
  <path class="cls-1" d="M4.39,8.26c.08.03.16.04.25.04.02,0,.03,0,.05,0,.23-.02.43-.14.54-.32.07-.11.11-.24.11-.38,0-.39-.31-.7-.7-.7s-.7.31-.7.7c0,.13.03.24.09.35.08.14.21.25.36.31Z"/>
</svg>