<?xml version="1.0" encoding="UTF-8"?>
<svg id="Layer_1" data-name="Layer 1" xmlns="http://www.w3.org/2000/svg" viewBox="0 0 15.34 15.34">
  <defs>
    <style>
      .cls-1 {
        fill: #6db33f;
      }

      .cls-1, .cls-2 {
        stroke-width: 0px;
      }

      .cls-2 {
        fill: #fff;
      }
    </style>
  </defs>
  <path class="cls-1" d="M12.49,7.1l-1.92-3.33c-.2-.35-.58-.56-.98-.56h-3.84c-.41,0-.78.21-.98.56l-1.92,3.33c-.2.35-.2.78,0,1.13l1.92,3.33c.2.34.57.56.98.56h3.84c.4,0,.78-.22.98-.56l1.92-3.33c.2-.35.2-.78,0-1.13Z"/>
  <path class="cls-2" d="M7.26,5.09c0-.22.19-.4.41-.4s.4.18.4.4v2.42c0,.23-.18.41-.4.41s-.41-.18-.41-.41v-2.42Z"/>
  <path class="cls-2" d="M7.67,10.26c-1.52,0-2.75-1.23-2.75-2.75,0-.87.41-1.68,1.11-2.2.16-.12.39-.09.5.07.12.16.09.39-.07.51-.9.66-1.09,1.93-.42,2.83.67.9,1.94,1.09,2.84.42.51-.38.82-.99.82-1.63-.01-.64-.31-1.25-.83-1.63-.16-.12-.19-.34-.08-.51.12-.16.35-.19.51-.07.7.52,1.12,1.34,1.12,2.21,0,1.52-1.24,2.75-2.75,2.75Z"/>
</svg>