<?xml version="1.0" encoding="UTF-8"?>
<svg id="Layer_1" data-name="Layer 1" xmlns="http://www.w3.org/2000/svg" viewBox="0 0 15.34 15.34">
  <defs>
    <style>
      .cls-1 {
        fill: #ec6520;
      }
    </style>
  </defs>
  <path class="cls-1" d="M12.03,6.66h-3.16c-.16,0-.29-.13-.29-.29v-3.29c0-.24-.2-.44-.44-.44h-1.13c-.24,0-.44.2-.44.44v3.27c0,.17-.14.31-.31.31h-1.04c-.17,0-.31-.13-.31-.3v-3.28c0-.24-.19-.44-.43-.44h-1.13c-.24,0-.44.2-.44.44v9.22c0,.22.18.39.39.39h8.72c.22,0,.39-.18.39-.39v-5.25c0-.22-.18-.39-.39-.39ZM10.55,10.12c0,.28-.23.51-.51.51h-.89c-.28,0-.51-.23-.51-.51v-.89c0-.28.23-.51.51-.51h.89c.28,0,.51.23.51.51v.89h0Z"/>
</svg>