<?xml version="1.0" encoding="UTF-8"?>
<svg id="Layer_1" data-name="Layer 1" xmlns="http://www.w3.org/2000/svg" viewBox="0 0 15.34 15.34">
  <defs>
    <style>
      .cls-1 {
        fill: #3f6b18;
      }
    </style>
  </defs>
  <path class="cls-1" d="M10.2,9.57h1.25v-2.99l-1.4-1.4-.88.88,1.04,1.04v2.48h0ZM11.45,10.2h-4.35l-1.04-1.04.44-.44.86.86h1.77l-1.74-1.74.44-.44,1.74,1.74v-1.77l-.86-.86.44-.44-2.16-2.17H2.65l1.24,1.24h0s2.58,0,2.58,0l.91.91-1.33,1.33-.91-.91v-.71h-1.25v1.22l2.16,2.16-.88.88,1.4,1.4h6.11l-1.24-1.24h0Z"/>
</svg>