<?xml version="1.0" encoding="UTF-8"?>
<svg id="Layer_1" data-name="Layer 1" xmlns="http://www.w3.org/2000/svg" viewBox="0 0 15.34 15.34">
  <defs>
    <style>
      .cls-1 {
        fill: #61dafb;
        stroke-width: 0px;
      }
    </style>
  </defs>
  <path class="cls-1" d="M9.69,2.68h.41s0,0,.02,0c.34.06.59.25.75.55.16.28.22.58.24.9.03.45-.03.89-.12,1.33-.02.11-.05.21-.07.33.02,0,.05.01.06.02.45.13.88.29,1.28.52.28.16.54.36.74.61.34.44.35.95.03,1.4-.16.22-.36.39-.58.53-.39.26-.83.44-1.27.58-.09.03-.17.05-.26.08,0,.02,0,.03,0,.04.13.52.22,1.06.19,1.6-.01.26-.06.51-.16.75-.13.31-.34.54-.66.66-.06.02-.12.04-.19.05h-.41s0,0-.02,0c-.24-.04-.47-.12-.69-.24-.43-.22-.81-.52-1.17-.85-.05-.05-.09-.09-.15-.14-.01.01-.03.02-.04.03-.23.22-.47.43-.74.62-.3.21-.61.4-.96.51-.09.03-.19.05-.29.07h-.41s-.01,0-.02,0c-.33-.06-.57-.24-.74-.52-.17-.28-.23-.59-.25-.92-.03-.45.03-.89.12-1.33.02-.11.05-.21.07-.32,0,0,0,0,0,0-.02,0-.04-.01-.05-.02-.45-.13-.89-.3-1.3-.53-.28-.16-.53-.35-.73-.61-.33-.43-.34-.94-.03-1.39.15-.21.33-.38.55-.52.38-.26.81-.44,1.25-.59.1-.03.2-.06.31-.1,0-.01,0-.03,0-.04-.13-.53-.21-1.06-.18-1.6.01-.25.05-.5.15-.74.13-.31.34-.55.66-.67.06-.02.13-.04.19-.05h.41s.01,0,.02,0c.24.04.47.12.69.23.39.2.73.46,1.05.75.09.08.18.16.26.24.02-.01.03-.03.05-.05.24-.23.48-.43.75-.62.3-.21.62-.4.98-.5.09-.02.17-.04.26-.06ZM7.65,5.86c-.31.01-.64.03-.97.05-.03,0-.05.01-.06.04-.37.54-.69,1.1-.98,1.69-.01.03-.01.05,0,.08.28.59.61,1.15.98,1.69.01.02.04.04.06.04.19.01.39.02.59.03.46.01.91,0,1.37-.03.04,0,.06-.01.08-.05.36-.54.69-1.1.97-1.68.01-.03.02-.05,0-.09-.28-.58-.61-1.13-.96-1.67-.03-.05-.06-.06-.11-.06-.32-.01-.63-.03-.96-.04ZM4.88,5.67s.03,0,.05,0c.12-.02.24-.05.35-.07.35-.05.7-.1,1.04-.14.04,0,.06,0,.09-.04.28-.39.57-.76.89-1.11,0,0,.02-.02.03-.04,0,0-.01-.01-.02-.02-.27-.26-.55-.5-.86-.7-.24-.16-.5-.29-.78-.36-.16-.04-.32-.05-.48.01-.19.07-.29.22-.37.39-.1.24-.12.48-.13.73,0,.33.04.64.1.96.03.13.06.26.09.39ZM7.33,11.08s-.03-.03-.04-.05c-.31-.34-.6-.7-.87-1.08-.03-.05-.07-.06-.12-.07-.18-.02-.35-.04-.52-.06-.28-.05-.57-.1-.85-.15-.03,0-.04,0-.05.03-.12.5-.21,1-.17,1.52.01.21.05.41.15.6.13.25.33.38.61.36.21,0,.41-.08.6-.17.36-.17.67-.4.97-.66.09-.09.19-.18.28-.27ZM10.8,9.08s.05-.01.06-.02c.44-.13.86-.28,1.25-.53.21-.13.4-.28.54-.47.19-.26.18-.52,0-.78-.11-.16-.26-.29-.42-.4-.33-.23-.69-.38-1.06-.51-.12-.04-.24-.08-.37-.12,0,.01,0,.02-.01.03-.14.46-.32.91-.52,1.35,0,.02,0,.05,0,.07.11.26.22.52.33.79.08.19.14.39.21.59ZM8,4.26s.03.04.04.05c.32.34.61.71.88,1.09.02.04.05.05.09.05.47.04.94.11,1.4.22.04,0,.05,0,.05-.04.04-.21.09-.42.13-.64.05-.34.08-.68.02-1.03-.03-.19-.08-.37-.18-.53-.12-.18-.28-.27-.49-.28-.22,0-.42.05-.62.14-.35.16-.66.38-.96.63-.12.1-.24.21-.36.33ZM4.54,9.08s0-.03.01-.04c.14-.46.32-.9.52-1.34,0-.02,0-.05,0-.08-.19-.43-.37-.87-.51-1.32,0-.01-.01-.03-.02-.05-.13.04-.25.08-.37.12-.38.13-.74.28-1.07.51-.19.13-.36.28-.47.47-.11.2-.11.41,0,.61.08.14.19.26.31.36.22.18.47.32.72.43.28.13.57.23.88.32ZM8.01,11.08s0,.01.02.02c.23.22.47.43.73.61.26.18.52.33.83.42.15.05.31.07.47.03.24-.05.37-.21.46-.42.09-.23.12-.47.12-.71,0-.45-.07-.89-.18-1.32,0-.03-.02-.03-.05-.03-.47.1-.94.18-1.41.22-.04,0-.06.02-.08.05-.17.22-.33.44-.51.66-.13.16-.27.31-.41.47ZM9.98,8.24c-.22.38-.44.75-.66,1.14.34-.06.67-.11,1.02-.18-.13-.33-.24-.65-.36-.96ZM9.98,7.09c.12-.32.24-.64.36-.97-.35-.06-.68-.12-1.01-.18.22.39.43.76.66,1.14ZM6.02,9.38c-.23-.39-.44-.76-.66-1.14-.12.32-.24.64-.36.97.35.05.68.11,1.02.17ZM6.02,5.96c-.34.06-.67.12-1,.17.01.12.3.89.35.95.21-.37.43-.74.65-1.13ZM7.01,5.39h1.32c-.22-.27-.43-.52-.66-.79-.23.27-.44.52-.66.79ZM8.33,9.95h-1.32c.22.27.43.52.66.79.23-.27.44-.52.66-.79Z"/>
  <path class="cls-1" d="M8.67,7.67c0,.55-.44,1-.99,1s-1-.45-1-1,.45-.99,1-.99c.55,0,.99.44.99.99Z"/>
</svg>