<?xml version="1.0" encoding="UTF-8"?>
<svg id="Layer_1" data-name="Layer 1" xmlns="http://www.w3.org/2000/svg" viewBox="0 0 15.34 15.34">
  <defs>
    <style>
      .cls-1 {
        fill: #e535ab;
        stroke-width: 0px;
      }
    </style>
  </defs>
  <path class="cls-1" d="M11.66,8.95c-.08-.04-.15-.07-.23-.09v-2.37c.08-.02.16-.05.24-.09.43-.25.57-.79.33-1.22-.25-.43-.79-.57-1.22-.33-.08.04-.14.1-.2.16l-2.05-1.19c.02-.08.04-.17.04-.25,0-.49-.4-.89-.89-.89s-.89.4-.89.89c0,.09.01.17.04.25l-2.05,1.19c-.06-.06-.12-.11-.2-.16-.43-.24-.97-.1-1.22.33-.24.43-.1.97.33,1.22.08.04.16.07.24.09v2.37c-.08.02-.16.05-.23.09-.43.25-.57.79-.33,1.22s.79.57,1.22.33c.08-.04.14-.1.2-.16l2.05,1.19c-.02.08-.04.16-.04.25,0,.49.4.89.89.89s.89-.4.89-.89c0-.1-.02-.19-.05-.28l2.04-1.18c.06.07.14.13.22.18.43.24.97.1,1.22-.33.25-.43.1-.97-.33-1.22ZM4.98,9.51c-.02-.08-.05-.16-.09-.23-.04-.08-.1-.14-.16-.2l2.69-4.66c.08.02.16.04.25.04s.17-.01.25-.04l2.69,4.65c-.06.06-.11.12-.16.2-.04.08-.07.15-.09.23h-5.37ZM10.37,5.37c-.06.22-.04.47.08.69.13.22.33.36.56.42v2.38s-.02,0-.03,0l-2.69-4.66s.02-.02.02-.02l2.06,1.19ZM7.03,4.19s.02.02.03.03l-2.69,4.66s-.02,0-.03,0v-2.38c.23-.06.43-.2.56-.42.13-.22.15-.47.08-.69l2.06-1.19ZM8.33,11.17c-.16-.18-.4-.29-.66-.29s-.48.1-.64.27l-2.05-1.19s0-.02,0-.03h5.37s.01.04.02.06l-2.04,1.18Z"/>
</svg>