<?xml version="1.0" encoding="UTF-8"?>
<svg id="Layer_1" data-name="Layer 1" xmlns="http://www.w3.org/2000/svg" viewBox="0 0 15.34 15.34">
  <defs>
    <style>
      .cls-1 {
        fill: #22427a;
      }

      .cls-1, .cls-2, .cls-3, .cls-4 {
        stroke-width: 0px;
      }

      .cls-2 {
        fill: #c4c2c1;
      }

      .cls-3 {
        fill: #6dd0f6;
      }

      .cls-4 {
        fill: #2855a3;
      }
    </style>
  </defs>
  <g id="g841">
    <g id="g843">
      <path id="path897" class="cls-4" d="M8.54,12.6s0,0,0,0c.2.08.41.11.62.06,2.04-.46,3.56-2.29,3.56-4.47v-2.4c-.18.04-.37.08-.55.13h0c-.89.24-1.67.62-1.1,1.15,1.09,1.02-.93,1.41-2.31,1.71-2.16.46-4.07,2.18-.23,3.82"/>
      <path id="path899" class="cls-3" d="M2.61,7.24v.95c0,.39.38.66.75.54.44-.15.95-.27,1.54-.38,4.97-.88,4.21-1.24,3.83-1.48-.38-.24-1.04-.8,1-1.21,1.05-.21,2.16-.33,3-.39v-2.62h-5.54c-2.53,0-4.58,2.05-4.58,4.58"/>
      <path id="path901" class="cls-2" d="M12.18,5.93c.22-.06.55-.13.55-.13-.18.04-.37.08-.55.13"/>
      <path id="path903" class="cls-1" d="M8.54,12.6c-1.6-.68-2.21-1.38-2.21-1.99,0-.86,1.18-1.56,2.43-1.83,1.11-.24,2.62-.54,2.62-1.17,0-.16-.09-.34-.31-.54-.13-.12-.19-.24-.19-.35,0-.35.61-.61,1.29-.8h0c.18-.05.37-.09.55-.13h0v.77c-.67.24-1.12.57-.65,1.01,1.09,1.02-.93,1.41-2.31,1.71-1.94.42-3.68,1.85-1.22,3.32"/>
    </g>
  </g>
</svg>