<?xml version="1.0" encoding="UTF-8"?>
<svg id="Layer_1" data-name="Layer 1" xmlns="http://www.w3.org/2000/svg" viewBox="0 0 15.34 15.34">
  <defs>
    <style>
      .cls-1 {
        fill: #00dc82;
        stroke-width: 0px;
      }
    </style>
  </defs>
  <path class="cls-1" d="M8.37,11.63h4.43c.15,0,.27-.05.4-.12s.25-.15.32-.27.12-.25.12-.4-.05-.27-.12-.4l-2.99-5.13c-.07-.12-.15-.2-.27-.27s-.3-.12-.45-.12-.27.05-.4.12-.2.15-.27.27l-.75,1.32-1.52-2.54c-.07-.12-.15-.25-.27-.32s-.25-.07-.4-.07-.27,0-.4.07-.25.2-.32.32l-3.71,6.38c-.07.12-.07.25-.07.4s0,.27.07.4.2.2.32.27c.12.07.25.12.4.12h2.79c1.1,0,1.92-.5,2.47-1.44l1.35-2.34.72-1.25,2.19,3.74h-2.91l-.72,1.27h0ZM5.23,10.36h-1.94l2.91-5.03,1.47,2.52-.97,1.69c-.37.6-.8.8-1.44.8l-.02.02Z"/>
</svg>