<?xml version="1.0" encoding="UTF-8"?>
<svg id="Layer_1" data-name="Layer 1" xmlns="http://www.w3.org/2000/svg" viewBox="0 0 15.34 15.34">
  <defs>
    <style>
      .cls-1 {
        fill: #fff;
        stroke-width: 0px;
      }
    </style>
  </defs>
  <path class="cls-1" d="M12.69,7.59c-.02-1.68-.97-3.31-2.41-4.18-1.15-.71-2.58-.9-3.88-.57h0c-1.96.49-3.51,2.26-3.71,4.27-.25,1.9.71,3.89,2.36,4.87,1.62,1.01,3.81.97,5.39-.09,1.42-.92,2.31-2.61,2.25-4.3ZM7.95,11.97c-2.28.23-4.49-1.71-4.55-4-.17-1.86,1.05-3.7,2.8-4.31,2.46-.98,5.47.83,5.72,3.46.4,2.37-1.57,4.78-3.97,4.85Z"/>
  <path class="cls-1" d="M6.45,7.45c1.1-.9,2.18-1.83,3.3-2.7-.59.91-1.2,1.8-1.79,2.71-.51,0-1.01,0-1.52,0h0ZM7.38,7.95c.51,0,1.01,0,1.52,0-1.11.89-2.18,1.83-3.31,2.7.59-.91,1.2-1.8,1.79-2.71h0Z"/>
</svg>