<?xml version="1.0" encoding="UTF-8"?>
<svg xmlns="http://www.w3.org/2000/svg" xmlns:xlink="http://www.w3.org/1999/xlink" viewBox="0 0 15.34 15.34">
  <defs>
    <style>
      .cls-1 {
        fill: url(#linear-gradient);
      }

      .cls-1, .cls-2 {
        stroke-width: 0px;
      }

      .cls-3, .cls-2 {
        isolation: isolate;
      }

      .cls-2 {
        fill: #fff;
        mix-blend-mode: screen;
      }
    </style>
    <linearGradient id="linear-gradient" x1="4633.94" y1="-1463.1" x2="4635.24" y2="-1465.37" gradientTransform="translate(-15389.25 -4856.69) scale(3.32 -3.32)" gradientUnits="userSpaceOnUse">
      <stop offset="0" stop-color="#927be5"/>
      <stop offset="1" stop-color="#512bd4"/>
    </linearGradient>
  </defs>
  <g class="cls-3">
    <g id="Layer_1" data-name="Layer 1">
      <g>
        <path id="path12" class="cls-1" d="M3.18,5.82v3.7c0,.46.24.88.64,1.11l3.21,1.85c.4.23.89.23,1.28,0l3.21-1.85c.4-.23.64-.65.64-1.11v-3.7c0-.46-.24-.88-.64-1.11l-3.21-1.85c-.4-.23-.89-.23-1.28,0l-3.21,1.85c-.4.23-.64.65-.64,1.11h0Z"/>
        <path id="path13" class="cls-2" d="M5.42,7.03v1.28c0,.18.14.32.32.32h0c.18,0,.32-.14.32-.32h0c0-.18.14-.32.32-.32s.32.14.32.32c0,.53-.43.96-.96.96s-.96-.43-.96-.96v-1.28c0-.53.43-.96.96-.96s.96.43.96.96c0,.18-.14.32-.32.32s-.32-.14-.32-.32h0c0-.18-.14-.32-.32-.32s-.32.14-.32.32h0ZM10.55,8.31c0,.18-.14.32-.32.32h-.32v.32c0,.09-.03.17-.09.23-.12.13-.33.13-.45,0,0,0,0,0,0,0-.06-.06-.09-.14-.09-.23v-.32h-.64v.32c0,.18-.14.32-.32.32,0,0,0,0,0,0-.18,0-.32-.14-.32-.32,0,0,0,0,0,0v-.32h-.32c-.18,0-.32-.14-.32-.32s.14-.32.32-.32h.32v-.64h-.32c-.18,0-.32-.14-.32-.32s.14-.32.32-.32h.32v-.32c0-.18.14-.32.32-.32s.32.14.32.32v.32h.64v-.32c0-.18.14-.32.32-.32s.32.14.32.32v.32h.32c.08,0,.17.03.23.09.13.12.13.33,0,.45,0,0,0,0,0,0-.06.06-.14.09-.23.09h-.32v.64h.32c.18,0,.32.14.32.32h0ZM9.27,7.35h-.64v.64h.64v-.64Z"/>
      </g>
    </g>
  </g>
</svg>