<?xml version="1.0" encoding="UTF-8"?>
<svg id="Layer_1" data-name="Layer 1" xmlns="http://www.w3.org/2000/svg" viewBox="0 0 15.34 15.34">
  <defs>
    <style>
      .cls-1 {
        fill: #5c2d91;
        stroke-width: 0px;
      }
    </style>
  </defs>
  <path class="cls-1" d="M6.88,11.08c-.58.06-2.92-.1-3.09-2.56,0-1.41,1.17-2.58,2.6-2.58,1.41,0,2.55,1.13,2.58,2.54.01.43-.17.8-.56.82-.41,0-.6-.29-.6-.68v-1.09c0-.37-.3-.67-.66-.67h-.91c-.88,0-1.6.7-1.6,1.58,0,.88.7,1.6,1.58,1.6.46,0,.89-.19,1.2-.53l.03-.05.03.05c.22.3.58.47.96.46.69-.05,1.21-.64,1.18-1.33,0-.28-.03-.57-.09-.84-.38-1.74-2.1-2.85-3.84-2.47-1.49.32-2.55,1.65-2.54,3.17.02,1.76,1.43,3.18,3.19,3.23,0,0,2.07.24,4.2-1.09.02-.01.03.01.02.03-1.09,1.17-2.63,1.8-4.23,1.73-2.11.04-3.92-1.63-3.88-3.91,0-1.24.59-2.42,1.59-3.16.66-.49,1.46-.75,2.28-.75h1.23c.97,0,1.89-.41,2.55-1.12,0,0,.02-.01.03-.01.02,0,.04,0,.05.02,0,0,0,.02,0,.03-.05.55-.24,1.08-.54,1.55,0,0,0,.02,0,.03,0,.02.01.04.03.04,0,0,.02,0,.03,0,1.15-.26,2.1-1.05,2.58-2.13,0,0,.01-.02.02-.02.02-.01.04-.01.06,0,0,0,.02.01.02.02.48.92.64,1.97.46,3,0,0-.63,4.85-5.95,5.11Z"/>
  <path class="cls-1" d="M6.32,7.51c-.53,0-.95.43-.95.95s.43.95.95.95.95-.43.95-.95h0v-.89s-.03-.06-.07-.07h-.89Z"/>
</svg>