<?xml version="1.0" encoding="UTF-8"?>
<svg id="Layer_1" data-name="Layer 1" xmlns="http://www.w3.org/2000/svg" viewBox="0 0 15.34 15.34">
  <defs>
    <style>
      .cls-1 {
        fill: #6181b6;
      }
    </style>
  </defs>
  <path class="cls-1" d="M4.1,6.73c.37,0,.62.07.74.21.12.14.15.37.09.71-.07.35-.2.6-.39.74-.19.15-.49.22-.88.22h-.6l.37-1.88h.67ZM1.71,10.51h.98l.23-1.19h.84c.37,0,.67-.04.91-.12.24-.08.46-.21.65-.39.16-.15.3-.32.4-.5.1-.18.17-.38.22-.6.1-.53.03-.95-.23-1.25-.26-.3-.67-.45-1.24-.45h-1.88l-.87,4.49Z"/>
  <path class="cls-1" d="M6.66,4.82h.97l-.23,1.19h.87c.54,0,.92.1,1.13.28.21.19.27.5.19.92l-.41,2.09h-.99l.39-1.99c.04-.23.03-.38-.05-.46-.08-.08-.24-.12-.49-.12h-.78l-.5,2.57h-.97l.87-4.49Z"/>
  <path class="cls-1" d="M11.74,6.73c.37,0,.62.07.74.21.12.14.15.37.09.71-.07.35-.2.6-.39.74-.19.15-.49.22-.88.22h-.6l.37-1.88h.67ZM9.35,10.51h.98l.23-1.19h.84c.37,0,.67-.04.91-.12.24-.08.46-.21.65-.39.16-.15.3-.32.4-.5.1-.18.17-.38.22-.6.1-.53.03-.95-.23-1.25s-.67-.45-1.24-.45h-1.88l-.87,4.49Z"/>
</svg>