<?xml version="1.0" encoding="UTF-8"?>
<svg id="Layer_1" data-name="Layer 1" xmlns="http://www.w3.org/2000/svg" viewBox="0 0 15.34 15.34">
  <defs>
    <style>
      .cls-1 {
        fill: #ea4b71;
        fill-rule: evenodd;
        stroke-width: 0px;
      }
    </style>
  </defs>
  <path class="cls-1" d="M13.67,5.87c0,.66-.55,1.2-1.23,1.2-.57,0-1.06-.38-1.19-.9h-1.72c-.3,0-.56.21-.61.5l-.05.3c-.05.27-.19.52-.4.7.21.18.35.42.4.7l.05.3c.05.29.31.5.61.5h.49c.14-.52.62-.9,1.19-.9.68,0,1.23.54,1.23,1.2s-.55,1.2-1.23,1.2c-.57,0-1.06-.38-1.19-.9h-.49c-.6,0-1.11-.42-1.21-1l-.05-.3c-.05-.29-.31-.5-.61-.5h-.5c-.15.49-.62.85-1.18.85s-1.02-.36-1.18-.85h-.72c-.15.49-.62.85-1.18.85-.68,0-1.23-.54-1.23-1.2s.55-1.2,1.23-1.2c.59,0,1.09.41,1.2.95h.67c.12-.54.61-.95,1.2-.95s1.09.41,1.2.95h.48c.3,0,.56-.21.61-.5l.05-.3c.1-.58.61-1,1.21-1h1.72c.14-.52.62-.9,1.19-.9.68,0,1.23.54,1.23,1.2ZM13.05,5.87c0,.33-.28.6-.62.6s-.61-.27-.61-.6.27-.6.61-.6.62.27.62.6h0ZM2.9,8.22c.34,0,.62-.27.62-.6s-.27-.6-.62-.6-.62.27-.62.6.27.6.62.6h0ZM5.98,8.22c.34,0,.62-.27.62-.6s-.28-.6-.62-.6-.62.27-.62.6.28.6.62.6ZM11.21,10.07c.34,0,.61-.27.61-.6s-.27-.6-.61-.6-.61.27-.61.6.27.6.61.6Z"/>
</svg>