<?xml version="1.0" encoding="UTF-8"?>
<svg id="Layer_1" data-name="Layer 1" xmlns="http://www.w3.org/2000/svg" viewBox="0 0 15.34 15.34">
  <defs>
    <style>
      .cls-1 {
        fill: #e76f00;
      }

      .cls-1, .cls-2 {
        stroke-width: 0px;
      }

      .cls-2 {
        fill: #5382a1;
      }
    </style>
  </defs>
  <path class="cls-2" d="M6.2,10.11s-.43.25.3.33c.89.1,1.34.09,2.32-.1,0,0,.26.16.62.3-2.19.94-4.96-.05-3.24-.54M5.93,8.89s-.48.36.25.43c.95.1,1.7.11,2.99-.14,0,0,.18.18.46.28-2.65.78-5.6.06-3.71-.57"/>
  <path class="cls-1" d="M8.19,6.81c.54.62-.14,1.18-.14,1.18,0,0,1.37-.71.74-1.6-.59-.83-1.04-1.24,1.4-2.65,0,0-3.83.96-2,3.07"/>
  <path class="cls-2" d="M11.09,11.02s.32.26-.35.46c-1.27.38-5.27.5-6.38.02-.4-.17.35-.42.59-.47.25-.05.39-.04.39-.04-.44-.31-2.87.61-1.23.88,4.47.73,8.15-.33,6.99-.85M6.4,7.62s-2.04.48-.72.66c.56.07,1.66.06,2.69-.03.84-.07,1.69-.22,1.69-.22,0,0-.3.13-.51.27-2.07.54-6.06.29-4.91-.27.97-.47,1.76-.42,1.76-.42M10.06,9.66c2.1-1.09,1.13-2.14.45-2-.17.03-.24.06-.24.06,0,0,.06-.1.18-.14,1.34-.47,2.37,1.39-.43,2.13,0,0,.03-.03.04-.06"/>
  <path class="cls-1" d="M8.79,1.45s1.16,1.16-1.1,2.95c-1.82,1.44-.41,2.25,0,3.19-1.06-.96-1.84-1.8-1.32-2.59.77-1.15,2.89-1.71,2.42-3.56"/>
  <path class="cls-2" d="M6.61,12.62c2.02.13,5.11-.07,5.19-1.03,0,0-.14.36-1.67.65-1.72.32-3.85.29-5.1.08,0,0,.26.21,1.58.3"/>
</svg>