<?xml version="1.0" encoding="UTF-8"?>
<svg id="Layer_1" data-name="Layer 1" xmlns="http://www.w3.org/2000/svg" viewBox="0 0 15.34 15.34">
  <defs>
    <style>
      .cls-1 {
        fill: #000;
      }

      .cls-1, .cls-2, .cls-3 {
        stroke-width: 0px;
      }

      .cls-2 {
        fill: #336791;
      }

      .cls-3 {
        fill: #fff;
      }
    </style>
  </defs>
  <g id="Layer_3">
    <g>
      <path class="cls-1" d="M10.07,9.95c.06-.53.04-.61.44-.52h.1c.3.02.7-.04.93-.15.5-.23.8-.62.3-.52-1.13.23-1.21-.15-1.21-.15,1.19-1.77,1.69-4.01,1.26-4.56-1.17-1.5-3.2-.79-3.24-.77h-.01c-.22-.04-.47-.07-.75-.08-.51,0-.9.13-1.19.36,0,0-3.62-1.49-3.45,1.88.04.72,1.03,5.42,2.21,4,.43-.52.85-.96.85-.96.21.14.46.21.72.18l.02-.02c0,.06,0,.13,0,.2-.3.34-.22.4-.82.53-.62.13-.25.35-.02.41.29.07.95.17,1.4-.45l-.02.07c.12.1.11.69.13,1.11.02.42.05.82.13,1.05.09.23.19.83.99.66.67-.14,1.18-.35,1.23-2.27"/>
      <path class="cls-1" d="M8.58,12.67c-.36,0-.6-.14-.75-.28-.22-.2-.3-.47-.35-.62,0-.02-.02-.05-.02-.06-.1-.28-.14-.67-.16-1.18,0-.08,0-.16,0-.24,0-.05,0-.11,0-.17-.34.15-.75.18-1.18.07-.19-.05-.39-.15-.52-.29-.34.28-.67.24-.85.18-.32-.11-.61-.4-.87-.91-.19-.36-.37-.82-.54-1.38-.3-.97-.48-2-.5-2.33-.05-1.06.23-1.82.85-2.26.51-.36,1.21-.47,2.08-.33.37.06.69.16.89.22.36-.21.78-.32,1.26-.31.25,0,.5.03.72.07.24-.07.71-.18,1.23-.17.99.01,1.81.4,2.37,1.12.38.49.24,1.46.05,2.19-.21.81-.58,1.68-1.02,2.44.12,0,.28-.02.5-.07.55-.11.7.21.73.31.17.51-.55.9-.78,1-.28.13-.75.21-1.13.2h-.02s-.07,0-.07,0c0,.02,0,.03,0,.05,0,.03,0,.05,0,.08-.03.98-.17,1.6-.46,2.01-.31.44-.73.56-1.1.64-.13.03-.24.04-.35.04ZM7.86,9.07c.24.19.26.54.28,1.19,0,.08,0,.16,0,.23,0,.21.03.71.11.92.01.03.02.06.03.09.09.27.12.38.47.3.31-.07.47-.13.59-.3.18-.26.28-.79.3-1.57h.42s-.42-.04-.42-.04c0-.03,0-.07.01-.1.04-.31.07-.56.29-.72.14-.1.3-.11.44-.1-.11-.12-.15-.23-.16-.29l-.03-.17.1-.15c.52-.77.95-1.72,1.18-2.6.23-.9.17-1.38.1-1.47-.93-1.19-2.56-.7-2.73-.65l-.03.02-.16.03-.08-.02c-.2-.04-.43-.07-.67-.07-.38,0-.68.08-.93.27l-.19.15-.22-.09c-.43-.18-1.71-.53-2.38-.06-.37.26-.54.78-.5,1.53.01.26.19,1.24.48,2.18.4,1.29.76,1.65.86,1.68.01,0,.06-.03.13-.11.44-.52.85-.96.87-.98l.24-.26.29.19c.1.07.21.11.33.12l.7-.59-.1,1.03s0,.05,0,.1l.03.2-.13.15s0,0,0,0l.33.15.17-.21Z"/>
    </g>
    <path class="cls-2" d="M11.85,8.76c-1.13.23-1.21-.15-1.21-.15,1.19-1.77,1.69-4.01,1.26-4.56-1.17-1.5-3.2-.79-3.24-.77h-.01c-.22-.04-.47-.07-.75-.08-.51,0-.9.13-1.19.36,0,0-3.62-1.49-3.45,1.88.04.72,1.03,5.42,2.21,4,.43-.52.85-.96.85-.96.21.14.46.21.72.18l.02-.02c0,.06,0,.13,0,.2-.3.34-.22.4-.82.53-.62.13-.25.35-.02.41.29.07.95.17,1.4-.45l-.02.07c.12.1.2.62.19,1.1-.01.48-.02.8.07,1.06.09.26.19.83.99.66.67-.14,1.02-.51,1.06-1.13.03-.44.11-.38.12-.77l.06-.19c.07-.6.01-.79.42-.7h.1c.3.02.7-.04.93-.15.5-.23.8-.62.3-.52h0Z"/>
    <path class="cls-3" d="M8.62,12.41c-.67,0-.89-.53-.97-.75-.13-.32-.16-1.51-.13-2.56,0-.08.07-.14.14-.14.08,0,.14.07.14.14-.03,1.16.01,2.21.11,2.45.14.36.36.68.98.54.6-.13.81-.34.91-.92.08-.44.23-1.7.25-1.94,0-.08.07-.13.15-.13.08,0,.13.07.13.15-.02.26-.17,1.51-.25,1.97-.12.68-.42,1-1.13,1.15-.12.03-.23.04-.33.04Z"/>
    <path class="cls-3" d="M5,9.82c-.06,0-.12-.01-.18-.03-.44-.15-.85-.85-1.23-2.1-.29-.95-.47-1.94-.49-2.27-.05-.96.2-1.64.74-2.02,1.06-.75,2.84-.04,2.91,0,.07.03.11.11.08.18-.03.07-.11.11-.18.08-.02,0-1.71-.69-2.65-.02-.45.32-.66.92-.62,1.77.01.27.18,1.24.48,2.2.34,1.11.72,1.81,1.05,1.92.05.02.21.07.43-.2.43-.52.83-.93.83-.93.05-.06.14-.06.2,0,.06.05.06.14,0,.2,0,0-.39.41-.82.92-.2.24-.4.32-.56.32Z"/>
    <path class="cls-3" d="M10.63,8.73s-.05,0-.08-.02c-.06-.04-.08-.13-.04-.19,1.2-1.78,1.63-3.94,1.27-4.4-.45-.58-1.09-.88-1.9-.9-.6-.01-1.08.14-1.16.17,0,0-.01,0-.02,0-.08.03-.15-.02-.17-.07-.03-.06,0-.14.06-.18.05-.03.6-.21,1.26-.2.9,0,1.65.36,2.16,1.01.34.44.12,1.51,0,1.95-.24.94-.7,1.96-1.26,2.78-.03.04-.07.06-.12.06Z"/>
    <path class="cls-3" d="M10.69,9.56c-.21,0-.39-.03-.51-.1-.12-.07-.14-.17-.14-.22-.03-.54.26-.64.42-.69-.02-.03-.05-.06-.07-.1-.09-.11-.21-.27-.31-.5-.01-.04-.06-.12-.11-.21-.29-.52-.9-1.61-.51-2.17.18-.26.54-.36,1.06-.31-.07-.21-.24-.59-.56-.97-.37-.44-1.03-.97-2.06-.99-.52,0-.95.15-1.27.48-.72.73-.7,2.05-.7,2.07,0,.08-.06.14-.14.14-.08,0-.14-.06-.14-.14,0-.06-.03-1.46.78-2.27.38-.38.88-.57,1.48-.56,1.12.02,1.85.59,2.26,1.07.45.52.66,1.09.68,1.28.01.15-.1.18-.12.19h-.05c-.35-.06-.81-.07-.97.17-.29.42.28,1.44.52,1.87.06.11.11.19.13.24.08.19.18.32.27.43.07.09.14.17.16.27.01.02.17.23,1.04.05.23-.05.37,0,.41.12.08.25-.38.54-.63.66-.23.1-.59.17-.9.17ZM10.32,9.22s.18.07.46.06c.26-.01.53-.07.69-.14.19-.09.32-.18.4-.26,0,0,0,0,0,0-.57.12-.98.1-1.21-.05-.01,0-.03-.02-.04-.03-.02,0-.04.01-.06.02-.13.04-.25.07-.24.4Z"/>
    <path class="cls-3" d="M6.62,9.96c-.14,0-.29-.02-.45-.06-.04-.01-.43-.12-.43-.36,0-.23.33-.29.45-.32.43-.09.46-.12.59-.29.04-.05.09-.11.16-.19h0c.22-.25.43-.16.52-.13.14.06.26.2.31.37.04.15.02.3-.06.41-.27.37-.65.57-1.1.57ZM6.05,9.55s.11.06.19.08c.37.09.89.1,1.25-.4.04-.06.03-.14.02-.18-.02-.08-.08-.16-.15-.19-.08-.03-.12-.05-.21.05,0,0,0,0,0,0-.06.07-.11.12-.14.17-.17.22-.25.29-.75.39-.1.02-.16.04-.2.06ZM7.05,8.83h0,0Z"/>
    <path class="cls-3" d="M7.03,8.96c-.07,0-.13-.05-.14-.12,0-.02,0-.04,0-.06-.33,0-.65-.15-.89-.4-.31-.32-.45-.76-.38-1.22.07-.49.04-.92.03-1.15,0-.06,0-.11,0-.14,0-.04,0-.16.37-.34.13-.07.39-.18.67-.21.47-.05.79.16.88.6.25,1.16.02,1.67-.15,2.04-.03.07-.06.13-.08.2l-.02.06c-.09.24-.16.44-.14.59.01.08-.04.15-.12.16,0,0-.01,0-.02,0ZM5.92,5.91s0,.05,0,.09c.01.24.04.69-.03,1.21-.05.37.06.73.31.99.19.2.45.32.71.32.03-.12.08-.25.13-.4l.02-.06c.03-.07.06-.14.09-.22.16-.36.36-.8.13-1.87-.04-.21-.15-.33-.33-.37-.39-.09-.93.2-1.04.3Z"/>
    <g>
      <path class="cls-3" d="M6.69,5.85s.08.17.2.18c.12.02.22-.08.22-.12,0-.05-.08-.1-.2-.11-.12-.02-.22,0-.22.05h0Z"/>
      <path class="cls-3" d="M6.92,6.08s-.02,0-.03,0c-.07-.01-.15-.06-.2-.12-.02-.02-.05-.07-.04-.11,0-.02.01-.04.04-.06.05-.04.14-.05.24-.03.06,0,.12.03.16.05.08.04.08.09.08.11,0,.07-.12.17-.25.17ZM6.74,5.86s.07.12.16.13c.09.01.16-.06.17-.08-.01-.01-.06-.05-.16-.06-.1-.01-.16,0-.17.02Z"/>
    </g>
    <g>
      <path class="cls-3" d="M10.27,5.76s-.08.17-.2.18c-.12.02-.22-.08-.22-.12,0-.05.08-.1.2-.11s.22,0,.22.05h0Z"/>
      <path class="cls-3" d="M10.04,5.97c-.12,0-.21-.09-.22-.15,0-.07.1-.12.22-.14.12-.02.24,0,.25.07h0s-.02.08-.06.12c-.03.03-.08.08-.16.09,0,0-.02,0-.03,0ZM10.11,5.72s-.04,0-.07,0c-.12.02-.18.07-.18.09,0,.03.09.12.2.1.06,0,.11-.05.13-.07.04-.04.05-.07.05-.08,0-.02-.05-.04-.13-.04Z"/>
    </g>
    <path class="cls-3" d="M10.43,8.39s-.05,0-.08-.02c-.06-.04-.08-.13-.04-.19.27-.41.22-.83.17-1.23-.02-.17-.04-.35-.04-.52,0-.18.03-.32.05-.46.03-.17.05-.32.04-.51,0-.08.05-.14.13-.15.08,0,.14.05.15.13.01.21-.02.39-.04.57-.02.13-.04.27-.05.43,0,.15.01.31.03.48.05.43.11.92-.22,1.42-.03.04-.07.06-.12.06Z"/>
  </g>
</svg>