<?xml version="1.0" encoding="UTF-8"?>
<svg id="Layer_1" data-name="Layer 1" xmlns="http://www.w3.org/2000/svg" viewBox="0 0 15.34 15.34">
  <defs>
    <style>
      .cls-1 {
        fill: #1d63ed;
        stroke-width: 0px;
      }
    </style>
  </defs>
  <path class="cls-1" d="M12.63,6.95c-.25-.17-.91-.24-1.39-.11-.03-.48-.27-.88-.72-1.23l-.17-.11-.11.17c-.22.33-.31.78-.28,1.18.03.25.11.53.28.73-.63.36-1.2.28-3.76.28h-3.94c-.01.58.08,1.69.79,2.59.08.1.16.2.26.29.57.57,1.44,1,2.74,1,1.98,0,3.67-1.07,4.7-3.65.34,0,1.23.06,1.67-.79.01-.01.11-.22.11-.22l-.17-.11h0ZM5.11,6.42h-1.11v1.11h1.11v-1.11ZM6.54,6.42h-1.11v1.11h1.11v-1.11ZM7.98,6.42h-1.11v1.11h1.11v-1.11h0ZM9.41,6.42h-1.11v1.11h1.11v-1.11ZM3.68,6.42h-1.11v1.11h1.11v-1.11ZM5.11,5.02h-1.11v1.11h1.11v-1.11ZM6.54,5.02h-1.11v1.11h1.11v-1.11ZM7.98,5.02h-1.11v1.11h1.11v-1.11h0ZM7.98,3.62h-1.11v1.11h1.11v-1.11h0Z"/>
</svg>