<?xml version="1.0" encoding="UTF-8"?>
<svg id="Layer_1" data-name="Layer 1" xmlns="http://www.w3.org/2000/svg" xmlns:xlink="http://www.w3.org/1999/xlink" viewBox="0 0 15.34 15.34">
  <defs>
    <style>
      .cls-1 {
        fill: url(#linear-gradient);
        stroke-width: 0px;
      }
    </style>
    <linearGradient id="linear-gradient" x1="2.37" y1="7.67" x2="12.97" y2="7.67" gradientUnits="userSpaceOnUse">
      <stop offset="0" stop-color="#f24b41"/>
      <stop offset="1" stop-color="#e4a55d"/>
    </linearGradient>
  </defs>
  <path class="cls-1" d="M5.39,5.99v3.97h-1.57v-3.97h-1.45v-1.23h4.5v1.23h-1.47ZM12.38,7.35c0,.81-.26,1.47-.78,1.99l1.37,1.33h-1.97l-.66-.67c-.19.04-.4.06-.61.06-.49,0-.93-.11-1.33-.33s-.71-.53-.93-.93-.33-.85-.33-1.36.11-1.01.34-1.43c.22-.42.54-.75.95-.98s.87-.35,1.39-.35.94.11,1.34.33c.39.22.7.54.91.95.21.41.32.87.32,1.39ZM10.72,7.39c0-.43-.08-.77-.25-1.01-.16-.25-.39-.37-.67-.37-.31,0-.55.12-.73.36-.17.24-.26.57-.26,1s.09.75.26.99.41.36.71.36.51-.12.69-.36c.17-.24.26-.56.26-.96Z"/>
</svg>