<?xml version="1.0" encoding="UTF-8"?>
<svg id="Layer_1" data-name="Layer 1" xmlns="http://www.w3.org/2000/svg" viewBox="0 0 15.34 15.34">
  <defs>
    <style>
      .cls-1 {
        fill: #82eddf;
      }

      .cls-1, .cls-2, .cls-3, .cls-4 {
        fill-rule: evenodd;
      }

      .cls-1, .cls-2, .cls-3, .cls-4, .cls-5 {
        stroke-width: 0px;
      }

      .cls-2 {
        fill: #00d3b9;
      }

      .cls-3, .cls-5 {
        fill: #0084c1;
      }

      .cls-4 {
        fill: #000;
      }
    </style>
  </defs>
  <g id="Page-1">
    <g id="bloc">
      <g id="black-hex">
        <polygon id="Rectangle" class="cls-4" points="7.65 12.67 12.06 10.27 12.09 5.07 7.65 7.47 7.65 12.67"/>
        <polygon id="Rectangle-2" data-name="Rectangle" class="cls-4" points="7.65 7.47 12.09 5.07 7.67 2.66 3.25 5.07 7.65 7.47"/>
        <polygon id="Rectangle-3" data-name="Rectangle" class="cls-4" points="3.25 5.07 7.65 7.47 7.65 12.67 3.25 10.27 3.25 5.07"/>
      </g>
      <g id="cube">
        <polygon id="Rectangle-4" data-name="Rectangle" class="cls-2" points="7.65 11.84 11.32 9.84 11.35 5.5 7.65 7.5 7.65 11.84"/>
        <g>
          <path id="Rectangle-5" data-name="Rectangle" class="cls-3" d="M7.65,7.35l-3.4-1.85,3.41-1.85,3.41,1.85-3.43,1.85Z"/>
          <path class="cls-5" d="M7.65,7.5l-3.67-2,3.68-2,3.68,2-3.7,2ZM4.53,5.5l3.13,1.71,3.15-1.71-3.14-1.71-3.14,1.71Z"/>
        </g>
        <polygon id="Rectangle-6" data-name="Rectangle" class="cls-1" points="3.99 5.5 7.65 7.5 7.65 11.84 3.99 9.84 3.99 5.5"/>
      </g>
    </g>
  </g>
</svg>