<?xml version="1.0" encoding="UTF-8"?>
<svg id="Layer_1" data-name="Layer 1" xmlns="http://www.w3.org/2000/svg" xmlns:xlink="http://www.w3.org/1999/xlink" viewBox="0 0 15.34 15.34">
  <defs>
    <style>
      .cls-1 {
        fill: url(#radial-gradient-2);
      }

      .cls-1, .cls-2 {
        stroke-width: 0px;
      }

      .cls-2 {
        fill: url(#radial-gradient);
      }
    </style>
    <radialGradient id="radial-gradient" cx="3.89" cy="8.13" fx="3.89" fy="8.13" r="14.32" gradientUnits="userSpaceOnUse">
      <stop offset=".07" stop-color="#9168c0"/>
      <stop offset=".41" stop-color="#5684d1"/>
      <stop offset=".67" stop-color="#1ba1e3"/>
    </radialGradient>
    <radialGradient id="radial-gradient-2" cx="11.08" cy="4.24" fx="11.08" fy="4.24" r="1.46" gradientUnits="userSpaceOnUse">
      <stop offset=".07" stop-color="#9168c0"/>
      <stop offset=".25" stop-color="#846dc3"/>
      <stop offset=".57" stop-color="#637dcd"/>
      <stop offset=".69" stop-color="#5684d1"/>
    </radialGradient>
  </defs>
  <path class="cls-2" d="M8.88,6.61l3,1.11c.2.07.2.36,0,.43l-3,1.11c-.06.02-.11.07-.14.14l-1.11,3c-.07.2-.36.2-.43,0l-1.11-3c-.02-.06-.07-.11-.14-.14l-3-1.11c-.2-.07-.2-.36,0-.43l3-1.11c.06-.02.11-.07.14-.14l1.11-3c.07-.2.36-.2.43,0l1.11,3c.02.06.07.11.14.14Z"/>
  <path class="cls-1" d="M11.55,3.82l.95.35c.06.02.06.11,0,.14l-.95.35s-.04.02-.04.04l-.35.95c-.02.06-.11.06-.14,0l-.35-.95s-.02-.04-.04-.04l-.95-.35c-.06-.02-.06-.11,0-.14l.95-.35s.04-.02.04-.04l.35-.95c.02-.06.11-.06.14,0l.35.95s.02.04.04.04Z"/>
</svg>