<?xml version="1.0" encoding="UTF-8"?>
<svg id="Layer_1" data-name="Layer 1" xmlns="http://www.w3.org/2000/svg" viewBox="0 0 15.34 15.34">
  <defs>
    <style>
      .cls-1 {
        fill: #2897ea;
      }

      .cls-1, .cls-2 {
        stroke-width: 0px;
      }

      .cls-2 {
        fill: #fff;
      }
    </style>
  </defs>
  <path class="cls-1" d="M12.45,5.58h-2.2c-.54,0-.98.43-.98.97v1h-1.57v-2.79c0-.08-.06-.15-.15-.15h-1.49v-1.01c0-.54-.43-.97-.97-.97h-2.2c-.54,0-.98.43-.98.97v2.29c0,.53.43.97.98.97h2.2c.54,0,.97-.44.97-.97v-.97h1.34v5.57h-1.34v-1.03c0-.53-.43-.97-.97-.97h-2.2c-.54,0-.98.43-.98.97v2.29c0,.53.43.97.98.97h2.2c.54,0,.97-.44.97-.97v-.97h1.49c.09,0,.15-.07.15-.15v-2.78h1.57v.99c0,.54.44.97.98.97h2.2c.53,0,.97-.43.97-.97v-2.29c0-.53-.43-.97-.97-.97Z"/>
  <g>
    <path class="cls-2" d="M5.41,5.89h-2.8c-.12,0-.22.1-.22.22s.09.22.22.22h2.8c.13,0,.22-.09.22-.22s-.1-.22-.22-.22Z"/>
    <path class="cls-2" d="M2.6,5.52h2.8c.13,0,.22-.09.22-.22s-.1-.22-.22-.22h-2.8c-.12,0-.22.1-.22.22s.09.22.22.22Z"/>
    <path class="cls-2" d="M4.54,4.42c0,.05.02.1.06.15.04.07.12.07.16.07.06,0,.12-.03.15-.06l.5-.49h0c.08-.1.08-.22,0-.31l-.5-.5c-.08-.09-.21-.09-.31,0-.08.1-.08.21,0,.31l.34.34-.34.34s-.07.1-.07.15Z"/>
    <path class="cls-2" d="M3.09,4.57c.04.07.11.07.15.07.06,0,.12-.02.16-.06.04-.04.06-.1.06-.15s-.02-.11-.07-.15l-.34-.34.35-.34c.08-.09.08-.21,0-.31-.04-.04-.1-.07-.15-.07h0c-.06,0-.11.02-.15.07l-.5.49c-.07.04-.07.12-.07.16,0,.06.03.12.06.16l.5.49Z"/>
    <path class="cls-2" d="M3.68,4.8s.05.01.08.01c.03,0,.06,0,.09-.02.05-.02.09-.07.11-.12l.49-1.3c.04-.11-.01-.23-.13-.28-.11-.04-.24.02-.28.13l-.49,1.3c-.02.05-.02.11,0,.16.02.05.07.09.12.11Z"/>
    <path class="cls-2" d="M5.41,11.79h-2.8c-.12,0-.22.1-.22.22s.09.22.22.22h2.8c.13,0,.22-.09.22-.22s-.1-.22-.22-.22Z"/>
    <path class="cls-2" d="M5.41,10.99h-2.8c-.12,0-.22.1-.22.22s.09.22.22.22h2.8c.13,0,.22-.09.22-.22s-.1-.22-.22-.22Z"/>
    <path class="cls-2" d="M4.54,10.32c0,.05.02.1.06.14.04.07.12.07.16.07.05,0,.11-.02.15-.06l.5-.49h0c.08-.1.08-.22,0-.31l-.5-.5c-.08-.08-.21-.08-.31,0-.08.1-.08.21,0,.31l.34.34-.34.34s-.06.1-.06.15Z"/>
    <path class="cls-2" d="M3.4,9.17c-.09-.08-.22-.09-.31,0l-.5.5c-.07.04-.07.11-.07.15,0,.05.03.12.06.16l.5.49c.04.07.11.07.15.07.06,0,.12-.02.16-.06.04-.04.07-.1.07-.15s-.02-.11-.06-.15l-.34-.34.35-.34c.08-.1.08-.21,0-.31Z"/>
    <path class="cls-2" d="M3.68,10.69s.05.01.08.01c.09,0,.17-.05.2-.14l.49-1.3c.02-.05.02-.11,0-.16-.02-.05-.07-.09-.12-.11-.05-.02-.11-.02-.16,0-.05.02-.09.07-.11.12l-.49,1.3c-.04.11.01.24.12.28h0Z"/>
  </g>
</svg>