<?xml version="1.0" encoding="UTF-8"?>
<svg id="Layer_1" data-name="Layer 1" xmlns="http://www.w3.org/2000/svg" version="1.1" xmlns:xlink="http://www.w3.org/1999/xlink" viewBox="0 0 657.73 648.7">
  <defs>
    <style>
      .cls-1 {
        fill: #e535ab;
      }

      .cls-1, .cls-2, .cls-3, .cls-4, .cls-5, .cls-6, .cls-7, .cls-8, .cls-9, .cls-10, .cls-11, .cls-12, .cls-13, .cls-14, .cls-15 {
        stroke-width: 0px;
      }

      .cls-2 {
        fill-rule: evenodd;
      }

      .cls-2, .cls-16, .cls-17, .cls-18, .cls-11 {
        fill: #fff;
      }

      .cls-3 {
        fill: url(#linear-gradient);
      }

      .cls-4 {
        fill: #000;
      }

      .cls-19 {
        fill: #f2f2f2;
      }

      .cls-19, .cls-16, .cls-17, .cls-20 {
        font-family: SpaceMono-Regular, 'Space Mono';
      }

      .cls-19, .cls-16, .cls-20 {
        font-size: 8px;
      }

      .cls-17 {
        font-size: 16px;
      }

      .cls-21 {
        fill: none;
      }

      .cls-21, .cls-22 {
        stroke: #fff;
        stroke-miterlimit: 10;
      }

      .cls-5 {
        fill: #9013fe;
      }

      .cls-6 {
        fill: url(#linear-gradient-2);
      }

      .cls-7 {
        fill: #3178c6;
      }

      .cls-18 {
        font-family: Raleway-Regular, Raleway;
        font-size: 10px;
      }

      .cls-8 {
        fill: #300a6f;
      }

      .cls-9 {
        fill: #61dafb;
      }

      .cls-22 {
        fill: #0a0614;
      }

      .cls-10 {
        fill: url(#linear-gradient-3);
      }

      .cls-20 {
        fill: #0a0613;
      }

      .cls-12 {
        fill: #e0234e;
      }

      .cls-13 {
        fill: #f7df1e;
      }

      .cls-14 {
        fill: #689f63;
      }

      .cls-15 {
        fill: url(#linear-gradient-4);
      }
    </style>
    <linearGradient id="linear-gradient" x1="6568.46" y1="-2042.64" x2="6568.78" y2="-2042.79" gradientTransform="translate(-156426.17 49321.59) scale(23.9 23.91)" gradientUnits="userSpaceOnUse">
      <stop offset="0" stop-color="#e40035"/>
      <stop offset=".24" stop-color="#f60a48"/>
      <stop offset=".35" stop-color="#f20755"/>
      <stop offset=".49" stop-color="#dc087d"/>
      <stop offset=".74" stop-color="#9717e7"/>
      <stop offset="1" stop-color="#6c00f5"/>
    </linearGradient>
    <linearGradient id="linear-gradient-2" x1="6568.5" y1="-2042.88" x2="6568.7" y2="-2042.64" gradientTransform="translate(-156426.17 49321.59) scale(23.9 23.91)" gradientUnits="userSpaceOnUse">
      <stop offset="0" stop-color="#ff31d9"/>
      <stop offset="1" stop-color="#ff5be1" stop-opacity="0"/>
    </linearGradient>
    <linearGradient id="linear-gradient-3" x1="542.73" y1="629.36" x2="542.73" y2="634.84" gradientUnits="userSpaceOnUse">
      <stop offset=".04" stop-color="#0a0614"/>
      <stop offset=".49" stop-color="rgba(48, 45, 56, .84)" stop-opacity=".84"/>
      <stop offset=".85" stop-color="rgba(169, 168, 173, .35)" stop-opacity=".35"/>
      <stop offset="1" stop-color="#fff" stop-opacity="0"/>
    </linearGradient>
    <linearGradient id="linear-gradient-4" x1="537.07" y1="633.53" x2="542.79" y2="640.86" gradientUnits="userSpaceOnUse">
      <stop offset="0" stop-color="#0a0614"/>
      <stop offset=".12" stop-color="rgba(16, 12, 25, .99)" stop-opacity=".99"/>
      <stop offset=".26" stop-color="rgba(34, 30, 43, .97)" stop-opacity=".97"/>
      <stop offset=".4" stop-color="rgba(63, 60, 71, .94)" stop-opacity=".94"/>
      <stop offset=".54" stop-color="rgba(105, 103, 111, .89)" stop-opacity=".89"/>
      <stop offset=".68" stop-color="rgba(159, 157, 163, .83)" stop-opacity=".83"/>
      <stop offset=".83" stop-color="rgba(224, 223, 225, .75)" stop-opacity=".75"/>
      <stop offset=".89" stop-color="#fff" stop-opacity=".72"/>
    </linearGradient>
  </defs>
  <text class="cls-17" transform="translate(275.98 23.2)"><tspan x="0" y="0">RECOMENDADO</tspan></text>
  <rect class="cls-22" x=".5" y="124.81" width="191.07" height="65.02"/>
  <text class="cls-18" transform="translate(16.06 144.25)"><tspan x="0" y="0">Node.JS: De cero a experto</tspan></text>
  <rect class="cls-22" x="2.82" y="278.24" width="191.07" height="65.02"/>
  <text class="cls-18" transform="translate(18.39 297.68)"><tspan x="0" y="0">Nest: Desarrollo backend</tspan><tspan x="0" y="12">escalable con Node</tspan></text>
  <g>
    <rect class="cls-8" x="19.82" y="320.44" width="44.8" height="15.27"/>
    <text class="cls-16" transform="translate(24.82 330.24)"><tspan x="0" y="0">BACKEND</tspan></text>
  </g>
  <rect class="cls-22" x="2.82" y="506.94" width="191.07" height="65.02"/>
  <text class="cls-18" transform="translate(18.39 526.38)"><tspan x="0" y="0">Nest + GraphQL: Evoluciona tus APIs</tspan></text>
  <g>
    <rect class="cls-8" x="19.82" y="549.14" width="44.8" height="15.27"/>
    <text class="cls-16" transform="translate(24.82 558.94)"><tspan x="0" y="0">BACKEND</tspan></text>
  </g>
  <rect class="cls-22" x="466.15" y="583.18" width="191.07" height="65.02"/>
  <text class="cls-18" transform="translate(481.72 602.61)"><tspan x="0" y="0">Next.js: El framework de React</tspan><tspan x="0" y="12">para producción</tspan></text>
  <g>
    <rect class="cls-8" x="483.15" y="625.38" width="44.8" height="15.27"/>
    <text class="cls-16" transform="translate(488.15 635.18)"><tspan x="0" y="0">BACKEND</tspan></text>
  </g>
  <g>
    <line class="cls-21" x1="329.54" y1="114.56" x2="329.54" y2="124.69"/>
    <polygon class="cls-11" points="325.45 121.38 326.19 120.69 329.54 124.31 332.9 120.69 333.63 121.38 329.54 125.77 325.45 121.38"/>
  </g>
  <g>
    <rect class="cls-22" x="234.01" y="49.54" width="191.07" height="65.02"/>
    <text class="cls-18" transform="translate(249.57 68.98)"><tspan x="0" y="0">JavaScript Moderno: Guía para</tspan><tspan x="0" y="12">dominar el lenguaje</tspan></text>
    <g>
      <rect class="cls-11" x="251" y="91.74" width="34.85" height="15.27"/>
      <text class="cls-20" transform="translate(256 101.54)"><tspan x="0" y="0">BASES</tspan></text>
    </g>
    <rect class="cls-11" x="289.86" y="91.71" width="15.34" height="15.34"/>
    <g>
      <rect class="cls-13" x="292.54" y="94.39" width="9.97" height="9.97"/>
      <path class="cls-4" d="M299.24,102.18c.2.33.46.57.92.57.39,0,.64-.19.64-.46,0-.32-.25-.43-.68-.62l-.23-.1c-.68-.29-1.13-.65-1.13-1.41,0-.7.54-1.24,1.37-1.24.6,0,1.02.21,1.33.75l-.73.47c-.16-.29-.33-.4-.6-.4s-.45.17-.45.4c0,.28.17.39.58.57l.23.1c.8.34,1.25.69,1.25,1.47,0,.84-.66,1.31-1.55,1.31s-1.43-.41-1.71-.96l.76-.44ZM295.93,102.26c.15.26.28.48.6.48s.5-.12.5-.59v-3.19h.94v3.2c0,.97-.57,1.41-1.4,1.41-.75,0-1.18-.39-1.41-.86l.76-.46Z"/>
    </g>
  </g>
  <g>
    <g>
      <rect class="cls-22" x="234.01" y="125.77" width="191.07" height="65.02"/>
      <g>
        <text class="cls-18" transform="translate(249.57 145.21)"><tspan x="0" y="0">TypeScript: Tu completa guía y</tspan><tspan x="0" y="12">manual de mano</tspan></text>
        <g>
          <rect class="cls-11" x="251" y="167.97" width="34.85" height="15.27"/>
          <text class="cls-20" transform="translate(256 177.77)"><tspan x="0" y="0">BASES</tspan></text>
        </g>
      </g>
    </g>
    <rect class="cls-11" x="289.86" y="167.94" width="15.34" height="15.34"/>
    <g>
      <rect class="cls-7" x="292.54" y="170.62" width="9.97" height="9.97" rx=".78" ry=".78"/>
      <path class="cls-2" d="M298.4,178.43v1.08c.17.09.38.16.62.2s.49.07.76.07.5-.02.73-.07.44-.13.61-.24c.17-.11.31-.26.42-.44.1-.18.15-.41.15-.68,0-.19-.03-.37-.09-.51s-.14-.28-.25-.39c-.11-.11-.24-.22-.4-.31-.15-.09-.33-.18-.52-.26-.14-.06-.27-.11-.38-.17-.11-.05-.21-.11-.29-.17-.08-.06-.14-.12-.18-.18s-.06-.14-.06-.22c0-.07.02-.14.06-.2s.09-.11.16-.15c.07-.04.15-.08.26-.1.1-.02.21-.04.34-.04.09,0,.18,0,.28.02.1.01.2.03.3.06.1.03.2.06.29.11.1.04.18.09.26.15v-1c-.16-.06-.34-.11-.54-.14s-.42-.05-.67-.05-.5.03-.73.08c-.23.05-.43.14-.6.26-.17.12-.31.26-.41.45-.1.18-.15.4-.15.65,0,.32.09.59.28.82.19.23.47.42.84.57.15.06.29.12.41.18.13.06.24.12.33.18s.17.13.22.21.08.16.08.25c0,.07-.02.13-.05.19-.03.06-.08.11-.15.15s-.15.08-.26.1-.22.04-.36.04c-.23,0-.46-.04-.69-.12-.23-.08-.44-.2-.64-.37h0ZM296.61,175.75h1.38v-.89h-3.86v.89h1.38v3.94h1.1v-3.94Z"/>
    </g>
  </g>
  <g>
    <g>
      <rect class="cls-8" x="17.5" y="167.01" width="44.8" height="15.27"/>
      <text class="cls-16" transform="translate(22.5 176.81)"><tspan x="0" y="0">BACKEND</tspan></text>
    </g>
    <g>
      <rect class="cls-11" x="66.29" y="167.01" width="15.34" height="15.34"/>
      <g>
        <path class="cls-14" d="M78.03,171.88l-3.68-2.13c-.23-.13-.54-.13-.77,0l-3.69,2.13c-.24.14-.39.39-.39.67v4.25c0,.28.15.53.39.67l.97.56c.47.23.64.23.85.23.69,0,1.09-.42,1.09-1.15v-4.2c0-.06-.05-.11-.11-.11h-.47c-.06,0-.11.05-.11.11v4.2c0,.32-.33.65-.88.37l-1.01-.58s-.06-.06-.06-.1v-4.25s.02-.08.06-.1l3.68-2.12s.08-.02.11,0l3.68,2.12s.06.06.06.1v4.25s-.02.08-.06.1l-3.68,2.13s-.08.02-.11,0l-.94-.56s-.06-.02-.09,0c-.26.15-.31.17-.56.25-.06.02-.15.06.03.16l1.23.73c.12.07.25.1.39.1h0c.14,0,.27-.04.39-.11l3.68-2.13c.24-.14.39-.4.39-.67v-4.25c0-.28-.15-.53-.39-.67Z"/>
        <path class="cls-14" d="M75.06,176.13c-.97,0-1.19-.24-1.26-.73,0-.05-.05-.09-.11-.09h-.48c-.06,0-.11.05-.11.11,0,.62.34,1.36,1.95,1.36h0c1.17,0,1.84-.46,1.84-1.26s-.54-1.01-1.67-1.16c-1.14-.15-1.26-.23-1.26-.5,0-.22.1-.52.95-.52.76,0,1.04.16,1.15.67.01.05.05.08.1.08h.48s.06-.01.08-.03c.02-.02.03-.05.03-.08-.07-.88-.66-1.29-1.84-1.29-1.05,0-1.68.44-1.68,1.19,0,.81.62,1.03,1.63,1.13,1.21.12,1.3.29,1.3.53,0,.41-.33.59-1.11.59Z"/>
      </g>
    </g>
  </g>
  <g>
    <rect class="cls-11" x="68.61" y="320.41" width="15.34" height="15.34"/>
    <g>
      <path class="cls-12" d="M77.22,323.43s0,.03.01.05c0,.02,0,.03,0,.05.01.23-.06.26-.11.39-.08.18-.05.36.04.51,0,.02.02.04.03.06-.1-.66.45-.76.55-.96,0-.18-.14-.3-.26-.38-.11-.07-.21-.09-.31-.09-.07,0-.14.02-.2.04.13.09.21.21.24.34Z"/>
      <path class="cls-12" d="M79.91,325.06s0,0,0-.01t0,0s0,0,0,0c0,.03,0,.06,0,.09,0,.06-.02.12-.03.17-.01.06-.03.12-.04.17-.02.05-.04.11-.06.17-.02.05-.05.11-.08.16-.03.05-.06.1-.09.15-.03.05-.07.1-.11.14-.04.05-.08.09-.12.13-.03.02-.05.04-.08.06-.02.02-.04.03-.06.05-.05.04-.09.07-.15.1-.05.03-.1.06-.15.09-.05.03-.11.05-.16.07-.05.02-.11.04-.17.05-.06.02-.12.03-.17.04-.06.01-.12.02-.18.02-.04,0-.08,0-.12,0-.06,0-.12,0-.18-.01-.06,0-.12-.01-.18-.03-.06-.01-.12-.03-.17-.04.06,0,.11-.01.17-.02.06-.01.12-.02.17-.04.06-.02.11-.03.17-.05.06-.02.11-.05.16-.07.05-.03.1-.05.16-.09.05-.03.1-.07.15-.1.05-.04.09-.08.13-.12.04-.04.08-.08.12-.13.04-.05.08-.09.11-.14,0,0,.01-.02.02-.03.03-.04.05-.08.08-.12.03-.05.05-.1.08-.16.02-.05.04-.11.06-.17.02-.05.03-.11.04-.17.01-.06.02-.12.03-.17,0-.06.01-.12.01-.18,0-.04,0-.08,0-.13,0-.06-.01-.12-.02-.17-.01-.06-.02-.12-.04-.17-.02-.05-.04-.11-.06-.17-.02-.05-.05-.11-.07-.16-.03-.05-.06-.1-.09-.15-.03-.05-.07-.1-.1-.14-.04-.04-.08-.09-.12-.13-.02-.02-.04-.04-.07-.06-.12-.09-.24-.18-.36-.26-.02-.01-.03-.02-.05-.03-.09-.05-.17-.08-.25-.11-.01.06,0,.04,0,.08,0,.02,0,.05,0,.07,0,.02-.01.04-.02.06,0,.02-.01.04-.02.06-.01.02-.02.04-.03.06,0,.01-.01.02-.02.03,0,0-.01.02-.02.02-.01.02-.03.04-.04.05-.02.02-.03.03-.05.05h0s-.03.03-.05.04c-.05.04-.12.07-.18.11-.02.01-.04.02-.05.04-.02.01-.03.03-.05.04-.02.02-.03.03-.05.05-.01.02-.03.03-.04.05-.01.02-.03.04-.04.05-.01.02-.02.04-.03.06,0,.02-.02.04-.02.06,0,.02-.01.04-.02.06,0,.01,0,.02,0,.03,0,.01,0,.02,0,.03,0,.02,0,.04,0,.07,0,.02,0,.03,0,.05,0,.02,0,.04,0,.07,0,.02,0,.04.01.06,0,.02.01.04.02.06,0,.01.01.03.02.04l-.6-.23c-.1-.03-.2-.05-.3-.08-.05-.01-.11-.03-.16-.04-.16-.03-.32-.05-.47-.07,0,0,0,0-.01,0-.16-.02-.31-.02-.47-.02-.11,0-.23,0-.34.01-.16.01-.32.03-.48.06-.04,0-.08.01-.12.02-.08.02-.16.03-.23.05-.04.01-.08.02-.12.03-.04.02-.08.03-.11.05-.03.01-.06.03-.09.04,0,0-.01,0-.01,0-.03.01-.05.02-.07.04,0,0-.01,0-.02,0-.03.01-.06.03-.08.04-.02,0-.04.02-.05.03,0,0-.02.01-.02.01-.02.01-.05.03-.07.04-.02.01-.04.03-.06.04-.02.01-.04.02-.05.04,0,0,0,0,0,0-.02.01-.03.02-.05.04,0,0,0,0,0,0-.01.01-.03.02-.04.03,0,0-.01,0-.02.01-.01.01-.03.02-.04.03,0,0,0,0-.01.01-.02.02-.03.03-.05.04,0,0,0,0,0,0-.02.01-.03.03-.05.04,0,0,0,0,0,0-.01.01-.03.03-.04.04,0,0-.01.01-.02.02-.01.02-.03.03-.04.05,0,0,0,0-.01.01-.02.02-.04.04-.06.06,0,0,0,0,0,0-.04.04-.09.09-.13.13-.05.04-.1.08-.15.11-.05.04-.1.07-.16.1-.05.03-.11.05-.16.08-.05.02-.11.04-.17.06-.11.02-.22.07-.32.08-.02,0-.04,0-.07,0-.02,0-.04.01-.06.02-.02,0-.04.02-.06.02-.02,0-.04.02-.06.03-.02.01-.04.02-.06.04-.02.01-.04.03-.05.04-.02.01-.04.03-.05.05-.02.02-.03.03-.04.05-.01.02-.03.04-.04.06-.01.02-.03.04-.04.06-.01.02-.02.04-.03.07,0,.02-.02.04-.02.07,0,.02-.01.04-.01.06,0,0,0,0,0,0,0,.02,0,.05,0,.07,0,.02,0,.03,0,.05,0,.01,0,.02,0,.03,0,.02,0,.03.01.05,0,.02.01.03.02.05h0s.02.03.03.05c.01.02.02.03.03.05.01.01.03.03.04.04.02.02.03.03.05.04.06.05.08.07.16.12.01,0,.03.01.04.02,0,0,0,0,0,0,0,0,0,0,0,.01,0,.02,0,.04.01.06,0,.02.01.04.02.06,0,.02.01.03.02.05,0,0,0,.01,0,.01.01.02.02.04.03.06.01.02.03.04.04.05.01.02.03.03.04.05.02.02.03.03.05.04,0,0,0,0,0,0,.02.01.03.03.05.04.02.01.04.02.06.03.02.01.04.02.06.03.02,0,.03.01.05.02,0,0,0,0,.01,0,.01,0,.02,0,.03,0,0,.14-.01.27.01.32.02.05.14-.11.25-.29-.02.18-.03.39,0,.45.03.06.19-.14.32-.36,1.85-.43,3.53.85,3.71,2.65-.03-.28-.38-.44-.54-.4-.08.19-.21.44-.43.59.02-.17.01-.35-.03-.52-.06.24-.17.46-.32.66-.25.02-.5-.1-.62-.28-.01,0-.01-.02-.02-.03,0-.02-.02-.04-.02-.05,0-.02-.01-.04-.02-.05,0-.02,0-.04,0-.06v-.04s0-.04.01-.05c0-.02.01-.04.02-.05.01-.02.02-.04.03-.05.04-.12.04-.23-.04-.29-.02-.01-.03-.02-.05-.03-.01,0-.02,0-.03-.01,0,0-.01,0-.02,0-.02,0-.04-.01-.05-.01-.02,0-.04,0-.05,0-.02,0-.04,0-.06,0-.01,0-.03,0-.04,0-.02,0-.04,0-.06,0-.02,0-.04,0-.05.01-.02,0-.04.01-.05.02-.02,0-.03.02-.05.02-.02,0-.03.02-.05.03-.61.4-.24,1.32.17,1.59-.16.03-.32.06-.36.1,0,0,0,0,0,0,.11.07.23.13.35.18.17.05.34.1.42.12h0c.22.05.44.06.66.05,1.15-.08,2.1-.96,2.27-2.12,0,.02.01.04.02.07,0,.05.02.1.02.15h0s0,.05.01.07h0s0,.06,0,.08c0,.03,0,.06,0,.09v.04s0,.03,0,.04c0,.02,0,.03,0,.05v.04s0,.03,0,.05c0,.01,0,.02,0,.03,0,.02,0,.04,0,.06,0,0,0,.02,0,.02,0,.02,0,.04,0,.06,0,0,0,.02,0,.02,0,.03,0,.05-.01.08h0s-.01.05-.02.08h0s-.01.05-.02.08c0,0,0,0,0,.01,0,.02-.01.05-.02.07h0s-.02.06-.02.08c0,0,0,0,0,0,0,.03-.02.05-.02.08-.01.03-.02.05-.03.08-.01.03-.02.05-.03.08-.01.03-.02.05-.03.08h0s-.02.05-.03.07c0,0,0,.01,0,.02,0,0,0,0,0,0-.17.34-.42.64-.73.88-.02.01-.04.03-.06.04,0,0-.01,0-.02.01-.02.01-.04.03-.06.04v.02h.01s.07-.01.11-.02h0c.07-.01.14-.02.2-.04.02,0,.04,0,.06-.01.01,0,.02,0,.04,0,.02,0,.04,0,.05-.01.02,0,.03,0,.05-.01.26-.06.51-.15.76-.25-.34.47-.78.86-1.3,1.15-.1.06-.21.12-.32.17.11,0,.22-.02.32-.03.19-.03.38-.07.57-.12,1.05-.31,1.93-1.02,2.46-1.97-.11.6-.35,1.18-.7,1.68.25-.17.48-.36.7-.58.58-.61.97-1.38,1.1-2.22.09.41.11.84.08,1.26,1.88-2.62.16-5.35-.57-6.06Z"/>
    </g>
  </g>
  <g>
    <rect class="cls-11" x="87.95" y="320.41" width="15.34" height="15.34"/>
    <g>
      <path class="cls-14" d="M99.69,325.28l-3.68-2.13c-.23-.13-.54-.13-.77,0l-3.69,2.13c-.24.14-.39.39-.39.67v4.25c0,.28.15.53.39.67l.97.56c.47.23.64.23.85.23.69,0,1.09-.42,1.09-1.15v-4.2c0-.06-.05-.11-.11-.11h-.47c-.06,0-.11.05-.11.11v4.2c0,.32-.33.65-.88.37l-1.01-.58s-.06-.06-.06-.1v-4.25s.02-.08.06-.1l3.68-2.12s.08-.02.11,0l3.68,2.12s.06.06.06.1v4.25s-.02.08-.06.1l-3.68,2.13s-.08.02-.11,0l-.94-.56s-.06-.02-.09,0c-.26.15-.31.17-.56.25-.06.02-.15.06.03.16l1.23.73c.12.07.25.1.39.1h0c.14,0,.27-.04.39-.11l3.68-2.13c.24-.14.39-.4.39-.67v-4.25c0-.28-.15-.53-.39-.67Z"/>
      <path class="cls-14" d="M96.72,329.53c-.97,0-1.19-.24-1.26-.73,0-.05-.05-.09-.11-.09h-.48c-.06,0-.11.05-.11.11,0,.62.34,1.36,1.95,1.36h0c1.17,0,1.84-.46,1.84-1.26s-.54-1.01-1.67-1.16c-1.14-.15-1.26-.23-1.26-.5,0-.22.1-.52.95-.52.76,0,1.04.16,1.15.67.01.05.05.08.1.08h.48s.06-.01.08-.03c.02-.02.03-.05.03-.08-.07-.88-.66-1.29-1.84-1.29-1.05,0-1.68.44-1.68,1.19,0,.81.62,1.03,1.63,1.13,1.21.12,1.3.29,1.3.53,0,.41-.33.59-1.11.59Z"/>
    </g>
  </g>
  <g>
    <rect class="cls-11" x="68.61" y="549.11" width="15.34" height="15.34"/>
    <g>
      <path class="cls-12" d="M77.22,552.13s0,.03.01.05c0,.02,0,.03,0,.05.01.23-.06.26-.11.39-.08.18-.05.36.04.51,0,.02.02.04.03.06-.1-.66.45-.76.55-.96,0-.18-.14-.3-.26-.38-.11-.07-.21-.09-.31-.09-.07,0-.14.02-.2.04.13.09.21.21.24.34Z"/>
      <path class="cls-12" d="M79.91,553.76s0,0,0-.01t0,0s0,0,0,0c0,.03,0,.06,0,.09,0,.06-.02.12-.03.17-.01.06-.03.12-.04.17-.02.05-.04.11-.06.17-.02.05-.05.11-.08.16-.03.05-.06.1-.09.15-.03.05-.07.1-.11.14-.04.05-.08.09-.12.13-.03.02-.05.04-.08.06-.02.02-.04.03-.06.05-.05.04-.09.07-.15.1-.05.03-.1.06-.15.09-.05.03-.11.05-.16.07-.05.02-.11.04-.17.05-.06.02-.12.03-.17.04-.06.01-.12.02-.18.02-.04,0-.08,0-.12,0-.06,0-.12,0-.18-.01-.06,0-.12-.01-.18-.03-.06-.01-.12-.03-.17-.04.06,0,.11-.01.17-.02.06-.01.12-.02.17-.04.06-.02.11-.03.17-.05.06-.02.11-.05.16-.07.05-.03.1-.05.16-.09.05-.03.1-.07.15-.1.05-.04.09-.08.13-.12.04-.04.08-.08.12-.13.04-.05.08-.09.11-.14,0,0,.01-.02.02-.03.03-.04.05-.08.08-.12.03-.05.05-.1.08-.16.02-.05.04-.11.06-.17.02-.05.03-.11.04-.17.01-.06.02-.12.03-.17,0-.06.01-.12.01-.18,0-.04,0-.08,0-.13,0-.06-.01-.12-.02-.17-.01-.06-.02-.12-.04-.17-.02-.05-.04-.11-.06-.17-.02-.05-.05-.11-.07-.16-.03-.05-.06-.1-.09-.15-.03-.05-.07-.1-.1-.14-.04-.04-.08-.09-.12-.13-.02-.02-.04-.04-.07-.06-.12-.09-.24-.18-.36-.26-.02-.01-.03-.02-.05-.03-.09-.05-.17-.08-.25-.11-.01.06,0,.04,0,.08,0,.02,0,.05,0,.07,0,.02-.01.04-.02.06,0,.02-.01.04-.02.06-.01.02-.02.04-.03.06,0,.01-.01.02-.02.03,0,0-.01.02-.02.02-.01.02-.03.04-.04.05-.02.02-.03.03-.05.05h0s-.03.03-.05.04c-.05.04-.12.07-.18.11-.02.01-.04.02-.05.04-.02.01-.03.03-.05.04-.02.02-.03.03-.05.05-.01.02-.03.03-.04.05-.01.02-.03.04-.04.05-.01.02-.02.04-.03.06,0,.02-.02.04-.02.06,0,.02-.01.04-.02.06,0,.01,0,.02,0,.03,0,.01,0,.02,0,.03,0,.02,0,.04,0,.07,0,.02,0,.03,0,.05,0,.02,0,.04,0,.07,0,.02,0,.04.01.06,0,.02.01.04.02.06,0,.01.01.03.02.04l-.6-.23c-.1-.03-.2-.05-.3-.08-.05-.01-.11-.03-.16-.04-.16-.03-.32-.05-.47-.07,0,0,0,0-.01,0-.16-.02-.31-.02-.47-.02-.11,0-.23,0-.34.01-.16.01-.32.03-.48.06-.04,0-.08.01-.12.02-.08.02-.16.03-.23.05-.04.01-.08.02-.12.03-.04.02-.08.03-.11.05-.03.01-.06.03-.09.04,0,0-.01,0-.01,0-.03.01-.05.02-.07.04,0,0-.01,0-.02,0-.03.01-.06.03-.08.04-.02,0-.04.02-.05.03,0,0-.02.01-.02.01-.02.01-.05.03-.07.04-.02.01-.04.03-.06.04-.02.01-.04.02-.05.04,0,0,0,0,0,0-.02.01-.03.02-.05.04,0,0,0,0,0,0-.01.01-.03.02-.04.03,0,0-.01,0-.02.01-.01.01-.03.02-.04.03,0,0,0,0-.01.01-.02.02-.03.03-.05.04,0,0,0,0,0,0-.02.01-.03.03-.05.04,0,0,0,0,0,0-.01.01-.03.03-.04.04,0,0-.01.01-.02.02-.01.02-.03.03-.04.05,0,0,0,0-.01.01-.02.02-.04.04-.06.06,0,0,0,0,0,0-.04.04-.09.09-.13.13-.05.04-.1.08-.15.11-.05.04-.1.07-.16.1-.05.03-.11.05-.16.08-.05.02-.11.04-.17.06-.11.02-.22.07-.32.08-.02,0-.04,0-.07,0-.02,0-.04.01-.06.02-.02,0-.04.02-.06.02-.02,0-.04.02-.06.03-.02.01-.04.02-.06.04-.02.01-.04.03-.05.04-.02.01-.04.03-.05.05-.02.02-.03.03-.04.05-.01.02-.03.04-.04.06-.01.02-.03.04-.04.06-.01.02-.02.04-.03.07,0,.02-.02.04-.02.07,0,.02-.01.04-.01.06,0,0,0,0,0,0,0,.02,0,.05,0,.07,0,.02,0,.03,0,.05,0,.01,0,.02,0,.03,0,.02,0,.03.01.05,0,.02.01.03.02.05h0s.02.03.03.05c.01.02.02.03.03.05.01.01.03.03.04.04.02.02.03.03.05.04.06.05.08.07.16.12.01,0,.03.01.04.02,0,0,0,0,0,0,0,0,0,0,0,.01,0,.02,0,.04.01.06,0,.02.01.04.02.06,0,.02.01.03.02.05,0,0,0,.01,0,.01.01.02.02.04.03.06.01.02.03.04.04.05.01.02.03.03.04.05.02.02.03.03.05.04,0,0,0,0,0,0,.02.01.03.03.05.04.02.01.04.02.06.03.02.01.04.02.06.03.02,0,.03.01.05.02,0,0,0,0,.01,0,.01,0,.02,0,.03,0,0,.14-.01.27.01.32.02.05.14-.11.25-.29-.02.18-.03.39,0,.45.03.06.19-.14.32-.36,1.85-.43,3.53.85,3.71,2.65-.03-.28-.38-.44-.54-.4-.08.19-.21.44-.43.59.02-.17.01-.35-.03-.52-.06.24-.17.46-.32.66-.25.02-.5-.1-.62-.28-.01,0-.01-.02-.02-.03,0-.02-.02-.04-.02-.05,0-.02-.01-.04-.02-.05,0-.02,0-.04,0-.06v-.04s0-.04.01-.05c0-.02.01-.04.02-.05.01-.02.02-.04.03-.05.04-.12.04-.23-.04-.29-.02-.01-.03-.02-.05-.03-.01,0-.02,0-.03-.01,0,0-.01,0-.02,0-.02,0-.04-.01-.05-.01-.02,0-.04,0-.05,0-.02,0-.04,0-.06,0-.01,0-.03,0-.04,0-.02,0-.04,0-.06,0-.02,0-.04,0-.05.01-.02,0-.04.01-.05.02-.02,0-.03.02-.05.02-.02,0-.03.02-.05.03-.61.4-.24,1.32.17,1.59-.16.03-.32.06-.36.1,0,0,0,0,0,0,.11.07.23.13.35.18.17.05.34.1.42.12h0c.22.05.44.06.66.05,1.15-.08,2.1-.96,2.27-2.12,0,.02.01.04.02.07,0,.05.02.1.02.15h0s0,.05.01.07h0s0,.06,0,.08c0,.03,0,.06,0,.09v.04s0,.03,0,.04c0,.02,0,.03,0,.05v.04s0,.03,0,.05c0,.01,0,.02,0,.03,0,.02,0,.04,0,.06,0,0,0,.02,0,.02,0,.02,0,.04,0,.06,0,0,0,.02,0,.02,0,.03,0,.05-.01.08h0s-.01.05-.02.08h0s-.01.05-.02.08c0,0,0,0,0,.01,0,.02-.01.05-.02.07h0s-.02.06-.02.08c0,0,0,0,0,0,0,.03-.02.05-.02.08-.01.03-.02.05-.03.08-.01.03-.02.05-.03.08-.01.03-.02.05-.03.08h0s-.02.05-.03.07c0,0,0,.01,0,.02,0,0,0,0,0,0-.17.34-.42.64-.73.88-.02.01-.04.03-.06.04,0,0-.01,0-.02.01-.02.01-.04.03-.06.04v.02h.01s.07-.01.11-.02h0c.07-.01.14-.02.2-.04.02,0,.04,0,.06-.01.01,0,.02,0,.04,0,.02,0,.04,0,.05-.01.02,0,.03,0,.05-.01.26-.06.51-.15.76-.25-.34.47-.78.86-1.3,1.15-.1.06-.21.12-.32.17.11,0,.22-.02.32-.03.19-.03.38-.07.57-.12,1.05-.31,1.93-1.02,2.46-1.97-.11.6-.35,1.18-.7,1.68.25-.17.48-.36.7-.58.58-.61.97-1.38,1.1-2.22.09.41.11.84.08,1.26,1.88-2.62.16-5.35-.57-6.06Z"/>
    </g>
  </g>
  <g>
    <rect class="cls-11" x="87.95" y="549.11" width="15.34" height="15.34"/>
    <path class="cls-1" d="M99.62,558.06c-.08-.04-.15-.07-.23-.09v-2.37c.08-.02.16-.05.24-.09.43-.25.57-.79.33-1.22-.25-.43-.79-.57-1.22-.33-.08.04-.14.1-.2.16l-2.05-1.19c.02-.08.04-.17.04-.25,0-.49-.4-.89-.89-.89s-.89.4-.89.89c0,.09.01.17.04.25l-2.05,1.19c-.06-.06-.12-.11-.2-.16-.43-.24-.97-.1-1.22.33-.24.43-.1.97.33,1.22.08.04.16.07.24.09v2.37c-.08.02-.16.05-.23.09-.43.25-.57.79-.33,1.22s.79.57,1.22.33c.08-.04.14-.1.2-.16l2.05,1.19c-.02.08-.04.16-.04.25,0,.49.4.89.89.89s.89-.4.89-.89c0-.1-.02-.19-.05-.28l2.04-1.18c.06.07.14.13.22.18.43.24.97.1,1.22-.33.25-.43.1-.97-.33-1.22ZM92.94,558.62c-.02-.08-.05-.16-.09-.23-.04-.08-.1-.14-.16-.2l2.69-4.66c.08.02.16.04.25.04s.17-.01.25-.04l2.69,4.65c-.06.06-.11.12-.16.2-.04.08-.07.15-.09.23h-5.37ZM98.32,554.49c-.06.22-.04.47.08.69.13.22.33.36.56.42v2.38s-.02,0-.03,0l-2.69-4.66s.02-.02.02-.02l2.06,1.19ZM94.98,553.3s.02.02.03.03l-2.69,4.66s-.02,0-.03,0v-2.38c.23-.06.43-.2.56-.42.13-.22.15-.47.08-.69l2.06-1.19ZM96.28,560.28c-.16-.18-.4-.29-.66-.29s-.48.1-.64.27l-2.05-1.19s0-.02,0-.03h5.37s.01.04.02.06l-2.04,1.18Z"/>
  </g>
  <g>
    <g>
      <rect class="cls-22" x="466.15" y="202.01" width="191.07" height="65.02"/>
      <text class="cls-18" transform="translate(481.72 221.44)"><tspan x="0" y="0">Node: Autenticación Rest con</tspan><tspan x="0" y="12">Clean Architecture</tspan></text>
    </g>
    <g>
      <g>
        <rect class="cls-8" x="483.15" y="244.17" width="44.8" height="15.27"/>
        <text class="cls-16" transform="translate(488.15 253.97)"><tspan x="0" y="0">BACKEND</tspan></text>
      </g>
      <g>
        <rect class="cls-11" x="531.95" y="244.17" width="15.34" height="15.34"/>
        <g>
          <path class="cls-14" d="M543.69,249.04l-3.68-2.13c-.23-.13-.54-.13-.77,0l-3.69,2.13c-.24.14-.39.39-.39.67v4.25c0,.28.15.53.39.67l.97.56c.47.23.64.23.85.23.69,0,1.09-.42,1.09-1.15v-4.2c0-.06-.05-.11-.11-.11h-.47c-.06,0-.11.05-.11.11v4.2c0,.32-.33.65-.88.37l-1.01-.58s-.06-.06-.06-.1v-4.25s.02-.08.06-.1l3.68-2.12s.08-.02.11,0l3.68,2.12s.06.06.06.1v4.25s-.02.08-.06.1l-3.68,2.13s-.08.02-.11,0l-.94-.56s-.06-.02-.09,0c-.26.15-.31.17-.56.25-.06.02-.15.06.03.16l1.23.73c.12.07.25.1.39.1h0c.14,0,.27-.04.39-.11l3.68-2.13c.24-.14.39-.4.39-.67v-4.25c0-.28-.15-.53-.39-.67Z"/>
          <path class="cls-14" d="M540.72,253.29c-.97,0-1.19-.24-1.26-.73,0-.05-.05-.09-.11-.09h-.48c-.06,0-.11.05-.11.11,0,.62.34,1.36,1.95,1.36h0c1.17,0,1.84-.46,1.84-1.26s-.54-1.01-1.67-1.16c-1.14-.15-1.26-.23-1.26-.5,0-.22.1-.52.95-.52.76,0,1.04.16,1.15.67.01.05.05.08.1.08h.48s.06-.01.08-.03c.02-.02.03-.05.03-.08-.07-.88-.66-1.29-1.84-1.29-1.05,0-1.68.44-1.68,1.19,0,.81.62,1.03,1.63,1.13,1.21.12,1.3.29,1.3.53,0,.41-.33.59-1.11.59Z"/>
        </g>
      </g>
    </g>
  </g>
  <g>
    <g>
      <g>
        <rect class="cls-22" x="466.15" y="354.48" width="191.07" height="65.02"/>
        <g>
          <text class="cls-18" transform="translate(481.72 373.91)"><tspan x="0" y="0">OpenAI: Ejercicios prácticos y</tspan><tspan x="0" y="12">asistentes con React + NestJS</tspan></text>
          <g>
            <rect class="cls-5" x="483.15" y="396.68" width="49.63" height="15.27"/>
            <text class="cls-19" transform="translate(488.15 406.48)"><tspan x="0" y="0">FRONTEND</tspan></text>
          </g>
        </g>
      </g>
      <g>
        <rect class="cls-11" x="536.78" y="396.64" width="15.34" height="15.34"/>
        <rect class="cls-11" x="556.12" y="396.64" width="15.34" height="15.34"/>
        <g>
          <path class="cls-9" d="M565.81,399.33h.41s0,0,.02,0c.34.06.59.25.75.55.16.28.22.58.24.9.03.45-.03.89-.12,1.33-.02.11-.05.21-.07.33.02,0,.05.01.06.02.45.13.88.29,1.28.52.28.16.54.36.74.61.34.44.35.95.03,1.4-.16.22-.36.39-.58.53-.39.26-.83.44-1.27.58-.09.03-.17.05-.26.08,0,.02,0,.03,0,.04.13.52.22,1.06.19,1.6-.01.26-.06.51-.16.75-.13.31-.34.54-.66.66-.06.02-.12.04-.19.05h-.41s0,0-.02,0c-.24-.04-.47-.12-.69-.24-.43-.22-.81-.52-1.17-.85-.05-.05-.09-.09-.15-.14-.01.01-.03.02-.04.03-.23.22-.47.43-.74.62-.3.21-.61.4-.96.51-.09.03-.19.05-.29.07h-.41s-.01,0-.02,0c-.33-.06-.57-.24-.74-.52-.17-.28-.23-.59-.25-.92-.03-.45.03-.89.12-1.33.02-.11.05-.21.07-.32,0,0,0,0,0,0-.02,0-.04-.01-.05-.02-.45-.13-.89-.3-1.3-.53-.28-.16-.53-.35-.73-.61-.33-.43-.34-.94-.03-1.39.15-.21.33-.38.55-.52.38-.26.81-.44,1.25-.59.1-.03.2-.06.31-.1,0-.01,0-.03,0-.04-.13-.53-.21-1.06-.18-1.6.01-.25.05-.5.15-.74.13-.31.34-.55.66-.67.06-.02.13-.04.19-.05h.41s.01,0,.02,0c.24.04.47.12.69.23.39.2.73.46,1.05.75.09.08.18.16.26.24.02-.01.03-.03.05-.05.24-.23.48-.43.75-.62.3-.21.62-.4.98-.5.09-.02.17-.04.26-.06ZM563.77,402.5c-.31.01-.64.03-.97.05-.03,0-.05.01-.06.04-.37.54-.69,1.1-.98,1.69-.01.03-.01.05,0,.08.28.59.61,1.15.98,1.69.01.02.04.04.06.04.19.01.39.02.59.03.46.01.91,0,1.37-.03.04,0,.06-.01.08-.05.36-.54.69-1.1.97-1.68.01-.03.02-.05,0-.09-.28-.58-.61-1.13-.96-1.67-.03-.05-.06-.06-.11-.06-.32-.01-.63-.03-.96-.04ZM560.99,402.31s.03,0,.05,0c.12-.02.24-.05.35-.07.35-.05.7-.1,1.04-.14.04,0,.06,0,.09-.04.28-.39.57-.76.89-1.11,0,0,.02-.02.03-.04,0,0-.01-.01-.02-.02-.27-.26-.55-.5-.86-.7-.24-.16-.5-.29-.78-.36-.16-.04-.32-.05-.48.01-.19.07-.29.22-.37.39-.1.24-.12.48-.13.73,0,.33.04.64.1.96.03.13.06.26.09.39ZM563.44,407.72s-.03-.03-.04-.05c-.31-.34-.6-.7-.87-1.08-.03-.05-.07-.06-.12-.07-.18-.02-.35-.04-.52-.06-.28-.05-.57-.1-.85-.15-.03,0-.04,0-.05.03-.12.5-.21,1-.17,1.52.01.21.05.41.15.6.13.25.33.38.61.36.21,0,.41-.08.6-.17.36-.17.67-.4.97-.66.09-.09.19-.18.28-.27ZM566.91,405.72s.05-.01.06-.02c.44-.13.86-.28,1.25-.53.21-.13.4-.28.54-.47.19-.26.18-.52,0-.78-.11-.16-.26-.29-.42-.4-.33-.23-.69-.38-1.06-.51-.12-.04-.24-.08-.37-.12,0,.01,0,.02-.01.03-.14.46-.32.91-.52,1.35,0,.02,0,.05,0,.07.11.26.22.52.33.79.08.19.14.39.21.59ZM564.12,400.9s.03.04.04.05c.32.34.61.71.88,1.09.02.04.05.05.09.05.47.04.94.11,1.4.22.04,0,.05,0,.05-.04.04-.21.09-.42.13-.64.05-.34.08-.68.02-1.03-.03-.19-.08-.37-.18-.53-.12-.18-.28-.27-.49-.28-.22,0-.42.05-.62.14-.35.16-.66.38-.96.63-.12.1-.24.21-.36.33ZM560.66,405.72s0-.03.01-.04c.14-.46.32-.9.52-1.34,0-.02,0-.05,0-.08-.19-.43-.37-.87-.51-1.32,0-.01-.01-.03-.02-.05-.13.04-.25.08-.37.12-.38.13-.74.28-1.07.51-.19.13-.36.28-.47.47-.11.2-.11.41,0,.61.08.14.19.26.31.36.22.18.47.32.72.43.28.13.57.23.88.32ZM564.13,407.72s0,.01.02.02c.23.22.47.43.73.61.26.18.52.33.83.42.15.05.31.07.47.03.24-.05.37-.21.46-.42.09-.23.12-.47.12-.71,0-.45-.07-.89-.18-1.32,0-.03-.02-.03-.05-.03-.47.1-.94.18-1.41.22-.04,0-.06.02-.08.05-.17.22-.33.44-.51.66-.13.16-.27.31-.41.47ZM566.09,404.89c-.22.38-.44.75-.66,1.14.34-.06.67-.11,1.02-.18-.13-.33-.24-.65-.36-.96ZM566.09,403.74c.12-.32.24-.64.36-.97-.35-.06-.68-.12-1.01-.18.22.39.43.76.66,1.14ZM562.13,406.02c-.23-.39-.44-.76-.66-1.14-.12.32-.24.64-.36.97.35.05.68.11,1.02.17ZM562.13,402.6c-.34.06-.67.12-1,.17.01.12.3.89.35.95.21-.37.43-.74.65-1.13ZM563.12,402.03h1.32c-.22-.27-.43-.52-.66-.79-.23.27-.44.52-.66.79ZM564.44,406.59h-1.32c.22.27.43.52.66.79.23-.27.44-.52.66-.79Z"/>
          <path class="cls-9" d="M564.78,404.31c0,.55-.44,1-.99,1s-1-.45-1-1,.45-.99,1-.99c.55,0,.99.44.99.99Z"/>
        </g>
        <path class="cls-4" d="M548.75,403.4c.23-.68.15-1.43-.21-2.05-.55-.95-1.65-1.44-2.72-1.21-.48-.54-1.17-.85-1.89-.84-1.1,0-2.07.71-2.41,1.75-.71.14-1.32.59-1.67,1.21-.55.95-.43,2.15.31,2.97-.23.68-.15,1.43.21,2.05.55.95,1.65,1.44,2.72,1.21.48.54,1.17.85,1.89.84,1.1,0,2.08-.71,2.41-1.75.71-.14,1.32-.59,1.67-1.21.55-.95.43-2.15-.31-2.97h0ZM544.97,408.68c-.44,0-.87-.15-1.2-.44.02,0,.04-.02.06-.03l2-1.15c.1-.06.17-.17.16-.28v-2.82l.84.49s.02.01.02.02v2.33c0,1.04-.84,1.88-1.88,1.88h0ZM540.93,406.95c-.22-.38-.3-.83-.22-1.26.01,0,.04.02.06.04l2,1.15c.1.06.23.06.33,0l2.44-1.41v.98s0,.02-.01.03l-2.02,1.17c-.9.52-2.05.21-2.57-.69h0ZM540.4,402.58c.22-.38.57-.67.98-.82,0,.02,0,.05,0,.07v2.31c0,.12.06.23.16.28l2.44,1.41-.84.49s-.02,0-.03,0l-2.02-1.17c-.9-.52-1.21-1.67-.69-2.57h0ZM547.35,404.2l-2.44-1.41.84-.49s.02,0,.03,0l2.02,1.17c.9.52,1.21,1.67.69,2.57-.22.38-.57.67-.98.82v-2.38c0-.12-.06-.23-.16-.28h0ZM548.19,402.93s-.04-.02-.06-.04l-2-1.15c-.1-.06-.23-.06-.33,0l-2.44,1.41v-.98s0-.02.01-.03l2.02-1.17c.9-.52,2.05-.21,2.57.69.22.38.3.83.22,1.26h0ZM542.9,404.67l-.85-.49s-.02-.01-.02-.02v-2.33c0-1.04.84-1.88,1.88-1.88.44,0,.87.15,1.2.44-.02,0-.04.02-.06.03l-2,1.15c-.1.06-.17.17-.16.28v2.82s0,0,0,0ZM543.36,403.68l1.09-.63,1.09.63v1.26l-1.09.63-1.09-.63v-1.26Z"/>
        <g>
          <rect class="cls-11" x="575.45" y="396.64" width="15.34" height="15.34"/>
          <g>
            <path class="cls-12" d="M584.06,399.66s0,.03.01.05c0,.02,0,.03,0,.05.01.23-.06.26-.11.39-.08.18-.05.36.04.51,0,.02.02.04.03.06-.1-.66.45-.76.55-.96,0-.18-.14-.3-.26-.38-.11-.07-.21-.09-.31-.09-.07,0-.14.02-.2.04.13.09.21.21.24.34Z"/>
            <path class="cls-12" d="M586.75,401.29s0,0,0-.01t0,0s0,0,0,0c0,.03,0,.06,0,.09,0,.06-.02.12-.03.17-.01.06-.03.12-.04.17-.02.05-.04.11-.06.17-.02.05-.05.11-.08.16-.03.05-.06.1-.09.15-.03.05-.07.1-.11.14-.04.05-.08.09-.12.13-.03.02-.05.04-.08.06-.02.02-.04.03-.06.05-.05.04-.09.07-.15.1-.05.03-.1.06-.15.09-.05.03-.11.05-.16.07-.05.02-.11.04-.17.05-.06.02-.12.03-.17.04-.06.01-.12.02-.18.02-.04,0-.08,0-.12,0-.06,0-.12,0-.18-.01-.06,0-.12-.01-.18-.03-.06-.01-.12-.03-.17-.04.06,0,.11-.01.17-.02.06-.01.12-.02.17-.04.06-.02.11-.03.17-.05.06-.02.11-.05.16-.07.05-.03.1-.05.16-.09.05-.03.1-.07.15-.1.05-.04.09-.08.13-.12.04-.04.08-.08.12-.13.04-.05.08-.09.11-.14,0,0,.01-.02.02-.03.03-.04.05-.08.08-.12.03-.05.05-.1.08-.16.02-.05.04-.11.06-.17.02-.05.03-.11.04-.17.01-.06.02-.12.03-.17,0-.06.01-.12.01-.18,0-.04,0-.08,0-.13,0-.06-.01-.12-.02-.17-.01-.06-.02-.12-.04-.17-.02-.05-.04-.11-.06-.17-.02-.05-.05-.11-.07-.16-.03-.05-.06-.1-.09-.15-.03-.05-.07-.1-.1-.14-.04-.04-.08-.09-.12-.13-.02-.02-.04-.04-.07-.06-.12-.09-.24-.18-.36-.26-.02-.01-.03-.02-.05-.03-.09-.05-.17-.08-.25-.11-.01.06,0,.04,0,.08,0,.02,0,.05,0,.07,0,.02-.01.04-.02.06,0,.02-.01.04-.02.06-.01.02-.02.04-.03.06,0,.01-.01.02-.02.03,0,0-.01.02-.02.02-.01.02-.03.04-.04.05-.02.02-.03.03-.05.05h0s-.03.03-.05.04c-.05.04-.12.07-.18.11-.02.01-.04.02-.05.04-.02.01-.03.03-.05.04-.02.02-.03.03-.05.05-.01.02-.03.03-.04.05-.01.02-.03.04-.04.05-.01.02-.02.04-.03.06,0,.02-.02.04-.02.06,0,.02-.01.04-.02.06,0,.01,0,.02,0,.03,0,.01,0,.02,0,.03,0,.02,0,.04,0,.07,0,.02,0,.03,0,.05,0,.02,0,.04,0,.07,0,.02,0,.04.01.06,0,.02.01.04.02.06,0,.01.01.03.02.04l-.6-.23c-.1-.03-.2-.05-.3-.08-.05-.01-.11-.03-.16-.04-.16-.03-.32-.05-.47-.07,0,0,0,0-.01,0-.16-.02-.31-.02-.47-.02-.11,0-.23,0-.34.01-.16.01-.32.03-.48.06-.04,0-.08.01-.12.02-.08.02-.16.03-.23.05-.04.01-.08.02-.12.03-.04.02-.08.03-.11.05-.03.01-.06.03-.09.04,0,0-.01,0-.01,0-.03.01-.05.02-.07.04,0,0-.01,0-.02,0-.03.01-.06.03-.08.04-.02,0-.04.02-.05.03,0,0-.02.01-.02.01-.02.01-.05.03-.07.04-.02.01-.04.03-.06.04-.02.01-.04.02-.05.04,0,0,0,0,0,0-.02.01-.03.02-.05.04,0,0,0,0,0,0-.01.01-.03.02-.04.03,0,0-.01,0-.02.01-.01.01-.03.02-.04.03,0,0,0,0-.01.01-.02.02-.03.03-.05.04,0,0,0,0,0,0-.02.01-.03.03-.05.04,0,0,0,0,0,0-.01.01-.03.03-.04.04,0,0-.01.01-.02.02-.01.02-.03.03-.04.05,0,0,0,0-.01.01-.02.02-.04.04-.06.06,0,0,0,0,0,0-.04.04-.09.09-.13.13-.05.04-.1.08-.15.11-.05.04-.1.07-.16.1-.05.03-.11.05-.16.08-.05.02-.11.04-.17.06-.11.02-.22.07-.32.08-.02,0-.04,0-.07,0-.02,0-.04.01-.06.02-.02,0-.04.02-.06.02-.02,0-.04.02-.06.03-.02.01-.04.02-.06.04-.02.01-.04.03-.05.04-.02.01-.04.03-.05.05-.02.02-.03.03-.04.05-.01.02-.03.04-.04.06-.01.02-.03.04-.04.06-.01.02-.02.04-.03.07,0,.02-.02.04-.02.07,0,.02-.01.04-.01.06,0,0,0,0,0,0,0,.02,0,.05,0,.07,0,.02,0,.03,0,.05,0,.01,0,.02,0,.03,0,.02,0,.03.01.05,0,.02.01.03.02.05h0s.02.03.03.05c.01.02.02.03.03.05.01.01.03.03.04.04.02.02.03.03.05.04.06.05.08.07.16.12.01,0,.03.01.04.02,0,0,0,0,0,0,0,0,0,0,0,.01,0,.02,0,.04.01.06,0,.02.01.04.02.06,0,.02.01.03.02.05,0,0,0,.01,0,.01.01.02.02.04.03.06.01.02.03.04.04.05.01.02.03.03.04.05.02.02.03.03.05.04,0,0,0,0,0,0,.02.01.03.03.05.04.02.01.04.02.06.03.02.01.04.02.06.03.02,0,.03.01.05.02,0,0,0,0,.01,0,.01,0,.02,0,.03,0,0,.14-.01.27.01.32.02.05.14-.11.25-.29-.02.18-.03.39,0,.45.03.06.19-.14.32-.36,1.85-.43,3.53.85,3.71,2.65-.03-.28-.38-.44-.54-.4-.08.19-.21.44-.43.59.02-.17.01-.35-.03-.52-.06.24-.17.46-.32.66-.25.02-.5-.1-.62-.28-.01,0-.01-.02-.02-.03,0-.02-.02-.04-.02-.05,0-.02-.01-.04-.02-.05,0-.02,0-.04,0-.06v-.04s0-.04.01-.05c0-.02.01-.04.02-.05.01-.02.02-.04.03-.05.04-.12.04-.23-.04-.29-.02-.01-.03-.02-.05-.03-.01,0-.02,0-.03-.01,0,0-.01,0-.02,0-.02,0-.04-.01-.05-.01-.02,0-.04,0-.05,0-.02,0-.04,0-.06,0-.01,0-.03,0-.04,0-.02,0-.04,0-.06,0-.02,0-.04,0-.05.01-.02,0-.04.01-.05.02-.02,0-.03.02-.05.02-.02,0-.03.02-.05.03-.61.4-.24,1.32.17,1.59-.16.03-.32.06-.36.1,0,0,0,0,0,0,.11.07.23.13.35.18.17.05.34.1.42.12h0c.22.05.44.06.66.05,1.15-.08,2.1-.96,2.27-2.12,0,.02.01.04.02.07,0,.05.02.1.02.15h0s0,.05.01.07h0s0,.06,0,.08c0,.03,0,.06,0,.09v.04s0,.03,0,.04c0,.02,0,.03,0,.05v.04s0,.03,0,.05c0,.01,0,.02,0,.03,0,.02,0,.04,0,.06,0,0,0,.02,0,.02,0,.02,0,.04,0,.06,0,0,0,.02,0,.02,0,.03,0,.05-.01.08h0s-.01.05-.02.08h0s-.01.05-.02.08c0,0,0,0,0,.01,0,.02-.01.05-.02.07h0s-.02.06-.02.08c0,0,0,0,0,0,0,.03-.02.05-.02.08-.01.03-.02.05-.03.08-.01.03-.02.05-.03.08-.01.03-.02.05-.03.08h0s-.02.05-.03.07c0,0,0,.01,0,.02,0,0,0,0,0,0-.17.34-.42.64-.73.88-.02.01-.04.03-.06.04,0,0-.01,0-.02.01-.02.01-.04.03-.06.04v.02h.01s.07-.01.11-.02h0c.07-.01.14-.02.2-.04.02,0,.04,0,.06-.01.01,0,.02,0,.04,0,.02,0,.04,0,.05-.01.02,0,.03,0,.05-.01.26-.06.51-.15.76-.25-.34.47-.78.86-1.3,1.15-.1.06-.21.12-.32.17.11,0,.22-.02.32-.03.19-.03.38-.07.57-.12,1.05-.31,1.93-1.02,2.46-1.97-.11.6-.35,1.18-.7,1.68.25-.17.48-.36.7-.58.58-.61.97-1.38,1.1-2.22.09.41.11.84.08,1.26,1.88-2.62.16-5.35-.57-6.06Z"/>
          </g>
        </g>
      </g>
    </g>
    <g>
      <g>
        <rect class="cls-22" x="466.15" y="430.71" width="191.07" height="65.02"/>
        <g>
          <text class="cls-18" transform="translate(481.72 450.15)"><tspan x="0" y="0">OpenAI: Ejercicios prácticos y</tspan><tspan x="0" y="12">asistentes con Angular + NestJS</tspan></text>
          <g>
            <rect class="cls-5" x="483.15" y="472.91" width="49.63" height="15.27"/>
            <text class="cls-16" transform="translate(488.15 482.71)"><tspan x="0" y="0">FRONTEND</tspan></text>
          </g>
        </g>
      </g>
      <g>
        <rect class="cls-11" x="536.78" y="472.88" width="15.34" height="15.34"/>
        <rect class="cls-11" x="556.12" y="472.88" width="15.34" height="15.34"/>
        <rect class="cls-11" x="575.45" y="472.88" width="15.34" height="15.34"/>
        <path class="cls-4" d="M548.75,479.63c.23-.68.15-1.43-.21-2.05-.55-.95-1.65-1.44-2.72-1.21-.48-.54-1.17-.85-1.89-.84-1.1,0-2.07.71-2.41,1.75-.71.14-1.32.59-1.67,1.21-.55.95-.43,2.15.31,2.97-.23.68-.15,1.43.21,2.05.55.95,1.65,1.44,2.72,1.21.48.54,1.17.85,1.89.84,1.1,0,2.08-.71,2.41-1.75.71-.14,1.32-.59,1.67-1.21.55-.95.43-2.15-.31-2.97h0ZM544.97,484.91c-.44,0-.87-.15-1.2-.44.02,0,.04-.02.06-.03l2-1.15c.1-.06.17-.17.16-.28v-2.82l.84.49s.02.01.02.02v2.33c0,1.04-.84,1.88-1.88,1.88h0ZM540.93,483.18c-.22-.38-.3-.83-.22-1.26.01,0,.04.02.06.04l2,1.15c.1.06.23.06.33,0l2.44-1.41v.98s0,.02-.01.03l-2.02,1.17c-.9.52-2.05.21-2.57-.69h0ZM540.4,478.82c.22-.38.57-.67.98-.82,0,.02,0,.05,0,.07v2.31c0,.12.06.23.16.28l2.44,1.41-.84.49s-.02,0-.03,0l-2.02-1.17c-.9-.52-1.21-1.67-.69-2.57h0ZM547.35,480.43l-2.44-1.41.84-.49s.02,0,.03,0l2.02,1.17c.9.52,1.21,1.67.69,2.57-.22.38-.57.67-.98.82v-2.38c0-.12-.06-.23-.16-.28h0ZM548.19,479.17s-.04-.02-.06-.04l-2-1.15c-.1-.06-.23-.06-.33,0l-2.44,1.41v-.98s0-.02.01-.03l2.02-1.17c.9-.52,2.05-.21,2.57.69.22.38.3.83.22,1.26h0ZM542.9,480.91l-.85-.49s-.02-.01-.02-.02v-2.33c0-1.04.84-1.88,1.88-1.88.44,0,.87.15,1.2.44-.02,0-.04.02-.06.03l-2,1.15c-.1.06-.17.17-.16.28v2.82s0,0,0,0ZM543.36,479.92l1.09-.63,1.09.63v1.26l-1.09.63-1.09-.63v-1.26Z"/>
        <g>
          <path class="cls-12" d="M584.06,475.89s0,.03.01.05c0,.02,0,.03,0,.05.01.23-.06.26-.11.39-.08.18-.05.36.04.51,0,.02.02.04.03.06-.1-.66.45-.76.55-.96,0-.18-.14-.3-.26-.38-.11-.07-.21-.09-.31-.09-.07,0-.14.02-.2.04.13.09.21.21.24.34Z"/>
          <path class="cls-12" d="M586.75,477.53s0,0,0-.01t0,0s0,0,0,0c0,.03,0,.06,0,.09,0,.06-.02.12-.03.17-.01.06-.03.12-.04.17-.02.05-.04.11-.06.17-.02.05-.05.11-.08.16-.03.05-.06.1-.09.15-.03.05-.07.1-.11.14-.04.05-.08.09-.12.13-.03.02-.05.04-.08.06-.02.02-.04.03-.06.05-.05.04-.09.07-.15.1-.05.03-.1.06-.15.09-.05.03-.11.05-.16.07-.05.02-.11.04-.17.05-.06.02-.12.03-.17.04-.06.01-.12.02-.18.02-.04,0-.08,0-.12,0-.06,0-.12,0-.18-.01-.06,0-.12-.01-.18-.03-.06-.01-.12-.03-.17-.04.06,0,.11-.01.17-.02.06-.01.12-.02.17-.04.06-.02.11-.03.17-.05.06-.02.11-.05.16-.07.05-.03.1-.05.16-.09.05-.03.1-.07.15-.1.05-.04.09-.08.13-.12.04-.04.08-.08.12-.13.04-.05.08-.09.11-.14,0,0,.01-.02.02-.03.03-.04.05-.08.08-.12.03-.05.05-.1.08-.16.02-.05.04-.11.06-.17.02-.05.03-.11.04-.17.01-.06.02-.12.03-.17,0-.06.01-.12.01-.18,0-.04,0-.08,0-.13,0-.06-.01-.12-.02-.17-.01-.06-.02-.12-.04-.17-.02-.05-.04-.11-.06-.17-.02-.05-.05-.11-.07-.16-.03-.05-.06-.1-.09-.15-.03-.05-.07-.1-.1-.14-.04-.04-.08-.09-.12-.13-.02-.02-.04-.04-.07-.06-.12-.09-.24-.18-.36-.26-.02-.01-.03-.02-.05-.03-.09-.05-.17-.08-.25-.11-.01.06,0,.04,0,.08,0,.02,0,.05,0,.07,0,.02-.01.04-.02.06,0,.02-.01.04-.02.06-.01.02-.02.04-.03.06,0,.01-.01.02-.02.03,0,0-.01.02-.02.02-.01.02-.03.04-.04.05-.02.02-.03.03-.05.05h0s-.03.03-.05.04c-.05.04-.12.07-.18.11-.02.01-.04.02-.05.04-.02.01-.03.03-.05.04-.02.02-.03.03-.05.05-.01.02-.03.03-.04.05-.01.02-.03.04-.04.05-.01.02-.02.04-.03.06,0,.02-.02.04-.02.06,0,.02-.01.04-.02.06,0,.01,0,.02,0,.03,0,.01,0,.02,0,.03,0,.02,0,.04,0,.07,0,.02,0,.03,0,.05,0,.02,0,.04,0,.07,0,.02,0,.04.01.06,0,.02.01.04.02.06,0,.01.01.03.02.04l-.6-.23c-.1-.03-.2-.05-.3-.08-.05-.01-.11-.03-.16-.04-.16-.03-.32-.05-.47-.07,0,0,0,0-.01,0-.16-.02-.31-.02-.47-.02-.11,0-.23,0-.34.01-.16.01-.32.03-.48.06-.04,0-.08.01-.12.02-.08.02-.16.03-.23.05-.04.01-.08.02-.12.03-.04.02-.08.03-.11.05-.03.01-.06.03-.09.04,0,0-.01,0-.01,0-.03.01-.05.02-.07.04,0,0-.01,0-.02,0-.03.01-.06.03-.08.04-.02,0-.04.02-.05.03,0,0-.02.01-.02.01-.02.01-.05.03-.07.04-.02.01-.04.03-.06.04-.02.01-.04.02-.05.04,0,0,0,0,0,0-.02.01-.03.02-.05.04,0,0,0,0,0,0-.01.01-.03.02-.04.03,0,0-.01,0-.02.01-.01.01-.03.02-.04.03,0,0,0,0-.01.01-.02.02-.03.03-.05.04,0,0,0,0,0,0-.02.01-.03.03-.05.04,0,0,0,0,0,0-.01.01-.03.03-.04.04,0,0-.01.01-.02.02-.01.02-.03.03-.04.05,0,0,0,0-.01.01-.02.02-.04.04-.06.06,0,0,0,0,0,0-.04.04-.09.09-.13.13-.05.04-.1.08-.15.11-.05.04-.1.07-.16.1-.05.03-.11.05-.16.08-.05.02-.11.04-.17.06-.11.02-.22.07-.32.08-.02,0-.04,0-.07,0-.02,0-.04.01-.06.02-.02,0-.04.02-.06.02-.02,0-.04.02-.06.03-.02.01-.04.02-.06.04-.02.01-.04.03-.05.04-.02.01-.04.03-.05.05-.02.02-.03.03-.04.05-.01.02-.03.04-.04.06-.01.02-.03.04-.04.06-.01.02-.02.04-.03.07,0,.02-.02.04-.02.07,0,.02-.01.04-.01.06,0,0,0,0,0,0,0,.02,0,.05,0,.07,0,.02,0,.03,0,.05,0,.01,0,.02,0,.03,0,.02,0,.03.01.05,0,.02.01.03.02.05h0s.02.03.03.05c.01.02.02.03.03.05.01.01.03.03.04.04.02.02.03.03.05.04.06.05.08.07.16.12.01,0,.03.01.04.02,0,0,0,0,0,0,0,0,0,0,0,.01,0,.02,0,.04.01.06,0,.02.01.04.02.06,0,.02.01.03.02.05,0,0,0,.01,0,.01.01.02.02.04.03.06.01.02.03.04.04.05.01.02.03.03.04.05.02.02.03.03.05.04,0,0,0,0,0,0,.02.01.03.03.05.04.02.01.04.02.06.03.02.01.04.02.06.03.02,0,.03.01.05.02,0,0,0,0,.01,0,.01,0,.02,0,.03,0,0,.14-.01.27.01.32.02.05.14-.11.25-.29-.02.18-.03.39,0,.45.03.06.19-.14.32-.36,1.85-.43,3.53.85,3.71,2.65-.03-.28-.38-.44-.54-.4-.08.19-.21.44-.43.59.02-.17.01-.35-.03-.52-.06.24-.17.46-.32.66-.25.02-.5-.1-.62-.28-.01,0-.01-.02-.02-.03,0-.02-.02-.04-.02-.05,0-.02-.01-.04-.02-.05,0-.02,0-.04,0-.06v-.04s0-.04.01-.05c0-.02.01-.04.02-.05.01-.02.02-.04.03-.05.04-.12.04-.23-.04-.29-.02-.01-.03-.02-.05-.03-.01,0-.02,0-.03-.01,0,0-.01,0-.02,0-.02,0-.04-.01-.05-.01-.02,0-.04,0-.05,0-.02,0-.04,0-.06,0-.01,0-.03,0-.04,0-.02,0-.04,0-.06,0-.02,0-.04,0-.05.01-.02,0-.04.01-.05.02-.02,0-.03.02-.05.02-.02,0-.03.02-.05.03-.61.4-.24,1.32.17,1.59-.16.03-.32.06-.36.1,0,0,0,0,0,0,.11.07.23.13.35.18.17.05.34.1.42.12h0c.22.05.44.06.66.05,1.15-.08,2.1-.96,2.27-2.12,0,.02.01.04.02.07,0,.05.02.1.02.15h0s0,.05.01.07h0s0,.06,0,.08c0,.03,0,.06,0,.09v.04s0,.03,0,.04c0,.02,0,.03,0,.05v.04s0,.03,0,.05c0,.01,0,.02,0,.03,0,.02,0,.04,0,.06,0,0,0,.02,0,.02,0,.02,0,.04,0,.06,0,0,0,.02,0,.02,0,.03,0,.05-.01.08h0s-.01.05-.02.08h0s-.01.05-.02.08c0,0,0,0,0,.01,0,.02-.01.05-.02.07h0s-.02.06-.02.08c0,0,0,0,0,0,0,.03-.02.05-.02.08-.01.03-.02.05-.03.08-.01.03-.02.05-.03.08-.01.03-.02.05-.03.08h0s-.02.05-.03.07c0,0,0,.01,0,.02,0,0,0,0,0,0-.17.34-.42.64-.73.88-.02.01-.04.03-.06.04,0,0-.01,0-.02.01-.02.01-.04.03-.06.04v.02h.01s.07-.01.11-.02h0c.07-.01.14-.02.2-.04.02,0,.04,0,.06-.01.01,0,.02,0,.04,0,.02,0,.04,0,.05-.01.02,0,.03,0,.05-.01.26-.06.51-.15.76-.25-.34.47-.78.86-1.3,1.15-.1.06-.21.12-.32.17.11,0,.22-.02.32-.03.19-.03.38-.07.57-.12,1.05-.31,1.93-1.02,2.46-1.97-.11.6-.35,1.18-.7,1.68.25-.17.48-.36.7-.58.58-.61.97-1.38,1.1-2.22.09.41.11.84.08,1.26,1.88-2.62.16-5.35-.57-6.06Z"/>
        </g>
        <g>
          <path class="cls-3" d="M568.57,477.2l-.34,5.38-3.3-7.06,3.65,1.68h0ZM566.28,484.16l-2.49,1.41-2.49-1.41.51-1.22h3.97l.51,1.22h0ZM563.79,478.2l1.31,3.16h-2.61l1.31-3.16h0ZM559.35,482.58l-.34-5.38,3.65-1.68-3.3,7.06h0Z"/>
          <path class="cls-6" d="M568.57,477.2l-.34,5.38-3.3-7.06,3.65,1.68h0ZM566.28,484.16l-2.49,1.41-2.49-1.41.51-1.22h3.97l.51,1.22h0ZM563.79,478.2l1.31,3.16h-2.61l1.31-3.16h0ZM559.35,482.58l-.34-5.38,3.65-1.68-3.3,7.06h0Z"/>
        </g>
      </g>
    </g>
  </g>
  <path class="cls-11" d="M234.01,82.05"/>
  <g>
    <polyline class="cls-21" points="234.01 82.05 98.36 82.05 98.36 123.73"/>
    <polygon class="cls-11" points="94.27 120.41 95 119.73 98.36 123.34 101.72 119.73 102.45 120.41 98.36 124.81 94.27 120.41"/>
  </g>
  <g>
    <line class="cls-21" x1="192.66" y1="158.28" x2="234.01" y2="158.28"/>
    <polygon class="cls-11" points="195.97 162.37 196.65 161.64 193.04 158.28 196.65 154.93 195.97 154.19 191.57 158.28 195.97 162.37"/>
  </g>
  <g>
    <line class="cls-21" x1="98.36" y1="190.8" x2="98.36" y2="277.16"/>
    <polygon class="cls-11" points="94.27 273.84 95 273.16 98.36 276.77 101.72 273.16 102.45 273.84 98.36 278.24 94.27 273.84"/>
  </g>
  <g>
    <line class="cls-21" x1="98.36" y1="343.26" x2="98.36" y2="505.86"/>
    <polygon class="cls-11" points="94.27 502.55 95 501.86 98.36 505.48 101.72 501.86 102.45 502.55 98.36 506.94 94.27 502.55"/>
  </g>
  <g>
    <line class="cls-21" x1="98.56" y1="234.52" x2="465.07" y2="234.52"/>
    <polygon class="cls-11" points="461.76 238.61 461.07 237.88 464.69 234.52 461.07 231.16 461.76 230.43 466.15 234.52 461.76 238.61"/>
  </g>
  <g>
    <line class="cls-21" x1="98.56" y1="386.99" x2="465.07" y2="386.99"/>
    <polygon class="cls-11" points="461.76 391.08 461.07 390.35 464.69 386.99 461.07 383.63 461.76 382.9 466.15 386.99 461.76 391.08"/>
  </g>
  <g>
    <line class="cls-21" x1="98.56" y1="468.05" x2="465.07" y2="468.05"/>
    <polygon class="cls-11" points="461.76 472.14 461.07 471.41 464.69 468.05 461.07 464.69 461.76 463.96 466.15 468.05 461.76 472.14"/>
  </g>
  <g>
    <polyline class="cls-21" points="465.07 615.69 98.56 615.69 98.56 571.97"/>
    <polygon class="cls-11" points="461.76 611.6 461.07 612.33 464.69 615.69 461.07 619.05 461.76 619.78 466.15 615.69 461.76 611.6"/>
  </g>
  <g>
    <rect class="cls-11" x="531.95" y="625.34" width="15.34" height="15.34"/>
    <g>
      <rect class="cls-10" x="542.1" y="629.36" width="1.25" height="5.48"/>
      <polygon class="cls-15" points="545.42 639.55 537.45 629.36 537.13 629.36 535.88 629.36 535.88 629.98 535.88 636.69 537.13 636.69 537.13 630.97 544.43 640.32 545.42 639.55"/>
    </g>
  </g>
  <text class="cls-17" transform="translate(54.59 23.2)"><tspan x="0" y="0">REQUERIDO</tspan></text>
  <text class="cls-17" transform="translate(522.81 13.6)"><tspan x="0" y="0">OPCIONAL</tspan><tspan x="-24.48" y="19.2">PERO MUY ÚTIL</tspan></text>
  <rect class="cls-22" x=".5" y="124.81" width="191.07" height="65.02"/>
  <text class="cls-18" transform="translate(16.06 144.25)"><tspan x="0" y="0">Node.JS: De cero a experto</tspan></text>
  <rect class="cls-22" x="2.82" y="278.24" width="191.07" height="65.02"/>
  <text class="cls-18" transform="translate(18.39 297.68)"><tspan x="0" y="0">Nest: Desarrollo backend</tspan><tspan x="0" y="12">escalable con Node</tspan></text>
  <g>
    <rect class="cls-8" x="19.82" y="320.44" width="44.8" height="15.27"/>
    <text class="cls-16" transform="translate(24.82 330.24)"><tspan x="0" y="0">BACKEND</tspan></text>
  </g>
  <rect class="cls-22" x="2.82" y="506.94" width="191.07" height="65.02"/>
  <text class="cls-18" transform="translate(18.39 526.38)"><tspan x="0" y="0">Nest + GraphQL: Evoluciona tus APIs</tspan></text>
  <g>
    <rect class="cls-8" x="19.82" y="549.14" width="44.8" height="15.27"/>
    <text class="cls-16" transform="translate(24.82 558.94)"><tspan x="0" y="0">BACKEND</tspan></text>
  </g>
  <rect class="cls-22" x="466.15" y="583.18" width="191.07" height="65.02"/>
  <text class="cls-18" transform="translate(481.72 602.61)"><tspan x="0" y="0">Next.js: El framework de React</tspan><tspan x="0" y="12">para producción</tspan></text>
  <g>
    <rect class="cls-8" x="483.15" y="625.38" width="44.8" height="15.27"/>
    <text class="cls-16" transform="translate(488.15 635.18)"><tspan x="0" y="0">BACKEND</tspan></text>
  </g>
  <g>
    <line class="cls-21" x1="329.54" y1="114.56" x2="329.54" y2="124.69"/>
    <polygon class="cls-11" points="325.45 121.38 326.19 120.69 329.54 124.31 332.9 120.69 333.63 121.38 329.54 125.77 325.45 121.38"/>
  </g>
  <g>
    <rect class="cls-22" x="234.01" y="49.54" width="191.07" height="65.02"/>
    <text class="cls-18" transform="translate(249.57 68.98)"><tspan x="0" y="0">JavaScript Moderno: Guía para</tspan><tspan x="0" y="12">dominar el lenguaje</tspan></text>
    <g>
      <rect class="cls-11" x="251" y="91.74" width="34.85" height="15.27"/>
      <text class="cls-20" transform="translate(256 101.54)"><tspan x="0" y="0">BASES</tspan></text>
    </g>
    <rect class="cls-11" x="289.86" y="91.71" width="15.34" height="15.34"/>
    <g>
      <rect class="cls-13" x="292.54" y="94.39" width="9.97" height="9.97"/>
      <path class="cls-4" d="M299.24,102.18c.2.33.46.57.92.57.39,0,.64-.19.64-.46,0-.32-.25-.43-.68-.62l-.23-.1c-.68-.29-1.13-.65-1.13-1.41,0-.7.54-1.24,1.37-1.24.6,0,1.02.21,1.33.75l-.73.47c-.16-.29-.33-.4-.6-.4s-.45.17-.45.4c0,.28.17.39.58.57l.23.1c.8.34,1.25.69,1.25,1.47,0,.84-.66,1.31-1.55,1.31s-1.43-.41-1.71-.96l.76-.44ZM295.93,102.26c.15.26.28.48.6.48s.5-.12.5-.59v-3.19h.94v3.2c0,.97-.57,1.41-1.4,1.41-.75,0-1.18-.39-1.41-.86l.76-.46Z"/>
    </g>
  </g>
  <g>
    <g>
      <rect class="cls-22" x="234.01" y="125.77" width="191.07" height="65.02"/>
      <g>
        <text class="cls-18" transform="translate(249.57 145.21)"><tspan x="0" y="0">TypeScript: Tu completa guía y</tspan><tspan x="0" y="12">manual de mano</tspan></text>
        <g>
          <rect class="cls-11" x="251" y="167.97" width="34.85" height="15.27"/>
          <text class="cls-20" transform="translate(256 177.77)"><tspan x="0" y="0">BASES</tspan></text>
        </g>
      </g>
    </g>
    <rect class="cls-11" x="289.86" y="167.94" width="15.34" height="15.34"/>
    <g>
      <rect class="cls-7" x="292.54" y="170.62" width="9.97" height="9.97" rx=".78" ry=".78"/>
      <path class="cls-2" d="M298.4,178.43v1.08c.17.09.38.16.62.2s.49.07.76.07.5-.02.73-.07.44-.13.61-.24c.17-.11.31-.26.42-.44.1-.18.15-.41.15-.68,0-.19-.03-.37-.09-.51s-.14-.28-.25-.39c-.11-.11-.24-.22-.4-.31-.15-.09-.33-.18-.52-.26-.14-.06-.27-.11-.38-.17-.11-.05-.21-.11-.29-.17-.08-.06-.14-.12-.18-.18s-.06-.14-.06-.22c0-.07.02-.14.06-.2s.09-.11.16-.15c.07-.04.15-.08.26-.1.1-.02.21-.04.34-.04.09,0,.18,0,.28.02.1.01.2.03.3.06.1.03.2.06.29.11.1.04.18.09.26.15v-1c-.16-.06-.34-.11-.54-.14s-.42-.05-.67-.05-.5.03-.73.08c-.23.05-.43.14-.6.26-.17.12-.31.26-.41.45-.1.18-.15.4-.15.65,0,.32.09.59.28.82.19.23.47.42.84.57.15.06.29.12.41.18.13.06.24.12.33.18s.17.13.22.21.08.16.08.25c0,.07-.02.13-.05.19-.03.06-.08.11-.15.15s-.15.08-.26.1-.22.04-.36.04c-.23,0-.46-.04-.69-.12-.23-.08-.44-.2-.64-.37h0ZM296.61,175.75h1.38v-.89h-3.86v.89h1.38v3.94h1.1v-3.94Z"/>
    </g>
  </g>
  <g>
    <g>
      <rect class="cls-8" x="17.5" y="167.01" width="44.8" height="15.27"/>
      <text class="cls-16" transform="translate(22.5 176.81)"><tspan x="0" y="0">BACKEND</tspan></text>
    </g>
    <g>
      <rect class="cls-11" x="66.29" y="167.01" width="15.34" height="15.34"/>
      <g>
        <path class="cls-14" d="M78.03,171.88l-3.68-2.13c-.23-.13-.54-.13-.77,0l-3.69,2.13c-.24.14-.39.39-.39.67v4.25c0,.28.15.53.39.67l.97.56c.47.23.64.23.85.23.69,0,1.09-.42,1.09-1.15v-4.2c0-.06-.05-.11-.11-.11h-.47c-.06,0-.11.05-.11.11v4.2c0,.32-.33.65-.88.37l-1.01-.58s-.06-.06-.06-.1v-4.25s.02-.08.06-.1l3.68-2.12s.08-.02.11,0l3.68,2.12s.06.06.06.1v4.25s-.02.08-.06.1l-3.68,2.13s-.08.02-.11,0l-.94-.56s-.06-.02-.09,0c-.26.15-.31.17-.56.25-.06.02-.15.06.03.16l1.23.73c.12.07.25.1.39.1h0c.14,0,.27-.04.39-.11l3.68-2.13c.24-.14.39-.4.39-.67v-4.25c0-.28-.15-.53-.39-.67Z"/>
        <path class="cls-14" d="M75.06,176.13c-.97,0-1.19-.24-1.26-.73,0-.05-.05-.09-.11-.09h-.48c-.06,0-.11.05-.11.11,0,.62.34,1.36,1.95,1.36h0c1.17,0,1.84-.46,1.84-1.26s-.54-1.01-1.67-1.16c-1.14-.15-1.26-.23-1.26-.5,0-.22.1-.52.95-.52.76,0,1.04.16,1.15.67.01.05.05.08.1.08h.48s.06-.01.08-.03c.02-.02.03-.05.03-.08-.07-.88-.66-1.29-1.84-1.29-1.05,0-1.68.44-1.68,1.19,0,.81.62,1.03,1.63,1.13,1.21.12,1.3.29,1.3.53,0,.41-.33.59-1.11.59Z"/>
      </g>
    </g>
  </g>
  <g>
    <rect class="cls-11" x="68.61" y="320.41" width="15.34" height="15.34"/>
    <g>
      <path class="cls-12" d="M77.22,323.43s0,.03.01.05c0,.02,0,.03,0,.05.01.23-.06.26-.11.39-.08.18-.05.36.04.51,0,.02.02.04.03.06-.1-.66.45-.76.55-.96,0-.18-.14-.3-.26-.38-.11-.07-.21-.09-.31-.09-.07,0-.14.02-.2.04.13.09.21.21.24.34Z"/>
      <path class="cls-12" d="M79.91,325.06s0,0,0-.01t0,0s0,0,0,0c0,.03,0,.06,0,.09,0,.06-.02.12-.03.17-.01.06-.03.12-.04.17-.02.05-.04.11-.06.17-.02.05-.05.11-.08.16-.03.05-.06.1-.09.15-.03.05-.07.1-.11.14-.04.05-.08.09-.12.13-.03.02-.05.04-.08.06-.02.02-.04.03-.06.05-.05.04-.09.07-.15.1-.05.03-.1.06-.15.09-.05.03-.11.05-.16.07-.05.02-.11.04-.17.05-.06.02-.12.03-.17.04-.06.01-.12.02-.18.02-.04,0-.08,0-.12,0-.06,0-.12,0-.18-.01-.06,0-.12-.01-.18-.03-.06-.01-.12-.03-.17-.04.06,0,.11-.01.17-.02.06-.01.12-.02.17-.04.06-.02.11-.03.17-.05.06-.02.11-.05.16-.07.05-.03.1-.05.16-.09.05-.03.1-.07.15-.1.05-.04.09-.08.13-.12.04-.04.08-.08.12-.13.04-.05.08-.09.11-.14,0,0,.01-.02.02-.03.03-.04.05-.08.08-.12.03-.05.05-.1.08-.16.02-.05.04-.11.06-.17.02-.05.03-.11.04-.17.01-.06.02-.12.03-.17,0-.06.01-.12.01-.18,0-.04,0-.08,0-.13,0-.06-.01-.12-.02-.17-.01-.06-.02-.12-.04-.17-.02-.05-.04-.11-.06-.17-.02-.05-.05-.11-.07-.16-.03-.05-.06-.1-.09-.15-.03-.05-.07-.1-.1-.14-.04-.04-.08-.09-.12-.13-.02-.02-.04-.04-.07-.06-.12-.09-.24-.18-.36-.26-.02-.01-.03-.02-.05-.03-.09-.05-.17-.08-.25-.11-.01.06,0,.04,0,.08,0,.02,0,.05,0,.07,0,.02-.01.04-.02.06,0,.02-.01.04-.02.06-.01.02-.02.04-.03.06,0,.01-.01.02-.02.03,0,0-.01.02-.02.02-.01.02-.03.04-.04.05-.02.02-.03.03-.05.05h0s-.03.03-.05.04c-.05.04-.12.07-.18.11-.02.01-.04.02-.05.04-.02.01-.03.03-.05.04-.02.02-.03.03-.05.05-.01.02-.03.03-.04.05-.01.02-.03.04-.04.05-.01.02-.02.04-.03.06,0,.02-.02.04-.02.06,0,.02-.01.04-.02.06,0,.01,0,.02,0,.03,0,.01,0,.02,0,.03,0,.02,0,.04,0,.07,0,.02,0,.03,0,.05,0,.02,0,.04,0,.07,0,.02,0,.04.01.06,0,.02.01.04.02.06,0,.01.01.03.02.04l-.6-.23c-.1-.03-.2-.05-.3-.08-.05-.01-.11-.03-.16-.04-.16-.03-.32-.05-.47-.07,0,0,0,0-.01,0-.16-.02-.31-.02-.47-.02-.11,0-.23,0-.34.01-.16.01-.32.03-.48.06-.04,0-.08.01-.12.02-.08.02-.16.03-.23.05-.04.01-.08.02-.12.03-.04.02-.08.03-.11.05-.03.01-.06.03-.09.04,0,0-.01,0-.01,0-.03.01-.05.02-.07.04,0,0-.01,0-.02,0-.03.01-.06.03-.08.04-.02,0-.04.02-.05.03,0,0-.02.01-.02.01-.02.01-.05.03-.07.04-.02.01-.04.03-.06.04-.02.01-.04.02-.05.04,0,0,0,0,0,0-.02.01-.03.02-.05.04,0,0,0,0,0,0-.01.01-.03.02-.04.03,0,0-.01,0-.02.01-.01.01-.03.02-.04.03,0,0,0,0-.01.01-.02.02-.03.03-.05.04,0,0,0,0,0,0-.02.01-.03.03-.05.04,0,0,0,0,0,0-.01.01-.03.03-.04.04,0,0-.01.01-.02.02-.01.02-.03.03-.04.05,0,0,0,0-.01.01-.02.02-.04.04-.06.06,0,0,0,0,0,0-.04.04-.09.09-.13.13-.05.04-.1.08-.15.11-.05.04-.1.07-.16.1-.05.03-.11.05-.16.08-.05.02-.11.04-.17.06-.11.02-.22.07-.32.08-.02,0-.04,0-.07,0-.02,0-.04.01-.06.02-.02,0-.04.02-.06.02-.02,0-.04.02-.06.03-.02.01-.04.02-.06.04-.02.01-.04.03-.05.04-.02.01-.04.03-.05.05-.02.02-.03.03-.04.05-.01.02-.03.04-.04.06-.01.02-.03.04-.04.06-.01.02-.02.04-.03.07,0,.02-.02.04-.02.07,0,.02-.01.04-.01.06,0,0,0,0,0,0,0,.02,0,.05,0,.07,0,.02,0,.03,0,.05,0,.01,0,.02,0,.03,0,.02,0,.03.01.05,0,.02.01.03.02.05h0s.02.03.03.05c.01.02.02.03.03.05.01.01.03.03.04.04.02.02.03.03.05.04.06.05.08.07.16.12.01,0,.03.01.04.02,0,0,0,0,0,0,0,0,0,0,0,.01,0,.02,0,.04.01.06,0,.02.01.04.02.06,0,.02.01.03.02.05,0,0,0,.01,0,.01.01.02.02.04.03.06.01.02.03.04.04.05.01.02.03.03.04.05.02.02.03.03.05.04,0,0,0,0,0,0,.02.01.03.03.05.04.02.01.04.02.06.03.02.01.04.02.06.03.02,0,.03.01.05.02,0,0,0,0,.01,0,.01,0,.02,0,.03,0,0,.14-.01.27.01.32.02.05.14-.11.25-.29-.02.18-.03.39,0,.45.03.06.19-.14.32-.36,1.85-.43,3.53.85,3.71,2.65-.03-.28-.38-.44-.54-.4-.08.19-.21.44-.43.59.02-.17.01-.35-.03-.52-.06.24-.17.46-.32.66-.25.02-.5-.1-.62-.28-.01,0-.01-.02-.02-.03,0-.02-.02-.04-.02-.05,0-.02-.01-.04-.02-.05,0-.02,0-.04,0-.06v-.04s0-.04.01-.05c0-.02.01-.04.02-.05.01-.02.02-.04.03-.05.04-.12.04-.23-.04-.29-.02-.01-.03-.02-.05-.03-.01,0-.02,0-.03-.01,0,0-.01,0-.02,0-.02,0-.04-.01-.05-.01-.02,0-.04,0-.05,0-.02,0-.04,0-.06,0-.01,0-.03,0-.04,0-.02,0-.04,0-.06,0-.02,0-.04,0-.05.01-.02,0-.04.01-.05.02-.02,0-.03.02-.05.02-.02,0-.03.02-.05.03-.61.4-.24,1.32.17,1.59-.16.03-.32.06-.36.1,0,0,0,0,0,0,.11.07.23.13.35.18.17.05.34.1.42.12h0c.22.05.44.06.66.05,1.15-.08,2.1-.96,2.27-2.12,0,.02.01.04.02.07,0,.05.02.1.02.15h0s0,.05.01.07h0s0,.06,0,.08c0,.03,0,.06,0,.09v.04s0,.03,0,.04c0,.02,0,.03,0,.05v.04s0,.03,0,.05c0,.01,0,.02,0,.03,0,.02,0,.04,0,.06,0,0,0,.02,0,.02,0,.02,0,.04,0,.06,0,0,0,.02,0,.02,0,.03,0,.05-.01.08h0s-.01.05-.02.08h0s-.01.05-.02.08c0,0,0,0,0,.01,0,.02-.01.05-.02.07h0s-.02.06-.02.08c0,0,0,0,0,0,0,.03-.02.05-.02.08-.01.03-.02.05-.03.08-.01.03-.02.05-.03.08-.01.03-.02.05-.03.08h0s-.02.05-.03.07c0,0,0,.01,0,.02,0,0,0,0,0,0-.17.34-.42.64-.73.88-.02.01-.04.03-.06.04,0,0-.01,0-.02.01-.02.01-.04.03-.06.04v.02h.01s.07-.01.11-.02h0c.07-.01.14-.02.2-.04.02,0,.04,0,.06-.01.01,0,.02,0,.04,0,.02,0,.04,0,.05-.01.02,0,.03,0,.05-.01.26-.06.51-.15.76-.25-.34.47-.78.86-1.3,1.15-.1.06-.21.12-.32.17.11,0,.22-.02.32-.03.19-.03.38-.07.57-.12,1.05-.31,1.93-1.02,2.46-1.97-.11.6-.35,1.18-.7,1.68.25-.17.48-.36.7-.58.58-.61.97-1.38,1.1-2.22.09.41.11.84.08,1.26,1.88-2.62.16-5.35-.57-6.06Z"/>
    </g>
  </g>
  <g>
    <rect class="cls-11" x="87.95" y="320.41" width="15.34" height="15.34"/>
    <g>
      <path class="cls-14" d="M99.69,325.28l-3.68-2.13c-.23-.13-.54-.13-.77,0l-3.69,2.13c-.24.14-.39.39-.39.67v4.25c0,.28.15.53.39.67l.97.56c.47.23.64.23.85.23.69,0,1.09-.42,1.09-1.15v-4.2c0-.06-.05-.11-.11-.11h-.47c-.06,0-.11.05-.11.11v4.2c0,.32-.33.65-.88.37l-1.01-.58s-.06-.06-.06-.1v-4.25s.02-.08.06-.1l3.68-2.12s.08-.02.11,0l3.68,2.12s.06.06.06.1v4.25s-.02.08-.06.1l-3.68,2.13s-.08.02-.11,0l-.94-.56s-.06-.02-.09,0c-.26.15-.31.17-.56.25-.06.02-.15.06.03.16l1.23.73c.12.07.25.1.39.1h0c.14,0,.27-.04.39-.11l3.68-2.13c.24-.14.39-.4.39-.67v-4.25c0-.28-.15-.53-.39-.67Z"/>
      <path class="cls-14" d="M96.72,329.53c-.97,0-1.19-.24-1.26-.73,0-.05-.05-.09-.11-.09h-.48c-.06,0-.11.05-.11.11,0,.62.34,1.36,1.95,1.36h0c1.17,0,1.84-.46,1.84-1.26s-.54-1.01-1.67-1.16c-1.14-.15-1.26-.23-1.26-.5,0-.22.1-.52.95-.52.76,0,1.04.16,1.15.67.01.05.05.08.1.08h.48s.06-.01.08-.03c.02-.02.03-.05.03-.08-.07-.88-.66-1.29-1.84-1.29-1.05,0-1.68.44-1.68,1.19,0,.81.62,1.03,1.63,1.13,1.21.12,1.3.29,1.3.53,0,.41-.33.59-1.11.59Z"/>
    </g>
  </g>
  <g>
    <rect class="cls-11" x="68.61" y="549.11" width="15.34" height="15.34"/>
    <g>
      <path class="cls-12" d="M77.22,552.13s0,.03.01.05c0,.02,0,.03,0,.05.01.23-.06.26-.11.39-.08.18-.05.36.04.51,0,.02.02.04.03.06-.1-.66.45-.76.55-.96,0-.18-.14-.3-.26-.38-.11-.07-.21-.09-.31-.09-.07,0-.14.02-.2.04.13.09.21.21.24.34Z"/>
      <path class="cls-12" d="M79.91,553.76s0,0,0-.01t0,0s0,0,0,0c0,.03,0,.06,0,.09,0,.06-.02.12-.03.17-.01.06-.03.12-.04.17-.02.05-.04.11-.06.17-.02.05-.05.11-.08.16-.03.05-.06.1-.09.15-.03.05-.07.1-.11.14-.04.05-.08.09-.12.13-.03.02-.05.04-.08.06-.02.02-.04.03-.06.05-.05.04-.09.07-.15.1-.05.03-.1.06-.15.09-.05.03-.11.05-.16.07-.05.02-.11.04-.17.05-.06.02-.12.03-.17.04-.06.01-.12.02-.18.02-.04,0-.08,0-.12,0-.06,0-.12,0-.18-.01-.06,0-.12-.01-.18-.03-.06-.01-.12-.03-.17-.04.06,0,.11-.01.17-.02.06-.01.12-.02.17-.04.06-.02.11-.03.17-.05.06-.02.11-.05.16-.07.05-.03.1-.05.16-.09.05-.03.1-.07.15-.1.05-.04.09-.08.13-.12.04-.04.08-.08.12-.13.04-.05.08-.09.11-.14,0,0,.01-.02.02-.03.03-.04.05-.08.08-.12.03-.05.05-.1.08-.16.02-.05.04-.11.06-.17.02-.05.03-.11.04-.17.01-.06.02-.12.03-.17,0-.06.01-.12.01-.18,0-.04,0-.08,0-.13,0-.06-.01-.12-.02-.17-.01-.06-.02-.12-.04-.17-.02-.05-.04-.11-.06-.17-.02-.05-.05-.11-.07-.16-.03-.05-.06-.1-.09-.15-.03-.05-.07-.1-.1-.14-.04-.04-.08-.09-.12-.13-.02-.02-.04-.04-.07-.06-.12-.09-.24-.18-.36-.26-.02-.01-.03-.02-.05-.03-.09-.05-.17-.08-.25-.11-.01.06,0,.04,0,.08,0,.02,0,.05,0,.07,0,.02-.01.04-.02.06,0,.02-.01.04-.02.06-.01.02-.02.04-.03.06,0,.01-.01.02-.02.03,0,0-.01.02-.02.02-.01.02-.03.04-.04.05-.02.02-.03.03-.05.05h0s-.03.03-.05.04c-.05.04-.12.07-.18.11-.02.01-.04.02-.05.04-.02.01-.03.03-.05.04-.02.02-.03.03-.05.05-.01.02-.03.03-.04.05-.01.02-.03.04-.04.05-.01.02-.02.04-.03.06,0,.02-.02.04-.02.06,0,.02-.01.04-.02.06,0,.01,0,.02,0,.03,0,.01,0,.02,0,.03,0,.02,0,.04,0,.07,0,.02,0,.03,0,.05,0,.02,0,.04,0,.07,0,.02,0,.04.01.06,0,.02.01.04.02.06,0,.01.01.03.02.04l-.6-.23c-.1-.03-.2-.05-.3-.08-.05-.01-.11-.03-.16-.04-.16-.03-.32-.05-.47-.07,0,0,0,0-.01,0-.16-.02-.31-.02-.47-.02-.11,0-.23,0-.34.01-.16.01-.32.03-.48.06-.04,0-.08.01-.12.02-.08.02-.16.03-.23.05-.04.01-.08.02-.12.03-.04.02-.08.03-.11.05-.03.01-.06.03-.09.04,0,0-.01,0-.01,0-.03.01-.05.02-.07.04,0,0-.01,0-.02,0-.03.01-.06.03-.08.04-.02,0-.04.02-.05.03,0,0-.02.01-.02.01-.02.01-.05.03-.07.04-.02.01-.04.03-.06.04-.02.01-.04.02-.05.04,0,0,0,0,0,0-.02.01-.03.02-.05.04,0,0,0,0,0,0-.01.01-.03.02-.04.03,0,0-.01,0-.02.01-.01.01-.03.02-.04.03,0,0,0,0-.01.01-.02.02-.03.03-.05.04,0,0,0,0,0,0-.02.01-.03.03-.05.04,0,0,0,0,0,0-.01.01-.03.03-.04.04,0,0-.01.01-.02.02-.01.02-.03.03-.04.05,0,0,0,0-.01.01-.02.02-.04.04-.06.06,0,0,0,0,0,0-.04.04-.09.09-.13.13-.05.04-.1.08-.15.11-.05.04-.1.07-.16.1-.05.03-.11.05-.16.08-.05.02-.11.04-.17.06-.11.02-.22.07-.32.08-.02,0-.04,0-.07,0-.02,0-.04.01-.06.02-.02,0-.04.02-.06.02-.02,0-.04.02-.06.03-.02.01-.04.02-.06.04-.02.01-.04.03-.05.04-.02.01-.04.03-.05.05-.02.02-.03.03-.04.05-.01.02-.03.04-.04.06-.01.02-.03.04-.04.06-.01.02-.02.04-.03.07,0,.02-.02.04-.02.07,0,.02-.01.04-.01.06,0,0,0,0,0,0,0,.02,0,.05,0,.07,0,.02,0,.03,0,.05,0,.01,0,.02,0,.03,0,.02,0,.03.01.05,0,.02.01.03.02.05h0s.02.03.03.05c.01.02.02.03.03.05.01.01.03.03.04.04.02.02.03.03.05.04.06.05.08.07.16.12.01,0,.03.01.04.02,0,0,0,0,0,0,0,0,0,0,0,.01,0,.02,0,.04.01.06,0,.02.01.04.02.06,0,.02.01.03.02.05,0,0,0,.01,0,.01.01.02.02.04.03.06.01.02.03.04.04.05.01.02.03.03.04.05.02.02.03.03.05.04,0,0,0,0,0,0,.02.01.03.03.05.04.02.01.04.02.06.03.02.01.04.02.06.03.02,0,.03.01.05.02,0,0,0,0,.01,0,.01,0,.02,0,.03,0,0,.14-.01.27.01.32.02.05.14-.11.25-.29-.02.18-.03.39,0,.45.03.06.19-.14.32-.36,1.85-.43,3.53.85,3.71,2.65-.03-.28-.38-.44-.54-.4-.08.19-.21.44-.43.59.02-.17.01-.35-.03-.52-.06.24-.17.46-.32.66-.25.02-.5-.1-.62-.28-.01,0-.01-.02-.02-.03,0-.02-.02-.04-.02-.05,0-.02-.01-.04-.02-.05,0-.02,0-.04,0-.06v-.04s0-.04.01-.05c0-.02.01-.04.02-.05.01-.02.02-.04.03-.05.04-.12.04-.23-.04-.29-.02-.01-.03-.02-.05-.03-.01,0-.02,0-.03-.01,0,0-.01,0-.02,0-.02,0-.04-.01-.05-.01-.02,0-.04,0-.05,0-.02,0-.04,0-.06,0-.01,0-.03,0-.04,0-.02,0-.04,0-.06,0-.02,0-.04,0-.05.01-.02,0-.04.01-.05.02-.02,0-.03.02-.05.02-.02,0-.03.02-.05.03-.61.4-.24,1.32.17,1.59-.16.03-.32.06-.36.1,0,0,0,0,0,0,.11.07.23.13.35.18.17.05.34.1.42.12h0c.22.05.44.06.66.05,1.15-.08,2.1-.96,2.27-2.12,0,.02.01.04.02.07,0,.05.02.1.02.15h0s0,.05.01.07h0s0,.06,0,.08c0,.03,0,.06,0,.09v.04s0,.03,0,.04c0,.02,0,.03,0,.05v.04s0,.03,0,.05c0,.01,0,.02,0,.03,0,.02,0,.04,0,.06,0,0,0,.02,0,.02,0,.02,0,.04,0,.06,0,0,0,.02,0,.02,0,.03,0,.05-.01.08h0s-.01.05-.02.08h0s-.01.05-.02.08c0,0,0,0,0,.01,0,.02-.01.05-.02.07h0s-.02.06-.02.08c0,0,0,0,0,0,0,.03-.02.05-.02.08-.01.03-.02.05-.03.08-.01.03-.02.05-.03.08-.01.03-.02.05-.03.08h0s-.02.05-.03.07c0,0,0,.01,0,.02,0,0,0,0,0,0-.17.34-.42.64-.73.88-.02.01-.04.03-.06.04,0,0-.01,0-.02.01-.02.01-.04.03-.06.04v.02h.01s.07-.01.11-.02h0c.07-.01.14-.02.2-.04.02,0,.04,0,.06-.01.01,0,.02,0,.04,0,.02,0,.04,0,.05-.01.02,0,.03,0,.05-.01.26-.06.51-.15.76-.25-.34.47-.78.86-1.3,1.15-.1.06-.21.12-.32.17.11,0,.22-.02.32-.03.19-.03.38-.07.57-.12,1.05-.31,1.93-1.02,2.46-1.97-.11.6-.35,1.18-.7,1.68.25-.17.48-.36.7-.58.58-.61.97-1.38,1.1-2.22.09.41.11.84.08,1.26,1.88-2.62.16-5.35-.57-6.06Z"/>
    </g>
  </g>
  <g>
    <rect class="cls-11" x="87.95" y="549.11" width="15.34" height="15.34"/>
    <path class="cls-1" d="M99.62,558.06c-.08-.04-.15-.07-.23-.09v-2.37c.08-.02.16-.05.24-.09.43-.25.57-.79.33-1.22-.25-.43-.79-.57-1.22-.33-.08.04-.14.1-.2.16l-2.05-1.19c.02-.08.04-.17.04-.25,0-.49-.4-.89-.89-.89s-.89.4-.89.89c0,.09.01.17.04.25l-2.05,1.19c-.06-.06-.12-.11-.2-.16-.43-.24-.97-.1-1.22.33-.24.43-.1.97.33,1.22.08.04.16.07.24.09v2.37c-.08.02-.16.05-.23.09-.43.25-.57.79-.33,1.22s.79.57,1.22.33c.08-.04.14-.1.2-.16l2.05,1.19c-.02.08-.04.16-.04.25,0,.49.4.89.89.89s.89-.4.89-.89c0-.1-.02-.19-.05-.28l2.04-1.18c.06.07.14.13.22.18.43.24.97.1,1.22-.33.25-.43.1-.97-.33-1.22ZM92.94,558.62c-.02-.08-.05-.16-.09-.23-.04-.08-.1-.14-.16-.2l2.69-4.66c.08.02.16.04.25.04s.17-.01.25-.04l2.69,4.65c-.06.06-.11.12-.16.2-.04.08-.07.15-.09.23h-5.37ZM98.32,554.49c-.06.22-.04.47.08.69.13.22.33.36.56.42v2.38s-.02,0-.03,0l-2.69-4.66s.02-.02.02-.02l2.06,1.19ZM94.98,553.3s.02.02.03.03l-2.69,4.66s-.02,0-.03,0v-2.38c.23-.06.43-.2.56-.42.13-.22.15-.47.08-.69l2.06-1.19ZM96.28,560.28c-.16-.18-.4-.29-.66-.29s-.48.1-.64.27l-2.05-1.19s0-.02,0-.03h5.37s.01.04.02.06l-2.04,1.18Z"/>
  </g>
  <g>
    <g>
      <rect class="cls-22" x="466.15" y="202.01" width="191.07" height="65.02"/>
      <text class="cls-18" transform="translate(481.72 221.44)"><tspan x="0" y="0">Node: Autenticación Rest con</tspan><tspan x="0" y="12">Clean Architecture</tspan></text>
    </g>
    <g>
      <g>
        <rect class="cls-8" x="483.15" y="244.17" width="44.8" height="15.27"/>
        <text class="cls-16" transform="translate(488.15 253.97)"><tspan x="0" y="0">BACKEND</tspan></text>
      </g>
      <g>
        <rect class="cls-11" x="531.95" y="244.17" width="15.34" height="15.34"/>
        <g>
          <path class="cls-14" d="M543.69,249.04l-3.68-2.13c-.23-.13-.54-.13-.77,0l-3.69,2.13c-.24.14-.39.39-.39.67v4.25c0,.28.15.53.39.67l.97.56c.47.23.64.23.85.23.69,0,1.09-.42,1.09-1.15v-4.2c0-.06-.05-.11-.11-.11h-.47c-.06,0-.11.05-.11.11v4.2c0,.32-.33.65-.88.37l-1.01-.58s-.06-.06-.06-.1v-4.25s.02-.08.06-.1l3.68-2.12s.08-.02.11,0l3.68,2.12s.06.06.06.1v4.25s-.02.08-.06.1l-3.68,2.13s-.08.02-.11,0l-.94-.56s-.06-.02-.09,0c-.26.15-.31.17-.56.25-.06.02-.15.06.03.16l1.23.73c.12.07.25.1.39.1h0c.14,0,.27-.04.39-.11l3.68-2.13c.24-.14.39-.4.39-.67v-4.25c0-.28-.15-.53-.39-.67Z"/>
          <path class="cls-14" d="M540.72,253.29c-.97,0-1.19-.24-1.26-.73,0-.05-.05-.09-.11-.09h-.48c-.06,0-.11.05-.11.11,0,.62.34,1.36,1.95,1.36h0c1.17,0,1.84-.46,1.84-1.26s-.54-1.01-1.67-1.16c-1.14-.15-1.26-.23-1.26-.5,0-.22.1-.52.95-.52.76,0,1.04.16,1.15.67.01.05.05.08.1.08h.48s.06-.01.08-.03c.02-.02.03-.05.03-.08-.07-.88-.66-1.29-1.84-1.29-1.05,0-1.68.44-1.68,1.19,0,.81.62,1.03,1.63,1.13,1.21.12,1.3.29,1.3.53,0,.41-.33.59-1.11.59Z"/>
        </g>
      </g>
    </g>
  </g>
  <g>
    <g>
      <g>
        <rect class="cls-22" x="466.15" y="354.48" width="191.07" height="65.02"/>
        <g>
          <text class="cls-18" transform="translate(481.72 373.91)"><tspan x="0" y="0">OpenAI: Ejercicios prácticos y</tspan><tspan x="0" y="12">asistentes con React + NestJS</tspan></text>
          <g>
            <rect class="cls-5" x="483.15" y="396.68" width="49.63" height="15.27"/>
            <text class="cls-19" transform="translate(488.15 406.48)"><tspan x="0" y="0">FRONTEND</tspan></text>
          </g>
        </g>
      </g>
      <g>
        <rect class="cls-11" x="536.78" y="396.64" width="15.34" height="15.34"/>
        <rect class="cls-11" x="556.12" y="396.64" width="15.34" height="15.34"/>
        <g>
          <path class="cls-9" d="M565.81,399.33h.41s0,0,.02,0c.34.06.59.25.75.55.16.28.22.58.24.9.03.45-.03.89-.12,1.33-.02.11-.05.21-.07.33.02,0,.05.01.06.02.45.13.88.29,1.28.52.28.16.54.36.74.61.34.44.35.95.03,1.4-.16.22-.36.39-.58.53-.39.26-.83.44-1.27.58-.09.03-.17.05-.26.08,0,.02,0,.03,0,.04.13.52.22,1.06.19,1.6-.01.26-.06.51-.16.75-.13.31-.34.54-.66.66-.06.02-.12.04-.19.05h-.41s0,0-.02,0c-.24-.04-.47-.12-.69-.24-.43-.22-.81-.52-1.17-.85-.05-.05-.09-.09-.15-.14-.01.01-.03.02-.04.03-.23.22-.47.43-.74.62-.3.21-.61.4-.96.51-.09.03-.19.05-.29.07h-.41s-.01,0-.02,0c-.33-.06-.57-.24-.74-.52-.17-.28-.23-.59-.25-.92-.03-.45.03-.89.12-1.33.02-.11.05-.21.07-.32,0,0,0,0,0,0-.02,0-.04-.01-.05-.02-.45-.13-.89-.3-1.3-.53-.28-.16-.53-.35-.73-.61-.33-.43-.34-.94-.03-1.39.15-.21.33-.38.55-.52.38-.26.81-.44,1.25-.59.1-.03.2-.06.31-.1,0-.01,0-.03,0-.04-.13-.53-.21-1.06-.18-1.6.01-.25.05-.5.15-.74.13-.31.34-.55.66-.67.06-.02.13-.04.19-.05h.41s.01,0,.02,0c.24.04.47.12.69.23.39.2.73.46,1.05.75.09.08.18.16.26.24.02-.01.03-.03.05-.05.24-.23.48-.43.75-.62.3-.21.62-.4.98-.5.09-.02.17-.04.26-.06ZM563.77,402.5c-.31.01-.64.03-.97.05-.03,0-.05.01-.06.04-.37.54-.69,1.1-.98,1.69-.01.03-.01.05,0,.08.28.59.61,1.15.98,1.69.01.02.04.04.06.04.19.01.39.02.59.03.46.01.91,0,1.37-.03.04,0,.06-.01.08-.05.36-.54.69-1.1.97-1.68.01-.03.02-.05,0-.09-.28-.58-.61-1.13-.96-1.67-.03-.05-.06-.06-.11-.06-.32-.01-.63-.03-.96-.04ZM560.99,402.31s.03,0,.05,0c.12-.02.24-.05.35-.07.35-.05.7-.1,1.04-.14.04,0,.06,0,.09-.04.28-.39.57-.76.89-1.11,0,0,.02-.02.03-.04,0,0-.01-.01-.02-.02-.27-.26-.55-.5-.86-.7-.24-.16-.5-.29-.78-.36-.16-.04-.32-.05-.48.01-.19.07-.29.22-.37.39-.1.24-.12.48-.13.73,0,.33.04.64.1.96.03.13.06.26.09.39ZM563.44,407.72s-.03-.03-.04-.05c-.31-.34-.6-.7-.87-1.08-.03-.05-.07-.06-.12-.07-.18-.02-.35-.04-.52-.06-.28-.05-.57-.1-.85-.15-.03,0-.04,0-.05.03-.12.5-.21,1-.17,1.52.01.21.05.41.15.6.13.25.33.38.61.36.21,0,.41-.08.6-.17.36-.17.67-.4.97-.66.09-.09.19-.18.28-.27ZM566.91,405.72s.05-.01.06-.02c.44-.13.86-.28,1.25-.53.21-.13.4-.28.54-.47.19-.26.18-.52,0-.78-.11-.16-.26-.29-.42-.4-.33-.23-.69-.38-1.06-.51-.12-.04-.24-.08-.37-.12,0,.01,0,.02-.01.03-.14.46-.32.91-.52,1.35,0,.02,0,.05,0,.07.11.26.22.52.33.79.08.19.14.39.21.59ZM564.12,400.9s.03.04.04.05c.32.34.61.71.88,1.09.02.04.05.05.09.05.47.04.94.11,1.4.22.04,0,.05,0,.05-.04.04-.21.09-.42.13-.64.05-.34.08-.68.02-1.03-.03-.19-.08-.37-.18-.53-.12-.18-.28-.27-.49-.28-.22,0-.42.05-.62.14-.35.16-.66.38-.96.63-.12.1-.24.21-.36.33ZM560.66,405.72s0-.03.01-.04c.14-.46.32-.9.52-1.34,0-.02,0-.05,0-.08-.19-.43-.37-.87-.51-1.32,0-.01-.01-.03-.02-.05-.13.04-.25.08-.37.12-.38.13-.74.28-1.07.51-.19.13-.36.28-.47.47-.11.2-.11.41,0,.61.08.14.19.26.31.36.22.18.47.32.72.43.28.13.57.23.88.32ZM564.13,407.72s0,.01.02.02c.23.22.47.43.73.61.26.18.52.33.83.42.15.05.31.07.47.03.24-.05.37-.21.46-.42.09-.23.12-.47.12-.71,0-.45-.07-.89-.18-1.32,0-.03-.02-.03-.05-.03-.47.1-.94.18-1.41.22-.04,0-.06.02-.08.05-.17.22-.33.44-.51.66-.13.16-.27.31-.41.47ZM566.09,404.89c-.22.38-.44.75-.66,1.14.34-.06.67-.11,1.02-.18-.13-.33-.24-.65-.36-.96ZM566.09,403.74c.12-.32.24-.64.36-.97-.35-.06-.68-.12-1.01-.18.22.39.43.76.66,1.14ZM562.13,406.02c-.23-.39-.44-.76-.66-1.14-.12.32-.24.64-.36.97.35.05.68.11,1.02.17ZM562.13,402.6c-.34.06-.67.12-1,.17.01.12.3.89.35.95.21-.37.43-.74.65-1.13ZM563.12,402.03h1.32c-.22-.27-.43-.52-.66-.79-.23.27-.44.52-.66.79ZM564.44,406.59h-1.32c.22.27.43.52.66.79.23-.27.44-.52.66-.79Z"/>
          <path class="cls-9" d="M564.78,404.31c0,.55-.44,1-.99,1s-1-.45-1-1,.45-.99,1-.99c.55,0,.99.44.99.99Z"/>
        </g>
        <path class="cls-4" d="M548.75,403.4c.23-.68.15-1.43-.21-2.05-.55-.95-1.65-1.44-2.72-1.21-.48-.54-1.17-.85-1.89-.84-1.1,0-2.07.71-2.41,1.75-.71.14-1.32.59-1.67,1.21-.55.95-.43,2.15.31,2.97-.23.68-.15,1.43.21,2.05.55.95,1.65,1.44,2.72,1.21.48.54,1.17.85,1.89.84,1.1,0,2.08-.71,2.41-1.75.71-.14,1.32-.59,1.67-1.21.55-.95.43-2.15-.31-2.97h0ZM544.97,408.68c-.44,0-.87-.15-1.2-.44.02,0,.04-.02.06-.03l2-1.15c.1-.06.17-.17.16-.28v-2.82l.84.49s.02.01.02.02v2.33c0,1.04-.84,1.88-1.88,1.88h0ZM540.93,406.95c-.22-.38-.3-.83-.22-1.26.01,0,.04.02.06.04l2,1.15c.1.06.23.06.33,0l2.44-1.41v.98s0,.02-.01.03l-2.02,1.17c-.9.52-2.05.21-2.57-.69h0ZM540.4,402.58c.22-.38.57-.67.98-.82,0,.02,0,.05,0,.07v2.31c0,.12.06.23.16.28l2.44,1.41-.84.49s-.02,0-.03,0l-2.02-1.17c-.9-.52-1.21-1.67-.69-2.57h0ZM547.35,404.2l-2.44-1.41.84-.49s.02,0,.03,0l2.02,1.17c.9.52,1.21,1.67.69,2.57-.22.38-.57.67-.98.82v-2.38c0-.12-.06-.23-.16-.28h0ZM548.19,402.93s-.04-.02-.06-.04l-2-1.15c-.1-.06-.23-.06-.33,0l-2.44,1.41v-.98s0-.02.01-.03l2.02-1.17c.9-.52,2.05-.21,2.57.69.22.38.3.83.22,1.26h0ZM542.9,404.67l-.85-.49s-.02-.01-.02-.02v-2.33c0-1.04.84-1.88,1.88-1.88.44,0,.87.15,1.2.44-.02,0-.04.02-.06.03l-2,1.15c-.1.06-.17.17-.16.28v2.82s0,0,0,0ZM543.36,403.68l1.09-.63,1.09.63v1.26l-1.09.63-1.09-.63v-1.26Z"/>
        <g>
          <rect class="cls-11" x="575.45" y="396.64" width="15.34" height="15.34"/>
          <g>
            <path class="cls-12" d="M584.06,399.66s0,.03.01.05c0,.02,0,.03,0,.05.01.23-.06.26-.11.39-.08.18-.05.36.04.51,0,.02.02.04.03.06-.1-.66.45-.76.55-.96,0-.18-.14-.3-.26-.38-.11-.07-.21-.09-.31-.09-.07,0-.14.02-.2.04.13.09.21.21.24.34Z"/>
            <path class="cls-12" d="M586.75,401.29s0,0,0-.01t0,0s0,0,0,0c0,.03,0,.06,0,.09,0,.06-.02.12-.03.17-.01.06-.03.12-.04.17-.02.05-.04.11-.06.17-.02.05-.05.11-.08.16-.03.05-.06.1-.09.15-.03.05-.07.1-.11.14-.04.05-.08.09-.12.13-.03.02-.05.04-.08.06-.02.02-.04.03-.06.05-.05.04-.09.07-.15.1-.05.03-.1.06-.15.09-.05.03-.11.05-.16.07-.05.02-.11.04-.17.05-.06.02-.12.03-.17.04-.06.01-.12.02-.18.02-.04,0-.08,0-.12,0-.06,0-.12,0-.18-.01-.06,0-.12-.01-.18-.03-.06-.01-.12-.03-.17-.04.06,0,.11-.01.17-.02.06-.01.12-.02.17-.04.06-.02.11-.03.17-.05.06-.02.11-.05.16-.07.05-.03.1-.05.16-.09.05-.03.1-.07.15-.1.05-.04.09-.08.13-.12.04-.04.08-.08.12-.13.04-.05.08-.09.11-.14,0,0,.01-.02.02-.03.03-.04.05-.08.08-.12.03-.05.05-.1.08-.16.02-.05.04-.11.06-.17.02-.05.03-.11.04-.17.01-.06.02-.12.03-.17,0-.06.01-.12.01-.18,0-.04,0-.08,0-.13,0-.06-.01-.12-.02-.17-.01-.06-.02-.12-.04-.17-.02-.05-.04-.11-.06-.17-.02-.05-.05-.11-.07-.16-.03-.05-.06-.1-.09-.15-.03-.05-.07-.1-.1-.14-.04-.04-.08-.09-.12-.13-.02-.02-.04-.04-.07-.06-.12-.09-.24-.18-.36-.26-.02-.01-.03-.02-.05-.03-.09-.05-.17-.08-.25-.11-.01.06,0,.04,0,.08,0,.02,0,.05,0,.07,0,.02-.01.04-.02.06,0,.02-.01.04-.02.06-.01.02-.02.04-.03.06,0,.01-.01.02-.02.03,0,0-.01.02-.02.02-.01.02-.03.04-.04.05-.02.02-.03.03-.05.05h0s-.03.03-.05.04c-.05.04-.12.07-.18.11-.02.01-.04.02-.05.04-.02.01-.03.03-.05.04-.02.02-.03.03-.05.05-.01.02-.03.03-.04.05-.01.02-.03.04-.04.05-.01.02-.02.04-.03.06,0,.02-.02.04-.02.06,0,.02-.01.04-.02.06,0,.01,0,.02,0,.03,0,.01,0,.02,0,.03,0,.02,0,.04,0,.07,0,.02,0,.03,0,.05,0,.02,0,.04,0,.07,0,.02,0,.04.01.06,0,.02.01.04.02.06,0,.01.01.03.02.04l-.6-.23c-.1-.03-.2-.05-.3-.08-.05-.01-.11-.03-.16-.04-.16-.03-.32-.05-.47-.07,0,0,0,0-.01,0-.16-.02-.31-.02-.47-.02-.11,0-.23,0-.34.01-.16.01-.32.03-.48.06-.04,0-.08.01-.12.02-.08.02-.16.03-.23.05-.04.01-.08.02-.12.03-.04.02-.08.03-.11.05-.03.01-.06.03-.09.04,0,0-.01,0-.01,0-.03.01-.05.02-.07.04,0,0-.01,0-.02,0-.03.01-.06.03-.08.04-.02,0-.04.02-.05.03,0,0-.02.01-.02.01-.02.01-.05.03-.07.04-.02.01-.04.03-.06.04-.02.01-.04.02-.05.04,0,0,0,0,0,0-.02.01-.03.02-.05.04,0,0,0,0,0,0-.01.01-.03.02-.04.03,0,0-.01,0-.02.01-.01.01-.03.02-.04.03,0,0,0,0-.01.01-.02.02-.03.03-.05.04,0,0,0,0,0,0-.02.01-.03.03-.05.04,0,0,0,0,0,0-.01.01-.03.03-.04.04,0,0-.01.01-.02.02-.01.02-.03.03-.04.05,0,0,0,0-.01.01-.02.02-.04.04-.06.06,0,0,0,0,0,0-.04.04-.09.09-.13.13-.05.04-.1.08-.15.11-.05.04-.1.07-.16.1-.05.03-.11.05-.16.08-.05.02-.11.04-.17.06-.11.02-.22.07-.32.08-.02,0-.04,0-.07,0-.02,0-.04.01-.06.02-.02,0-.04.02-.06.02-.02,0-.04.02-.06.03-.02.01-.04.02-.06.04-.02.01-.04.03-.05.04-.02.01-.04.03-.05.05-.02.02-.03.03-.04.05-.01.02-.03.04-.04.06-.01.02-.03.04-.04.06-.01.02-.02.04-.03.07,0,.02-.02.04-.02.07,0,.02-.01.04-.01.06,0,0,0,0,0,0,0,.02,0,.05,0,.07,0,.02,0,.03,0,.05,0,.01,0,.02,0,.03,0,.02,0,.03.01.05,0,.02.01.03.02.05h0s.02.03.03.05c.01.02.02.03.03.05.01.01.03.03.04.04.02.02.03.03.05.04.06.05.08.07.16.12.01,0,.03.01.04.02,0,0,0,0,0,0,0,0,0,0,0,.01,0,.02,0,.04.01.06,0,.02.01.04.02.06,0,.02.01.03.02.05,0,0,0,.01,0,.01.01.02.02.04.03.06.01.02.03.04.04.05.01.02.03.03.04.05.02.02.03.03.05.04,0,0,0,0,0,0,.02.01.03.03.05.04.02.01.04.02.06.03.02.01.04.02.06.03.02,0,.03.01.05.02,0,0,0,0,.01,0,.01,0,.02,0,.03,0,0,.14-.01.27.01.32.02.05.14-.11.25-.29-.02.18-.03.39,0,.45.03.06.19-.14.32-.36,1.85-.43,3.53.85,3.71,2.65-.03-.28-.38-.44-.54-.4-.08.19-.21.44-.43.59.02-.17.01-.35-.03-.52-.06.24-.17.46-.32.66-.25.02-.5-.1-.62-.28-.01,0-.01-.02-.02-.03,0-.02-.02-.04-.02-.05,0-.02-.01-.04-.02-.05,0-.02,0-.04,0-.06v-.04s0-.04.01-.05c0-.02.01-.04.02-.05.01-.02.02-.04.03-.05.04-.12.04-.23-.04-.29-.02-.01-.03-.02-.05-.03-.01,0-.02,0-.03-.01,0,0-.01,0-.02,0-.02,0-.04-.01-.05-.01-.02,0-.04,0-.05,0-.02,0-.04,0-.06,0-.01,0-.03,0-.04,0-.02,0-.04,0-.06,0-.02,0-.04,0-.05.01-.02,0-.04.01-.05.02-.02,0-.03.02-.05.02-.02,0-.03.02-.05.03-.61.4-.24,1.32.17,1.59-.16.03-.32.06-.36.1,0,0,0,0,0,0,.11.07.23.13.35.18.17.05.34.1.42.12h0c.22.05.44.06.66.05,1.15-.08,2.1-.96,2.27-2.12,0,.02.01.04.02.07,0,.05.02.1.02.15h0s0,.05.01.07h0s0,.06,0,.08c0,.03,0,.06,0,.09v.04s0,.03,0,.04c0,.02,0,.03,0,.05v.04s0,.03,0,.05c0,.01,0,.02,0,.03,0,.02,0,.04,0,.06,0,0,0,.02,0,.02,0,.02,0,.04,0,.06,0,0,0,.02,0,.02,0,.03,0,.05-.01.08h0s-.01.05-.02.08h0s-.01.05-.02.08c0,0,0,0,0,.01,0,.02-.01.05-.02.07h0s-.02.06-.02.08c0,0,0,0,0,0,0,.03-.02.05-.02.08-.01.03-.02.05-.03.08-.01.03-.02.05-.03.08-.01.03-.02.05-.03.08h0s-.02.05-.03.07c0,0,0,.01,0,.02,0,0,0,0,0,0-.17.34-.42.64-.73.88-.02.01-.04.03-.06.04,0,0-.01,0-.02.01-.02.01-.04.03-.06.04v.02h.01s.07-.01.11-.02h0c.07-.01.14-.02.2-.04.02,0,.04,0,.06-.01.01,0,.02,0,.04,0,.02,0,.04,0,.05-.01.02,0,.03,0,.05-.01.26-.06.51-.15.76-.25-.34.47-.78.86-1.3,1.15-.1.06-.21.12-.32.17.11,0,.22-.02.32-.03.19-.03.38-.07.57-.12,1.05-.31,1.93-1.02,2.46-1.97-.11.6-.35,1.18-.7,1.68.25-.17.48-.36.7-.58.58-.61.97-1.38,1.1-2.22.09.41.11.84.08,1.26,1.88-2.62.16-5.35-.57-6.06Z"/>
          </g>
        </g>
      </g>
    </g>
    <g>
      <g>
        <rect class="cls-22" x="466.15" y="430.71" width="191.07" height="65.02"/>
        <g>
          <text class="cls-18" transform="translate(481.72 450.15)"><tspan x="0" y="0">OpenAI: Ejercicios prácticos y</tspan><tspan x="0" y="12">asistentes con Angular + NestJS</tspan></text>
          <g>
            <rect class="cls-5" x="483.15" y="472.91" width="49.63" height="15.27"/>
            <text class="cls-16" transform="translate(488.15 482.71)"><tspan x="0" y="0">FRONTEND</tspan></text>
          </g>
        </g>
      </g>
      <g>
        <rect class="cls-11" x="536.78" y="472.88" width="15.34" height="15.34"/>
        <rect class="cls-11" x="556.12" y="472.88" width="15.34" height="15.34"/>
        <rect class="cls-11" x="575.45" y="472.88" width="15.34" height="15.34"/>
        <path class="cls-4" d="M548.75,479.63c.23-.68.15-1.43-.21-2.05-.55-.95-1.65-1.44-2.72-1.21-.48-.54-1.17-.85-1.89-.84-1.1,0-2.07.71-2.41,1.75-.71.14-1.32.59-1.67,1.21-.55.95-.43,2.15.31,2.97-.23.68-.15,1.43.21,2.05.55.95,1.65,1.44,2.72,1.21.48.54,1.17.85,1.89.84,1.1,0,2.08-.71,2.41-1.75.71-.14,1.32-.59,1.67-1.21.55-.95.43-2.15-.31-2.97h0ZM544.97,484.91c-.44,0-.87-.15-1.2-.44.02,0,.04-.02.06-.03l2-1.15c.1-.06.17-.17.16-.28v-2.82l.84.49s.02.01.02.02v2.33c0,1.04-.84,1.88-1.88,1.88h0ZM540.93,483.18c-.22-.38-.3-.83-.22-1.26.01,0,.04.02.06.04l2,1.15c.1.06.23.06.33,0l2.44-1.41v.98s0,.02-.01.03l-2.02,1.17c-.9.52-2.05.21-2.57-.69h0ZM540.4,478.82c.22-.38.57-.67.98-.82,0,.02,0,.05,0,.07v2.31c0,.12.06.23.16.28l2.44,1.41-.84.49s-.02,0-.03,0l-2.02-1.17c-.9-.52-1.21-1.67-.69-2.57h0ZM547.35,480.43l-2.44-1.41.84-.49s.02,0,.03,0l2.02,1.17c.9.52,1.21,1.67.69,2.57-.22.38-.57.67-.98.82v-2.38c0-.12-.06-.23-.16-.28h0ZM548.19,479.17s-.04-.02-.06-.04l-2-1.15c-.1-.06-.23-.06-.33,0l-2.44,1.41v-.98s0-.02.01-.03l2.02-1.17c.9-.52,2.05-.21,2.57.69.22.38.3.83.22,1.26h0ZM542.9,480.91l-.85-.49s-.02-.01-.02-.02v-2.33c0-1.04.84-1.88,1.88-1.88.44,0,.87.15,1.2.44-.02,0-.04.02-.06.03l-2,1.15c-.1.06-.17.17-.16.28v2.82s0,0,0,0ZM543.36,479.92l1.09-.63,1.09.63v1.26l-1.09.63-1.09-.63v-1.26Z"/>
        <g>
          <path class="cls-12" d="M584.06,475.89s0,.03.01.05c0,.02,0,.03,0,.05.01.23-.06.26-.11.39-.08.18-.05.36.04.51,0,.02.02.04.03.06-.1-.66.45-.76.55-.96,0-.18-.14-.3-.26-.38-.11-.07-.21-.09-.31-.09-.07,0-.14.02-.2.04.13.09.21.21.24.34Z"/>
          <path class="cls-12" d="M586.75,477.53s0,0,0-.01t0,0s0,0,0,0c0,.03,0,.06,0,.09,0,.06-.02.12-.03.17-.01.06-.03.12-.04.17-.02.05-.04.11-.06.17-.02.05-.05.11-.08.16-.03.05-.06.1-.09.15-.03.05-.07.1-.11.14-.04.05-.08.09-.12.13-.03.02-.05.04-.08.06-.02.02-.04.03-.06.05-.05.04-.09.07-.15.1-.05.03-.1.06-.15.09-.05.03-.11.05-.16.07-.05.02-.11.04-.17.05-.06.02-.12.03-.17.04-.06.01-.12.02-.18.02-.04,0-.08,0-.12,0-.06,0-.12,0-.18-.01-.06,0-.12-.01-.18-.03-.06-.01-.12-.03-.17-.04.06,0,.11-.01.17-.02.06-.01.12-.02.17-.04.06-.02.11-.03.17-.05.06-.02.11-.05.16-.07.05-.03.1-.05.16-.09.05-.03.1-.07.15-.1.05-.04.09-.08.13-.12.04-.04.08-.08.12-.13.04-.05.08-.09.11-.14,0,0,.01-.02.02-.03.03-.04.05-.08.08-.12.03-.05.05-.1.08-.16.02-.05.04-.11.06-.17.02-.05.03-.11.04-.17.01-.06.02-.12.03-.17,0-.06.01-.12.01-.18,0-.04,0-.08,0-.13,0-.06-.01-.12-.02-.17-.01-.06-.02-.12-.04-.17-.02-.05-.04-.11-.06-.17-.02-.05-.05-.11-.07-.16-.03-.05-.06-.1-.09-.15-.03-.05-.07-.1-.1-.14-.04-.04-.08-.09-.12-.13-.02-.02-.04-.04-.07-.06-.12-.09-.24-.18-.36-.26-.02-.01-.03-.02-.05-.03-.09-.05-.17-.08-.25-.11-.01.06,0,.04,0,.08,0,.02,0,.05,0,.07,0,.02-.01.04-.02.06,0,.02-.01.04-.02.06-.01.02-.02.04-.03.06,0,.01-.01.02-.02.03,0,0-.01.02-.02.02-.01.02-.03.04-.04.05-.02.02-.03.03-.05.05h0s-.03.03-.05.04c-.05.04-.12.07-.18.11-.02.01-.04.02-.05.04-.02.01-.03.03-.05.04-.02.02-.03.03-.05.05-.01.02-.03.03-.04.05-.01.02-.03.04-.04.05-.01.02-.02.04-.03.06,0,.02-.02.04-.02.06,0,.02-.01.04-.02.06,0,.01,0,.02,0,.03,0,.01,0,.02,0,.03,0,.02,0,.04,0,.07,0,.02,0,.03,0,.05,0,.02,0,.04,0,.07,0,.02,0,.04.01.06,0,.02.01.04.02.06,0,.01.01.03.02.04l-.6-.23c-.1-.03-.2-.05-.3-.08-.05-.01-.11-.03-.16-.04-.16-.03-.32-.05-.47-.07,0,0,0,0-.01,0-.16-.02-.31-.02-.47-.02-.11,0-.23,0-.34.01-.16.01-.32.03-.48.06-.04,0-.08.01-.12.02-.08.02-.16.03-.23.05-.04.01-.08.02-.12.03-.04.02-.08.03-.11.05-.03.01-.06.03-.09.04,0,0-.01,0-.01,0-.03.01-.05.02-.07.04,0,0-.01,0-.02,0-.03.01-.06.03-.08.04-.02,0-.04.02-.05.03,0,0-.02.01-.02.01-.02.01-.05.03-.07.04-.02.01-.04.03-.06.04-.02.01-.04.02-.05.04,0,0,0,0,0,0-.02.01-.03.02-.05.04,0,0,0,0,0,0-.01.01-.03.02-.04.03,0,0-.01,0-.02.01-.01.01-.03.02-.04.03,0,0,0,0-.01.01-.02.02-.03.03-.05.04,0,0,0,0,0,0-.02.01-.03.03-.05.04,0,0,0,0,0,0-.01.01-.03.03-.04.04,0,0-.01.01-.02.02-.01.02-.03.03-.04.05,0,0,0,0-.01.01-.02.02-.04.04-.06.06,0,0,0,0,0,0-.04.04-.09.09-.13.13-.05.04-.1.08-.15.11-.05.04-.1.07-.16.1-.05.03-.11.05-.16.08-.05.02-.11.04-.17.06-.11.02-.22.07-.32.08-.02,0-.04,0-.07,0-.02,0-.04.01-.06.02-.02,0-.04.02-.06.02-.02,0-.04.02-.06.03-.02.01-.04.02-.06.04-.02.01-.04.03-.05.04-.02.01-.04.03-.05.05-.02.02-.03.03-.04.05-.01.02-.03.04-.04.06-.01.02-.03.04-.04.06-.01.02-.02.04-.03.07,0,.02-.02.04-.02.07,0,.02-.01.04-.01.06,0,0,0,0,0,0,0,.02,0,.05,0,.07,0,.02,0,.03,0,.05,0,.01,0,.02,0,.03,0,.02,0,.03.01.05,0,.02.01.03.02.05h0s.02.03.03.05c.01.02.02.03.03.05.01.01.03.03.04.04.02.02.03.03.05.04.06.05.08.07.16.12.01,0,.03.01.04.02,0,0,0,0,0,0,0,0,0,0,0,.01,0,.02,0,.04.01.06,0,.02.01.04.02.06,0,.02.01.03.02.05,0,0,0,.01,0,.01.01.02.02.04.03.06.01.02.03.04.04.05.01.02.03.03.04.05.02.02.03.03.05.04,0,0,0,0,0,0,.02.01.03.03.05.04.02.01.04.02.06.03.02.01.04.02.06.03.02,0,.03.01.05.02,0,0,0,0,.01,0,.01,0,.02,0,.03,0,0,.14-.01.27.01.32.02.05.14-.11.25-.29-.02.18-.03.39,0,.45.03.06.19-.14.32-.36,1.85-.43,3.53.85,3.71,2.65-.03-.28-.38-.44-.54-.4-.08.19-.21.44-.43.59.02-.17.01-.35-.03-.52-.06.24-.17.46-.32.66-.25.02-.5-.1-.62-.28-.01,0-.01-.02-.02-.03,0-.02-.02-.04-.02-.05,0-.02-.01-.04-.02-.05,0-.02,0-.04,0-.06v-.04s0-.04.01-.05c0-.02.01-.04.02-.05.01-.02.02-.04.03-.05.04-.12.04-.23-.04-.29-.02-.01-.03-.02-.05-.03-.01,0-.02,0-.03-.01,0,0-.01,0-.02,0-.02,0-.04-.01-.05-.01-.02,0-.04,0-.05,0-.02,0-.04,0-.06,0-.01,0-.03,0-.04,0-.02,0-.04,0-.06,0-.02,0-.04,0-.05.01-.02,0-.04.01-.05.02-.02,0-.03.02-.05.02-.02,0-.03.02-.05.03-.61.4-.24,1.32.17,1.59-.16.03-.32.06-.36.1,0,0,0,0,0,0,.11.07.23.13.35.18.17.05.34.1.42.12h0c.22.05.44.06.66.05,1.15-.08,2.1-.96,2.27-2.12,0,.02.01.04.02.07,0,.05.02.1.02.15h0s0,.05.01.07h0s0,.06,0,.08c0,.03,0,.06,0,.09v.04s0,.03,0,.04c0,.02,0,.03,0,.05v.04s0,.03,0,.05c0,.01,0,.02,0,.03,0,.02,0,.04,0,.06,0,0,0,.02,0,.02,0,.02,0,.04,0,.06,0,0,0,.02,0,.02,0,.03,0,.05-.01.08h0s-.01.05-.02.08h0s-.01.05-.02.08c0,0,0,0,0,.01,0,.02-.01.05-.02.07h0s-.02.06-.02.08c0,0,0,0,0,0,0,.03-.02.05-.02.08-.01.03-.02.05-.03.08-.01.03-.02.05-.03.08-.01.03-.02.05-.03.08h0s-.02.05-.03.07c0,0,0,.01,0,.02,0,0,0,0,0,0-.17.34-.42.64-.73.88-.02.01-.04.03-.06.04,0,0-.01,0-.02.01-.02.01-.04.03-.06.04v.02h.01s.07-.01.11-.02h0c.07-.01.14-.02.2-.04.02,0,.04,0,.06-.01.01,0,.02,0,.04,0,.02,0,.04,0,.05-.01.02,0,.03,0,.05-.01.26-.06.51-.15.76-.25-.34.47-.78.86-1.3,1.15-.1.06-.21.12-.32.17.11,0,.22-.02.32-.03.19-.03.38-.07.57-.12,1.05-.31,1.93-1.02,2.46-1.97-.11.6-.35,1.18-.7,1.68.25-.17.48-.36.7-.58.58-.61.97-1.38,1.1-2.22.09.41.11.84.08,1.26,1.88-2.62.16-5.35-.57-6.06Z"/>
        </g>
        <g>
          <path class="cls-3" d="M568.57,477.2l-.34,5.38-3.3-7.06,3.65,1.68h0ZM566.28,484.16l-2.49,1.41-2.49-1.41.51-1.22h3.97l.51,1.22h0ZM563.79,478.2l1.31,3.16h-2.61l1.31-3.16h0ZM559.35,482.58l-.34-5.38,3.65-1.68-3.3,7.06h0Z"/>
          <path class="cls-6" d="M568.57,477.2l-.34,5.38-3.3-7.06,3.65,1.68h0ZM566.28,484.16l-2.49,1.41-2.49-1.41.51-1.22h3.97l.51,1.22h0ZM563.79,478.2l1.31,3.16h-2.61l1.31-3.16h0ZM559.35,482.58l-.34-5.38,3.65-1.68-3.3,7.06h0Z"/>
        </g>
      </g>
    </g>
  </g>
  <path class="cls-11" d="M234.01,82.05"/>
  <g>
    <polyline class="cls-21" points="234.01 82.05 98.36 82.05 98.36 123.73"/>
    <polygon class="cls-11" points="94.27 120.41 95 119.73 98.36 123.34 101.72 119.73 102.45 120.41 98.36 124.81 94.27 120.41"/>
  </g>
  <g>
    <line class="cls-21" x1="192.66" y1="158.28" x2="234.01" y2="158.28"/>
    <polygon class="cls-11" points="195.97 162.37 196.65 161.64 193.04 158.28 196.65 154.93 195.97 154.19 191.57 158.28 195.97 162.37"/>
  </g>
  <g>
    <line class="cls-21" x1="98.36" y1="190.8" x2="98.36" y2="277.16"/>
    <polygon class="cls-11" points="94.27 273.84 95 273.16 98.36 276.77 101.72 273.16 102.45 273.84 98.36 278.24 94.27 273.84"/>
  </g>
  <g>
    <line class="cls-21" x1="98.36" y1="343.26" x2="98.36" y2="505.86"/>
    <polygon class="cls-11" points="94.27 502.55 95 501.86 98.36 505.48 101.72 501.86 102.45 502.55 98.36 506.94 94.27 502.55"/>
  </g>
  <g>
    <line class="cls-21" x1="98.56" y1="234.52" x2="465.07" y2="234.52"/>
    <polygon class="cls-11" points="461.76 238.61 461.07 237.88 464.69 234.52 461.07 231.16 461.76 230.43 466.15 234.52 461.76 238.61"/>
  </g>
  <g>
    <line class="cls-21" x1="98.56" y1="386.99" x2="465.07" y2="386.99"/>
    <polygon class="cls-11" points="461.76 391.08 461.07 390.35 464.69 386.99 461.07 383.63 461.76 382.9 466.15 386.99 461.76 391.08"/>
  </g>
  <g>
    <line class="cls-21" x1="98.56" y1="468.05" x2="465.07" y2="468.05"/>
    <polygon class="cls-11" points="461.76 472.14 461.07 471.41 464.69 468.05 461.07 464.69 461.76 463.96 466.15 468.05 461.76 472.14"/>
  </g>
  <g>
    <polyline class="cls-21" points="465.07 615.69 98.56 615.69 98.56 571.97"/>
    <polygon class="cls-11" points="461.76 611.6 461.07 612.33 464.69 615.69 461.07 619.05 461.76 619.78 466.15 615.69 461.76 611.6"/>
  </g>
  <g>
    <rect class="cls-11" x="531.95" y="625.34" width="15.34" height="15.34"/>
    <g>
      <rect class="cls-10" x="542.1" y="629.36" width="1.25" height="5.48"/>
      <polygon class="cls-15" points="545.42 639.55 537.45 629.36 537.13 629.36 535.88 629.36 535.88 629.98 535.88 636.69 537.13 636.69 537.13 630.97 544.43 640.32 545.42 639.55"/>
    </g>
  </g>
</svg>