<?xml version="1.0" encoding="UTF-8"?>
<svg id="Layer_1" data-name="Layer 1" xmlns="http://www.w3.org/2000/svg" version="1.1" xmlns:xlink="http://www.w3.org/1999/xlink" viewBox="0 0 567 648.7">
  <defs>
    <style>
      .cls-1 {
        fill: #e535ab;
      }

      .cls-1, .cls-2, .cls-3, .cls-4, .cls-5, .cls-6, .cls-7, .cls-8, .cls-9, .cls-10, .cls-11, .cls-12, .cls-13, .cls-14, .cls-15 {
        stroke-width: 0px;
      }

      .cls-2 {
        fill-rule: evenodd;
      }

      .cls-2, .cls-16, .cls-17, .cls-11 {
        fill: #fff;
      }

      .cls-3 {
        fill: url(#linear-gradient);
      }

      .cls-4 {
        fill: #000;
      }

      .cls-18 {
        fill: #f2f2f2;
      }

      .cls-18, .cls-16, .cls-19 {
        font-family: SpaceMono-Regular, 'Space Mono';
        font-size: 8px;
      }

      .cls-20 {
        fill: none;
      }

      .cls-20, .cls-21 {
        stroke: #fff;
        stroke-miterlimit: 10;
      }

      .cls-5 {
        fill: #9013fe;
      }

      .cls-6 {
        fill: url(#linear-gradient-2);
      }

      .cls-7 {
        fill: #3178c6;
      }

      .cls-17 {
        font-family: Raleway-Regular, Raleway;
        font-size: 10px;
      }

      .cls-8 {
        fill: #300a6f;
      }

      .cls-9 {
        fill: #61dafb;
      }

      .cls-21 {
        fill: #0a0614;
      }

      .cls-10 {
        fill: url(#linear-gradient-3);
      }

      .cls-19 {
        fill: #0a0613;
      }

      .cls-12 {
        fill: #e0234e;
      }

      .cls-13 {
        fill: #f7df1e;
      }

      .cls-14 {
        fill: #689f63;
      }

      .cls-15 {
        fill: url(#linear-gradient-4);
      }
    </style>
    <linearGradient id="linear-gradient" x1="485.5" y1="621.6" x2="485.5" y2="628" gradientUnits="userSpaceOnUse">
      <stop offset="0" stop-color="#0a0614"/>
      <stop offset=".5" stop-color="rgba(48, 45, 56, .8)" stop-opacity=".8"/>
      <stop offset=".8" stop-color="rgba(169, 168, 173, .3)" stop-opacity=".3"/>
      <stop offset="1" stop-color="#fff" stop-opacity="0"/>
    </linearGradient>
    <linearGradient id="linear-gradient-2" x1="478.9" y1="626.5" x2="485.6" y2="635.1" gradientUnits="userSpaceOnUse">
      <stop offset="0" stop-color="#0a0614"/>
      <stop offset=".1" stop-color="rgba(16, 12, 25, 1)" stop-opacity="1"/>
      <stop offset=".3" stop-color="rgba(34, 30, 43, 1)" stop-opacity="1"/>
      <stop offset=".4" stop-color="rgba(63, 60, 71, .9)" stop-opacity=".9"/>
      <stop offset=".5" stop-color="rgba(105, 103, 111, .9)" stop-opacity=".9"/>
      <stop offset=".7" stop-color="rgba(159, 157, 163, .8)" stop-opacity=".8"/>
      <stop offset=".8" stop-color="rgba(224, 223, 225, .8)" stop-opacity=".8"/>
      <stop offset=".9" stop-color="#fff" stop-opacity=".7"/>
    </linearGradient>
    <linearGradient id="linear-gradient-3" x1="-495.1" y1="474.8" x2="-494.8" y2="474.7" gradientTransform="translate(12320.4 -10888) scale(23.9 23.9)" gradientUnits="userSpaceOnUse">
      <stop offset="0" stop-color="#e40035"/>
      <stop offset=".2" stop-color="#f60a48"/>
      <stop offset=".3" stop-color="#f20755"/>
      <stop offset=".5" stop-color="#dc087d"/>
      <stop offset=".7" stop-color="#9717e7"/>
      <stop offset="1" stop-color="#6c00f5"/>
    </linearGradient>
    <linearGradient id="linear-gradient-4" x1="-495.1" y1="474.6" x2="-494.9" y2="474.8" gradientTransform="translate(12320.4 -10888) scale(23.9 23.9)" gradientUnits="userSpaceOnUse">
      <stop offset="0" stop-color="#ff31d9"/>
      <stop offset="1" stop-color="#ff5be1" stop-opacity="0"/>
    </linearGradient>
  </defs>
  <g>
    <rect class="cls-21" x="4.9" y="247.9" width="180" height="72"/>
    <text class="cls-17" transform="translate(13.9 265.9)"><tspan x="0" y="0">Nest: Desarrollo backend</tspan><tspan x="0" y="12">escalable con Node</tspan></text>
    <g>
      <g>
        <rect class="cls-8" x="13.9" y="292.9" width="44.8" height="17.9"/>
        <text class="cls-16" transform="translate(18.9 304)"><tspan x="0" y="0">BACKEND</tspan></text>
      </g>
      <g>
        <rect class="cls-11" x="94.9" y="292.9" width="17.9" height="18"/>
        <g>
          <path class="cls-14" d="M108.6,298.6l-4.3-2.5c-.3-.2-.6-.2-.9,0l-4.3,2.5c-.3.2-.5.5-.5.8v5c0,.3.2.6.5.8l1.1.7c.5.3.7.3,1,.3.8,0,1.3-.5,1.3-1.3v-4.9c0,0,0-.1-.1-.1h-.5c0,0-.1,0-.1.1v4.9c0,.4-.4.8-1,.4l-1.2-.7s0,0,0-.1v-5s0,0,0-.1l4.3-2.5s0,0,.1,0l4.3,2.5s0,0,0,.1v5s0,0,0,.1l-4.3,2.5s0,0-.1,0l-1.1-.7s0,0-.1,0c-.3.2-.4.2-.7.3,0,0-.2,0,0,.2l1.4.9c.1,0,.3.1.5.1h0c.2,0,.3,0,.5-.1l4.3-2.5c.3-.2.5-.5.5-.8v-5c0-.3-.2-.6-.5-.8Z"/>
          <path class="cls-14" d="M105.1,303.6c-1.1,0-1.4-.3-1.5-.9,0,0,0-.1-.1-.1h-.6c0,0-.1,0-.1.1,0,.7.4,1.6,2.3,1.6h0c1.4,0,2.1-.5,2.1-1.5s-.6-1.2-2-1.4c-1.3-.2-1.5-.3-1.5-.6s.1-.6,1.1-.6,1.2.2,1.3.8c0,0,0,0,.1,0h.6s0,0,0,0c0,0,0,0,0,0,0-1-.8-1.5-2.1-1.5s-2,.5-2,1.4.7,1.2,1.9,1.3c1.4.1,1.5.3,1.5.6,0,.5-.4.7-1.3.7Z"/>
        </g>
      </g>
      <g>
        <rect class="cls-11" x="67.9" y="292.9" width="18" height="18"/>
        <g>
          <path class="cls-12" d="M78,296.4s0,0,0,0c0,0,0,0,0,0,0,.3,0,.3-.1.5,0,.2,0,.4,0,.6,0,0,0,0,0,0-.1-.8.5-.9.6-1.1,0-.2-.2-.4-.3-.4-.1,0-.3-.1-.4-.1s-.2,0-.2,0c.2.1.2.2.3.4Z"/>
          <path class="cls-12" d="M81.1,298.3s0,0,0,0t0,0s0,0,0,0c0,0,0,0,0,.1,0,0,0,.1,0,.2,0,0,0,.1,0,.2,0,0,0,.1,0,.2,0,0,0,.1,0,.2,0,0,0,.1-.1.2,0,0,0,.1-.1.2,0,0,0,.1-.1.2,0,0,0,0,0,0,0,0,0,0,0,0,0,0-.1,0-.2.1,0,0-.1,0-.2.1,0,0-.1,0-.2,0,0,0-.1,0-.2,0,0,0-.1,0-.2,0,0,0-.1,0-.2,0,0,0,0,0-.1,0,0,0-.1,0-.2,0,0,0-.1,0-.2,0,0,0-.1,0-.2,0,0,0,.1,0,.2,0,0,0,.1,0,.2,0,0,0,.1,0,.2,0,0,0,.1,0,.2,0,0,0,.1,0,.2-.1,0,0,.1,0,.2-.1,0,0,.1,0,.2-.1,0,0,0,0,.1-.2,0,0,0-.1.1-.2,0,0,0,0,0,0,0,0,0,0,0-.1,0,0,0-.1,0-.2,0,0,0-.1,0-.2,0,0,0-.1,0-.2,0,0,0-.1,0-.2,0,0,0-.1,0-.2s0,0,0-.1c0,0,0-.1,0-.2,0,0,0-.1,0-.2,0,0,0-.1,0-.2,0,0,0-.1,0-.2,0,0,0-.1-.1-.2,0,0,0-.1-.1-.2,0,0,0-.1-.1-.2,0,0,0,0,0,0-.1-.1-.3-.2-.4-.3,0,0,0,0,0,0-.1,0-.2,0-.3-.1,0,0,0,0,0,0,0,0,0,0,0,0,0,0,0,0,0,0,0,0,0,0,0,0,0,0,0,0,0,0,0,0,0,0,0,0,0,0,0,0,0,0,0,0,0,0,0,0,0,0,0,0,0,0h0s0,0,0,0c0,0-.1,0-.2.1,0,0,0,0,0,0,0,0,0,0,0,0,0,0,0,0,0,0,0,0,0,0,0,0,0,0,0,0,0,0,0,0,0,0,0,0,0,0,0,0,0,0,0,0,0,0,0,0,0,0,0,0,0,0,0,0,0,0,0,0,0,0,0,0,0,0s0,0,0,0c0,0,0,0,0,0,0,0,0,0,0,0,0,0,0,0,0,0,0,0,0,0,0,0l-.7-.3c-.1,0-.2,0-.4,0,0,0-.1,0-.2,0-.2,0-.4,0-.6,0,0,0,0,0,0,0-.2,0-.4,0-.5,0s-.3,0-.4,0c-.2,0-.4,0-.6,0,0,0,0,0-.1,0,0,0-.2,0-.3,0,0,0,0,0-.1,0,0,0,0,0-.1,0,0,0,0,0-.1,0,0,0,0,0,0,0,0,0,0,0,0,0,0,0,0,0,0,0,0,0,0,0,0,0,0,0,0,0,0,0,0,0,0,0,0,0,0,0,0,0,0,0,0,0,0,0,0,0,0,0,0,0,0,0,0,0,0,0,0,0,0,0,0,0,0,0,0,0,0,0,0,0,0,0,0,0,0,0,0,0,0,0,0,0,0,0,0,0,0,0,0,0,0,0,0,0,0,0,0,0,0,0,0,0,0,0,0,0,0,0,0,0,0,0,0,0,0,0,0,0,0,0,0,0,0,0,0,0,0,0,0,0,0,0,0,0,0,0,0,0,0,0,0,0,0,0,0,0,0,0,0,0,0,0,0,0,0,0-.1.1-.2.2,0,0-.1,0-.2.1,0,0-.1,0-.2.1,0,0-.1,0-.2,0,0,0-.1,0-.2,0-.1,0-.3,0-.4,0,0,0,0,0,0,0,0,0,0,0,0,0,0,0,0,0,0,0,0,0,0,0,0,0,0,0,0,0,0,0,0,0,0,0,0,0,0,0,0,0,0,0,0,0,0,0,0,0,0,0,0,0,0,0,0,0,0,0,0,0,0,0,0,0,0,0,0,0,0,0,0,0,0,0,0,0,0,0,0,0,0,0,0,0,0,0,0,0,0,0,0,0,0,0,0,0s0,0,0,0c0,0,0,0,0,0,0,0,0,0,0,0h0s0,0,0,0c0,0,0,0,0,0,0,0,0,0,0,0,0,0,0,0,0,0,0,0,0,0,.2.1,0,0,0,0,0,0,0,0,0,0,0,0,0,0,0,0,0,0,0,0,0,0,0,0,0,0,0,0,0,0,0,0,0,0,0,0s0,0,0,0c0,0,0,0,0,0,0,0,0,0,0,0,0,0,0,0,0,0,0,0,0,0,0,0,0,0,0,0,0,0,0,0,0,0,0,0,0,0,0,0,0,0,0,0,0,0,0,0,0,0,0,0,0,0,0,0,0,0,0,0,0,0,0,0,0,0,0,.2,0,.3,0,.4,0,0,.2-.1.3-.3,0,.2,0,.5,0,.5,0,0,.2-.2.4-.4,2.2-.5,4.1,1,4.4,3.1,0-.3-.4-.5-.6-.5,0,.2-.2.5-.5.7,0-.2,0-.4,0-.6,0,.3-.2.5-.4.8-.3,0-.6-.1-.7-.3,0,0,0,0,0,0,0,0,0,0,0,0,0,0,0,0,0,0,0,0,0,0,0,0h0c0,0,0,0,0-.1,0,0,0,0,0,0,0,0,0,0,0,0,0-.1,0-.3,0-.3,0,0,0,0,0,0,0,0,0,0,0,0,0,0,0,0,0,0,0,0,0,0,0,0,0,0,0,0,0,0,0,0,0,0,0,0s0,0,0,0c0,0,0,0,0,0,0,0,0,0,0,0,0,0,0,0,0,0,0,0,0,0,0,0,0,0,0,0,0,0-.7.5-.3,1.6.2,1.9-.2,0-.4,0-.4.1,0,0,0,0,0,0,.1,0,.3.1.4.2.2,0,.4.1.5.1h0c.3,0,.5,0,.8,0,1.4,0,2.5-1.1,2.7-2.5,0,0,0,0,0,0,0,0,0,.1,0,.2h0s0,0,0,0h0s0,0,0,0c0,0,0,0,0,.1h0c0,0,0,0,0,0s0,0,0,0h0c0,0,0,0,0,.1s0,0,0,0c0,0,0,0,0,0,0,0,0,0,0,0,0,0,0,0,0,0,0,0,0,0,0,0,0,0,0,0,0,0h0s0,0,0,0h0s0,0,0,0c0,0,0,0,0,0,0,0,0,0,0,0h0s0,0,0,0c0,0,0,0,0,0,0,0,0,0,0,0,0,0,0,0,0,0,0,0,0,0,0,0,0,0,0,0,0,0h0s0,0,0,0c0,0,0,0,0,0,0,0,0,0,0,0-.2.4-.5.8-.9,1,0,0,0,0,0,0,0,0,0,0,0,0,0,0,0,0,0,0h0s0,0,0,0c0,0,0,0,.1,0h0c0,0,.2,0,.2,0,0,0,0,0,0,0,0,0,0,0,0,0,0,0,0,0,0,0,0,0,0,0,0,0,.3,0,.6-.2.9-.3-.4.6-.9,1-1.5,1.4-.1,0-.2.1-.4.2.1,0,.3,0,.4,0,.2,0,.4,0,.7-.1,1.2-.4,2.3-1.2,2.9-2.3-.1.7-.4,1.4-.8,2,.3-.2.6-.4.8-.7.7-.7,1.1-1.6,1.3-2.6.1.5.1,1,0,1.5,2.2-3.1.2-6.3-.7-7.1Z"/>
        </g>
      </g>
    </g>
  </g>
  <g>
    <rect class="cls-21" x="4.9" y="490.9" width="180" height="72"/>
    <text class="cls-17" transform="translate(13.9 508.9)"><tspan x="0" y="0">Nest + GraphQL: Evoluciona</tspan><tspan x="0" y="12">tus APIs</tspan></text>
    <g>
      <g>
        <rect class="cls-8" x="13.9" y="535.9" width="44.8" height="17.9"/>
        <text class="cls-16" transform="translate(18.9 547)"><tspan x="0" y="0">BACKEND</tspan></text>
      </g>
      <g>
        <rect class="cls-11" x="67.9" y="535.9" width="18" height="18"/>
        <g>
          <path class="cls-12" d="M78,539.4s0,0,0,0c0,0,0,0,0,0,0,.3,0,.3-.1.5,0,.2,0,.4,0,.6,0,0,0,0,0,0-.1-.8.5-.9.6-1.1,0-.2-.2-.4-.3-.4-.1,0-.3-.1-.4-.1s-.2,0-.2,0c.2.1.2.2.3.4Z"/>
          <path class="cls-12" d="M81.1,541.3s0,0,0,0t0,0s0,0,0,0c0,0,0,0,0,.1,0,0,0,.1,0,.2,0,0,0,.1,0,.2,0,0,0,.1,0,.2,0,0,0,.1,0,.2,0,0,0,.1-.1.2,0,0,0,.1-.1.2,0,0,0,.1-.1.2,0,0,0,0,0,0,0,0,0,0,0,0,0,0-.1,0-.2.1,0,0-.1,0-.2.1,0,0-.1,0-.2,0,0,0-.1,0-.2,0,0,0-.1,0-.2,0,0,0-.1,0-.2,0,0,0,0,0-.1,0,0,0-.1,0-.2,0,0,0-.1,0-.2,0,0,0-.1,0-.2,0,0,0,.1,0,.2,0,0,0,.1,0,.2,0,0,0,.1,0,.2,0,0,0,.1,0,.2,0,0,0,.1,0,.2-.1,0,0,.1,0,.2-.1,0,0,.1,0,.2-.1,0,0,0,0,.1-.2,0,0,0-.1.1-.2,0,0,0,0,0,0,0,0,0,0,0-.1,0,0,0-.1,0-.2,0,0,0-.1,0-.2,0,0,0-.1,0-.2,0,0,0-.1,0-.2,0,0,0-.1,0-.2s0,0,0-.1c0,0,0-.1,0-.2,0,0,0-.1,0-.2,0,0,0-.1,0-.2,0,0,0-.1,0-.2,0,0,0-.1-.1-.2,0,0,0-.1-.1-.2,0,0,0-.1-.1-.2,0,0,0,0,0,0-.1-.1-.3-.2-.4-.3,0,0,0,0,0,0-.1,0-.2,0-.3-.1,0,0,0,0,0,0,0,0,0,0,0,0,0,0,0,0,0,0,0,0,0,0,0,0,0,0,0,0,0,0,0,0,0,0,0,0,0,0,0,0,0,0,0,0,0,0,0,0,0,0,0,0,0,0h0s0,0,0,0c0,0-.1,0-.2.1,0,0,0,0,0,0,0,0,0,0,0,0,0,0,0,0,0,0,0,0,0,0,0,0,0,0,0,0,0,0,0,0,0,0,0,0,0,0,0,0,0,0,0,0,0,0,0,0,0,0,0,0,0,0,0,0,0,0,0,0,0,0,0,0,0,0s0,0,0,0c0,0,0,0,0,0,0,0,0,0,0,0,0,0,0,0,0,0,0,0,0,0,0,0l-.7-.3c-.1,0-.2,0-.4,0,0,0-.1,0-.2,0-.2,0-.4,0-.6,0,0,0,0,0,0,0-.2,0-.4,0-.5,0s-.3,0-.4,0c-.2,0-.4,0-.6,0,0,0,0,0-.1,0,0,0-.2,0-.3,0,0,0,0,0-.1,0,0,0,0,0-.1,0,0,0,0,0-.1,0,0,0,0,0,0,0,0,0,0,0,0,0,0,0,0,0,0,0,0,0,0,0,0,0,0,0,0,0,0,0,0,0,0,0,0,0,0,0,0,0,0,0,0,0,0,0,0,0,0,0,0,0,0,0,0,0,0,0,0,0,0,0,0,0,0,0,0,0,0,0,0,0,0,0,0,0,0,0,0,0,0,0,0,0,0,0,0,0,0,0,0,0,0,0,0,0,0,0,0,0,0,0,0,0,0,0,0,0,0,0,0,0,0,0,0,0,0,0,0,0,0,0,0,0,0,0,0,0,0,0,0,0,0,0,0,0,0,0,0,0,0,0,0,0,0,0,0,0,0,0,0,0,0,0,0,0,0,0-.1.1-.2.2,0,0-.1,0-.2.1,0,0-.1,0-.2.1,0,0-.1,0-.2,0,0,0-.1,0-.2,0-.1,0-.3,0-.4,0,0,0,0,0,0,0,0,0,0,0,0,0,0,0,0,0,0,0,0,0,0,0,0,0,0,0,0,0,0,0,0,0,0,0,0,0,0,0,0,0,0,0,0,0,0,0,0,0,0,0,0,0,0,0,0,0,0,0,0,0,0,0,0,0,0,0,0,0,0,0,0,0,0,0,0,0,0,0,0,0,0,0,0,0,0,0,0,0,0,0,0,0,0,0,0,0s0,0,0,0c0,0,0,0,0,0,0,0,0,0,0,0h0s0,0,0,0c0,0,0,0,0,0,0,0,0,0,0,0,0,0,0,0,0,0,0,0,0,0,.2.1,0,0,0,0,0,0,0,0,0,0,0,0,0,0,0,0,0,0,0,0,0,0,0,0,0,0,0,0,0,0,0,0,0,0,0,0s0,0,0,0c0,0,0,0,0,0,0,0,0,0,0,0,0,0,0,0,0,0,0,0,0,0,0,0,0,0,0,0,0,0,0,0,0,0,0,0,0,0,0,0,0,0,0,0,0,0,0,0,0,0,0,0,0,0,0,0,0,0,0,0,0,0,0,0,0,0,0,.2,0,.3,0,.4,0,0,.2-.1.3-.3,0,.2,0,.5,0,.5,0,0,.2-.2.4-.4,2.2-.5,4.1,1,4.4,3.1,0-.3-.4-.5-.6-.5,0,.2-.2.5-.5.7,0-.2,0-.4,0-.6,0,.3-.2.5-.4.8-.3,0-.6-.1-.7-.3,0,0,0,0,0,0,0,0,0,0,0,0,0,0,0,0,0,0,0,0,0,0,0,0h0c0,0,0,0,0-.1,0,0,0,0,0,0,0,0,0,0,0,0,0-.1,0-.3,0-.3,0,0,0,0,0,0,0,0,0,0,0,0,0,0,0,0,0,0,0,0,0,0,0,0,0,0,0,0,0,0,0,0,0,0,0,0s0,0,0,0c0,0,0,0,0,0,0,0,0,0,0,0,0,0,0,0,0,0,0,0,0,0,0,0,0,0,0,0,0,0-.7.5-.3,1.6.2,1.9-.2,0-.4,0-.4.1,0,0,0,0,0,0,.1,0,.3.1.4.2.2,0,.4.1.5.1h0c.3,0,.5,0,.8,0,1.4,0,2.5-1.1,2.7-2.5,0,0,0,0,0,0,0,0,0,.1,0,.2h0s0,0,0,0h0s0,0,0,0c0,0,0,0,0,.1h0c0,0,0,0,0,0s0,0,0,0h0c0,0,0,0,0,.1s0,0,0,0c0,0,0,0,0,0,0,0,0,0,0,0,0,0,0,0,0,0,0,0,0,0,0,0,0,0,0,0,0,0h0s0,0,0,0h0s0,0,0,0c0,0,0,0,0,0,0,0,0,0,0,0h0s0,0,0,0c0,0,0,0,0,0,0,0,0,0,0,0,0,0,0,0,0,0,0,0,0,0,0,0,0,0,0,0,0,0h0s0,0,0,0c0,0,0,0,0,0,0,0,0,0,0,0-.2.4-.5.8-.9,1,0,0,0,0,0,0,0,0,0,0,0,0,0,0,0,0,0,0h0s0,0,0,0c0,0,0,0,.1,0h0c0,0,.2,0,.2,0,0,0,0,0,0,0,0,0,0,0,0,0,0,0,0,0,0,0,0,0,0,0,0,0,.3,0,.6-.2.9-.3-.4.6-.9,1-1.5,1.4-.1,0-.2.1-.4.2.1,0,.3,0,.4,0,.2,0,.4,0,.7-.1,1.2-.4,2.3-1.2,2.9-2.3-.1.7-.4,1.4-.8,2,.3-.2.6-.4.8-.7.7-.7,1.1-1.6,1.3-2.6.1.5.1,1,0,1.5,2.2-3.1.2-6.3-.7-7.1Z"/>
        </g>
      </g>
      <g>
        <rect class="cls-11" x="94.9" y="535.9" width="18" height="18"/>
        <path class="cls-1" d="M108.6,546.4c0,0-.2,0-.3-.1v-2.8c0,0,.2,0,.3-.1.5-.3.7-.9.4-1.4-.3-.5-.9-.7-1.4-.4,0,0-.2.1-.2.2l-2.4-1.4c0,0,0-.2,0-.3,0-.6-.5-1-1-1s-1,.5-1,1,0,.2,0,.3l-2.4,1.4c0,0-.1-.1-.2-.2-.5-.3-1.1-.1-1.4.4-.3.5-.1,1.1.4,1.4,0,0,.2,0,.3.1v2.8c0,0-.2,0-.3.1-.5.3-.7.9-.4,1.4s.9.7,1.4.4c0,0,.2-.1.2-.2l2.4,1.4c0,0,0,.2,0,.3,0,.6.5,1,1,1s1-.5,1-1,0-.2,0-.3l2.4-1.4c0,0,.2.2.3.2.5.3,1.1.1,1.4-.4.3-.5.1-1.1-.4-1.4ZM100.7,547c0,0,0-.2-.1-.3,0,0-.1-.2-.2-.2l3.2-5.5c0,0,.2,0,.3,0s.2,0,.3,0l3.2,5.5c0,0-.1.1-.2.2,0,0,0,.2-.1.3h-6.3ZM107,542.2c0,.3,0,.6,0,.8.1.3.4.4.7.5v2.8s0,0,0,0l-3.2-5.5s0,0,0,0l2.4,1.4ZM103.1,540.8s0,0,0,0l-3.2,5.5s0,0,0,0v-2.8c.3,0,.5-.2.7-.5.1-.3.2-.5,0-.8l2.4-1.4ZM104.6,549c-.2-.2-.5-.3-.8-.3s-.6.1-.8.3l-2.4-1.4s0,0,0,0h6.3s0,0,0,0l-2.4,1.4Z"/>
      </g>
    </g>
  </g>
  <g>
    <rect class="cls-21" x="382.9" y="571.9" width="180" height="72"/>
    <text class="cls-17" transform="translate(391.9 589.9)"><tspan x="0" y="0">Next.js: El framework de React</tspan><tspan x="0" y="12">para producción</tspan></text>
    <g>
      <g>
        <rect class="cls-8" x="391.9" y="616.9" width="44.8" height="17.9"/>
        <text class="cls-16" transform="translate(396.9 628)"><tspan x="0" y="0">BACKEND</tspan></text>
      </g>
      <g>
        <rect class="cls-11" x="445.9" y="616.9" width="18" height="18"/>
        <g>
          <path class="cls-12" d="M456,620.4s0,0,0,0c0,0,0,0,0,0,0,.3,0,.3-.1.5,0,.2,0,.4,0,.6,0,0,0,0,0,0-.1-.8.5-.9.6-1.1,0-.2-.2-.4-.3-.4-.1,0-.3-.1-.4-.1s-.2,0-.2,0c.2.1.2.2.3.4Z"/>
          <path class="cls-12" d="M459.1,622.3s0,0,0,0t0,0s0,0,0,0c0,0,0,0,0,.1,0,0,0,.1,0,.2,0,0,0,.1,0,.2,0,0,0,.1,0,.2,0,0,0,.1,0,.2,0,0,0,.1-.1.2,0,0,0,.1-.1.2,0,0,0,.1-.1.2,0,0,0,0,0,0,0,0,0,0,0,0,0,0-.1,0-.2.1,0,0-.1,0-.2.1,0,0-.1,0-.2,0,0,0-.1,0-.2,0,0,0-.1,0-.2,0,0,0-.1,0-.2,0,0,0,0,0-.1,0,0,0-.1,0-.2,0,0,0-.1,0-.2,0,0,0-.1,0-.2,0,0,0,.1,0,.2,0,0,0,.1,0,.2,0,0,0,.1,0,.2,0,0,0,.1,0,.2,0,0,0,.1,0,.2-.1,0,0,.1,0,.2-.1,0,0,.1,0,.2-.1,0,0,0,0,.1-.2,0,0,0-.1.1-.2,0,0,0,0,0,0,0,0,0,0,0-.1,0,0,0-.1,0-.2,0,0,0-.1,0-.2,0,0,0-.1,0-.2,0,0,0-.1,0-.2,0,0,0-.1,0-.2s0,0,0-.1c0,0,0-.1,0-.2,0,0,0-.1,0-.2,0,0,0-.1,0-.2,0,0,0-.1,0-.2,0,0,0-.1-.1-.2,0,0,0-.1-.1-.2,0,0,0-.1-.1-.2,0,0,0,0,0,0-.1-.1-.3-.2-.4-.3,0,0,0,0,0,0-.1,0-.2,0-.3-.1,0,0,0,0,0,0,0,0,0,0,0,0,0,0,0,0,0,0,0,0,0,0,0,0,0,0,0,0,0,0,0,0,0,0,0,0,0,0,0,0,0,0,0,0,0,0,0,0,0,0,0,0,0,0h0s0,0,0,0c0,0-.1,0-.2.1,0,0,0,0,0,0,0,0,0,0,0,0,0,0,0,0,0,0,0,0,0,0,0,0,0,0,0,0,0,0,0,0,0,0,0,0,0,0,0,0,0,0,0,0,0,0,0,0,0,0,0,0,0,0,0,0,0,0,0,0,0,0,0,0,0,0s0,0,0,0c0,0,0,0,0,0,0,0,0,0,0,0,0,0,0,0,0,0,0,0,0,0,0,0l-.7-.3c-.1,0-.2,0-.4,0,0,0-.1,0-.2,0-.2,0-.4,0-.6,0,0,0,0,0,0,0-.2,0-.4,0-.5,0s-.3,0-.4,0c-.2,0-.4,0-.6,0,0,0,0,0-.1,0,0,0-.2,0-.3,0,0,0,0,0-.1,0,0,0,0,0-.1,0,0,0,0,0-.1,0,0,0,0,0,0,0,0,0,0,0,0,0,0,0,0,0,0,0,0,0,0,0,0,0,0,0,0,0,0,0,0,0,0,0,0,0,0,0,0,0,0,0,0,0,0,0,0,0,0,0,0,0,0,0,0,0,0,0,0,0,0,0,0,0,0,0,0,0,0,0,0,0,0,0,0,0,0,0,0,0,0,0,0,0,0,0,0,0,0,0,0,0,0,0,0,0,0,0,0,0,0,0,0,0,0,0,0,0,0,0,0,0,0,0,0,0,0,0,0,0,0,0,0,0,0,0,0,0,0,0,0,0,0,0,0,0,0,0,0,0,0,0,0,0,0,0,0,0,0,0,0,0,0,0,0,0,0,0-.1.1-.2.2,0,0-.1,0-.2.1,0,0-.1,0-.2.1,0,0-.1,0-.2,0,0,0-.1,0-.2,0-.1,0-.3,0-.4,0,0,0,0,0,0,0,0,0,0,0,0,0,0,0,0,0,0,0,0,0,0,0,0,0,0,0,0,0,0,0,0,0,0,0,0,0,0,0,0,0,0,0,0,0,0,0,0,0,0,0,0,0,0,0,0,0,0,0,0,0,0,0,0,0,0,0,0,0,0,0,0,0,0,0,0,0,0,0,0,0,0,0,0,0,0,0,0,0,0,0,0,0,0,0,0,0s0,0,0,0c0,0,0,0,0,0,0,0,0,0,0,0h0s0,0,0,0c0,0,0,0,0,0,0,0,0,0,0,0,0,0,0,0,0,0,0,0,0,0,.2.1,0,0,0,0,0,0,0,0,0,0,0,0,0,0,0,0,0,0,0,0,0,0,0,0,0,0,0,0,0,0,0,0,0,0,0,0s0,0,0,0c0,0,0,0,0,0,0,0,0,0,0,0,0,0,0,0,0,0,0,0,0,0,0,0,0,0,0,0,0,0,0,0,0,0,0,0,0,0,0,0,0,0,0,0,0,0,0,0,0,0,0,0,0,0,0,0,0,0,0,0,0,0,0,0,0,0,0,.2,0,.3,0,.4,0,0,.2-.1.3-.3,0,.2,0,.5,0,.5,0,0,.2-.2.4-.4,2.2-.5,4.1,1,4.4,3.1,0-.3-.4-.5-.6-.5,0,.2-.2.5-.5.7,0-.2,0-.4,0-.6,0,.3-.2.5-.4.8-.3,0-.6-.1-.7-.3,0,0,0,0,0,0,0,0,0,0,0,0,0,0,0,0,0,0,0,0,0,0,0,0h0c0,0,0,0,0-.1,0,0,0,0,0,0,0,0,0,0,0,0,0-.1,0-.3,0-.3,0,0,0,0,0,0,0,0,0,0,0,0,0,0,0,0,0,0,0,0,0,0,0,0,0,0,0,0,0,0,0,0,0,0,0,0s0,0,0,0c0,0,0,0,0,0,0,0,0,0,0,0,0,0,0,0,0,0,0,0,0,0,0,0,0,0,0,0,0,0-.7.5-.3,1.6.2,1.9-.2,0-.4,0-.4.1,0,0,0,0,0,0,.1,0,.3.1.4.2.2,0,.4.1.5.1h0c.3,0,.5,0,.8,0,1.4,0,2.5-1.1,2.7-2.5,0,0,0,0,0,0,0,0,0,.1,0,.2h0s0,0,0,0h0s0,0,0,0c0,0,0,0,0,.1h0c0,0,0,0,0,0s0,0,0,0h0c0,0,0,0,0,.1s0,0,0,0c0,0,0,0,0,0,0,0,0,0,0,0,0,0,0,0,0,0,0,0,0,0,0,0,0,0,0,0,0,0h0s0,0,0,0h0s0,0,0,0c0,0,0,0,0,0,0,0,0,0,0,0h0s0,0,0,0c0,0,0,0,0,0,0,0,0,0,0,0,0,0,0,0,0,0,0,0,0,0,0,0,0,0,0,0,0,0h0s0,0,0,0c0,0,0,0,0,0,0,0,0,0,0,0-.2.4-.5.8-.9,1,0,0,0,0,0,0,0,0,0,0,0,0,0,0,0,0,0,0h0s0,0,0,0c0,0,0,0,.1,0h0c0,0,.2,0,.2,0,0,0,0,0,0,0,0,0,0,0,0,0,0,0,0,0,0,0,0,0,0,0,0,0,.3,0,.6-.2.9-.3-.4.6-.9,1-1.5,1.4-.1,0-.2.1-.4.2.1,0,.3,0,.4,0,.2,0,.4,0,.7-.1,1.2-.4,2.3-1.2,2.9-2.3-.1.7-.4,1.4-.8,2,.3-.2.6-.4.8-.7.7-.7,1.1-1.6,1.3-2.6.1.5.1,1,0,1.5,2.2-3.1.2-6.3-.7-7.1Z"/>
        </g>
      </g>
      <g>
        <rect class="cls-11" x="472.9" y="616.9" width="18" height="18"/>
        <g>
          <rect class="cls-3" x="484.8" y="621.6" width="1.5" height="6.4"/>
          <polygon class="cls-6" points="488.7 633.5 479.3 621.6 478.9 621.6 477.5 621.6 477.5 622.3 477.5 630.2 478.9 630.2 478.9 623.4 487.5 634.4 488.7 633.5"/>
        </g>
      </g>
    </g>
  </g>
  <g>
    <rect class="cls-21" x="193.9" y="4.9" width="180" height="72"/>
    <text class="cls-17" transform="translate(202.9 22.9)"><tspan x="0" y="0">JavaScript Moderno: Guía para</tspan><tspan x="0" y="12">dominar el lenguaje</tspan></text>
    <rect class="cls-11" x="202.6" y="49.9" width="36" height="18"/>
    <text class="cls-19" transform="translate(208.2 61)"><tspan x="0" y="0">BASES</tspan></text>
    <rect class="cls-11" x="247.9" y="49.9" width="18" height="18"/>
    <g>
      <rect class="cls-13" x="251" y="53" width="11.7" height="11.7"/>
      <path class="cls-4" d="M258.9,62.1c.2.4.5.7,1.1.7s.7-.2.7-.5-.3-.5-.8-.7h-.3c-.8-.5-1.3-.9-1.3-1.8s.6-1.5,1.6-1.5,1.2.2,1.6.9l-.9.5c-.2-.3-.4-.5-.7-.5s-.5.2-.5.5.2.5.7.7h.3c.9.5,1.5.9,1.5,1.8s-.8,1.5-1.8,1.5-1.7-.5-2-1.1l.9-.5ZM255,62.2c.2.3.3.6.7.6s.6-.1.6-.7v-3.7h1.1v3.8c0,1.1-.7,1.7-1.6,1.7s-1.4-.5-1.6-1l.9-.5Z"/>
    </g>
  </g>
  <rect class="cls-21" x="193.9" y="85.9" width="180" height="72"/>
  <text class="cls-17" transform="translate(202.9 103.8)"><tspan x="0" y="0">TypeScript: Tu completa guía y</tspan><tspan x="0" y="12">manual de mano</tspan></text>
  <g>
    <rect class="cls-11" x="202.9" y="130.9" width="36" height="18"/>
    <text class="cls-19" transform="translate(208.4 142)"><tspan x="0" y="0">BASES</tspan></text>
  </g>
  <rect class="cls-11" x="247.9" y="130.9" width="18" height="18"/>
  <g>
    <rect class="cls-7" x="251" y="134" width="11.7" height="11.7" rx=".9" ry=".9"/>
    <path class="cls-2" d="M257.9,143.2v1.3c.2.1.4.2.7.2s.6,0,.9,0,.6,0,.9,0,.5-.2.7-.3c.2-.1.4-.3.5-.5.1-.2.2-.5.2-.8s0-.4-.1-.6-.2-.3-.3-.5c-.1-.1-.3-.3-.5-.4-.2-.1-.4-.2-.6-.3-.2,0-.3-.1-.4-.2-.1,0-.2-.1-.3-.2,0,0-.2-.1-.2-.2s0-.2,0-.3,0-.2,0-.2.1-.1.2-.2c0,0,.2,0,.3-.1.1,0,.3,0,.4,0s.2,0,.3,0c.1,0,.2,0,.4,0,.1,0,.2,0,.3.1.1,0,.2.1.3.2v-1.2c-.2,0-.4-.1-.6-.2s-.5,0-.8,0-.6,0-.9,0c-.3,0-.5.2-.7.3-.2.1-.4.3-.5.5-.1.2-.2.5-.2.8s.1.7.3,1c.2.3.5.5,1,.7.2,0,.3.1.5.2.2,0,.3.1.4.2s.2.2.3.2,0,.2,0,.3,0,.2,0,.2c0,0,0,.1-.2.2s-.2,0-.3.1-.3,0-.4,0c-.3,0-.5,0-.8-.1-.3,0-.5-.2-.7-.4h0ZM255.8,140h1.6v-1h-4.5v1h1.6v4.6h1.3v-4.6Z"/>
  </g>
  <g>
    <polyline class="cls-20" points="193.9 40.9 94.9 40.9 94.9 82.8"/>
    <polygon class="cls-11" points="90.8 79.5 91.5 78.8 94.9 82.5 98.2 78.8 99 79.5 94.9 83.9 90.8 79.5"/>
  </g>
  <g>
    <line class="cls-20" x1="185.9" y1="121.9" x2="193.9" y2="121.9"/>
    <polygon class="cls-11" points="189.3 125.9 189.9 125.2 186.3 121.9 189.9 118.5 189.3 117.8 184.9 121.9 189.3 125.9"/>
  </g>
  <g>
    <line class="cls-20" x1="94.9" y1="151.4" x2="94.9" y2="246.8"/>
    <polygon class="cls-11" points="90.8 243.5 91.5 242.8 94.9 246.4 98.2 242.8 99 243.5 94.9 247.9 90.8 243.5"/>
  </g>
  <g>
    <line class="cls-20" x1="94.9" y1="319.9" x2="94.9" y2="489.8"/>
    <polygon class="cls-11" points="90.8 486.5 91.5 485.8 94.9 489.4 98.2 485.8 99 486.5 94.9 490.9 90.8 486.5"/>
  </g>
  <g>
    <line class="cls-20" x1="94.9" y1="202.9" x2="380.4" y2="202.9"/>
    <polygon class="cls-11" points="377.1 206.9 376.4 206.2 380 202.9 376.4 199.5 377.1 198.8 381.5 202.9 377.1 206.9"/>
  </g>
  <g>
    <line class="cls-20" x1="94.9" y1="364.9" x2="381.8" y2="364.9"/>
    <polygon class="cls-11" points="378.5 368.9 377.8 368.2 381.4 364.9 377.8 361.5 378.5 360.8 382.9 364.9 378.5 368.9"/>
  </g>
  <g>
    <line class="cls-20" x1="94.9" y1="445.9" x2="381.8" y2="445.9"/>
    <polygon class="cls-11" points="378.5 450 377.8 449.3 381.4 445.9 377.8 442.6 378.5 441.8 382.9 445.9 378.5 450"/>
  </g>
  <g>
    <polyline class="cls-20" points="381.8 607.9 94.9 607.9 94.9 564.1"/>
    <polygon class="cls-11" points="378.5 603.8 377.8 604.5 381.4 607.8 377.8 611.2 378.5 611.9 382.9 607.8 378.5 603.8"/>
  </g>
  <g>
    <line class="cls-20" x1="283.9" y1="76.9" x2="283.9" y2="84.8"/>
    <polygon class="cls-11" points="279.8 81.5 280.5 80.8 283.9 84.4 287.2 80.8 288 81.5 283.9 85.9 279.8 81.5"/>
  </g>
  <g>
    <rect class="cls-21" x="4.9" y="85.9" width="180" height="72"/>
    <text class="cls-17" transform="translate(13.9 103.9)"><tspan x="0" y="0">Node.JS: De cero a experto</tspan></text>
    <g>
      <g>
        <rect class="cls-8" x="13.9" y="130.9" width="44.8" height="17.9"/>
        <text class="cls-16" transform="translate(18.9 142)"><tspan x="0" y="0">BACKEND</tspan></text>
      </g>
      <g>
        <rect class="cls-11" x="67.9" y="130.9" width="17.9" height="18"/>
        <g>
          <path class="cls-14" d="M81.7,136.6l-4.3-2.5c-.3-.2-.6-.2-.9,0l-4.3,2.5c-.3.2-.5.5-.5.8v5c0,.3.2.6.5.8l1.1.7c.5.3.7.3,1,.3.8,0,1.3-.5,1.3-1.3v-4.9c0,0,0-.1-.1-.1h-.5c0,0-.1,0-.1.1v4.9c0,.4-.4.8-1,.4l-1.2-.7s0,0,0-.1v-5s0,0,0-.1l4.3-2.5s0,0,.1,0l4.3,2.5s0,0,0,.1v5s0,0,0,.1l-4.3,2.5s0,0-.1,0l-1.1-.7s0,0-.1,0c-.3.2-.4.2-.7.3,0,0-.2,0,0,.2l1.4.9c.1,0,.3.1.5.1h0c.2,0,.3,0,.5-.1l4.3-2.5c.3-.2.5-.5.5-.8v-5c0-.3-.2-.6-.5-.8Z"/>
          <path class="cls-14" d="M78.2,141.6c-1.1,0-1.4-.3-1.5-.9,0,0,0-.1-.1-.1h-.6c0,0-.1,0-.1.1,0,.7.4,1.6,2.3,1.6h0c1.4,0,2.1-.5,2.1-1.5s-.6-1.2-2-1.4c-1.3-.2-1.5-.3-1.5-.6s.1-.6,1.1-.6,1.2.2,1.3.8c0,0,0,0,.1,0h.6s0,0,0,0c0,0,0,0,0,0,0-1-.8-1.5-2.1-1.5s-2,.5-2,1.4.7,1.2,1.9,1.3c1.4.1,1.5.3,1.5.6,0,.5-.4.7-1.3.7Z"/>
        </g>
      </g>
    </g>
  </g>
  <g>
    <rect class="cls-21" x="382.9" y="166.9" width="180" height="72"/>
    <text class="cls-17" transform="translate(391.9 184.9)"><tspan x="0" y="0">Node: Autenticación Rest con</tspan><tspan x="0" y="12">Clean Architecture</tspan></text>
    <g>
      <g>
        <rect class="cls-8" x="391.9" y="211.9" width="44.8" height="17.9"/>
        <text class="cls-16" transform="translate(396.9 223)"><tspan x="0" y="0">BACKEND</tspan></text>
      </g>
      <g>
        <rect class="cls-11" x="445.9" y="211.9" width="17.9" height="18"/>
        <g>
          <path class="cls-14" d="M459.7,217.6l-4.3-2.5c-.3-.2-.6-.2-.9,0l-4.3,2.5c-.3.2-.5.5-.5.8v5c0,.3.2.6.5.8l1.1.7c.5.3.7.3,1,.3.8,0,1.3-.5,1.3-1.3v-4.9c0,0,0-.1-.1-.1h-.5c0,0-.1,0-.1.1v4.9c0,.4-.4.8-1,.4l-1.2-.7s0,0,0-.1v-5s0,0,0-.1l4.3-2.5s0,0,.1,0l4.3,2.5s0,0,0,.1v5s0,0,0,.1l-4.3,2.5s0,0-.1,0l-1.1-.7s0,0-.1,0c-.3.2-.4.2-.7.3,0,0-.2,0,0,.2l1.4.9c.1,0,.3.1.5.1h0c.2,0,.3,0,.5-.1l4.3-2.5c.3-.2.5-.5.5-.8v-5c0-.3-.2-.6-.5-.8Z"/>
          <path class="cls-14" d="M456.2,222.6c-1.1,0-1.4-.3-1.5-.9,0,0,0-.1-.1-.1h-.6c0,0-.1,0-.1.1,0,.7.4,1.6,2.3,1.6h0c1.4,0,2.1-.5,2.1-1.5s-.6-1.2-2-1.4c-1.3-.2-1.5-.3-1.5-.6s.1-.6,1.1-.6,1.2.2,1.3.8c0,0,0,0,.1,0h.6s0,0,0,0c0,0,0,0,0,0,0-1-.8-1.5-2.1-1.5s-2,.5-2,1.4.7,1.2,1.9,1.3c1.4.1,1.5.3,1.5.6,0,.5-.4.7-1.3.7Z"/>
        </g>
      </g>
    </g>
  </g>
  <rect class="cls-21" x="382.9" y="328.9" width="180" height="72"/>
  <text class="cls-17" transform="translate(391.9 346.9)"><tspan x="0" y="0">OpenAI: Ejercicios prácticos y</tspan><tspan x="0" y="12">asistentes con React + NestJS</tspan></text>
  <rect class="cls-5" x="391.9" y="373.9" width="54" height="17.9"/>
  <text class="cls-18" transform="translate(399.1 385)"><tspan x="0" y="0">FRONTEND</tspan></text>
  <g>
    <polyline class="cls-20" points="381.8 607.9 94.9 607.9 94.9 564.1"/>
    <polygon class="cls-11" points="378.5 603.8 377.8 604.5 381.4 607.8 377.8 611.2 378.5 611.9 382.9 607.8 378.5 603.8"/>
  </g>
  <g>
    <rect class="cls-11" x="481.9" y="373.9" width="17.9" height="18"/>
    <g>
      <path class="cls-9" d="M493.2,377h.5s0,0,0,0c.4,0,.7.3.9.6.2.3.3.7.3,1.1,0,.5,0,1-.1,1.6,0,.1,0,.2,0,.4,0,0,0,0,0,0,.5.2,1,.3,1.5.6.3.2.6.4.9.7.4.5.4,1.1,0,1.6-.2.3-.4.5-.7.6-.5.3-1,.5-1.5.7-.1,0-.2,0-.3,0,0,0,0,0,0,0,.1.6.3,1.2.2,1.9,0,.3,0,.6-.2.9-.2.4-.4.6-.8.8,0,0-.1,0-.2,0h-.5s0,0,0,0c-.3,0-.6-.1-.8-.3-.5-.3-.9-.6-1.4-1,0,0-.1-.1-.2-.2,0,0,0,0,0,0-.3.3-.6.5-.9.7-.3.2-.7.5-1.1.6-.1,0-.2,0-.3,0h-.5s0,0,0,0c-.4,0-.7-.3-.9-.6-.2-.3-.3-.7-.3-1.1,0-.5,0-1.1.1-1.6,0-.1,0-.2,0-.4,0,0,0,0,0,0,0,0,0,0,0,0-.5-.2-1-.4-1.5-.6-.3-.2-.6-.4-.8-.7-.4-.5-.4-1.1,0-1.6.2-.2.4-.4.6-.6.4-.3.9-.5,1.5-.7.1,0,.2,0,.4-.1,0,0,0,0,0,0-.1-.6-.2-1.2-.2-1.9,0-.3,0-.6.2-.9.2-.4.4-.6.8-.8,0,0,.1,0,.2,0h.5s0,0,0,0c.3,0,.5.1.8.3.5.2.9.5,1.2.9.1,0,.2.2.3.3,0,0,0,0,0,0,.3-.3.6-.5.9-.7.4-.2.7-.5,1.1-.6.1,0,.2,0,.3,0ZM490.8,380.7c-.4,0-.7,0-1.1,0,0,0,0,0,0,0-.4.6-.8,1.3-1.1,2,0,0,0,0,0,0,.3.7.7,1.4,1.1,2,0,0,0,0,0,0,.2,0,.5,0,.7,0,.5,0,1.1,0,1.6,0,0,0,0,0,0,0,.4-.6.8-1.3,1.1-2,0,0,0,0,0-.1-.3-.7-.7-1.3-1.1-2,0,0,0,0-.1,0-.4,0-.7,0-1.1,0ZM487.6,380.5s0,0,0,0c.1,0,.3,0,.4,0,.4,0,.8-.1,1.2-.2,0,0,0,0,.1,0,.3-.5.7-.9,1-1.3,0,0,0,0,0,0,0,0,0,0,0,0-.3-.3-.6-.6-1-.8-.3-.2-.6-.3-.9-.4-.2,0-.4,0-.6,0-.2,0-.3.3-.4.5-.1.3-.1.6-.1.9,0,.4,0,.8.1,1.1,0,.2,0,.3.1.5ZM490.4,386.9s0,0,0,0c-.4-.4-.7-.8-1-1.3,0,0,0,0-.1,0-.2,0-.4,0-.6,0-.3,0-.7-.1-1-.2,0,0,0,0,0,0-.1.6-.2,1.2-.2,1.8,0,.2,0,.5.2.7.1.3.4.4.7.4.2,0,.5,0,.7-.2.4-.2.8-.5,1.1-.8.1-.1.2-.2.3-.3ZM494.5,384.5s0,0,0,0c.5-.1,1-.3,1.5-.6.2-.1.5-.3.6-.6.2-.3.2-.6,0-.9-.1-.2-.3-.3-.5-.5-.4-.3-.8-.4-1.2-.6-.1,0-.3,0-.4-.1,0,0,0,0,0,0-.2.5-.4,1.1-.6,1.6,0,0,0,0,0,0,.1.3.3.6.4.9,0,.2.2.5.2.7ZM491.2,378.8s0,0,0,0c.4.4.7.8,1,1.3,0,0,0,0,.1,0,.5,0,1.1.1,1.6.3,0,0,0,0,0,0,0-.2.1-.5.1-.7,0-.4,0-.8,0-1.2,0-.2,0-.4-.2-.6-.1-.2-.3-.3-.6-.3-.3,0-.5,0-.7.2-.4.2-.8.4-1.1.7-.1.1-.3.2-.4.4ZM487.2,384.5s0,0,0,0c.2-.5.4-1.1.6-1.6,0,0,0,0,0,0-.2-.5-.4-1-.6-1.5,0,0,0,0,0,0-.1,0-.3,0-.4.1-.4.2-.9.3-1.2.6-.2.2-.4.3-.5.6-.1.2-.1.5,0,.7,0,.2.2.3.4.4.3.2.5.4.8.5.3.2.7.3,1,.4ZM491.2,386.9s0,0,0,0c.3.3.5.5.9.7.3.2.6.4,1,.5s.4,0,.5,0c.3,0,.4-.2.5-.5.1-.3.1-.6.1-.8,0-.5,0-1-.2-1.6,0,0,0,0,0,0-.5.1-1.1.2-1.6.3,0,0,0,0,0,0-.2.3-.4.5-.6.8-.2.2-.3.4-.5.6ZM493.5,383.5c-.3.5-.5.9-.8,1.3.4,0,.8-.1,1.2-.2-.1-.4-.3-.8-.4-1.1ZM493.5,382.2c.1-.4.3-.7.4-1.1-.4,0-.8-.1-1.2-.2.3.5.5.9.8,1.3ZM488.9,384.9c-.3-.5-.5-.9-.8-1.3-.1.4-.3.7-.4,1.1.4,0,.8.1,1.2.2ZM488.9,380.8c-.4,0-.8.1-1.2.2,0,.1.3,1,.4,1.1.2-.4.5-.9.8-1.3ZM490,380.2h1.5c-.3-.3-.5-.6-.8-.9-.3.3-.5.6-.8.9ZM491.6,385.5h-1.5c.3.3.5.6.8.9.3-.3.5-.6.8-.9Z"/>
      <path class="cls-9" d="M492,382.9c0,.6-.5,1.2-1.2,1.2s-1.2-.5-1.2-1.2.5-1.2,1.2-1.2c.6,0,1.2.5,1.2,1.2Z"/>
    </g>
  </g>
  <g>
    <rect class="cls-11" x="454.9" y="373.9" width="17.9" height="18"/>
    <path class="cls-4" d="M468.8,381.8c.3-.8.2-1.7-.3-2.4-.6-1.1-1.9-1.7-3.2-1.4-.6-.6-1.4-1-2.2-1-1.3,0-2.4.8-2.8,2.1-.8.2-1.5.7-2,1.4-.6,1.1-.5,2.5.4,3.5-.3.8-.2,1.7.3,2.4.6,1.1,1.9,1.7,3.2,1.4.6.6,1.4,1,2.2,1,1.3,0,2.4-.8,2.8-2.1.8-.2,1.5-.7,2-1.4.6-1.1.5-2.5-.4-3.5h0ZM464.4,388c-.5,0-1-.2-1.4-.5,0,0,0,0,0,0l2.3-1.4c.1,0,.2-.2.2-.3v-3.3l1,.6s0,0,0,0v2.7c0,1.2-1,2.2-2.2,2.2h0ZM459.7,385.9c-.3-.4-.3-1-.3-1.5,0,0,0,0,0,0l2.3,1.4c.1,0,.3,0,.4,0l2.8-1.7v1.1s0,0,0,0l-2.4,1.4c-1,.6-2.4.2-3-.8h0ZM459.1,380.8c.3-.4.7-.8,1.1-1,0,0,0,0,0,0v2.7c0,.1,0,.3.2.3l2.8,1.7-1,.6s0,0,0,0l-2.4-1.4c-1-.6-1.4-2-.8-3h0ZM467.2,382.7l-2.8-1.7,1-.6s0,0,0,0l2.4,1.4c1,.6,1.4,2,.8,3-.3.4-.7.8-1.1,1v-2.8c0-.1,0-.3-.2-.3h0ZM468.2,381.2s0,0,0,0l-2.3-1.4c-.1,0-.3,0-.4,0l-2.8,1.7v-1.1s0,0,0,0l2.4-1.4c1-.6,2.4-.2,3,.8.3.4.3,1,.3,1.5h0ZM462,383.3l-1-.6s0,0,0,0v-2.7c0-1.2,1-2.2,2.2-2.2.5,0,1,.2,1.4.5,0,0,0,0,0,0l-2.3,1.4c-.1,0-.2.2-.2.3v3.3s0,0,0,0ZM462.5,382.1l1.3-.7,1.3.7v1.5l-1.3.7-1.3-.7v-1.5Z"/>
  </g>
  <g>
    <rect class="cls-11" x="508.9" y="373.9" width="17.9" height="18"/>
    <g>
      <path class="cls-12" d="M518.9,377.4s0,0,0,0c0,0,0,0,0,0,0,.3,0,.3-.1.5,0,.2,0,.4,0,.6,0,0,0,0,0,0-.1-.8.5-.9.6-1.1,0-.2-.2-.4-.3-.4-.1,0-.2-.1-.4-.1s-.2,0-.2,0c.2.1.2.2.3.4Z"/>
      <path class="cls-12" d="M522,379.3s0,0,0,0t0,0s0,0,0,0c0,0,0,0,0,.1,0,0,0,.1,0,.2,0,0,0,.1,0,.2,0,0,0,.1,0,.2,0,0,0,.1,0,.2,0,0,0,.1-.1.2,0,0,0,.1-.1.2,0,0,0,.1-.1.2,0,0,0,0,0,0,0,0,0,0,0,0,0,0-.1,0-.2.1,0,0-.1,0-.2.1,0,0-.1,0-.2,0,0,0-.1,0-.2,0,0,0-.1,0-.2,0,0,0-.1,0-.2,0,0,0,0,0-.1,0,0,0-.1,0-.2,0,0,0-.1,0-.2,0,0,0-.1,0-.2,0,0,0,.1,0,.2,0,0,0,.1,0,.2,0,0,0,.1,0,.2,0,0,0,.1,0,.2,0,0,0,.1,0,.2-.1,0,0,.1,0,.2-.1,0,0,.1,0,.2-.1,0,0,0,0,.1-.2,0,0,0-.1.1-.2,0,0,0,0,0,0,0,0,0,0,0-.1,0,0,0-.1,0-.2,0,0,0-.1,0-.2,0,0,0-.1,0-.2,0,0,0-.1,0-.2,0,0,0-.1,0-.2s0,0,0-.1c0,0,0-.1,0-.2,0,0,0-.1,0-.2,0,0,0-.1,0-.2,0,0,0-.1,0-.2,0,0,0-.1-.1-.2,0,0,0-.1-.1-.2,0,0,0-.1-.1-.2,0,0,0,0,0,0-.1-.1-.3-.2-.4-.3,0,0,0,0,0,0-.1,0-.2,0-.3-.1,0,0,0,0,0,0,0,0,0,0,0,0,0,0,0,0,0,0,0,0,0,0,0,0,0,0,0,0,0,0,0,0,0,0,0,0,0,0,0,0,0,0,0,0,0,0,0,0,0,0,0,0,0,0h0s0,0,0,0c0,0-.1,0-.2.1,0,0,0,0,0,0,0,0,0,0,0,0,0,0,0,0,0,0,0,0,0,0,0,0,0,0,0,0,0,0,0,0,0,0,0,0,0,0,0,0,0,0,0,0,0,0,0,0,0,0,0,0,0,0,0,0,0,0,0,0,0,0,0,0,0,0s0,0,0,0c0,0,0,0,0,0,0,0,0,0,0,0,0,0,0,0,0,0,0,0,0,0,0,0l-.7-.3c-.1,0-.2,0-.4,0,0,0-.1,0-.2,0-.2,0-.4,0-.6,0,0,0,0,0,0,0-.2,0-.4,0-.5,0s-.3,0-.4,0c-.2,0-.4,0-.6,0,0,0,0,0-.1,0,0,0-.2,0-.3,0,0,0,0,0-.1,0,0,0,0,0-.1,0,0,0,0,0-.1,0,0,0,0,0,0,0,0,0,0,0,0,0,0,0,0,0,0,0,0,0,0,0,0,0,0,0,0,0,0,0,0,0,0,0,0,0,0,0,0,0,0,0,0,0,0,0,0,0,0,0,0,0,0,0,0,0,0,0,0,0,0,0,0,0,0,0,0,0,0,0,0,0,0,0,0,0,0,0,0,0,0,0,0,0,0,0,0,0,0,0,0,0,0,0,0,0,0,0,0,0,0,0,0,0,0,0,0,0,0,0,0,0,0,0,0,0,0,0,0,0,0,0,0,0,0,0,0,0,0,0,0,0,0,0,0,0,0,0,0,0,0,0,0,0,0,0,0,0,0,0,0,0,0,0,0,0,0,0-.1.1-.2.2,0,0-.1,0-.2.1,0,0-.1,0-.2.1,0,0-.1,0-.2,0,0,0-.1,0-.2,0-.1,0-.3,0-.4,0,0,0,0,0,0,0,0,0,0,0,0,0,0,0,0,0,0,0,0,0,0,0,0,0,0,0,0,0,0,0,0,0,0,0,0,0,0,0,0,0,0,0,0,0,0,0,0,0,0,0,0,0,0,0,0,0,0,0,0,0,0,0,0,0,0,0,0,0,0,0,0,0,0,0,0,0,0,0,0,0,0,0,0,0,0,0,0,0,0,0,0,0,0,0,0,0s0,0,0,0c0,0,0,0,0,0,0,0,0,0,0,0h0s0,0,0,0c0,0,0,0,0,0,0,0,0,0,0,0,0,0,0,0,0,0,0,0,0,0,.2.1,0,0,0,0,0,0,0,0,0,0,0,0,0,0,0,0,0,0,0,0,0,0,0,0,0,0,0,0,0,0,0,0,0,0,0,0s0,0,0,0c0,0,0,0,0,0,0,0,0,0,0,0,0,0,0,0,0,0,0,0,0,0,0,0,0,0,0,0,0,0,0,0,0,0,0,0,0,0,0,0,0,0,0,0,0,0,0,0,0,0,0,0,0,0,0,0,0,0,0,0,0,0,0,0,0,0,0,.2,0,.3,0,.4,0,0,.2-.1.3-.3,0,.2,0,.5,0,.5,0,0,.2-.2.4-.4,2.2-.5,4.1,1,4.3,3.1,0-.3-.4-.5-.6-.5,0,.2-.2.5-.5.7,0-.2,0-.4,0-.6,0,.3-.2.5-.4.8-.3,0-.6-.1-.7-.3,0,0,0,0,0,0,0,0,0,0,0,0,0,0,0,0,0,0,0,0,0,0,0,0h0c0,0,0,0,0-.1,0,0,0,0,0,0,0,0,0,0,0,0,0-.1,0-.3,0-.3,0,0,0,0,0,0,0,0,0,0,0,0,0,0,0,0,0,0,0,0,0,0,0,0,0,0,0,0,0,0,0,0,0,0,0,0s0,0,0,0c0,0,0,0,0,0,0,0,0,0,0,0,0,0,0,0,0,0,0,0,0,0,0,0,0,0,0,0,0,0-.7.5-.3,1.6.2,1.9-.2,0-.4,0-.4.1,0,0,0,0,0,0,.1,0,.3.1.4.2.2,0,.4.1.5.1h0c.3,0,.5,0,.8,0,1.3,0,2.5-1.1,2.7-2.5,0,0,0,0,0,0,0,0,0,.1,0,.2h0s0,0,0,0h0s0,0,0,0c0,0,0,0,0,.1h0c0,0,0,0,0,0s0,0,0,0h0c0,0,0,0,0,.1s0,0,0,0c0,0,0,0,0,0,0,0,0,0,0,0,0,0,0,0,0,0,0,0,0,0,0,0,0,0,0,0,0,0h0s0,0,0,0h0s0,0,0,0c0,0,0,0,0,0,0,0,0,0,0,0h0s0,0,0,0c0,0,0,0,0,0,0,0,0,0,0,0,0,0,0,0,0,0,0,0,0,0,0,0,0,0,0,0,0,0h0s0,0,0,0c0,0,0,0,0,0,0,0,0,0,0,0-.2.4-.5.8-.9,1,0,0,0,0,0,0,0,0,0,0,0,0,0,0,0,0,0,0h0s0,0,0,0c0,0,0,0,.1,0h0c0,0,.2,0,.2,0,0,0,0,0,0,0,0,0,0,0,0,0,0,0,0,0,0,0,0,0,0,0,0,0,.3,0,.6-.2.9-.3-.4.6-.9,1-1.5,1.4-.1,0-.2.1-.4.2.1,0,.3,0,.4,0,.2,0,.4,0,.7-.1,1.2-.4,2.3-1.2,2.9-2.3-.1.7-.4,1.4-.8,2,.3-.2.6-.4.8-.7.7-.7,1.1-1.6,1.3-2.6.1.5.1,1,0,1.5,2.2-3.1.2-6.3-.7-7.1Z"/>
    </g>
  </g>
  <rect class="cls-21" x="382.9" y="409.9" width="180" height="72"/>
  <text class="cls-17" transform="translate(391.9 427.9)"><tspan x="0" y="0">OpenAI: Ejercicios prácticos y</tspan><tspan x="0" y="12">asistentes con Angular + NestJS</tspan></text>
  <rect class="cls-5" x="391.9" y="454.9" width="54" height="17.9"/>
  <text class="cls-18" transform="translate(399.1 466)"><tspan x="0" y="0">FRONTEND</tspan></text>
  <g>
    <rect class="cls-11" x="481.9" y="454.9" width="17.9" height="18"/>
    <g>
      <path class="cls-10" d="M496.5,459.9l-.4,6.3-3.9-8.3,4.3,2h0ZM493.8,468.1l-2.9,1.7-2.9-1.7.6-1.4h4.7l.6,1.4h0ZM490.9,461.1l1.5,3.7h-3.1l1.5-3.7h0ZM485.7,466.2l-.4-6.3,4.3-2-3.9,8.3h0Z"/>
      <path class="cls-15" d="M496.5,459.9l-.4,6.3-3.9-8.3,4.3,2h0ZM493.8,468.1l-2.9,1.7-2.9-1.7.6-1.4h4.7l.6,1.4h0ZM490.9,461.1l1.5,3.7h-3.1l1.5-3.7h0ZM485.7,466.2l-.4-6.3,4.3-2-3.9,8.3h0Z"/>
    </g>
  </g>
  <g>
    <rect class="cls-11" x="454.9" y="454.9" width="17.9" height="18"/>
    <path class="cls-4" d="M468.8,462.8c.3-.8.2-1.7-.3-2.4-.6-1.1-1.9-1.7-3.2-1.4-.6-.6-1.4-1-2.2-1-1.3,0-2.4.8-2.8,2.1-.8.2-1.5.7-2,1.4-.6,1.1-.5,2.5.4,3.5-.3.8-.2,1.7.3,2.4.6,1.1,1.9,1.7,3.2,1.4.6.6,1.4,1,2.2,1,1.3,0,2.4-.8,2.8-2.1.8-.2,1.5-.7,2-1.4.6-1.1.5-2.5-.4-3.5h0ZM464.4,469c-.5,0-1-.2-1.4-.5,0,0,0,0,0,0l2.3-1.4c.1,0,.2-.2.2-.3v-3.3l1,.6s0,0,0,0v2.7c0,1.2-1,2.2-2.2,2.2h0ZM459.7,466.9c-.3-.4-.3-1-.3-1.5,0,0,0,0,0,0l2.3,1.4c.1,0,.3,0,.4,0l2.8-1.7v1.1s0,0,0,0l-2.4,1.4c-1,.6-2.4.2-3-.8h0ZM459.1,461.8c.3-.4.7-.8,1.1-1,0,0,0,0,0,0v2.7c0,.1,0,.3.2.3l2.8,1.7-1,.6s0,0,0,0l-2.4-1.4c-1-.6-1.4-2-.8-3h0ZM467.2,463.7l-2.8-1.7,1-.6s0,0,0,0l2.4,1.4c1,.6,1.4,2,.8,3-.3.4-.7.8-1.1,1v-2.8c0-.1,0-.3-.2-.3h0ZM468.2,462.2s0,0,0,0l-2.3-1.4c-.1,0-.3,0-.4,0l-2.8,1.7v-1.1s0,0,0,0l2.4-1.4c1-.6,2.4-.2,3,.8.3.4.3,1,.3,1.5h0ZM462,464.3l-1-.6s0,0,0,0v-2.7c0-1.2,1-2.2,2.2-2.2.5,0,1,.2,1.4.5,0,0,0,0,0,0l-2.3,1.4c-.1,0-.2.2-.2.3v3.3s0,0,0,0ZM462.5,463.1l1.3-.7,1.3.7v1.5l-1.3.7-1.3-.7v-1.5Z"/>
  </g>
  <g>
    <rect class="cls-11" x="508.9" y="454.9" width="17.9" height="18"/>
    <g>
      <path class="cls-12" d="M518.9,458.4s0,0,0,0c0,0,0,0,0,0,0,.3,0,.3-.1.5,0,.2,0,.4,0,.6,0,0,0,0,0,0-.1-.8.5-.9.6-1.1,0-.2-.2-.4-.3-.4-.1,0-.2-.1-.4-.1s-.2,0-.2,0c.2.1.2.2.3.4Z"/>
      <path class="cls-12" d="M522,460.3s0,0,0,0t0,0s0,0,0,0c0,0,0,0,0,.1,0,0,0,.1,0,.2,0,0,0,.1,0,.2,0,0,0,.1,0,.2,0,0,0,.1,0,.2,0,0,0,.1-.1.2,0,0,0,.1-.1.2,0,0,0,.1-.1.2,0,0,0,0,0,0,0,0,0,0,0,0,0,0-.1,0-.2.1,0,0-.1,0-.2.1,0,0-.1,0-.2,0,0,0-.1,0-.2,0,0,0-.1,0-.2,0,0,0-.1,0-.2,0,0,0,0,0-.1,0,0,0-.1,0-.2,0,0,0-.1,0-.2,0,0,0-.1,0-.2,0,0,0,.1,0,.2,0,0,0,.1,0,.2,0,0,0,.1,0,.2,0,0,0,.1,0,.2,0,0,0,.1,0,.2-.1,0,0,.1,0,.2-.1,0,0,.1,0,.2-.1,0,0,0,0,.1-.2,0,0,0-.1.1-.2,0,0,0,0,0,0,0,0,0,0,0-.1,0,0,0-.1,0-.2,0,0,0-.1,0-.2,0,0,0-.1,0-.2,0,0,0-.1,0-.2,0,0,0-.1,0-.2s0,0,0-.1c0,0,0-.1,0-.2,0,0,0-.1,0-.2,0,0,0-.1,0-.2,0,0,0-.1,0-.2,0,0,0-.1-.1-.2,0,0,0-.1-.1-.2,0,0,0-.1-.1-.2,0,0,0,0,0,0-.1-.1-.3-.2-.4-.3,0,0,0,0,0,0-.1,0-.2,0-.3-.1,0,0,0,0,0,0,0,0,0,0,0,0,0,0,0,0,0,0,0,0,0,0,0,0,0,0,0,0,0,0,0,0,0,0,0,0,0,0,0,0,0,0,0,0,0,0,0,0,0,0,0,0,0,0h0s0,0,0,0c0,0-.1,0-.2.1,0,0,0,0,0,0,0,0,0,0,0,0,0,0,0,0,0,0,0,0,0,0,0,0,0,0,0,0,0,0,0,0,0,0,0,0,0,0,0,0,0,0,0,0,0,0,0,0,0,0,0,0,0,0,0,0,0,0,0,0,0,0,0,0,0,0s0,0,0,0c0,0,0,0,0,0,0,0,0,0,0,0,0,0,0,0,0,0,0,0,0,0,0,0l-.7-.3c-.1,0-.2,0-.4,0,0,0-.1,0-.2,0-.2,0-.4,0-.6,0,0,0,0,0,0,0-.2,0-.4,0-.5,0s-.3,0-.4,0c-.2,0-.4,0-.6,0,0,0,0,0-.1,0,0,0-.2,0-.3,0,0,0,0,0-.1,0,0,0,0,0-.1,0,0,0,0,0-.1,0,0,0,0,0,0,0,0,0,0,0,0,0,0,0,0,0,0,0,0,0,0,0,0,0,0,0,0,0,0,0,0,0,0,0,0,0,0,0,0,0,0,0,0,0,0,0,0,0,0,0,0,0,0,0,0,0,0,0,0,0,0,0,0,0,0,0,0,0,0,0,0,0,0,0,0,0,0,0,0,0,0,0,0,0,0,0,0,0,0,0,0,0,0,0,0,0,0,0,0,0,0,0,0,0,0,0,0,0,0,0,0,0,0,0,0,0,0,0,0,0,0,0,0,0,0,0,0,0,0,0,0,0,0,0,0,0,0,0,0,0,0,0,0,0,0,0,0,0,0,0,0,0,0,0,0,0,0,0-.1.1-.2.2,0,0-.1,0-.2.1,0,0-.1,0-.2.1,0,0-.1,0-.2,0,0,0-.1,0-.2,0-.1,0-.3,0-.4,0,0,0,0,0,0,0,0,0,0,0,0,0,0,0,0,0,0,0,0,0,0,0,0,0,0,0,0,0,0,0,0,0,0,0,0,0,0,0,0,0,0,0,0,0,0,0,0,0,0,0,0,0,0,0,0,0,0,0,0,0,0,0,0,0,0,0,0,0,0,0,0,0,0,0,0,0,0,0,0,0,0,0,0,0,0,0,0,0,0,0,0,0,0,0,0,0s0,0,0,0c0,0,0,0,0,0,0,0,0,0,0,0h0s0,0,0,0c0,0,0,0,0,0,0,0,0,0,0,0,0,0,0,0,0,0,0,0,0,0,.2.1,0,0,0,0,0,0,0,0,0,0,0,0,0,0,0,0,0,0,0,0,0,0,0,0,0,0,0,0,0,0,0,0,0,0,0,0s0,0,0,0c0,0,0,0,0,0,0,0,0,0,0,0,0,0,0,0,0,0,0,0,0,0,0,0,0,0,0,0,0,0,0,0,0,0,0,0,0,0,0,0,0,0,0,0,0,0,0,0,0,0,0,0,0,0,0,0,0,0,0,0,0,0,0,0,0,0,0,.2,0,.3,0,.4,0,0,.2-.1.3-.3,0,.2,0,.5,0,.5,0,0,.2-.2.4-.4,2.2-.5,4.1,1,4.3,3.1,0-.3-.4-.5-.6-.5,0,.2-.2.5-.5.7,0-.2,0-.4,0-.6,0,.3-.2.5-.4.8-.3,0-.6-.1-.7-.3,0,0,0,0,0,0,0,0,0,0,0,0,0,0,0,0,0,0,0,0,0,0,0,0h0c0,0,0,0,0-.1,0,0,0,0,0,0,0,0,0,0,0,0,0-.1,0-.3,0-.3,0,0,0,0,0,0,0,0,0,0,0,0,0,0,0,0,0,0,0,0,0,0,0,0,0,0,0,0,0,0,0,0,0,0,0,0s0,0,0,0c0,0,0,0,0,0,0,0,0,0,0,0,0,0,0,0,0,0,0,0,0,0,0,0,0,0,0,0,0,0-.7.5-.3,1.6.2,1.9-.2,0-.4,0-.4.1,0,0,0,0,0,0,.1,0,.3.1.4.2.2,0,.4.1.5.1h0c.3,0,.5,0,.8,0,1.3,0,2.5-1.1,2.7-2.5,0,0,0,0,0,0,0,0,0,.1,0,.2h0s0,0,0,0h0s0,0,0,0c0,0,0,0,0,.1h0c0,0,0,0,0,0s0,0,0,0h0c0,0,0,0,0,.1s0,0,0,0c0,0,0,0,0,0,0,0,0,0,0,0,0,0,0,0,0,0,0,0,0,0,0,0,0,0,0,0,0,0h0s0,0,0,0h0s0,0,0,0c0,0,0,0,0,0,0,0,0,0,0,0h0s0,0,0,0c0,0,0,0,0,0,0,0,0,0,0,0,0,0,0,0,0,0,0,0,0,0,0,0,0,0,0,0,0,0h0s0,0,0,0c0,0,0,0,0,0,0,0,0,0,0,0-.2.4-.5.8-.9,1,0,0,0,0,0,0,0,0,0,0,0,0,0,0,0,0,0,0h0s0,0,0,0c0,0,0,0,.1,0h0c0,0,.2,0,.2,0,0,0,0,0,0,0,0,0,0,0,0,0,0,0,0,0,0,0,0,0,0,0,0,0,.3,0,.6-.2.9-.3-.4.6-.9,1-1.5,1.4-.1,0-.2.1-.4.2.1,0,.3,0,.4,0,.2,0,.4,0,.7-.1,1.2-.4,2.3-1.2,2.9-2.3-.1.7-.4,1.4-.8,2,.3-.2.6-.4.8-.7.7-.7,1.1-1.6,1.3-2.6.1.5.1,1,0,1.5,2.2-3.1.2-6.3-.7-7.1Z"/>
    </g>
  </g>
</svg>